<svg xmlns="http://www.w3.org/2000/svg" width="24" height="24" viewBox="0 0 24 24">
<path d="M19.5 9.5h-2V7H15V5h2.5V2.5h2V5H22v2h-2.5v2.5zm-12 .5c0-1.098.902-2 2-2 1.098 0 2 .902 2 2 0 1.098-.902 2-2 2-1.098 0-2-.902-2-2zm2-4c-2.203 0-4 1.797-4 4 0 2.203 1.797 4 4 4 2.203 0 4-1.797 4-4 0-2.203-1.797-4-4-4zM4 20.2c0-.447.295-1.053 1.23-1.598.925-.54 2.364-.935 4.27-.935 1.906 0 3.345.395 4.27.935.935.545 1.23 1.151 1.23 1.599V21h2v-.8c0-1.407-.924-2.568-2.222-3.326-1.31-.764-3.121-1.207-5.278-1.207-2.157 0-3.968.443-5.278 1.207C2.924 17.632 2 18.793 2 20.201V21h2v-.8z" />
</svg>