<svg xmlns="http://www.w3.org/2000/svg" width="24" height="24" viewBox="0 0 24 24">
    <path
        d="M2 4.556C2 3.144 3.144 2 4.556 2h3.888C9.856 2 11 3.144 11 4.556v3.888C11 9.856 9.856 11 8.444 11H4.556C3.144 11 2 9.856 2 8.444V4.556zm0 11C2 14.144 3.144 13 4.556 13h3.888C9.856 13 11 14.144 11 15.556v3.888C11 20.856 9.856 22 8.444 22H4.556C3.144 22 2 20.856 2 19.444v-3.888zM15.556 2C14.144 2 13 3.144 13 4.556v3.888C13 9.856 14.144 11 15.556 11h3.888C20.856 11 22 9.856 22 8.444V4.556C22 3.144 20.856 2 19.444 2h-3.888zm.944 14.5V13h2v3.5H22v2h-3.5V22h-2v-3.5H13v-2h3.5z" />
</svg>