<svg width="24" height="24" viewBox="0 0 24 24" xmlns="http://www.w3.org/2000/svg">
<path d="M15.2 8V4.11752L18.2 4V2H14.2C13.6477 2 13.2 2.44772 13.2 3V9.0571C13.2 9.58657 13.6127 10.0243 14.1413 10.0554L20.6413 10.4377C21.2157 10.4715 21.7 10.0148 21.7 9.43945V3.5H19.7V8.5L15.2 8Z" />
<path d="M3.25872 2.06228C2.68434 2.02849 2.2 2.48518 2.2 3.06055V9.5C2.2 10.0523 2.64771 10.5 3.2 10.5H9.7C10.2523 10.5 10.7 10.0523 10.7 9.5V3.4429C10.7 2.91343 10.2873 2.47572 9.75872 2.44463L3.25872 2.06228ZM8.7 4.5V8.5H4.2V4L8.7 4.5Z" />
<path d="M9.64127 13.0623C10.2157 13.0285 10.7 13.4852 10.7 14.0606V20.5C10.7 21.0523 10.2523 21.5 9.7 21.5H3.2C2.64771 21.5 2.2 21.0523 2.2 20.5V14.4429C2.2 13.9134 2.61271 13.4757 3.14128 13.4446L9.64127 13.0623ZM4.2 15.5V19.5H8.7V15L4.2 15.5Z" />
<path d="M16.3978 15.8418L16.2 12.6161L18.1966 12.5L18.3934 15.7091L21.5374 15.5L21.6576 17.4964L18.5158 17.7053L18.7591 21.675L16.7625 21.7911L16.5201 17.8381L13.2 18.0589L13.0798 16.0625L16.3978 15.8418Z" />
</svg>
    