<svg width="24" height="24" viewBox="0 0 24 24" xmlns="http://www.w3.org/2000/svg">
    <path
        d="M7.85538 12.1951L7.31512 14.1261L2.73296 12.8354C2.33278 12.7154 2.04264 12.3652 2.00262 11.945C1.9726 11.5248 2.20271 11.1346 2.5929 10.9545L6.34466 9.26366L8.08548 2.7407C8.20554 2.30049 8.60573 1.99023 9.06595 2.00024C9.52616 2.00024 9.91634 2.31039 10.0264 2.7606L11.6171 9.22373L15.4489 10.9645C15.7891 11.1246 16.0092 11.4548 16.0292 11.8249C16.0492 12.1951 15.8591 12.5453 15.539 12.7354L11.6071 15.0865L9.91634 21.2693C9.79629 21.7095 9.3861 22.0098 8.92588 21.9998C8.46566 21.9898 8.07548 21.6696 7.97543 21.2194L6.59478 15.1564L8.5457 14.7163L9.03593 16.8774L9.77628 14.166C9.84631 13.9159 10.0064 13.7058 10.2265 13.5757L12.8577 11.995L10.3165 10.8345C10.0364 10.7144 9.8363 10.4643 9.75626 10.1641L8.9759 7.0126L8.11549 10.2342C8.03546 10.5243 7.83537 10.7644 7.56524 10.8944L5.88445 11.6548L7.81536 12.1951H7.85538Z" />
    <path
        d="M16.2184 5.62479L16.0263 6.31133L14.3972 5.85245C14.2549 5.80976 14.1518 5.68526 14.1375 5.53586C14.1269 5.38646 14.2087 5.24774 14.3474 5.18371L15.6813 4.58254L16.3002 2.26335C16.3429 2.10684 16.4852 1.99653 16.6488 2.00008C16.8125 2.00008 16.9512 2.11036 16.9903 2.27043L17.5559 4.56834L18.9183 5.18727C19.0392 5.24419 19.1175 5.36157 19.1246 5.49318C19.1317 5.62479 19.0641 5.7493 18.9503 5.81689L17.5523 6.6528L16.9512 8.85106C16.9085 9.00757 16.7627 9.11432 16.599 9.11076C16.4354 9.10721 16.2967 8.99337 16.2611 8.8333L15.7702 6.67768L16.4639 6.52119L16.6382 7.28953L16.9014 6.32553C16.9263 6.2366 16.9832 6.16191 17.0615 6.11567L17.997 5.55367L17.0935 5.14103C16.9939 5.09834 16.9227 5.0094 16.8943 4.90269L16.6168 3.78219L16.3109 4.92761C16.2825 5.03077 16.2113 5.11611 16.1153 5.16235L15.5177 5.43269L16.2042 5.62479H16.2184Z" />
    <path
        d="M18.8898 15.22L19.0818 14.5335H19.0676L18.3811 14.3414L18.9787 14.071C19.0747 14.0248 19.1459 13.9394 19.1743 13.8363L19.4802 12.6909L19.7577 13.8113C19.7861 13.9181 19.8573 14.007 19.9569 14.0497L20.8604 14.4623L19.9249 15.0243C19.8466 15.0706 19.7897 15.1453 19.7648 15.2342L19.5016 16.1982L19.3273 15.4298L18.6336 15.5863L19.1245 17.742C19.1601 17.902 19.2988 18.0159 19.4624 18.0194C19.6261 18.023 19.7719 17.9162 19.8146 17.7597L20.4157 15.5615L21.8137 14.7255C21.9275 14.658 21.9951 14.5335 21.988 14.4018C21.9809 14.2702 21.9026 14.1528 21.7817 14.0959L20.4193 13.477L19.8537 11.1791C19.8146 11.019 19.6759 10.9087 19.5122 10.9087C19.3486 10.9052 19.2063 11.0155 19.1636 11.172L18.5447 13.4912L17.2108 14.0924C17.0721 14.1564 16.9903 14.2951 17.0009 14.4445C17.0152 14.5939 17.1183 14.7184 17.2606 14.7611L18.8898 15.22Z" />
</svg>