<svg width="24" height="24" viewBox="0 0 24 24" xmlns="http://www.w3.org/2000/svg">
<path d="M10.9778 8.62554L12.9478 8.91558L12.3478 12.9955L15.1378 12.3056L15.6178 14.2355L11.3878 15.2856C11.0678 15.3656 10.7278 15.2856 10.4778 15.0556C10.2278 14.8356 10.1178 14.5056 10.1578 14.1756L10.9778 8.61553V8.62554ZM16.6678 5.47552C17.8378 6.20552 18.7578 7.28559 19.3878 8.67559C19.5878 8.33559 19.7778 7.95559 19.8978 7.55559C20.1078 6.86559 20.1078 6.10555 19.4078 5.51555C18.7978 4.99555 18.0678 5.0255 17.4178 5.2055C17.1578 5.2755 16.9078 5.36552 16.6778 5.47552H16.6678ZM7.11783 5.5855C7.11783 5.5855 7.02783 5.53555 6.97783 5.51555C6.31783 5.19555 5.46783 4.97554 4.71783 5.62554C3.78783 6.41554 3.92783 7.41551 4.24783 8.21551C4.27783 8.29551 4.30782 8.3656 4.34782 8.4356C4.99782 7.2456 5.94782 6.2855 7.12782 5.5855H7.11783ZM3.48782 10.8455C3.17782 10.4355 2.71783 9.7555 2.39783 8.9555C1.79783 7.4555 1.68783 5.59553 3.42783 4.11553C4.62783 3.09553 5.94782 3.06559 7.09782 3.42559C8.02782 3.71559 8.83784 4.28559 9.32784 4.67559C9.78784 4.55559 10.2778 4.45556 10.7778 4.39556L10.6878 3.02556C11.4678 2.97556 13.1178 2.99553 13.8778 3.11553L13.6778 4.41558C13.9078 4.44558 14.1278 4.48557 14.3378 4.53557C14.8678 4.16557 15.8178 3.57557 16.8978 3.28557C18.1478 2.94557 19.5378 3.00554 20.7078 4.00554C22.1378 5.22554 22.2378 6.75557 21.8078 8.15557C21.2578 9.93557 19.7578 11.4755 19.7578 11.4755C19.5078 11.7355 19.1278 11.8355 18.7778 11.7355C18.4278 11.6355 18.1578 11.3555 18.0778 11.0055C17.3378 7.89555 15.1978 6.26548 12.0478 6.31548C8.12784 6.37548 5.34783 8.75551 5.31783 12.5955C5.27783 16.8955 8.56783 19.0056 11.4678 19.0556C16.0378 19.1356 18.0878 15.6955 18.3178 13.2055L20.2978 13.3855C20.1478 15.0955 19.3378 17.1555 17.7478 18.7055C18.2078 19.3155 18.7178 20.0455 18.9578 20.4855L17.2078 21.4356C16.9978 21.0556 16.5678 20.4356 16.1678 19.9056C14.9078 20.6356 13.3478 21.0756 11.4378 21.0456C10.2078 21.0256 8.92783 20.7256 7.75783 20.1456C7.34783 20.6856 6.87783 21.3455 6.66783 21.7455L4.91783 20.7956C5.15783 20.3656 5.63782 19.6556 6.09782 19.0556C4.45782 17.6556 3.30784 15.5055 3.32784 12.5855C3.32784 11.9855 3.38782 11.4155 3.48782 10.8655V10.8455Z" />
</svg>
