<svg width="24" height="24" viewBox="0 0 24 24" xmlns="http://www.w3.org/2000/svg">
<path d="M3.59329 15.1408C4.87144 12.3928 7.15198 8.21794 11.1791 2.42896L12.8209 3.57108C8.84803 9.2821 6.62858 13.3573 5.40673 15.9843C4.89435 17.0859 4.55773 17.9321 4.34088 18.5369L19.5669 18.9598C19.3878 18.4955 19.1472 17.8953 18.8284 17.1381C17.8389 14.788 16.0986 10.9332 13.1056 4.94723L14.8944 4.05281C17.9014 10.0668 19.6612 13.9621 20.6716 16.362C21.177 17.5622 21.4958 18.3903 21.6898 18.9239C21.7869 19.1908 21.8529 19.3845 21.8955 19.5146C21.9117 19.5638 21.9619 19.7266 21.9615 19.7253C22.0491 20.0317 21.9853 20.3615 21.7899 20.6132C21.5945 20.865 21.2908 21.0085 20.9722 20.9996L2.97224 20.4996C2.67762 20.4914 2.40161 20.3537 2.21794 20.1232C2.03426 19.8927 1.96162 19.5929 2.01943 19.3039C2.04183 19.2027 2.06615 19.1022 2.09316 19.0021C2.14168 18.8223 2.21802 18.5624 2.33372 18.2194C2.56511 17.5335 2.95408 16.5151 3.59329 15.1408ZM11.51 7.85873C11.51 7.85866 11.5101 7.8586 12.5 8.00002L13.49 8.14138L13.4887 8.14998L13.4848 8.17813L13.4694 8.28998C13.4561 8.38813 13.4369 8.53192 13.4138 8.71259C13.3677 9.07412 13.3061 9.58226 13.2445 10.1672C13.1205 11.3451 13 12.8035 13 14H11C11 12.6966 11.1295 11.1549 11.2555 9.95783C11.3189 9.35527 11.3823 8.83217 11.4299 8.45932C11.4537 8.2728 11.4736 8.12362 11.4876 8.02061L11.504 7.90174L11.5084 7.87029L11.51 7.85873ZM13 16.0001C13 15.4445 12.5557 15 12.0001 15C11.4446 15 11 15.4445 11 16.0001C11 16.5557 11.4446 17 12.0001 17C12.5557 17 13 16.5557 13 16.0001Z" />
</svg>
