<svg width="24" height="24" viewBox="0 0 24 24" xmlns="http://www.w3.org/2000/svg">
<path d="M5.98057 8.78L10.0806 11.89L8.87057 13.48L2.40057 8.58C2.16057 8.4 2.02058 8.11999 2.00058 7.81999C1.99058 7.51999 2.11057 7.22999 2.33057 7.03999L7.99057 2L9.32057 3.5L5.63057 6.78H15.2306V8.78H5.97058H5.98057ZM18.3606 17.22H8.76057V15.22H18.0206L13.9206 12.12L15.1306 10.52L21.6006 15.43C21.8406 15.61 21.9806 15.89 21.9906 16.18C22.0006 16.48 21.8806 16.77 21.6606 16.97L16.0106 22L14.6806 20.51L18.3706 17.22H18.3606Z" />
</svg>
