<svg width="24" height="24" viewBox="0 0 24 24" xmlns="http://www.w3.org/2000/svg">
<path d="M11.858 2.23331C12.2228 1.92779 12.7524 1.9217 13.1242 2.21874L22.8242 9.96868L21.5757 11.5312L12.5149 4.29186L2.84196 12.3917L1.55794 10.8583L11.858 2.23331ZM12.5413 7.50044C12.8398 7.4904 13.1272 7.6143 13.3248 7.83826L17.0748 12.0883L15.5751 13.4115L13.575 11.1447V17.7499H11.575V11.44L9.61758 13.9846L8.03232 12.7652L11.7823 7.89017C11.9644 7.65344 12.2428 7.51049 12.5413 7.50044ZM19.9485 12.5724L20.3236 19.6975C20.3526 20.2476 19.9312 20.7175 19.3812 20.7485L6.05619 21.4984C5.78166 21.5139 5.51287 21.4156 5.31305 21.2267C5.11322 21.0378 5 20.775 5 20.5V13.5H7V19.4421L18.274 18.8076L17.9513 12.6775L19.9485 12.5724Z" />
</svg>
