<svg width="24" height="24" viewBox="0 0 24 24" xmlns="http://www.w3.org/2000/svg">
<path d="M4.3 12.5625C4.3 9.48255 5.48963 7.39099 7.24249 6.04262C9.03154 4.66641 11.4964 4 14.0999 4V2C11.1909 2 8.25584 2.73984 6.02306 4.45738C3.75409 6.20276 2.3 8.89245 2.3 12.5625C2.3 18.4953 7.34559 22 11.625 22C14.8189 22 17.3305 21.0014 19.0508 19.3614C20.7679 17.7246 21.6249 15.5156 21.6249 13.2376C21.6249 10.5469 20.6108 8.36392 18.7631 6.87592C16.9436 5.4106 14.4184 4.70003 11.5125 4.70003V6.70003C14.119 6.70003 16.1501 7.3395 17.5086 8.43359C18.839 9.50501 19.6249 11.0908 19.6249 13.2376C19.6249 15.0097 18.9631 16.6819 17.6709 17.9137C16.3819 19.1425 14.3935 20 11.625 20C8.2544 20 4.3 17.2047 4.3 12.5625ZM12.92 13.89L14.43 11.9L16.02 13.1L12.71 17.47C12.53 17.7 12.25 17.85 11.95 17.86C11.65 17.87 11.36 17.75 11.16 17.53L7.77 13.71L9.25999 12.38C9.25999 12.38 10.17 13.4 10.91 14.23V8.60999H12.91V13.89H12.92Z" />
</svg>
