<svg width="24" height="24" viewBox="0 0 24 24" xmlns="http://www.w3.org/2000/svg">
<path d="M13.7928 2.70713C15.5273 4.44155 17.1403 6.17852 18.3209 7.48343C18.475 7.65373 18.6217 7.8166 18.7602 7.97106C17.6182 7.95323 16.3694 7.94234 15.1204 7.99303C12.96 8.0807 10.6563 8.35294 8.58516 9.1256C6.49702 9.9046 4.61382 11.2055 3.37506 13.3517C2.14282 15.4866 1.61611 18.3405 2.00532 22.1029L3.9947 21.8971C3.63392 18.4095 4.14794 16.0135 5.10723 14.3515C6.06001 12.7008 7.51914 11.6579 9.28423 10.9994C11.0664 10.3346 13.1267 10.0756 15.2015 9.99138C16.4527 9.9406 17.6581 9.95353 18.7956 9.9722C18.5909 10.1995 18.3696 10.4443 18.135 10.7024C16.8891 12.0729 15.2764 13.8094 13.7929 15.2929L15.2071 16.7071C16.7236 15.1906 18.3609 13.4271 19.6149 12.0477C20.2429 11.3569 20.7767 10.7603 21.1536 10.3363C21.3421 10.1242 21.4915 9.95515 21.5939 9.83895L21.7114 9.70547L21.7525 9.6586C22.0798 9.2845 22.0826 8.72656 21.7591 8.34914L21.7496 8.3381L21.7229 8.30707L21.6199 8.18787C21.5298 8.08387 21.3976 7.93193 21.2281 7.73887C20.8894 7.35281 20.4016 6.80212 19.804 6.14161C18.6096 4.82152 16.9727 3.05849 15.207 1.29291L13.7928 2.70713Z" />
</svg>
