<svg width="24" height="24" viewBox="0 0 24 24" xmlns="http://www.w3.org/2000/svg">
<path d="M4.29999 12.5625C4.29999 9.48255 5.48961 7.39099 7.24248 6.04262C9.03152 4.66641 11.4964 4 14.0999 4V2C11.1909 2 8.25583 2.73984 6.02304 4.45738C3.75408 6.20276 2.29999 8.89245 2.29999 12.5625C2.29999 18.4953 7.34557 22 11.6249 22C14.8189 22 17.3304 21.0014 19.0508 19.3614C20.7679 17.7246 21.6249 15.5156 21.6249 13.2376C21.6249 10.5469 20.6108 8.36392 18.7631 6.87592C16.9435 5.4106 14.4184 4.70003 11.5125 4.70003V6.70003C14.119 6.70003 16.1501 7.3395 17.5086 8.43359C18.839 9.50501 19.6249 11.0908 19.6249 13.2376C19.6249 15.0097 18.9631 16.6819 17.6708 17.9137C16.3819 19.1425 14.3935 20 11.6249 20C8.25439 20 4.29999 17.2047 4.29999 12.5625ZM11.2403 11.8497L13.2303 10.3397L12.0303 8.74971L7.66028 12.0597C7.43028 12.2397 7.28028 12.5197 7.27028 12.8197C7.26028 13.1197 7.38028 13.4097 7.60028 13.6097L11.4203 16.9997L12.7503 15.5097C12.7503 15.5097 11.7303 14.5997 10.9003 13.8597H16.5203V11.8597H11.2403V11.8497Z" />
</svg>
