<svg width="24" height="24" viewBox="0 0 24 24" xmlns="http://www.w3.org/2000/svg">
<path d="M15.22 5.97058L12.11 10.0706L10.52 8.86058L15.42 2.39058C15.6 2.15058 15.88 2.01058 16.18 2.00058C16.48 1.99058 16.77 2.11058 16.97 2.33058L22 7.99058L20.51 9.32059L17.22 5.63058V15.2306H15.22V5.97058ZM8.78 18.0106L11.89 13.9206L13.48 15.1306L8.58 21.5906C8.4 21.8306 8.12001 21.9806 7.82001 21.9906C7.52001 22.0006 7.23 21.8806 7.03 21.6506L2 16.0006L3.49001 14.6706L6.78 18.3606V8.76059H8.78V18.0106Z" />
</svg>
