<svg xmlns="http://www.w3.org/2000/svg" width="24" height="24" viewBox="0 0 24 24">
    <path
        d="M5.75 6.397c0-2.545 2.033-4.647 4.586-4.647 2.555 0 4.586 2.102 4.586 4.647v9.411c0 1.603-1.282 2.942-2.91 2.942-1.63 0-2.912-1.339-2.912-2.942v-9.25h2.5v9.25c0 .265.205.442.412.442.204 0 .41-.176.41-.442V6.397c0-1.207-.954-2.147-2.086-2.147-1.13 0-2.086.94-2.086 2.147v9.37c0 2.189 1.743 3.983 3.75 3.983 2.007 0 3.75-1.794 3.75-3.983V8.265h2.5v7.502c0 3.436-2.733 6.483-6.25 6.483s-6.25-3.047-6.25-6.483v-9.37z" />
</svg>