<svg xmlns="http://www.w3.org/2000/svg" width="24" height="24" viewBox="0 0 24 24">
    <path
        d="M8 8c0-2.199 1.801-4 4-4s4 1.801 4 4-1.801 4-4 4-4-1.801-4-4zm4-6C8.697 2 6 4.697 6 8s2.697 6 6 6 6-2.697 6-6-2.697-6-6-6zM4 20.894c0-.805.529-1.75 1.894-2.547C7.25 17.557 9.312 17 12 17c2.688 0 4.751.557 6.106 1.347C19.47 19.143 20 20.089 20 20.894V22h2v-1.106c0-1.765-1.158-3.266-2.886-4.275C17.374 15.605 14.938 15 12 15c-2.938 0-5.375.605-7.114 1.62C3.158 17.627 2 19.127 2 20.893V22h2v-1.106z" />
</svg>