<svg width="24" height="24" viewBox="0 0 24 24" xmlns="http://www.w3.org/2000/svg">
<path d="M13.3187 10.3562L13.31 10.3501L13.33 10.3401L13.3187 10.3562ZM14.95 11.5L13.3187 10.3562L12.48 11.5601L11.49 10C11.23 9.6 10.73 9.4301 10.29 9.6001L9.44999 9.92017L9.83999 9.07007C9.96999 8.79007 9.95999 8.46018 9.80999 8.18018L9.05 6.78003L10.74 7.05005C11.17 7.12005 11.59 6.90001 11.79 6.51001L12.42 5.25L12.85 6.12012C13.04 6.51012 13.45 6.73018 13.87 6.68018L15.49 6.48999L14.42 7.93018C14.18 8.27018 14.16 8.72007 14.39 9.07007L16.64 12.52L18.31 11.4302L16.44 8.56006L18.47 5.82007C18.71 5.50007 18.73 5.06997 18.53 4.71997C18.33 4.37997 17.95 4.17998 17.55 4.22998L14.34 4.61011L13.34 2.56006C13.18 2.22006 12.83 2 12.45 2C12.07 2 11.72 2.21005 11.55 2.55005L10.34 4.95996L7.36999 4.47998C6.98999 4.41998 6.60999 4.58014 6.38999 4.89014C6.16999 5.21014 6.15 5.60995 6.33 5.94995L7.81999 8.70996L6.63 11.3101C6.46 11.6801 6.52999 12.1102 6.80999 12.4102C7.07999 12.7002 7.50999 12.8002 7.88999 12.6602L10.23 11.78L11.58 13.9202C11.76 14.2002 12.06 14.3801 12.4 14.3801C12.73 14.3801 13.05 14.22 13.24 13.95L14.95 11.5ZM6 18.0101L7.92999 18.5302H7.94L8.47 16.5502L12.14 17.6403C12.32 17.6903 12.52 17.6903 12.7 17.6403L16.27 16.6002L16.54 19.7601L12.58 19.0902C12.47 19.0702 12.36 19.0702 12.25 19.0902L6.96001 19.9701L7.28999 21.9401L12.41 21.0802L17.48 21.9401C17.79 21.9901 18.1 21.9001 18.33 21.6901C18.56 21.4801 18.68 21.1803 18.65 20.8703L18.16 15.2101C18.13 14.9101 17.98 14.6401 17.73 14.4701C17.48 14.3001 17.17 14.2502 16.88 14.3302L12.42 15.6303L8.03999 14.3302C7.77999 14.2602 7.51 14.2903 7.27 14.4203C7.03 14.5603 6.85999 14.7802 6.78999 15.0402L6 18.0101Z" />
</svg>
