<svg width="24" height="24" viewBox="0 0 24 24" xmlns="http://www.w3.org/2000/svg">
<path d="M7.5227 14.1411L9.1227 12.941L10.8627 15.2711L15.5027 11.221L16.8227 12.721L11.3727 17.4911C11.1627 17.6711 10.8827 17.7611 10.6127 17.7311C10.3327 17.7011 10.0827 17.561 9.9127 17.341L7.5227 14.1411ZM9.6827 6.92112C11.3127 6.90112 13.0327 6.88106 14.8627 6.86106C14.6927 5.43106 14.0127 3.97108 12.3027 4.00108C11.4827 4.02108 10.8827 4.23108 10.4827 4.63108C9.9527 5.17108 9.7427 5.98112 9.6827 6.92112ZM16.8727 6.83103C18.0527 6.81103 19.2827 6.8011 20.5627 6.7711C20.8327 6.7711 21.0927 6.87101 21.2827 7.06101C21.4727 7.25101 21.5827 7.51111 21.5827 7.78111L21.5427 17.0011H19.5427L19.5827 8.79111C13.8727 8.88111 9.1627 8.92108 5.0627 9.00108C4.9127 12.3511 5.0027 16.0411 5.2027 19.9211L20.5127 19.2511L20.6027 21.2511L4.30271 21.971C3.75271 21.991 3.2927 21.5711 3.2627 21.0211C3.0127 16.3411 2.8927 11.891 3.1227 7.96104C3.1527 7.45104 3.5727 7.0411 4.1027 7.0211C5.2527 7.0011 6.4527 6.97103 7.7027 6.95103C7.8027 5.39103 8.22271 4.10106 9.08271 3.23106C9.80271 2.50106 10.8227 2.04108 12.2827 2.00108C15.2527 1.94108 16.6427 4.40103 16.8927 6.83103H16.8727Z" />
</svg>
