<svg width="24" height="24" viewBox="0 0 24 24" xmlns="http://www.w3.org/2000/svg">
<path d="M11.8327 15.6011L9.2327 15.7311L9.1327 13.7411L11.7427 13.6011L11.6327 11.201L13.6327 11.1111L13.7427 13.4911L16.0327 13.3711L16.1327 15.3711L13.8327 15.4911L13.9227 17.541L11.9227 17.6311L11.8327 15.6011ZM9.69271 6.93101C11.3227 6.90101 13.0427 6.88106 14.8827 6.86106C14.7127 5.43106 14.0327 3.97108 12.3227 4.00108C11.5027 4.02108 10.9027 4.23108 10.5027 4.63108C9.9727 5.17108 9.7627 5.98101 9.7027 6.93101H9.69271ZM16.8827 6.83103C18.0627 6.81103 19.2927 6.8011 20.5727 6.7711C20.8427 6.7711 21.1027 6.87101 21.2927 7.06101C21.4827 7.25101 21.5927 7.51098 21.5927 7.78098L21.5527 17.0011H19.5527L19.5927 8.79099C13.8827 8.88099 9.1727 8.92108 5.0727 9.00108C4.9227 12.3511 5.0127 16.041 5.2127 19.921L20.5227 19.2511L20.6127 21.2511L4.3027 21.971C3.7527 21.991 3.29271 21.5711 3.26271 21.0211C3.01271 16.3411 2.8927 11.891 3.1227 7.96104C3.1527 7.45104 3.5727 7.0411 4.0927 7.0211C5.2427 7.0011 6.44271 6.97103 7.69271 6.95103C7.79271 5.39103 8.2127 4.10106 9.0727 3.23106C9.7927 2.50106 10.8127 2.04108 12.2827 2.00108C15.2527 1.94108 16.6427 4.40103 16.8927 6.83103H16.8827Z" />
</svg>
