<svg width="24" height="24" viewBox="0 0 24 24" xmlns="http://www.w3.org/2000/svg">
<path d="M9.68008 6.86107C11.2801 6.84107 12.9701 6.82101 14.7701 6.79101C14.6001 5.39101 13.9301 3.97109 12.2601 4.00109C11.4501 4.02109 10.8701 4.22108 10.4701 4.62108C9.95008 5.15108 9.75008 5.93107 9.68008 6.86107ZM16.7701 6.77111C17.9301 6.75111 19.1401 6.73105 20.4001 6.71105C20.6701 6.70105 20.9301 6.81109 21.1201 7.00109C21.3101 7.19109 21.4201 7.44105 21.4201 7.71105L21.3801 16.811H19.3801L19.4201 8.73107C13.7901 8.82107 9.16008 8.85102 5.12008 8.93102C4.96008 12.261 4.95008 16.071 5.12008 19.921L20.2101 19.2611L20.3001 21.2611L4.22008 21.9711C3.67008 21.9911 3.21008 21.5711 3.18008 21.0211C2.93008 16.4011 2.95008 11.7711 3.18008 7.90111C3.21008 7.38111 3.63008 6.97105 4.15008 6.96105C5.28008 6.93105 6.46008 6.9111 7.69008 6.8911C7.80008 5.3511 8.21008 4.07106 9.05008 3.22106C9.76008 2.50106 10.7701 2.04109 12.2201 2.00109C15.1601 1.94109 16.5301 4.37111 16.7801 6.77111H16.7701Z" />
</svg>
