<svg width="24" height="24" viewBox="0 0 24 24" xmlns="http://www.w3.org/2000/svg">
<path d="M6.89999 9.08984C5.39999 9.34984 4.00999 10.2098 4.00999 11.8298C4.00999 12.6798 4.24 13.3799 4.67 13.9099C5.17 14.5199 5.92 14.8998 6.81 15.0798L6.89999 9.08984ZM17.8 15.01C19.01 14.73 20.01 14.0399 20.01 12.3599C20.01 11.4799 19.72 10.64 19.09 10.03C18.8 9.75003 18.45 9.51985 18.03 9.34985L17.79 15L17.8 15.01ZM16.05 9C16.05 9 16.03 9 16.02 9C14.01 9 11.15 9 8.89999 9L8.78999 16.21C8.78999 16.48 8.67 16.7399 8.48 16.9199C8.28 17.0999 8.02 17.1999 7.75 17.1899C5.76 17.1099 4.12 16.3999 3.11 15.1699C2.42 14.3199 2 13.2098 2 11.8298C2 8.67983 5.02999 7 7.89999 7C10.24 7 13.69 7 16.01 7C18.03 7 19.5 7.64985 20.48 8.59985C21.5 9.58985 22 10.9299 22 12.3599C22 16.4799 18.4 17.2 15.5 17.2H11.99V15.2H15.5C15.59 15.2 15.68 15.2 15.77 15.2L16.03 9.01001L16.05 9Z" />
</svg>
