<svg width="24" height="24" viewBox="0 0 24 24" xmlns="http://www.w3.org/2000/svg">
<path d="M2.539 6.74691L11.459 2.11691C11.769 1.94691 12.139 1.96693 12.439 2.14693L20.759 7.25692C21.149 7.50692 21.329 7.98696 21.189 8.42696C21.049 8.86696 20.619 9.1469 20.159 9.1069C20.159 9.1069 14.339 8.63692 2.999 8.63692C2.539 8.63692 2.139 8.31691 2.029 7.86691C1.919 7.42691 2.129 6.95691 2.539 6.74691ZM4.87901 10.1069H6.87901V18.7869H4.87901V10.1069ZM15.669 10.0969L17.669 10.1169L17.559 18.807L15.559 18.7769L15.669 10.0969ZM2.34899 21.9769V19.9769L20.119 19.9869V21.9869L2.34899 21.9769ZM10.439 10.0669L12.439 10.1469L12.119 18.8269L10.119 18.7569L10.439 10.0669Z" />
</svg>
