<svg width="24" height="24" viewBox="0 0 24 24" xmlns="http://www.w3.org/2000/svg">
<path d="M6.46069 13.3026L6.5907 9.81258L11.4807 9.99251L11.3507 13.4825L6.46069 13.3026ZM20.2107 15.3326L20.2507 16.9326L18.2907 16.9825L18.0307 7.01253C13.9107 7.21253 9.21069 7.21256 3.99069 7.04256C4.06069 10.0326 4.06069 13.1625 3.99069 16.3925L16.7007 16.5125L16.6807 18.4725L2.97069 18.3525C2.71069 18.3525 2.46069 18.2426 2.27069 18.0526C2.09069 17.8626 1.99068 17.6025 2.00068 17.3425C2.10068 13.4025 2.11068 9.62257 2.00068 6.05257C2.00068 5.78257 2.10069 5.51259 2.29069 5.32259C2.48069 5.13259 2.75069 5.03256 3.02069 5.04256C9.03069 5.26256 14.3707 5.26252 18.9407 5.00252C19.2007 4.98252 19.4607 5.08253 19.6607 5.26253C19.8607 5.44253 19.9707 5.6926 19.9807 5.9526L20.0407 8.49251H22.0007V15.3326H20.2207H20.2107Z" />
</svg>
