<svg width="24" height="24" viewBox="0 0 24 24" xmlns="http://www.w3.org/2000/svg">
<path d="M11.4454 15.75L18.5754 15.62L18.4754 7.33997C16.6254 7.36997 14.2754 7.33994 12.0554 7.30994L11.1954 9.76001L14.7754 9.51001C15.1854 9.48001 15.5654 9.70995 15.7454 10.0699C15.9254 10.4399 15.8554 10.8799 15.5854 11.1799L11.4454 15.75ZM9.59538 17.7799L7.07538 20.5599C6.76538 20.8999 6.26538 20.98 5.85538 20.76C5.45538 20.54 5.24539 20.08 5.36539 19.63L6.56538 15.0199L3.13538 15.5199C2.75538 15.5699 2.37537 15.4 2.16537 15.08C1.95537 14.76 1.94538 14.3499 2.13538 14.0199L8.62538 3.13L10.3454 4.15991L7.62538 8.70996L4.92538 13.24L7.77537 12.83C8.10537 12.78 8.43537 12.8999 8.66537 13.1499C8.88537 13.3999 8.97538 13.7499 8.88538 14.0699L8.33539 16.2L12.4454 11.6799L9.82538 11.85C9.76538 11.86 9.70539 11.86 9.64539 11.85C9.37539 11.82 9.12538 11.68 8.95538 11.46C8.75538 11.19 8.69537 10.8399 8.80537 10.5199L11.4554 3L13.3454 3.65991L12.7654 5.31995C15.1854 5.35995 17.6754 5.36995 19.4454 5.31995C19.7154 5.30995 19.9754 5.40998 20.1654 5.59998C20.3554 5.77998 20.4654 6.03994 20.4754 6.30994L20.4954 8.23999H21.9754L22.0054 13.99H20.5754L20.6054 16.59C20.6054 17.14 20.1754 17.59 19.6254 17.6L9.61539 17.7799H9.59538Z" />
</svg>
