<svg width="24" height="24" viewBox="0 0 24 24" xmlns="http://www.w3.org/2000/svg">
<path d="M20.23 15.3326L20.27 16.9326L18.31 16.9825L18.05 7.01253C13.93 7.21253 9.22999 7.21256 3.99999 7.04256C4.07999 10.0326 4.06999 13.1625 3.99999 16.3925L16.71 16.5125L16.69 18.4725L2.98 18.3525C2.72 18.3525 2.47 18.2426 2.28 18.0526C2.1 17.8626 2 17.6025 2 17.3425C2.1 13.4025 2.12 9.62257 2 6.05257C2 5.78257 2.1 5.51259 2.29 5.32259C2.48 5.13259 2.75 5.03256 3.02 5.04256C9.03 5.26256 14.37 5.26252 18.94 5.00252C19.21 4.98252 19.47 5.08253 19.66 5.26253C19.86 5.44253 19.97 5.6926 19.98 5.9526L20.05 8.49251H22.01V15.3326H20.23Z" />
</svg>
