<svg xmlns="http://www.w3.org/2000/svg" width="24" height="24" viewBox="0 0 24 24">
    <path
        d="M13.25 1v2.103c.123.019.227.037.304.052l.111.021.032.007.01.002h.004l-.211.978.211-.977.013.002C17.12 3.97 19 6.928 19 10.27v4.407l1.695 1.638c.195.188.305.448.305.719V18c0 .552-.448 1-1 1h-5c0 1.657-1.343 3-3 3s-3-1.343-3-3H4c-.552 0-1-.448-1-1v-.966c0-.271.11-.53.305-.72L5 14.678V10.27c0-3.35 1.868-6.3 5.277-7.082l.01-.002.027.122.185.85-.211-.972h.002l.003-.001.01-.002.032-.007.11-.021c.078-.015.182-.033.305-.052V1h2.5zM11 19c0 .552.448 1 1 1s1-.448 1-1h-2zm2.284-13.86l-.017-.004-.08-.015c-.07-.014-.174-.032-.3-.05C12.633 5.034 12.31 5 12 5c-.31 0-.632.034-.888.071-.125.018-.229.036-.3.05l-.08.015-.016.004C8.389 5.676 7 7.67 7 10.27v4.832c0 .27-.11.53-.305.719L5.475 17h13.05l-1.22-1.18c-.195-.188-.305-.447-.305-.718V10.27c0-2.589-1.398-4.594-3.716-5.13z" />
</svg>