<svg xmlns="http://www.w3.org/2000/svg" width="24" height="24" viewBox="0 0 24 24">
    <path
        d="M13.25 3.106V1h-2.5v2.106c-.103.016-.191.032-.258.044l-.107.021-.03.006-.01.002h-.003l-.001.001-.008.002c-3.274.75-5.083 3.581-5.083 6.838v4.513l-1.771 1.711c-.146.142-.229.337-.229.54v.966c0 .414.336.75.75.75h16c.414 0 .75-.336.75-.75v-.966c0-.203-.083-.398-.229-.54l-1.77-1.71V10.02c0-3.248-1.82-6.088-5.083-6.838l-.01-.002h-.003l-.01-.003-.03-.006-.107-.02c-.067-.013-.155-.029-.258-.045zM14.5 20c0 1.38-1.12 2.5-2.5 2.5S9.5 21.38 9.5 20h5z" />
</svg>