<svg width="24" height="24" viewBox="0 0 24 24" xmlns="http://www.w3.org/2000/svg">
<path d="M9.80196 3.9801H14.032V2H9.80196V3.9801ZM12.912 19.04C12.282 19.04 11.662 19.04 11.032 19.04C11.042 19.08 11.0619 19.11 11.0719 19.15C11.2319 19.54 11.462 20 11.982 20C12.482 20 12.692 19.61 12.832 19.27C12.862 19.19 12.892 19.12 12.912 19.04ZM15.092 7.93005C14.372 7.15005 13.392 6.71008 11.952 6.71008C9.79195 6.71008 8.75196 7.96006 8.05196 9.69006C7.50196 11.0701 7.15195 12.7301 6.74195 14.4401C6.73195 14.5001 6.71195 14.5501 6.70195 14.6101L15.092 7.93005ZM8.97196 19.03C7.40196 19.03 5.78195 19.03 3.99195 19.03C3.59195 19.03 3.23196 18.7901 3.08196 18.4301C2.92196 18.0601 3.00195 17.6401 3.27195 17.3501C4.01195 16.5801 4.57195 15.0101 4.81195 13.9801C5.36195 11.6901 5.83195 9.48009 6.73195 7.84009C7.76195 5.95009 9.30195 4.7301 11.952 4.7301C14.152 4.7301 15.612 5.43005 16.662 6.68005L20.922 3.28003L22.172 4.8501L17.7419 8.38C17.7419 8.38 17.782 8.47001 17.802 8.51001C18.452 9.89001 18.932 11.64 19.472 13.63C19.562 13.95 19.8519 14.24 20.1819 14.54C20.632 14.96 21.1819 15.3501 21.6819 15.7101L20.5219 17.3201C19.8419 16.8301 19.0919 16.2801 18.5219 15.7001C18.0419 15.2101 17.702 14.68 17.562 14.16C17.092 12.44 16.682 10.9 16.142 9.66003L6.84195 17.0701C11.012 17.0701 14.492 17.0701 19.042 17.0701V19.05C17.582 19.05 16.2319 19.05 14.9319 19.05C14.8519 19.48 14.702 20.04 14.412 20.53C13.952 21.33 13.192 21.9801 11.972 21.9801C10.752 21.9801 9.98195 21.3001 9.49195 20.4501C9.22195 19.9901 9.06195 19.47 8.96195 19.04L8.97196 19.03Z" />
</svg>
