<svg width="24" height="24" viewBox="0 0 24 24" xmlns="http://www.w3.org/2000/svg">
<path d="M9.80196 3.9801H14.032V2H9.80196V3.9801ZM12.912 19.04C12.282 19.04 11.662 19.04 11.032 19.04C11.042 19.08 11.0619 19.11 11.0719 19.15C11.2319 19.54 11.462 20 11.982 20C12.482 20 12.692 19.61 12.832 19.27C12.862 19.19 12.892 19.12 12.912 19.04ZM8.97196 19.03C7.40196 19.03 5.78195 19.03 3.99195 19.03C3.59195 19.03 3.23196 18.7901 3.08196 18.4301C2.92196 18.0601 3.00195 17.6401 3.27195 17.3501C4.01195 16.5801 4.57195 15.0101 4.81195 13.9801C5.36195 11.6901 5.83195 9.48009 6.73195 7.84009C7.76195 5.95009 9.30195 4.7301 11.952 4.7301C15.072 4.7301 16.692 6.14001 17.812 8.51001C18.462 9.89001 18.942 11.64 19.482 13.63C19.572 13.95 19.862 14.24 20.192 14.54C20.642 14.96 21.192 15.3501 21.692 15.7101L20.532 17.3201C19.852 16.8301 19.092 16.2801 18.532 15.7001C18.052 15.2101 17.7119 14.68 17.5719 14.16C17.0619 12.3 16.6319 10.66 16.0219 9.37C15.2419 7.72 14.132 6.72009 11.952 6.72009C9.77195 6.72009 8.75196 7.97007 8.05196 9.70007C7.50196 11.0801 7.15195 12.7401 6.74195 14.4501C6.56195 15.2101 6.23196 16.1801 5.80196 17.0601C10.452 17.0601 14.132 17.0701 19.052 17.0701V19.05C17.592 19.05 16.242 19.05 14.942 19.05C14.862 19.48 14.712 20.04 14.422 20.53C13.962 21.33 13.202 21.9801 11.982 21.9801C10.762 21.9801 9.99196 21.3001 9.50196 20.4501C9.23196 19.9901 9.07196 19.47 8.97196 19.04V19.03Z" />
</svg>
