<svg xmlns="http://www.w3.org/2000/svg" width="24" height="24" viewBox="0 0 24 24">
    <path fill-rule="evenodd"
        d="M13.71 2.97L12 0l-1.71 2.97c-.19.3-.29.65-.29 1.03 0 1.1.9 2 2 2 1.11 0 2-.9 2-2 0-.38-.1-.73-.29-1.03zM11 7v2H6c-1.66 0-3 1.34-3 3v8.54c0 .552.448 1 1 1h15.99c.552 0 1-.448 1-1V12C21 10.34 19.66 9 18 9h-5V7h-2zm7.99 4.988c.003-.544-.432-.988-.99-.988H6c-.555 0-1 .445-1 1v3c.64-.01 1.24-.264 1.693-.717l.006-.007 1.798-1.764 1.77 1.77c.918.918 2.565.912 3.476 0l.003-.002 1.787-1.77 1.774 1.773c.45.45 1.047.704 1.683.716v-3.011zm0 5.012c-1.166-.013-2.271-.477-3.097-1.303l-.366-.366-.37.366-.002.002c-1.689 1.687-4.6 1.7-6.302-.002l-.37-.37-.38.374C7.277 16.527 6.169 16.989 5 17v2.54h13.99V17z" />
</svg>