<svg width="24" height="24" viewBox="0 0 24 24" xmlns="http://www.w3.org/2000/svg">
<path d="M11.67 10.65C12.15 10.65 12.53 10.53 12.82 10.29C13.1 10.05 13.25 9.7401 13.25 9.3501C13.25 8.9601 13.11 8.65003 12.82 8.41003C12.53 8.17003 12.16 8.05005 11.69 8.05005H9.34V10.65H11.67ZM11.8 15.8201C12.38 15.8201 12.83 15.6901 13.15 15.4401C13.47 15.1901 13.63 14.84 13.63 14.4C13.63 14 13.47 13.6701 13.16 13.4301C12.85 13.1801 12.45 13.0601 11.98 13.0601H9.34V15.8201H11.81H11.8ZM8.09 18.6901H6V5.18005H8.36L8.09 2.18005L10.08 2L10.37 5.18005H11.73L11.92 2.03003L13.92 2.15002L13.72 5.37012C13.97 5.44012 14.21 5.52011 14.44 5.61011C15.14 5.91011 15.68 6.31009 16.07 6.84009C16.46 7.36009 16.65 7.95011 16.65 8.61011C16.65 9.43011 16.36 10.12 15.8 10.67C15.23 11.23 14.47 11.5801 13.53 11.7201V11.8C14.6 11.81 15.46 12.1101 16.1 12.7001C16.74 13.2901 17.06 14.06 17.06 15.02C17.06 15.72 16.86 16.35 16.48 16.91C16.09 17.48 15.55 17.9101 14.86 18.2201C14.51 18.3801 14.14 18.5001 13.73 18.5801L13.92 21.6001L11.92 21.7301L11.73 18.6901H10.08V21.9901L8.09 22V18.6901Z" />
</svg>
