<svg width="24" height="24" viewBox="0 0 24 24" xmlns="http://www.w3.org/2000/svg">
<path d="M20.01 16.73L18.01 16.7L18.18 4.72003L8.34 3.98999L8.49001 2L19.27 2.79999C19.8 2.83999 20.2 3.28 20.2 3.81L20.02 16.73H20.01ZM4 9.32001H6V18.4L10.27 15.53C10.65 15.27 11.17 15.31 11.51 15.62L14.08 17.99L14.17 8.41003L4.38 7.53003L4.56001 5.53003L15.27 6.5C15.79 6.54 16.18 6.98 16.18 7.5L16.06 20.26C16.06 20.65 15.82 21.01 15.46 21.17C15.1 21.32 14.68 21.25 14.39 20.99L10.75 17.63L5.57 21.1C5.26 21.31 4.87 21.33 4.54 21.15C4.22 20.98 4.01 20.64 4.01 20.27V9.32001H4Z" />
</svg>
