<svg width="24" height="24" viewBox="0 0 24 24" xmlns="http://www.w3.org/2000/svg">
    <path fill-rule="evenodd"
        d="M4.05658 4.53254C4.03873 4.68589 4.02956 4.84187 4.02956 5V15C4.02956 17.2086 5.81955 19 8.02919 19H10.5296C10.6372 19 10.6895 19.0151 10.7059 19.0207C10.719 19.0252 10.7224 19.028 10.725 19.0301L10.7255 19.0305C10.7386 19.041 10.8003 19.0998 10.8709 19.2692C10.9409 19.4372 10.9854 19.6331 11.0095 19.8064L11.0412 19.802C11.3005 20.6903 12.704 20.689 12.9599 19.798L13.02 19.8064C13.0441 19.6331 13.0887 19.4372 13.1587 19.2692C13.2293 19.0998 13.291 19.041 13.3041 19.0305L13.3046 19.0301C13.3071 19.028 13.3106 19.0252 13.3237 19.0207C13.3401 19.0151 13.3924 19 13.5 19H16.0004C18.21 19 20 17.2086 20 15V5C20 4.84346 19.991 4.68902 19.9735 4.53716C21.4054 4.76419 22.5 6.00426 22.5 7.5V19C22.5 20.6569 21.1569 22 19.5 22H4.5C2.84315 22 1.5 20.6569 1.5 19V7.5C1.5 5.9938 2.60999 4.74686 4.05658 4.53254ZM13.5 17C13.3208 17 13.1544 17.0154 13 17.044V3.40039L13.0547 3.46875C13.4061 3.18758 13.8749 3 14.5 3H16.0004C17.1049 3 18 3.89541 18 5V15C18 16.1046 17.1049 17 16.0004 17H13.5ZM11 17.0387V3.43734L10.9749 3.46875C10.6234 3.18758 10.1547 3 9.52956 3H8.02919C6.92464 3 6.02956 3.89541 6.02956 5V15C6.02956 16.1046 6.92464 17 8.02919 17H10.5296C10.6974 17 10.854 17.0135 11 17.0387Z" />
</svg>