<svg width="24" height="24" viewBox="0 0 24 24" xmlns="http://www.w3.org/2000/svg">
<path d="M6.02 8.01001H8.02V17.44L11.52 14.07C11.72 13.88 11.99 13.78 12.27 13.79C12.55 13.81 12.81 13.94 12.98 14.16L15.7 17.47L16.8 6.31L6.4 6L6.46 4L17.93 4.34998C18.21 4.35998 18.47 4.48 18.65 4.69C18.83 4.89 18.92 5.17001 18.89 5.45001L17.45 20.06C17.41 20.47 17.13 20.81 16.74 20.92C16.35 21.04 15.93 20.91 15.68 20.6L12.11 16.26L7.7 20.51C7.41 20.79 6.98 20.87 6.61 20.71C6.24 20.56 6 20.19 6 19.79V8.01001H6.02Z" />
</svg>
