<svg width="24" height="24" viewBox="0 0 24 24" xmlns="http://www.w3.org/2000/svg">
<path d="M12.5738 15.4221L12.6238 17.4621C13.7438 16.9021 14.8238 16.6122 15.8838 16.5722C16.9638 16.5322 18.0238 16.7622 19.0938 17.2822L19.9038 7.40208C19.4738 6.89208 18.7238 6.46214 17.8338 6.21214C16.2538 5.77214 14.2038 5.9421 12.3838 7.4221L12.4238 9.05223C14.3038 8.11223 16.5338 8.32218 18.4238 8.50218L18.2338 10.4922C17.1838 10.3922 16.0038 10.2421 14.8738 10.3821C14.0138 10.4921 13.1838 10.7721 12.4838 11.4321L12.5238 12.9421C13.9538 12.1321 15.5838 12.0321 17.3838 12.2121L17.1938 14.2021C15.4238 14.0321 13.8438 14.1121 12.5838 15.4221H12.5738ZM11.1038 20.0122C9.50378 18.9322 8.33378 18.1921 7.10378 18.1821C6.35378 18.1821 5.61378 18.4921 4.72378 19.1221C4.43378 19.3321 4.05378 19.3722 3.72378 19.2222C3.39378 19.0722 3.17378 18.7621 3.14378 18.4021L2.00378 6.55223C1.97378 6.20223 2.12378 5.85208 2.40378 5.65208C4.11378 4.40208 7.65378 4.09214 9.60378 4.71214L8.99378 6.62205C7.69378 6.20205 5.43378 6.30217 4.04378 6.99217L4.97378 16.6621C5.71378 16.3321 6.40378 16.1821 7.09378 16.1821C8.21378 16.1821 9.32378 16.6023 10.6038 17.3423L10.3538 7.00218C10.3538 6.71218 10.4638 6.43217 10.6738 6.24217C13.6238 3.54217 17.1238 3.63211 19.4238 4.68211C20.4938 5.17211 21.3138 5.87227 21.7638 6.59227C21.8738 6.77227 21.9338 6.99213 21.9138 7.20213L20.9438 19.0522C20.9138 19.4122 20.6938 19.7321 20.3638 19.8821C20.0338 20.0321 19.6538 19.9922 19.3638 19.7822C17.0038 18.0822 14.8038 18.2622 12.2138 20.0122C11.9138 20.2222 11.5238 20.2422 11.1938 20.0722C11.1538 20.0522 11.1238 20.0322 11.0938 20.0122H11.1038Z" />
</svg>
