<svg width="24" height="24" viewBox="0 0 24 24" xmlns="http://www.w3.org/2000/svg">
    <path fill-rule="evenodd"
        d="M7.99963 4C7.44759 4 7 4.44748 7 5V15C7 15.5525 7.44759 16 7.99963 16H9.5C10.0693 16 10.5697 16.1182 11 16.3275V6.00421L10.9998 5.99408C10.9994 5.98193 10.9987 5.96029 10.9969 5.93051C10.9933 5.87066 10.9859 5.77985 10.9704 5.66882C10.9389 5.44158 10.8776 5.15612 10.7644 4.88462C10.6509 4.61218 10.5028 4.39538 10.3206 4.24962C10.1541 4.1164 9.90802 4 9.5 4H7.99963ZM12 6C13 6 13 5.99958 13 5.99915L13 5.99617L13 5.99121L12.9998 5.97795C12.9997 5.96766 12.9994 5.95446 12.999 5.93854C12.9981 5.90674 12.9965 5.86393 12.9934 5.81168C12.9871 5.70747 12.9751 5.5639 12.9514 5.39368C12.9049 5.05842 12.8099 4.59388 12.6106 4.11538C12.4116 3.63782 12.0909 3.10462 11.57 2.68788C11.0334 2.2586 10.342 2 9.5 2H7.99963C6.34254 2 5 3.34339 5 5V15C5 16.6566 6.34254 18 7.99963 18H9.5C9.90802 18 10.1541 18.1164 10.3206 18.2496C10.5028 18.3954 10.6509 18.6122 10.7644 18.8846C10.8776 19.1561 10.9389 19.4416 10.9704 19.6688C10.9859 19.7799 10.9933 19.8707 10.9969 19.9305C10.9987 19.9603 10.9994 19.9819 10.9998 19.9941L11 20.0044L11 20.0027L11 20.0016C11 20.0026 11 20.0034 11 20.0044C11.0025 20.5546 11.4493 21 12 21C12.5523 21 13 20.5523 13 20L13 5.99915L12 6ZM11 20.0016C11 20.0015 11 20.0017 11 20.0016Z" />
    <path fill-rule="evenodd"
        d="M16.0004 4C16.5524 4 17 4.44748 17 5V15C17 15.5525 16.5524 16 16.0004 16H14.5C13.9307 16 13.4303 16.1182 13 16.3275V6.00421L13.0002 5.99408C13.0006 5.98193 13.0013 5.96029 13.0031 5.93051C13.0067 5.87066 13.0141 5.77985 13.0296 5.66882C13.0611 5.44158 13.1224 5.15612 13.2356 4.88462C13.3491 4.61218 13.4972 4.39538 13.6794 4.24962C13.8459 4.1164 14.092 4 14.5 4H16.0004ZM12 6C11 6 11 5.99958 11 5.99915L11 5.99617L11 5.99121L11.0002 5.97795C11.0003 5.96766 11.0006 5.95446 11.001 5.93854C11.0019 5.90674 11.0035 5.86393 11.0066 5.81168C11.0129 5.70747 11.0249 5.5639 11.0486 5.39368C11.0951 5.05842 11.1901 4.59388 11.3894 4.11538C11.5884 3.63782 11.9091 3.10462 12.43 2.68788C12.9666 2.2586 13.658 2 14.5 2H16.0004C17.6575 2 19 3.34339 19 5V15C19 16.6566 17.6575 18 16.0004 18H14.5C14.092 18 13.8459 18.1164 13.6794 18.2496C13.4972 18.3954 13.3491 18.6122 13.2356 18.8846C13.1224 19.1561 13.0611 19.4416 13.0296 19.6688C13.0141 19.7799 13.0067 19.8707 13.0031 19.9305C13.0013 19.9603 13.0006 19.9819 13.0002 19.9941L13 20.0044L13 20.0027L13 20.0016C13 20.0026 13 20.0034 13 20.0044C12.9975 20.5546 12.5507 21 12 21C11.4477 21 11 20.5523 11 20L11 5.99915L12 6ZM13 20.0016C13 20.0015 13 20.0017 13 20.0016Z" />
    <path fill-rule="evenodd"
        d="M4.5 6.5C3.94772 6.5 3.5 6.94772 3.5 7.5V19C3.5 19.5523 3.94772 20 4.5 20H19.5C20.0523 20 20.5 19.5523 20.5 19V7.5C20.5 6.94771 20.0523 6.5 19.5 6.5H18.5V4.5H19.5C21.1569 4.5 22.5 5.84315 22.5 7.5V19C22.5 20.6569 21.1569 22 19.5 22H4.5C2.84315 22 1.5 20.6569 1.5 19V7.5C1.5 5.84315 2.84315 4.5 4.5 4.5H5V6.5H4.5Z" />
</svg>