<svg width="24" height="24" viewBox="0 0 24 24" xmlns="http://www.w3.org/2000/svg">
<path d="M8.43999 9.28064L6.43999 9.19067L6.67999 3.95062C6.69999 3.41062 7.15999 2.98067 7.70999 3.00067L21.03 3.41064C21.57 3.42064 22 3.87064 22 4.41064V20.8607C22 21.4107 21.55 21.8507 21 21.8607L7.14 21.8807C6.87 21.8807 6.61 21.7706 6.42 21.5806C6.23 21.3906 6.12999 21.1307 6.12999 20.8607L6.22 16.6406L8.22 16.6807L8.14999 19.8807L19.99 19.8607V5.38068L8.62 5.03064L8.42999 9.28064H8.43999ZM14.48 13.5707L2 13.5906V11.5906L14.45 11.5707L10.77 7.79065L12.2 6.40063L17.53 11.8707C17.91 12.2507 17.91 12.8706 17.53 13.2606L12.06 19.0007L10.61 17.6207C10.61 17.6207 13.06 15.0407 14.46 13.5707H14.48Z" />
</svg>
