<svg width="24" height="24" viewBox="0 0 24 24" xmlns="http://www.w3.org/2000/svg">
<path d="M8.71069 10.94L8.67069 12.91L4.26069 12.83C4.00069 12.82 3.75069 12.71 3.57069 12.52C3.39069 12.33 3.29069 12.08 3.30069 11.81L3.54069 2.97998C3.55069 2.44998 3.99069 2.03003 4.52069 2.03003L19.5907 2C19.8507 2 20.1007 2.10003 20.2907 2.28003C20.4707 2.47003 20.5807 2.71998 20.5807 2.97998V12.17C20.5807 12.43 20.4707 12.68 20.2907 12.87C20.1007 13.05 19.8507 13.16 19.5807 13.15L15.6807 13.09L15.7107 11.12L18.6107 11.16V3.97003L5.48069 3.98999L5.29069 10.88L8.70069 10.94H8.71069ZM12.9507 18.71L16.6307 15.18L17.9907 16.6L12.6507 21.73C12.2707 22.09 11.6807 22.1 11.2907 21.74L5.68069 16.47L7.03069 15.04L10.9707 18.74L10.9507 5.22003H12.9207L12.9407 18.71H12.9507Z" />
</svg>
