<svg width="24" height="24" viewBox="0 0 24 24" xmlns="http://www.w3.org/2000/svg">
<path d="M8.66 11.0951L8.7 13.065L5.28001 13.135L5.47 20.015L18.6 20.0351V12.8451L15.7 12.8951L15.67 10.925L19.58 10.8551C19.84 10.8551 20.1 10.955 20.29 11.135C20.48 11.325 20.58 11.5751 20.58 11.8451V21.0251C20.58 21.2851 20.48 21.5351 20.29 21.7251C20.11 21.9051 19.85 22.015 19.59 22.015L4.52 21.985C3.99 21.985 3.55 21.5551 3.54 21.0251L3.3 12.195C3.3 11.935 3.39001 11.675 3.57001 11.485C3.75001 11.295 4 11.185 4.26 11.185L8.67001 11.0951H8.66ZM10.97 5.26505L7.03001 8.97507L5.68 7.53507L11.29 2.26505C11.67 1.90505 12.27 1.91506 12.65 2.27506L17.99 7.40506L16.62 8.82504L12.94 5.29508L12.92 18.7951H10.95L10.97 5.26505Z" />
</svg>
