<svg width="24" height="24" viewBox="0 0 24 24" xmlns="http://www.w3.org/2000/svg">
<path d="M12.9 8.67067L10.93 8.71065L10.86 5.30067L3.98 5.49068L3.95999 18.6207H11.16L11.11 15.7106L13.08 15.6807L13.15 19.5806C13.15 19.8506 13.05 20.1007 12.87 20.2907C12.69 20.4807 12.43 20.5907 12.17 20.5907H2.98999C2.72999 20.5907 2.47999 20.4807 2.28999 20.3007C2.10999 20.1107 2 19.8607 2 19.6007L2.03 4.52064C2.03 3.99064 2.45999 3.56066 2.98999 3.54066L11.82 3.30067C12.08 3.29067 12.34 3.39063 12.53 3.57063C12.72 3.75063 12.83 4.00063 12.83 4.26063L12.92 8.67067H12.9ZM18.7 12.9506L5.2 12.9307V10.9606L18.73 10.9807L15.03 7.04066L16.47 5.69063L21.74 11.3007C22.1 11.6807 22.1 12.2706 21.74 12.6506L16.61 18.0007L15.19 16.6306L18.72 12.9506H18.7Z" />
</svg>
