<svg width="24" height="24" viewBox="0 0 24 24" xmlns="http://www.w3.org/2000/svg">
<path d="M15.19 17.56L15.1 15.56L19.35 15.37L19 4H4.52L4.5 15.83L7.7 15.77L7.74 17.77L3.52 17.85C3.25 17.86 2.99 17.7599 2.8 17.5699C2.61 17.3799 2.5 17.12 2.5 16.85L2.53 3C2.53 2.44 2.98 2 3.53 2H19.98C20.52 2 20.96 2.42997 20.98 2.96997L21.39 16.29C21.41 16.83 20.98 17.2899 20.44 17.3199L15.21 17.56H15.19ZM10.81 9.51996L6.77 13.38L5.39 11.93L11.13 6.45996C11.52 6.08996 12.13 6.08996 12.52 6.45996L17.99 11.79L16.59 13.22L12.81 9.53998L12.79 22H10.79L10.81 9.51996Z" />
</svg>
