<svg width="24" height="24" viewBox="0 0 24 24" xmlns="http://www.w3.org/2000/svg">
<path d="M8.69067 6.44L8.78067 8.44L4.53067 8.63L4.88067 20H19.3607L19.3807 8.15997L16.1807 8.22998L16.1407 6.22998L20.3607 6.13995C20.6307 6.13995 20.8907 6.23999 21.0807 6.42999C21.2707 6.61999 21.3807 6.87996 21.3807 7.14996L21.3607 21C21.3607 21.55 20.9107 22 20.3607 22H3.91067C3.37067 22 2.93067 21.57 2.91067 21.03L2.50067 7.70996C2.48067 7.15996 2.91067 6.70999 3.45067 6.67999L8.68067 6.44H8.69067ZM13.0807 14.48L17.1207 10.62L18.5007 12.0699L12.7607 17.54C12.3707 17.91 11.7607 17.91 11.3707 17.53L5.90067 12.21L7.29067 10.78L11.0707 14.46L11.0907 2H13.0907L13.0707 14.48H13.0807Z" />
</svg>
