<svg width="24" height="24" viewBox="0 0 24 24" xmlns="http://www.w3.org/2000/svg">
<path d="M17.59 9.19067L15.59 9.28064L15.39 5.03064L4.02 5.38068V19.8607L15.85 19.8807L15.79 16.6807L17.79 16.6406L17.87 20.8607C17.87 21.1307 17.77 21.3906 17.58 21.5806C17.39 21.7706 17.13 21.8807 16.86 21.8807L3 21.8607C2.45 21.8507 2 21.4107 2 20.8607V4.41064C2 3.87064 2.43 3.42064 2.97 3.41064L16.29 3.00067C16.84 2.98067 17.3 3.41062 17.32 3.95062L17.56 9.19067H17.59ZM9.55 13.5707L13.4 17.6207L11.95 19.0007L6.48 13.2606C6.11 12.8706 6.11 12.2507 6.48 11.8707L11.81 6.40063L13.24 7.79065L9.56 11.5707L22.02 11.5906V13.5906L9.54001 13.5707H9.55Z" />
</svg>
