<svg width="24" height="24" viewBox="0 0 24 24" xmlns="http://www.w3.org/2000/svg">
<path d="M14.83 7.51001V5.48999L20.61 5.51001C21.17 5.51001 21.62 5.96002 21.62 6.52002V20.97C21.62 21.53 21.17 21.98 20.61 21.98H6.48999C5.92999 21.98 5.48 21.53 5.48 20.97V13.29H7.49998V19.96H19.6V7.52002L14.83 7.51001ZM4.50999 5.67999L4.31999 12.09L2.29999 12.03L2.56 3.29004C2.58 2.75004 2.99999 2.33 3.53999 2.31L12.62 2L12.69 4.02002C12.69 4.02002 8.25999 4.17 5.93999 4.25L17.38 15.65L15.95 17.08L4.50999 5.67999Z" />
</svg>
