<svg width="24" height="24" viewBox="0 0 24 24" xmlns="http://www.w3.org/2000/svg">
<path d="M13.0638 8.71065L11.0938 8.67067L11.1838 4.26063C11.1838 4.00063 11.2938 3.75063 11.4838 3.57063C11.6738 3.39063 11.9338 3.29067 12.1938 3.30067L21.0238 3.54066C21.5538 3.56066 21.9838 3.99064 21.9838 4.52064L22.0138 19.6007C22.0138 19.8607 21.9138 20.1107 21.7238 20.3007C21.5438 20.4807 21.2838 20.5907 21.0238 20.5907H11.8438C11.5838 20.5907 11.3238 20.4807 11.1438 20.2907C10.9638 20.1007 10.8538 19.8506 10.8638 19.5806L10.9338 15.6807L12.9038 15.7106L12.8538 18.6207H20.0538L20.0238 5.49068L13.1438 5.30067L13.0738 8.71065H13.0638ZM5.29377 12.9506L8.82377 16.6306L7.40377 18.0007L2.27376 12.6506C1.91376 12.2706 1.90376 11.6807 2.27376 11.3007L7.54377 5.69063L8.98377 7.04066L5.28376 10.9807L18.8038 10.9606V12.9307L5.31377 12.9506H5.29377Z" />
</svg>
