<svg width="24" height="24" viewBox="0 0 24 24" xmlns="http://www.w3.org/2000/svg">
<path d="M11.4453 7.02002H6.54526L5.21526 9.48999L10.2753 9.52002L11.4453 7.02002ZM12.4753 9.54004L19.3353 9.58008L18.1252 7.02002H13.6453L12.4753 9.53003V9.54004ZM21.9253 10.5801L22.0153 18.01C22.0153 18.28 21.9153 18.54 21.7153 18.73C21.5253 18.92 21.2553 19.02 20.9853 19.02L9.71526 18.74L9.76525 16.74L19.9953 16.99L19.9353 11.5801L4.46526 11.53L4.07526 16.73H7.53525V18.73H2.99526C2.71526 18.73 2.45525 18.6102 2.26525 18.4102C2.07525 18.2102 1.97526 17.9301 2.00526 17.6501L2.53525 10.48C2.53525 10.31 2.57525 10.14 2.65525 9.98999L5.05526 5.53003C5.22526 5.21003 5.56526 5 5.93526 5H18.7453C19.1353 5 19.4853 5.22007 19.6453 5.57007L21.8153 10.1401C21.8753 10.2701 21.9053 10.4101 21.9153 10.5601L21.9253 10.5801Z" />
</svg>
