<svg width="24" height="24" viewBox="0 0 24 24" xmlns="http://www.w3.org/2000/svg">
<path d="M17.89 8.73999L5.92 8.70996L11.89 13.3999L17.89 8.73999ZM9.09 6.71997L15.85 6.73999C15.47 5.89999 15.05 4.98999 15.05 4.98999H9.59999L9.07999 6.71997H9.09ZM4.00999 9.76001C4.00999 12.7 4 17.8198 4 17.8198H19.82L19.89 12.1499L21.89 12.1699L21.81 18.8298C21.81 19.3798 21.36 19.8198 20.81 19.8198H3C2.73 19.8198 2.47999 19.71 2.28999 19.53C2.09999 19.34 2 19.0898 2 18.8198L2.01999 7.75C2.01999 7.63 2.02999 7.49988 2.06999 7.37988C2.20999 6.97988 2.58999 6.70996 3.01999 6.70996H7L7.89999 3.70996C8.02999 3.28996 8.42 3 8.86 3H15.7C16.09 3 16.45 3.22984 16.61 3.58984L18.05 6.76001H20.8C21.23 6.76001 21.61 7.03994 21.74 7.43994C21.88 7.83994 21.74 8.2898 21.41 8.5498L12.5 15.47C12.14 15.75 11.63 15.75 11.27 15.47L4.01999 9.77002L4.00999 9.76001Z" />
</svg>
