<svg width="24" height="24" viewBox="0 0 24 24" xmlns="http://www.w3.org/2000/svg">
<path d="M7.97322 17.4742C7.83322 16.9442 7.30322 16.7542 6.78322 16.8942C6.29322 17.0242 5.98322 17.5742 5.67322 18.1342C5.42322 18.5842 5.17322 19.0442 4.95322 19.4742C5.68322 19.2942 6.46321 19.1043 7.04321 18.9443C7.35321 18.8643 7.60322 18.6242 7.78322 18.3342C7.95322 18.0642 8.05322 17.7542 7.97322 17.4642V17.4742ZM10.0332 17.5342C10.0632 18.1842 9.87321 18.8442 9.51321 19.4242C9.06321 20.1542 8.34321 20.7243 7.55321 20.9343C6.04321 21.3243 3.26321 21.9942 3.26321 21.9942C2.87321 22.0842 2.47322 21.9442 2.22322 21.6342C1.97322 21.3242 1.93321 20.8942 2.10321 20.5442C2.10321 20.5442 2.97321 18.7842 3.88321 17.1542C4.49321 16.0442 5.31321 15.1743 6.27321 14.9243C7.42321 14.6243 8.52321 14.9142 9.24321 15.6542C14.7432 13.0742 18.0132 8.97425 19.4632 4.67425C15.6132 6.48425 11.8932 10.5142 10.3332 13.7642L8.49321 12.8742C10.5132 8.6942 15.7632 3.39424 20.7132 2.03424C21.0532 1.94424 21.4232 2.03423 21.6832 2.27423C21.9432 2.51423 22.0532 2.88419 21.9832 3.23419C20.7932 8.74419 17.0632 14.2642 10.0432 17.5342H10.0332Z" />
</svg>
