<svg width="24" height="24" viewBox="0 0 24 24" xmlns="http://www.w3.org/2000/svg">
<path d="M10 12.5H12V7H10V12.5Z" />
<path d="M6 7H8V12.5H6V7Z" />
<path d="M3.30991 3.27627C3.50783 3.08756 3.7744 2.98813 4.04756 3.00113L14.5476 3.50113C15.0808 3.52652 15.5 3.96621 15.5 4.5V9.42013L17.1034 9.29679L17.3015 8.10797L16.376 7.99228L16.624 6.00772L17.6306 6.13354L17.8015 5.10797L16.876 4.99228L17.124 3.00772L21.124 3.50772L20.876 5.49228L19.7878 5.35625L19.6168 6.38182L20.624 6.50772L20.376 8.49228L19.2878 8.35625L19.1573 9.13879L20.9233 9.00295C21.201 8.98159 21.4751 9.07702 21.6794 9.26628C21.8838 9.45554 22 9.72146 22 10V21C22 21.5523 21.5523 22 21 22H2V20H3V4C3 3.72653 3.112 3.46499 3.30991 3.27627ZM15.5 20H17V14H19V20H20V11.0799L15.5 11.426V20ZM13.5 5.45352L5 5.04875V20H6V15C6 14.4957 6.37554 14.0703 6.87597 14.0077L10.876 13.5077C11.1606 13.4722 11.4468 13.5605 11.6618 13.7503C11.8768 13.9402 12 14.2132 12 14.5V20H13.5V5.45352ZM8 20H10V15.6328L8 15.8828V20Z" />
</svg>
    