<svg width="24" height="24" viewBox="0 0 24 24" xmlns="http://www.w3.org/2000/svg">
<path d="M13.2779 16.1682H15.2779V14.6682H13.2779V16.1682ZM16.5279 16.1682H18.5279V14.6682H16.5279V16.1682ZM16.5279 9.55831H18.5279V8.05831H16.5279V9.55831ZM16.5279 12.6482H18.5279V11.1482H16.5279V12.6482ZM13.2779 9.51827H15.2779V8.01827H13.2779V9.51827ZM13.2779 12.6081H15.2779V11.1081H13.2779V12.6081ZM5.79791 15.7282H7.79791V14.2282H5.79791V15.7282ZM7.4179 18.5783H9.4179V17.0783H7.4179V18.5783ZM10.0679 11.9682L5.0579 13.4082C5.0379 14.6882 4.98791 17.4283 5.00791 19.8183H10.0679V11.9782V11.9682ZM11.0679 21.8083H4.01791C3.46791 21.8083 3.02791 21.3683 3.01791 20.8283C2.95791 17.4183 3.06791 12.6181 3.06791 12.6181C3.07791 12.1781 3.36791 11.7982 3.79791 11.6782L10.0779 9.87813C10.0779 7.31813 10.0779 5.35812 10.0779 5.35812C10.0779 4.89812 10.3879 4.50814 10.8279 4.38814L20.1979 2.02828C20.4979 1.95828 20.8079 2.01821 21.0579 2.20821C21.2979 2.39821 21.4479 2.68824 21.4479 2.98824L21.5879 20.0283L19.5879 20.0483L19.4579 4.27828L12.0779 6.13814C12.0779 7.06814 12.0779 8.72813 12.0779 10.6281C12.0779 11.4881 12.0779 12.3683 12.0779 13.2483C12.0779 15.6883 12.0779 18.1683 12.0979 19.7883L16.2679 19.7483L16.2879 21.7483L11.1279 21.7983C11.1279 21.7983 11.0979 21.7983 11.0779 21.7983L11.0679 21.8083Z" />
</svg>
