<svg width="24" height="24" viewBox="0 0 24 24" xmlns="http://www.w3.org/2000/svg">
<path fill-rule="evenodd" d="M3.30991 3.27627C3.50783 3.08755 3.7744 2.98813 4.04756 3.00113L14.5476 3.50113C15.0808 3.52652 15.5 3.96621 15.5 4.5V9.42013L17.1034 9.29679L17.3015 8.10797L16.376 7.99228L16.624 6.00772L17.6306 6.13354L17.8015 5.10797L16.876 4.99228L17.124 3.00772L21.124 3.50772L20.876 5.49228L19.7878 5.35625L19.6168 6.38182L20.624 6.50772L20.376 8.49228L19.2878 8.35625L19.1573 9.13879L20.9233 9.00295C21.201 8.98159 21.4751 9.07702 21.6794 9.26628C21.8838 9.45554 22 9.72146 22 10V21C22 21.5523 21.5523 22 21 22H2V20H3V4C3 3.72653 3.112 3.46499 3.30991 3.27627ZM15.5 20V11.426L20 11.0799V20H19V14H17V20H15.5ZM13.5 5.45352V20H12V14.5C12 14.2132 11.8768 13.9402 11.6618 13.7503C11.4468 13.5605 11.1606 13.4722 10.876 13.5077L6.87597 14.0077C6.37554 14.0703 6 14.4957 6 15V20H5V5.04875L13.5 5.45352ZM8 20V15.8828L10 15.6328V20H8ZM10 12.5V7H12V12.5H10ZM6 7V12.5H8V7H6Z" />
</svg>
