<svg width="24" height="24" viewBox="0 0 24 24" xmlns="http://www.w3.org/2000/svg">
<path d="M14.8069 8.18174H16.8069V6.41172H14.8069V8.18174ZM14.8069 11.8319H16.8069V10.0619H14.8069V11.8319ZM11.3569 8.23179H13.3569V6.46177H11.3569V8.23179ZM11.3569 11.8717H13.3569V10.1019H11.3569V11.8717ZM7.50692 8.18174H9.50692V6.41172H7.50692V8.18174ZM7.50692 11.8319H9.50692V10.0619H7.50692V11.8319ZM10.6069 19.7118L14.0469 19.6918L13.8269 16.7518L10.6569 16.3917L10.6169 19.7018L10.6069 19.7118ZM8.60692 19.7218L8.66692 15.2618C8.66692 14.9818 8.79692 14.7118 9.00692 14.5218C9.21692 14.3318 9.49692 14.2418 9.77692 14.2818L14.8669 14.8519C15.3469 14.9019 15.7169 15.2918 15.7569 15.7718L16.1269 20.6019C16.1469 20.8819 16.0569 21.1519 15.8669 21.3519C15.6769 21.5519 15.4169 21.6717 15.1369 21.6717L5.17692 21.7318C4.62692 21.7318 4.17692 21.3018 4.16692 20.7518C4.09692 16.7218 3.84692 7.54171 4.13692 3.15171C4.16692 2.65171 4.56692 2.25178 5.07692 2.22178C10.7169 1.87178 14.5069 2.01169 19.5769 2.13169C20.1169 2.14169 20.5469 2.58168 20.5569 3.12168L20.7169 19.8219L18.7169 19.8419L18.5669 4.11167C14.2869 4.01167 10.8369 3.91172 6.08693 4.16172C5.89692 8.39172 6.07692 15.6718 6.14692 19.7218L8.60692 19.7018V19.7218Z" />
</svg>
