<svg width="24" height="24" viewBox="0 0 24 24" xmlns="http://www.w3.org/2000/svg">
<path d="M10.02 9.41633L14.33 9.43635C14.38 8.80635 14.38 8.24639 14.33 7.72639C12.95 7.72639 11.52 7.72639 10.04 7.72639L10.01 9.41633H10.02ZM8.01001 10.3963L8.07001 6.69636C8.07001 6.14636 8.53 5.70638 9.08 5.71638C11.21 5.73638 13.27 5.74638 15.2 5.71638C15.69 5.70638 16.11 6.05633 16.2 6.53633C16.4 7.63633 16.43 8.92636 16.23 10.5664C16.17 11.0664 15.74 11.4464 15.23 11.4364L9 11.4163C8.73 11.4163 8.48001 11.3063 8.29001 11.1163C8.10001 10.9263 8 10.6663 8 10.3963H8.01001ZM5.69 21.9863L5.64001 19.9863L17.99 19.7064C18.18 15.1264 18.14 9.82632 17.85 4.02632C13.57 3.98632 9.69001 3.99632 6.06001 4.02632L6 18.1663H4L4.06001 3.03633C4.06001 2.48633 4.5 2.04633 5.05 2.03633C9.24 1.99633 13.75 1.97634 18.81 2.04634C19.34 2.04634 19.77 2.46628 19.8 2.98628C20.15 9.63628 20.2 15.6464 19.94 20.7264C19.91 21.2564 19.49 21.6663 18.96 21.6763L5.67001 21.9863H5.69ZM14.54 18.2563V16.2563L16.11 16.2663V18.2663L14.54 18.2563ZM11.24 18.5163V16.5163L13.2 16.5263V18.5263L11.24 18.5163ZM8.01001 18.5263V16.5263L9.96001 16.5463V18.5463L8.01001 18.5263ZM14.35 15.0063V13.0063L16.3 13.0263V15.0263L14.35 15.0063ZM11.37 15.0263V13.0263L13.05 13.0363V15.0363L11.37 15.0263ZM8.32001 14.9963V12.9963L10.28 13.0063V15.0063L8.32001 14.9963Z" />
</svg>
