<svg width="24" height="24" viewBox="0 0 24 24" xmlns="http://www.w3.org/2000/svg">
<path d="M6.93606 10.02L6.91605 8.02002L16.9861 7.90002L17.0061 9.90002L6.93606 10.02ZM13.9261 14.12L13.9061 12.12L17.1061 12.08L17.1261 14.08L13.9261 14.12ZM16.5761 4.18994C18.1561 4.18994 19.6661 4.21999 21.0261 4.23999C21.5761 4.23999 22.0161 4.68999 22.0161 5.23999V18.67H20.0161V6.21997C15.2761 6.15997 9.17605 6.12004 4.00605 6.42004C3.97605 10.04 4.03606 15.73 4.06606 19.48L16.9461 19.54V21.54L3.07606 21.48C2.52606 21.48 2.08606 21.04 2.07606 20.49C2.04606 16.51 1.96606 9.27997 2.01606 5.46997C2.01606 4.94997 2.42605 4.51999 2.94605 4.48999C4.21605 4.39999 5.55606 4.34004 6.92606 4.29004L6.87606 2.04004L8.87606 2L8.92606 4.23999C10.8161 4.19999 12.7261 4.17993 14.5661 4.17993L14.5161 2.04004L16.5161 2L16.5661 4.18994H16.5761Z" />
</svg>
