<svg width="24" height="24" viewBox="0 0 24 24" xmlns="http://www.w3.org/2000/svg">
    <path fill-rule="evenodd"
        d="M7.23529 2C4.39854 2 2 4.18549 2 7V10H22V7C22 4.18549 19.6015 2 16.7647 2H7.23529ZM2 16V12H7V16H2ZM9 16V12H15V16H9ZM15 18H9V22H15V18ZM17 21.995C19.3896 21.8928 21.4232 20.2424 21.8963 18H17V21.995ZM17 16V12H22V16H17ZM2.10371 18H7V21.995C4.61038 21.8928 2.57681 20.2424 2.10371 18ZM9 7H15V5H9V7Z" />
    <path fill-rule="evenodd"
        d="M7.23529 2C4.39854 2 2 4.18549 2 7V10H22V7C22 4.18549 19.6015 2 16.7647 2H7.23529ZM22 12H17V16H22V12ZM21.8963 18H17V21.995C19.3896 21.8928 21.4232 20.2424 21.8963 18ZM15 22V18H9V22H15ZM7 21.995V18H2.10371C2.57681 20.2424 4.61038 21.8928 7 21.995ZM2 16H7V12H2V16ZM9 7H15V5H9V7ZM9 12H15V16H9V12Z" />
</svg>