<svg width="24" height="24" viewBox="0 0 24 24" xmlns="http://www.w3.org/2000/svg">
<path d="M7.95606 15.0599L7.93606 13.0599L16.4661 12.96L16.4861 14.96L7.95606 15.0599ZM16.5761 5.18994C18.1561 5.18994 19.6661 5.21999 21.0261 5.23999C21.5761 5.23999 22.0161 5.68999 22.0161 6.23999V19.6699H20.0161V7.21997C15.2761 7.15997 9.17606 7.11992 4.00606 7.41992C3.97606 11.0399 4.03606 16.73 4.06606 20.48L16.9461 20.5399V22.5399L3.07606 22.48C2.52606 22.48 2.08606 22.04 2.07606 21.49C2.04606 17.51 1.96606 10.28 2.01606 6.46997C2.01606 5.94997 2.42606 5.51999 2.94606 5.48999C4.21606 5.39999 5.55606 5.33992 6.93606 5.28992L6.88606 3.03992L8.88606 3L8.93606 5.23999C10.8261 5.19999 12.7361 5.17994 14.5761 5.18994L14.5261 3.04993L16.5261 3.01001L16.5761 5.19995V5.18994Z" />
</svg>
