<svg width="24" height="24" viewBox="0 0 24 24" xmlns="http://www.w3.org/2000/svg">
<path d="M3.99736 10.61C4.00736 13.64 4.03737 16.99 4.06737 19.48L16.9474 19.5399V21.5399L3.07735 21.48C2.52735 21.48 2.08735 21.04 2.07735 20.49C2.03735 16.51 1.96735 9.27997 2.01735 5.46997C2.01735 4.94997 2.42737 4.51999 2.94737 4.48999C4.21737 4.39999 5.55736 4.33992 6.93736 4.28992L6.88737 2.03992L8.88737 2L8.93736 4.23999C10.8274 4.19999 12.7373 4.17993 14.5773 4.17993L14.5274 2.03992L16.5274 2L16.5773 4.18994C18.1573 4.18994 19.6574 4.21999 21.0274 4.23999C21.5774 4.23999 22.0173 4.68999 22.0173 5.23999V18.6699H20.0173V14.0399L13.3174 14.0599V12.0599L20.0173 12.0399V6.21997C15.2773 6.15997 9.17737 6.11992 4.00737 6.41992C4.00737 7.08992 4.00737 7.82999 4.00737 8.60999L13.3074 8.5L13.3273 10.5L4.00737 10.61H3.99736Z" />
</svg>
