<svg width="24" height="24" viewBox="0 0 24 24" xmlns="http://www.w3.org/2000/svg">
<path d="M11.2161 14.03L7.95606 14.0699L7.93607 12.0699L11.2161 12.03V9.07996H13.2161V12.01L16.4761 11.97L16.4961 13.97L13.2161 14.01V16.96H11.2161V14.03ZM16.5761 4.18994C18.1561 4.18994 19.6561 4.21999 21.0261 4.23999C21.5761 4.23999 22.0161 4.68999 22.0161 5.23999V18.67H20.0161V6.21997C15.2761 6.15997 9.17608 6.12004 4.00608 6.42004C3.97608 10.04 4.03607 15.73 4.06607 19.48L16.9461 19.54V21.54L3.07608 21.48C2.52608 21.48 2.08608 21.04 2.07608 20.49C2.04608 16.51 1.96606 9.27997 2.01606 5.46997C2.01606 4.94997 2.42608 4.51999 2.94608 4.48999C4.21608 4.39999 5.55607 4.34004 6.93607 4.29004L6.88608 2.04004L8.88608 2L8.93607 4.23999C10.8261 4.19999 12.7361 4.17993 14.5761 4.17993L14.5261 2.04004L16.5261 2L16.5761 4.18994Z" />
</svg>
