<svg width="24" height="24" viewBox="0 0 24 24" xmlns="http://www.w3.org/2000/svg">
<path d="M6.85734 17.61L6.83736 15.61L11.4274 15.5499L11.4473 17.5499L6.85734 17.61ZM7.51735 13.5599L7.48735 11.5599L12.0773 11.5L12.1073 13.5L7.51735 13.5599ZM14.0074 14.29L13.9873 12.29L17.4074 12.25L17.4374 14.25L14.0173 14.29H14.0074ZM6.59736 10.2999L6.57735 8.29993L16.3474 8.17993L16.3674 10.1799L6.59736 10.2999ZM16.5674 4.18994C18.1474 4.18994 19.6473 4.21999 21.0173 4.23999C21.5673 4.23999 22.0074 4.68999 22.0074 5.23999V18.67H20.0074V6.21997C15.2674 6.15997 9.16736 6.12004 3.99736 6.42004C3.96736 10.04 4.02736 15.73 4.05736 19.48L16.9374 19.54V21.54L3.06737 21.48C2.51737 21.48 2.07735 21.04 2.07735 20.49C2.03735 16.51 1.96735 9.27997 2.01735 5.46997C2.01735 4.94997 2.42734 4.51999 2.94734 4.48999C4.21734 4.39999 5.55736 4.34004 6.93736 4.29004L6.88734 2.04004L8.88734 2L8.93736 4.23999C10.8274 4.19999 12.7374 4.17993 14.5874 4.17993L14.5374 2.04004L16.5374 2L16.5874 4.18994H16.5674Z" />
</svg>
