<svg width="24" height="24" viewBox="0 0 24 24" xmlns="http://www.w3.org/2000/svg">
<path d="M7.04606 9.89001L7.02605 7.89001L16.9061 7.77002L16.9261 9.77002L7.04606 9.89001ZM12.3961 16.2201H14.1861V12.6101C14.0361 12.9601 13.8261 13.2501 13.5761 13.4601C13.3161 13.6701 12.9861 13.8501 12.5861 13.9701L12.2561 12.55C12.6361 12.48 12.9561 12.35 13.2161 12.15C13.4761 11.95 13.6861 11.6701 13.8461 11.3201H15.6961V16.2201H17.1361V17.4501H12.3961V16.2201ZM7.03606 16.2201H8.82606V12.6101C8.67606 12.9601 8.46606 13.2501 8.21606 13.4601C7.95606 13.6701 7.62607 13.8501 7.22607 13.9701L6.89606 12.55C7.27606 12.48 7.58606 12.35 7.85606 12.15C8.11606 11.95 8.32606 11.6701 8.48606 11.3201H10.3361V16.2201H11.7861V17.4501H7.04606V16.2201H7.03606ZM16.5161 4.13C18.1261 4.15 19.6561 4.17006 21.0161 4.19006C21.5661 4.19006 22.0061 4.64006 22.0061 5.19006V16.1001H20.0061V6.18005C15.3261 6.11005 9.10607 6.00004 4.00607 6.29004C3.97607 9.84004 4.03606 15.4001 4.06606 19.0701L16.8661 19.1901L16.8461 21.1901L3.06606 21.0601C2.52606 21.0601 2.07606 20.6101 2.07606 20.0701C2.04606 16.1701 1.96606 9.08009 2.01606 5.34009C2.01606 4.82009 2.42605 4.39011 2.94605 4.36011C4.23605 4.27011 5.60606 4.21004 7.01606 4.17004L6.96606 2.04004L8.96606 2L9.01606 4.13C10.8461 4.1 12.7161 4.1 14.5161 4.12L14.4661 2.05005L16.4661 2.01001L16.5161 4.15002V4.13Z" />
</svg>
