<svg width="24" height="24" viewBox="0 0 24 24" xmlns="http://www.w3.org/2000/svg">
<path d="M6.18735 12.5599L7.86734 11.47L9.85734 14.5599L14.2073 9.47998L15.7273 10.7799L10.4973 16.88L8.89734 16.7699L6.17734 12.5499L6.18735 12.5599ZM15.5773 4.18994C17.1573 4.18994 18.6573 4.21999 20.0273 4.23999C20.5773 4.23999 21.0173 4.68999 21.0173 5.23999V18.6699H19.0173V6.21997C14.2773 6.15997 8.17734 6.11992 3.00734 6.41992C2.97734 10.0399 3.03734 15.73 3.06734 19.48L15.9473 19.5399V21.5399L2.07735 21.48C1.52735 21.48 1.08735 21.04 1.07735 20.49C1.03735 16.51 0.967348 9.27997 1.01735 5.46997C1.01735 4.94997 1.42734 4.51999 1.94734 4.48999C3.21734 4.39999 4.55735 4.33992 5.93735 4.28992L5.88734 2.03992L7.88734 2L7.93735 4.23999C9.82735 4.19999 11.7373 4.17994 13.5873 4.18994L13.5373 2.04993L15.5373 2.01001L15.5873 4.19995L15.5773 4.18994Z" />
</svg>
