<svg width="24" height="24" viewBox="0 0 24 24" xmlns="http://www.w3.org/2000/svg">
<path d="M12.2261 14.61L9.94606 16.9399L8.51606 15.5399L10.8061 13.2L8.71606 11.11L10.1261 9.69995L12.1961 11.7699L14.4761 9.43994L15.9061 10.84L13.6161 13.1799L15.7061 15.2699L14.2961 16.6799L12.2261 14.61ZM16.5761 4.18994C18.1561 4.18994 19.6561 4.21999 21.0261 4.23999C21.5761 4.23999 22.0161 4.68999 22.0161 5.23999V18.6699H20.0161V6.21997C15.2761 6.15997 9.17606 6.11992 4.00606 6.41992C3.97606 10.0399 4.03606 15.73 4.06606 19.48L16.9461 19.5399V21.5399L3.07606 21.48C2.52606 21.48 2.08606 21.04 2.07606 20.49C2.04606 16.51 1.96606 9.27997 2.01606 5.46997C2.01606 4.94997 2.42606 4.51999 2.94606 4.48999C4.21606 4.39999 5.55606 4.33992 6.93606 4.28992L6.88605 2.03992L8.88605 2L8.93606 4.23999C10.8261 4.19999 12.7361 4.17994 14.5761 4.18994L14.5261 2.04993L16.5261 2.01001L16.5761 4.19995V4.18994Z" />
</svg>
