<svg width="24" height="24" viewBox="0 0 24 24" xmlns="http://www.w3.org/2000/svg">
<path d="M6.95735 10.04L6.92735 8.01001L16.9973 7.89001L17.0273 9.92004L6.95735 10.04ZM16.6073 4.17993C18.1773 4.18993 19.6773 4.20998 21.0473 4.22998C21.5973 4.22998 22.0473 4.69 22.0473 5.25V16.37H20.0173V6.25C15.2873 6.19 9.19735 6.14995 4.03735 6.44995C4.00735 10.06 4.06735 15.74 4.09735 19.48L16.9573 19.54V21.5699L3.08736 21.51C2.52736 21.51 2.07735 21.06 2.07735 20.5C2.03735 16.52 1.96735 9.28998 2.01735 5.47998C2.01735 4.94998 2.43734 4.51998 2.96734 4.47998C4.23734 4.38998 5.56735 4.33003 6.93735 4.28003L6.88734 2.04004L8.91734 2L8.96734 4.22998C10.8473 4.18998 12.7473 4.16993 14.5773 4.17993L14.5273 2.04993L16.5573 2.01001L16.6073 4.18994V4.17993Z" />
</svg>
