<svg width="24" height="24" viewBox="0 0 24 24" xmlns="http://www.w3.org/2000/svg">
<path d="M17.54 6L17.65 4L21.57 4.21997L21.46 6.20996L17.54 6ZM12.13 11.4299C11.11 11.4499 10.15 12.24 10.14 13.29C10.13 14.44 10.97 15.18 11.85 15.17C12.43 15.16 12.87 15.01 13.17 14.74C13.63 14.34 13.77 13.7199 13.77 13.1799C13.77 12.3499 13.09 11.4199 12.12 11.4299H12.13ZM12.1 9.42993C14.22 9.40993 15.79 11.37 15.77 13.2C15.76 14.27 15.39 15.45 14.49 16.24C13.89 16.77 13.04 17.15 11.87 17.17C10 17.19 8.1 15.71 8.13 13.27C8.15 11.15 10.03 9.45993 12.09 9.42993H12.1ZM2 8.96997L4 8.90002L4.34 18.41C8.55 18.56 14.72 18.7299 19.93 18.5599C19.97 15.5999 20.02 11.8999 20 9.30994L16.44 8.91003C16.19 8.88003 15.96 8.75995 15.79 8.56995L13.76 6.21997L10.24 6.29004L7.04999 9.14001L5.72 7.65002L9.19 4.55005C9.37 4.39005 9.6 4.30005 9.84 4.30005L14.2 4.20996C14.5 4.20996 14.78 4.33994 14.98 4.55994L17.06 6.96997L21.12 7.41003C21.62 7.47003 22 7.89001 22.01 8.39001C22.05 11.24 21.99 16.1 21.93 19.54C21.93 20.07 21.5 20.5 20.97 20.53C15.14 20.76 7.81001 20.55 3.35001 20.37C2.83001 20.35 2.40998 19.93 2.38998 19.41L2.01999 8.96997H2Z" />
</svg>
