<svg xmlns="http://www.w3.org/2000/svg" width="24" height="24" viewBox="0 0 24 24">
    <path
        d="M9.281 5.717c.257-.424.417-.57.51-.63.068-.043.169-.087.455-.087h3.508c.286 0 .387.044.454.087.094.06.254.206.51.63l.017.027 1.887 2.721h2.398c.541 0 .98.439.98.98v9.075c0 .541-.439.98-.98.98H4.98c-.541 0-.98-.439-.98-.98V9.445c0-.541.439-.98.98-.98h2.397l1.888-2.72.016-.028zM10.246 3c-.507 0-1.029.08-1.53.4-.466.298-.816.74-1.13 1.255l-1.255 1.81H4.98C3.334 6.465 2 7.799 2 9.445v9.075c0 1.646 1.334 2.98 2.98 2.98h14.04c1.646 0 2.98-1.334 2.98-2.98V9.445c0-1.646-1.334-2.98-2.98-2.98h-1.352l-1.255-1.81c-.313-.514-.663-.957-1.13-1.254-.5-.32-1.022-.401-1.529-.401h-3.508zM9 13.5c0-1.657 1.343-3 3-3s3 1.343 3 3-1.343 3-3 3-3-1.343-3-3zm3-5c-2.761 0-5 2.239-5 5s2.239 5 5 5 5-2.239 5-5-2.239-5-5-5z" />
</svg>