<svg xmlns="http://www.w3.org/2000/svg" width="24" height="24" viewBox="0 0 24 24">
    <path
        d="M10.246 3c-.507 0-1.029.08-1.53.4-.466.298-.816.74-1.13 1.255l-1.255 1.81H4.98C3.334 6.465 2 7.799 2 9.445v9.075c0 1.646 1.334 2.98 2.98 2.98h14.04c1.646 0 2.98-1.334 2.98-2.98V9.445c0-1.646-1.334-2.98-2.98-2.98h-1.352l-1.255-1.81c-.313-.514-.663-.957-1.13-1.254-.5-.32-1.022-.401-1.529-.401h-3.508zM9 13.5c0-1.657 1.343-3 3-3s3 1.343 3 3-1.343 3-3 3-3-1.343-3-3zm3-5c-2.761 0-5 2.239-5 5s2.239 5 5 5 5-2.239 5-5-2.239-5-5-5z" />
    <path
        d="M10.246 3c-.507 0-1.029.08-1.53.4-.466.298-.816.74-1.13 1.255l-1.255 1.81H4.98C3.334 6.465 2 7.799 2 9.445v9.075c0 1.646 1.334 2.98 2.98 2.98h14.04c1.646 0 2.98-1.334 2.98-2.98V9.445c0-1.646-1.334-2.98-2.98-2.98h-1.352l-1.255-1.81c-.313-.514-.663-.957-1.13-1.254-.5-.32-1.022-.401-1.529-.401h-3.508zM9 13.5c0-1.657 1.343-3 3-3s3 1.343 3 3-1.343 3-3 3-3-1.343-3-3zm3-5c-2.761 0-5 2.239-5 5s2.239 5 5 5 5-2.239 5-5-2.239-5-5-5z" />
</svg>