<svg width="24" height="24" viewBox="0 0 24 24" xmlns="http://www.w3.org/2000/svg">
<path d="M19.7 4L19.61 2L4.42004 2.79L4.5 4.79L19.7 4ZM19.9901 20.6L21.9901 20.55L21.68 11.08C21.67 10.53 21.23 10.1 20.69 10.1L3.01001 9.99001C2.74001 9.99001 2.48004 10.1 2.29004 10.29C2.10004 10.48 2 10.74 2 11.01L2.25 20.94C2.26 21.22 2.37001 21.48 2.57001 21.66C2.77001 21.84 3.04 21.93 3.31 21.92L16.93 21.16L16.82 19.16L4.23004 19.87L4.02002 12L19.7 12.1L19.9901 20.6ZM21 8.00001L20.91 6.00001L3 6.79001L3.07996 8.79001L21 8.00001Z" />
</svg>
