<svg width="24" height="24" viewBox="0 0 24 24" xmlns="http://www.w3.org/2000/svg">
<path d="M11.69 15.55L11.78 13.55L18.27 13.84L18.18 15.83L11.69 15.55ZM9.89005 10.91L9.97003 8.90997L18.27 9.25L18.19 11.25L9.89005 10.91ZM21.17 4.23999L21.22 6.23999L4.28004 6.66998V17.6899C6.88004 17.7399 14.15 17.9 20.27 18.12V8.15997H22.28V19.16C22.28 19.43 22.16 19.6899 21.97 19.8799C21.77 20.0699 21.51 20.17 21.24 20.16C13.49 19.86 3.27003 19.67 3.27003 19.67C2.73003 19.66 2.29004 19.22 2.29004 18.67V5.68994C2.29004 5.14994 2.72004 4.70994 3.26004 4.68994L21.17 4.23999Z" />
</svg>
