<svg width="24" height="24" viewBox="0 0 24 24" xmlns="http://www.w3.org/2000/svg">
<path d="M5.49998 11.0699L6.84 9.58997L8.18999 10.8L10.2 7.66998L11.88 8.75L9.23 12.8799C9.07 13.1199 8.80999 13.29 8.51999 13.33C8.22999 13.37 7.93999 13.28 7.71999 13.08L5.49998 11.0699ZM11.67 16.46V14.46L16.34 14.43V16.43L11.67 16.46ZM12.47 12.8V10.8L17.14 10.77V12.77L12.47 12.8ZM20.58 3.43994V5.43994L3.76999 5.56995V18.16H18.84L19.63 7.29999L21.62 7.44995L20.76 19.23C20.72 19.76 20.29 20.16 19.76 20.16H2.73999C2.46999 20.16 2.22 20.06 2.03 19.87C1.84 19.68 1.73999 19.43 1.73999 19.16L1.75999 4.56995C1.75999 4.01995 2.19998 3.57995 2.74998 3.56995L20.57 3.43994H20.58Z" />
</svg>
