<svg width="24" height="24" viewBox="0 0 24 24" xmlns="http://www.w3.org/2000/svg">
<path d="M6.53014 15.99L6.39014 13.95L12.7101 13.52L12.8501 15.56L6.53014 15.99ZM6.55012 12.1299L6.38013 10.08L16.8001 9.21997L16.9701 11.27L6.55012 12.1299ZM20.6501 4.70996L20.8201 6.75995L3.75012 8.14996L4.18013 18.18C6.62013 18.2 13.2401 18.25 19.1601 18.17L19.6201 9.07996L21.6701 9.18994L21.1601 19.23C21.1301 19.77 20.6901 20.2 20.1501 20.21C12.5001 20.33 3.19012 20.23 3.19012 20.23C2.64012 20.22 2.20013 19.79 2.18013 19.25L1.66013 7.25C1.64013 6.7 2.05013 6.21999 2.60013 6.17999L20.6501 4.70996Z" />
</svg>
