<svg width="24" height="24" viewBox="0 0 24 24" xmlns="http://www.w3.org/2000/svg">
<path d="M9.40996 8.20991C10.17 8.20991 10.79 8.82992 10.79 9.58992C10.79 10.3499 10.17 10.9699 9.40996 10.9699C8.64996 10.9699 8.02997 10.3599 8.02997 9.58992C8.02997 8.81992 8.64996 8.20991 9.40996 8.20991ZM3.97997 16.7899V17.75C6.59997 17.79 13.92 17.8999 19.94 17.8299V15.0499C19.18 14.2799 17.23 12.2799 17.23 12.2799L10.63 16.6799C10.28 16.9099 9.83995 16.9099 9.49995 16.6699L6.42996 14.5599L3.97997 16.7899ZM19.94 12.1499V9.3899H21.96V18.8299C21.96 19.3799 21.52 19.8299 20.97 19.8399C13.34 19.9599 2.94997 19.75 2.94997 19.75C2.39997 19.74 1.95996 19.2899 1.95996 18.7399V4.72993C1.95996 4.44993 2.06997 4.18995 2.27997 3.99995C2.48997 3.80995 2.74997 3.70992 3.02997 3.71992L21.01 4.74995L20.89 6.76991L3.97997 5.79994V14.0599L5.65996 12.5299C6.00996 12.2099 6.52996 12.1699 6.90996 12.4399L10.08 14.6199L16.8 10.1299C17.21 9.85989 17.74 9.91991 18.08 10.2699L19.93 12.1499H19.94Z" />
</svg>
