<svg width="24" height="24" viewBox="0 0 24 24" xmlns="http://www.w3.org/2000/svg">
<path d="M10.75 11.5375H15.98V9.53747H10.75V11.5375ZM6.97 17.7074C6.36 17.7074 5.88 18.3574 5.87 18.9574C5.87 19.1674 5.91001 19.3374 6.01001 19.4574C6.19001 19.6574 6.48002 19.7074 6.77002 19.7074C7.21002 19.6974 7.51001 19.6075 7.70001 19.4175C7.86001 19.2475 7.89999 19.0175 7.89999 18.7875C7.89999 18.5375 7.77 18.2675 7.59 18.0475C7.43 17.8575 7.22 17.6974 6.97 17.7074ZM16.49 16.9475C15.89 16.9575 15.4 17.5975 15.39 18.1975C15.39 18.4075 15.43 18.5775 15.53 18.6975C15.71 18.8975 16 18.9475 16.29 18.9475C16.73 18.9375 17.03 18.8575 17.22 18.6575C17.38 18.4875 17.42 18.2575 17.42 18.0375C17.42 17.7875 17.29 17.5075 17.11 17.2875C16.95 17.0975 16.74 16.9475 16.49 16.9475ZM6.86002 15.7074L4.5 5.15746L2.36002 5.55749L2 3.58739L5.08002 3.01745C5.61002 2.91745 6.12002 3.25746 6.24002 3.77746L8.66 14.6374C12.04 14.3574 14.87 13.9774 18.15 13.6074C18.35 11.5074 18.73 8.50748 18.94 5.29748L8.42999 6.70739L8.16 4.72741L19.88 3.14745C20.17 3.10745 20.47 3.20746 20.69 3.40746C20.91 3.60746 21.03 3.8975 21.01 4.1975C20.79 8.3375 20.26 12.2574 20.07 14.5874C20.03 15.0674 19.66 15.4474 19.18 15.4974C18.86 15.5374 18.54 15.5674 18.23 15.6074C18.37 15.7274 18.5 15.8574 18.62 15.9974C19.13 16.5874 19.42 17.3675 19.41 18.0475C19.41 18.7575 19.18 19.4674 18.68 20.0174C18.2 20.5374 17.45 20.9275 16.31 20.9475C15.41 20.9575 14.56 20.6374 14.01 20.0074C13.63 19.5674 13.38 18.9675 13.38 18.1775C13.38 17.4275 13.71 16.6674 14.21 16.0774C12.52 16.2774 10.83 16.4574 8.97 16.6174C9.01 16.6574 9.05 16.7074 9.09 16.7474C9.6 17.3474 9.89001 18.1275 9.88 18.8075C9.88 19.5175 9.65001 20.2275 9.14001 20.7775C8.66001 21.2875 7.91002 21.6874 6.77002 21.7074C5.87002 21.7174 5.02 21.3974 4.47 20.7674C4.09 20.3274 3.84001 19.7275 3.85001 18.9375C3.86001 17.3475 5.25 15.7774 6.84 15.7074H6.86002Z" />
</svg>
