<svg width="24" height="24" viewBox="0 0 24 24" xmlns="http://www.w3.org/2000/svg">
<path d="M12.06 10.5047L10.86 9.33481L12.26 7.90476L13.48 9.09482L14.65 7.92478L16.06 9.33481L14.91 10.4848L15.81 11.3648L14.41 12.7948L13.49 11.9048L12.36 13.0348L10.95 11.6148L12.06 10.5047ZM6.96002 17.7048C6.36002 17.7148 5.87002 18.3548 5.86002 18.9648C5.86002 19.1748 5.9 19.3448 6 19.4548C6.18 19.6648 6.47001 19.7048 6.76001 19.7048C7.20001 19.7048 7.5 19.6148 7.69 19.4148C7.85 19.2448 7.89001 19.0148 7.89001 18.7948C7.89001 18.5448 7.76002 18.2648 7.58002 18.0448C7.42002 17.8648 7.21002 17.7048 6.96002 17.7048ZM16.48 16.9448C15.88 16.9448 15.39 17.5948 15.38 18.2048C15.38 18.4148 15.42 18.5848 15.52 18.7048C15.7 18.9048 15.99 18.9548 16.28 18.9448C16.72 18.9448 17.02 18.8548 17.21 18.6548C17.37 18.4848 17.41 18.2548 17.41 18.0348C17.41 17.7848 17.28 17.5048 17.1 17.2948C16.94 17.1048 16.73 16.9448 16.48 16.9448ZM6.85001 15.7048L4.5 5.16477L2.36002 5.55479L2 3.59482L5.08002 3.01475C5.61002 2.92475 6.12002 3.25477 6.24002 3.78477L8.66 14.6448C12.04 14.3548 14.87 13.9848 18.15 13.6048C18.35 11.5148 18.73 8.51478 18.94 5.29478L8.42999 6.70481L8.16 4.72483L19.88 3.15476C20.18 3.11476 20.47 3.20476 20.69 3.40476C20.91 3.60476 21.03 3.8948 21.01 4.1948C20.79 8.3348 20.26 12.2648 20.07 14.5848C20.03 15.0648 19.66 15.4447 19.18 15.5047C18.86 15.5347 18.54 15.5748 18.23 15.6048C18.37 15.7248 18.5 15.8547 18.62 15.9947C19.13 16.5947 19.42 17.3748 19.41 18.0548C19.41 18.7648 19.18 19.4747 18.68 20.0147C18.2 20.5347 17.45 20.9348 16.31 20.9448C15.41 20.9448 14.56 20.6347 14.01 20.0047C13.63 19.5647 13.38 18.9748 13.38 18.1848C13.38 17.4248 13.71 16.6748 14.21 16.0848C12.52 16.2748 10.83 16.4647 8.98001 16.6247C9.02001 16.6647 9.06001 16.7047 9.10001 16.7547C9.61001 17.3547 9.90001 18.1348 9.89001 18.8148C9.89001 19.5248 9.66 20.2348 9.16 20.7748C8.68 21.2948 7.93001 21.6948 6.79001 21.7048C5.89001 21.7148 5.04002 21.3947 4.49002 20.7647C4.11002 20.3247 3.86002 19.7348 3.86002 18.9448C3.87002 17.3548 5.26001 15.7848 6.85001 15.7048Z" />
</svg>
