<svg xmlns="http://www.w3.org/2000/svg" width="24" height="24" viewBox="0 0 24 24">
    <path
        d="M3.405 5H2V3h1.405c1.384 0 2.589.947 2.915 2.293L8.19 13H18.3l1.558-6.26 1.94.484-1.652 6.638c-.167.669-.767 1.138-1.456 1.138H7.797c-.693 0-1.295-.474-1.458-1.146l-1.963-8.09C4.268 5.316 3.866 5 3.405 5zM8 20c.552 0 1-.448 1-1s-.448-1-1-1-1 .448-1 1 .448 1 1 1zm3-1c0 1.657-1.343 3-3 3s-3-1.343-3-3 1.343-3 3-3 3 1.343 3 3zm8 0c0 .552-.448 1-1 1s-1-.448-1-1 .448-1 1-1 1 .448 1 1zm-1 3c1.657 0 3-1.343 3-3s-1.343-3-3-3-3 1.343-3 3 1.343 3 3 3z" />
</svg>