<svg width="24" height="24" viewBox="0 0 24 24" xmlns="http://www.w3.org/2000/svg">
<path d="M12.12 11.0351C11.52 11.0451 11.08 11.4852 11.07 12.0452C11.07 12.6752 11.47 13.1553 12 13.1553C12.38 13.1453 12.66 13.0753 12.84 12.9053C13.11 12.6853 13.16 12.3253 13.16 12.0253C13.16 11.5553 12.71 11.0351 12.11 11.0351H12.12ZM12.1 9.03515C13.88 9.02515 15.18 10.6452 15.17 12.0452C15.17 12.8652 14.88 13.7952 14.15 14.4252C13.67 14.8352 12.99 15.1453 12.02 15.1553C10.44 15.1653 9.06001 13.9051 9.07001 12.0351C9.08001 10.3851 10.33 9.05515 12.1 9.03515ZM2.01001 10.0351H4.01001V17.0752C9.00001 17.1552 14.43 15.7352 19.66 15.8052C19.81 12.8452 19.88 9.89519 19.97 7.08519L2.38 8.56518L2.21002 6.57518L20.92 5.00524C21.21 4.97524 21.49 5.07526 21.69 5.27526C21.9 5.47526 22.01 5.74515 22 6.03515C21.87 9.49515 21.8 13.2052 21.59 16.8852C21.56 17.4352 21.09 17.8552 20.54 17.8352C14.67 17.5252 8.5 19.3551 2.94 19.0351C2.41 19.0051 2 18.5651 2 18.0351V10.0351H2.01001Z" />
</svg>
