<svg width="24" height="24" viewBox="0 0 24 24" xmlns="http://www.w3.org/2000/svg">
<path d="M12.0502 12.3227C11.4702 12.3227 11.0502 12.7527 11.0502 13.2927C11.0502 13.8627 11.3902 14.2327 11.8702 14.2227C12.3502 14.2227 12.6902 14.1327 12.8902 13.9327C13.0402 13.7827 13.0902 13.5727 13.0902 13.3727C13.0902 12.9027 12.6502 12.3227 12.0602 12.3227H12.0502ZM12.0302 10.3227C13.7702 10.3127 15.0802 12.0227 15.0702 13.3827C15.0702 14.0927 14.8302 14.8027 14.3002 15.3427C13.8102 15.8327 13.0502 16.2227 11.8802 16.2227C10.2902 16.2427 9.03016 15.1528 9.05016 13.2728C9.06016 11.6528 10.2902 10.3327 12.0402 10.3227H12.0302ZM20.0002 6.2127L20.9902 6.13274C21.2802 6.10274 21.5602 6.20276 21.7602 6.40276C21.9702 6.60276 22.0802 6.87265 22.0702 7.16265C21.9402 10.5426 21.8702 14.6927 21.6702 18.2927C21.6402 18.8427 21.1702 19.2627 20.6202 19.2427C14.8802 18.9427 8.38018 20.7027 2.94018 20.3827C2.41018 20.3527 1.99017 19.9127 2.00017 19.3827L2.06017 11.5328H4.06017L4.01018 18.4227C8.92018 18.5027 14.5802 17.1427 19.7302 17.2127C19.8702 14.2627 19.9402 11.0327 20.0402 8.2127L2.70019 9.63274L2.54018 7.64275L18.0102 6.37273L17.9902 5.07268L3.19018 6.0927L3.05016 4.10271L18.9002 3.00273C19.1702 2.98273 19.4402 3.07274 19.6502 3.26274C19.8502 3.45274 19.9702 3.71272 19.9702 3.98272L20.0002 6.2127Z" />
</svg>
