<svg width="24" height="24" viewBox="0 0 24 24" xmlns="http://www.w3.org/2000/svg">
<path d="M10.85 15.8126C10.67 15.6826 10.51 15.5326 10.38 15.3526L10.92 14.5826C11.1 14.8226 11.29 15.0025 11.5 15.1325C11.71 15.2525 11.94 15.3126 12.21 15.3126C12.36 15.3126 12.47 15.2726 12.56 15.2026C12.65 15.1326 12.69 15.0325 12.69 14.9025C12.69 14.7625 12.64 14.6526 12.54 14.5626C12.44 14.4826 12.26 14.4026 11.98 14.3226C11.6 14.2126 11.29 14.0926 11.07 13.9626C10.85 13.8326 10.68 13.6726 10.59 13.4926C10.49 13.3126 10.44 13.0926 10.44 12.8326C10.44 12.4926 10.56 12.2026 10.79 11.9626C11.02 11.7326 11.33 11.5825 11.71 11.5125V10.8126H12.45V11.5025C12.8 11.5525 13.09 11.6926 13.31 11.9126C13.53 12.1226 13.67 12.3926 13.71 12.7226L12.7 12.8825C12.68 12.7225 12.62 12.5925 12.51 12.5025C12.4 12.4125 12.26 12.3626 12.08 12.3626C11.92 12.3626 11.79 12.4026 11.7 12.4826C11.61 12.5626 11.56 12.6626 11.56 12.7926C11.56 12.9226 11.61 13.0325 11.71 13.1225C11.81 13.2025 11.97 13.2726 12.19 13.3326C12.59 13.4226 12.9 13.5326 13.14 13.6626C13.37 13.7926 13.54 13.9525 13.64 14.1325C13.74 14.3125 13.79 14.5326 13.79 14.8026C13.79 15.0426 13.74 15.2526 13.63 15.4426C13.58 15.5426 13.51 15.6226 13.42 15.7126C13.17 15.9526 12.85 16.1025 12.45 16.1525V16.8426H11.71V16.1425C11.43 16.0925 11.17 16.0025 10.94 15.8725C10.91 15.8525 10.87 15.8326 10.84 15.8126H10.85ZM10.48 17.8426C10.94 17.9826 11.43 18.0526 11.93 18.0526C13.11 18.0326 14.01 17.7626 14.66 17.3126C14.74 17.2526 14.83 17.1825 14.9 17.1225C15.51 16.6025 15.86 15.9126 16.04 15.1826C16.15 14.7226 16.2 14.2526 16.2 13.8026C16.2 11.4826 14.7 9.57261 12.41 9.60261C10.06 9.63262 8 11.8526 7.98 14.2326C7.98 14.9626 8.11999 15.5826 8.37999 16.1026C8.81999 16.9826 9.59 17.5526 10.48 17.8426ZM18.11 15.0426C18.68 15.0126 19.24 15.0025 19.8 15.0125C19.95 11.9925 20.02 8.97261 20.12 6.09261L2.17 7.60261L2 5.61262L21.07 4.00252C21.36 3.98252 21.64 4.08254 21.84 4.27254C22.05 4.47254 22.16 4.75256 22.15 5.04256C22.02 8.56256 21.94 12.3426 21.74 16.1026C21.71 16.6526 21.24 17.0726 20.69 17.0426C19.61 16.9826 18.53 17.0026 17.45 17.0626C17.14 17.6526 16.73 18.1925 16.2 18.6425C15.24 19.4625 13.87 20.0226 11.95 20.0526C10.2 20.0726 8.48999 19.4526 7.34999 18.1926C5.87999 18.3226 4.41999 18.3826 2.98999 18.2926C2.45999 18.2626 2.03999 17.8226 2.04999 17.2926L2.11 9.11262H4.11L4.04999 16.3326C4.77999 16.3426 5.51999 16.3325 6.26999 16.2825C6.06999 15.6725 5.97 14.9826 5.98 14.2126C6.01 10.8026 9.01 7.64261 12.39 7.60261C15.83 7.56261 18.21 10.3126 18.21 13.8026C18.21 14.2126 18.18 14.6326 18.11 15.0426Z" />
</svg>
