<svg width="24" height="24" viewBox="0 0 24 24" xmlns="http://www.w3.org/2000/svg">
<path d="M2 2.5H4C4 8.48611 4.12471 12.9722 4.24913 15.9583C4.31134 17.4514 4.37348 18.5695 4.41993 19.3126L4.43237 19.5087C4.59686 19.511 4.78547 19.5137 5 19.5171V16C5 15.4863 5.3893 15.0561 5.90051 15.005L8.90051 14.705C9.18164 14.6769 9.46153 14.7691 9.67101 14.9586C9.88049 15.1482 10 15.4176 10 15.7001V19H8V16.805L7 16.905V19.5554C7.10862 19.5577 7.22017 19.5602 7.33472 19.5627C8.2078 19.5821 9.25484 19.6075 10.5 19.6408V13.5001C10.5 13.0112 10.8534 12.594 11.3356 12.5137L14.3356 12.0137C14.7686 11.9415 15.1981 12.1602 15.3944 12.5528C15.3944 12.5528 15.4517 12.6854 15.4667 12.7291C15.4921 12.8035 15.519 12.8965 15.5454 13.0128C15.5981 13.2444 15.6509 13.5774 15.685 14.0538C15.7528 15.0042 15.7485 16.5649 15.495 19.0996L13.505 18.9006C13.7515 16.4352 13.7472 14.9959 13.69 14.1963L13.6866 14.1494L12.5 14.3472V19.6963C13.5816 19.7273 14.7806 19.7632 16.107 19.8048C16.2473 17.9584 16.2397 16.092 16.1881 14.597C16.1574 13.7054 16.1113 12.9526 16.0729 12.4238C16.0538 12.1596 16.0366 11.9516 16.0243 11.8106C16.0185 11.744 16.0124 11.6775 16.0061 11.611C16.0061 11.4473 16.0782 11.0748 16.2586 10.829C16.5 10.5 16.7175 10.5 17 10.5H20C20.5096 10.5 20.9376 10.8831 20.9939 11.3896L20.9944 11.3944C21.0018 11.4639 21.009 11.5334 21.0158 11.6029C21.0289 11.7375 21.047 11.9322 21.067 12.1761C21.1069 12.6636 21.1548 13.3497 21.1867 14.1475C21.2501 15.7321 21.2527 17.8025 20.99 19.6414L19.0101 19.3586C19.2474 17.6975 19.2499 15.7679 19.1883 14.2275C19.1611 13.5469 19.1217 12.9511 19.0865 12.5H18.0832C18.1194 13.0291 18.1592 13.7243 18.1869 14.528C18.239 16.0378 18.249 17.9485 18.1077 19.8688C19.3221 19.9084 20.629 19.9521 22.0345 20.0006L21.9655 21.9994C14.7185 21.7495 10.0977 21.6246 7.29028 21.5622C5.88661 21.531 4.93659 21.5155 4.33857 21.5077C4.03957 21.5038 3.82866 21.5019 3.69309 21.5009L3.61382 21.4974C3.103 21.4759 2.69144 21.4586 2.5 20.5C2.39274 19.963 2.37784 19.1047 2.36004 18.0798C2.34892 17.439 2.33666 16.7332 2.3 16L2 2.5ZM15.8001 4.90002C15.2005 4.76825 14.5229 4.62438 13.8039 4.48057L14.1961 2.51941C15.4581 2.77181 16.593 3.02402 17.4124 3.2131C17.8222 3.30768 18.1536 3.38659 18.3831 3.44197C18.4978 3.46966 18.5871 3.49149 18.648 3.50646L18.7176 3.52366L18.742 3.5297C19.2453 3.65554 19.5694 4.14576 19.4874 4.65811C19.4874 4.65804 19.4874 4.65798 18.5 4.49999L19.4874 4.65811L19.486 4.6668L19.4823 4.68969L19.4682 4.77518C19.4558 4.84894 19.4378 4.95523 19.4146 5.08716C19.3683 5.35076 19.3012 5.71802 19.2181 6.13361C19.0543 6.95279 18.8195 8.0039 18.5487 8.81622L16.6513 8.18376C16.8114 7.70366 16.9646 7.09625 17.0973 6.49909C14.2548 7.82406 11.8981 9.27573 10.1915 10.449C9.21249 11.1221 8.44971 11.702 7.93438 12.1112C7.67677 12.3158 7.48117 12.4775 7.3515 12.5868C7.28666 12.6415 7.23833 12.683 7.20697 12.7102L7.17274 12.74L7.16529 12.7465L7.16412 12.7476C7.16423 12.7475 7.16436 12.7474 6.49999 12C5.83563 11.2525 5.83579 11.2524 5.83597 11.2522L5.83763 11.2508L5.84127 11.2476L5.8535 11.2368L5.89751 11.1984C5.93549 11.1655 5.99067 11.1182 6.06255 11.0576C6.20631 10.9364 6.41697 10.7623 6.69061 10.545C7.23778 10.1105 8.0375 9.50283 9.05847 8.80091C10.7438 7.64227 13.0382 6.22238 15.8001 4.90002Z" />
</svg>
