<svg width="24" height="24" viewBox="0 0 24 24" xmlns="http://www.w3.org/2000/svg">
<path d="M3.2508 16.2899C3.12529 13.1522 3 8.51388 3 2.5H5C5 8.48612 5.12471 13.0978 5.2492 16.21C5.31115 17.7588 5.37305 18.9362 5.41949 19.7269L20.9213 18.5031L21.0787 20.4968L2.07867 21.9968L1.92126 20.0031L3.4253 19.8843C3.42473 19.8748 3.42417 19.8652 3.4236 19.8555C3.37637 19.0526 3.31355 17.8588 3.2508 16.2899ZM22 4.99995C22 4.69663 21.8623 4.4097 21.6257 4.21991C21.3891 4.03011 21.0792 3.95796 20.7831 4.02376L16.2831 5.02376L16.7169 6.97614L18.5519 6.56837L16 10.2803V8.49994C16 8.07175 15.7274 7.69108 15.322 7.5532C14.9166 7.41532 14.4684 7.55084 14.2074 7.89023L10.7199 12.4239L10.4939 10.3895C10.4499 9.99365 10.1752 9.66163 9.79456 9.5443C9.41393 9.42698 8.99996 9.54673 8.74075 9.84914L5.74072 13.3491L7.25923 14.6507L8.76044 12.8993L9.00609 15.1104C9.05114 15.5158 9.33794 15.8532 9.73081 15.963C10.1237 16.0728 10.5439 15.933 10.7926 15.6096L14 11.4401V13.4999C14 13.938 14.285 14.325 14.7034 14.4549C15.1217 14.5849 15.5759 14.4274 15.824 14.0665L20 7.9923V9.99995H22V4.99995Z" />
</svg>
