<svg width="24" height="24" viewBox="0 0 24 24" xmlns="http://www.w3.org/2000/svg">
<path d="M11.46 12.6H16.31V10.6H11.46V12.6ZM8.42001 9.27002H16.31V7.27002H8.42001V9.27002ZM4 12.61H2C2 6.61999 6.14 2 12.19 2C18.24 2 22.03 4.78998 22.03 9.47998C22.03 14.17 18.78 17.33 11.4 17.45C9.90001 18.94 7.92001 21 7.92001 21C7.64001 21.29 7.20001 21.39 6.82001 21.23C6.44001 21.08 6.19 20.7099 6.19 20.2999V16.1899C5.55 15.7799 5.04 15.3299 4.69 14.6899C4.39 14.1399 4.22001 13.4599 4.24001 12.5499L6.24001 12.59C6.23001 13.08 6.30001 13.45 6.45001 13.74C6.70001 14.2 7.15001 14.46 7.67001 14.74C7.99001 14.92 8.19 15.25 8.19 15.62V17.83C8.87 17.14 9.63 16.36 10.27 15.73C10.46 15.55 10.71 15.4399 10.97 15.4399C17.08 15.4399 20.02 13.15 20.02 9.46997C20.02 5.78997 16.96 3.98999 12.18 3.98999C7.40001 3.98999 3.99001 7.75998 3.99001 12.6L4 12.61Z" />
</svg>
