<svg width="24" height="24" viewBox="0 0 24 24" xmlns="http://www.w3.org/2000/svg">
<path d="M4 12.61H2C2 6.61999 6.14 2 12.19 2C18.24 2 22.02 4.78998 22.02 9.47998C22.02 14.17 18.77 17.33 11.39 17.45C9.89 18.94 7.91 21 7.91 21C7.63 21.29 7.19 21.39 6.81 21.23C6.43 21.08 6.18 20.71 6.18 20.3C6.18 20.3 6.18 16.19 6.18 16.2C5.54 15.79 5.03 15.33 4.68 14.7C4.39 14.15 4.21 13.4701 4.23 12.5601L6.23 12.6C6.23 13.09 6.29 13.46 6.44 13.75C6.69 14.21 7.14 14.47 7.65 14.75C7.97 14.92 8.17 15.26 8.17 15.63V17.84C8.85 17.15 9.61 16.37 10.25 15.74C10.44 15.56 10.69 15.45 10.95 15.45C17.06 15.45 20 13.16 20 9.47998C20 5.79998 16.94 4 12.17 4C7.4 4 3.98 7.76999 3.98 12.61H4Z" />
</svg>
