<svg xmlns="http://www.w3.org/2000/svg" width="24" height="24" viewBox="0 0 24 24">
    <path
        d="M9.766 22.06c-.16.161-.38.241-.604.218-.412-.043-.712-.422-.67-.845l-.052-2.605c-.01-.5-.419-.901-.92-.901-3.049 0-5.52-2.472-5.52-5.52V8.281c0-3.314 2.686-6 6-6h8c3.314 0 6 2.686 6 6v3.645c0 3.313-2.686 6-6 6h-2.228c-.292 0-.569.127-.759.348L9.766 22.06zm.617-3.791l1.113-1.296c.57-.664 1.4-1.046 2.276-1.046H16c2.21 0 4-1.791 4-4V8.282c0-2.21-1.79-4-4-4H8c-2.21 0-4 1.79-4 4v4.124c0 1.945 1.576 3.52 3.52 3.52 1.413 0 2.595 1.004 2.863 2.343z" />
</svg>