<svg width="24" height="24" viewBox="0 0 24 24" xmlns="http://www.w3.org/2000/svg">
<path d="M15.28 10.1899C15.28 9.42994 15.54 8.68992 16.29 8.66992C17.05 8.64992 17.62 9.50001 17.62 10.26C17.62 11.02 17.2 11.5599 16.45 11.5599C15.62 11.5599 15.28 10.6599 15.28 10.1899ZM11.33 10.1899C11.33 9.42994 11.59 8.68992 12.34 8.66992C13.1 8.64992 13.67 9.50001 13.67 10.26C13.67 11.02 13.25 11.5599 12.5 11.5599C11.67 11.5599 11.33 10.6599 11.33 10.1899ZM7.18 10.1899C7.18 9.42994 7.44 8.68992 8.19 8.66992C8.95 8.64992 9.52 9.50001 9.52 10.26C9.52 11.02 9.10001 11.5599 8.35001 11.5599C7.52001 11.5599 7.18 10.6599 7.18 10.1899ZM4 12.61H2C2 6.61999 6.14 2 12.19 2C18.24 2 22.03 4.78998 22.03 9.47998C22.03 14.17 18.78 17.33 11.4 17.45C9.9 18.94 7.92001 21 7.92001 21C7.64001 21.29 7.2 21.39 6.83 21.23C6.45 21.08 6.2 20.7099 6.2 20.2999V16.1899C5.56 15.7799 5.05 15.3299 4.7 14.6899C4.41 14.1399 4.23 13.4599 4.25 12.5499L6.25 12.59C6.25 13.08 6.31001 13.45 6.46001 13.74C6.71001 14.2 7.16001 14.46 7.67001 14.74C7.99001 14.92 8.19 15.25 8.19 15.62V17.83C8.87 17.14 9.63 16.36 10.27 15.73C10.46 15.55 10.71 15.4399 10.97 15.4399C17.08 15.4399 20.02 13.15 20.02 9.46997C20.02 5.78997 16.96 3.98999 12.18 3.98999C7.4 3.98999 3.99001 7.75998 3.99001 12.6L4 12.61Z" />
</svg>
