<svg width="24" height="24" viewBox="0 0 24 24" xmlns="http://www.w3.org/2000/svg">
<path d="M4 12.61H2C2 6.61999 6.13999 2 12.19 2C18.24 2 22.03 4.78998 22.03 9.47998C22.03 14.17 18.78 17.33 11.4 17.45C9.89999 18.94 7.92 21 7.92 21C7.64 21.29 7.19999 21.39 6.82999 21.23C6.44999 21.08 6.2 20.7099 6.2 20.2999V16.1899C5.56 15.7799 5.05 15.3299 4.7 14.6899C4.41 14.1399 4.23 13.4599 4.25 12.5499L6.25 12.59C6.25 13.08 6.30999 13.45 6.45999 13.74C6.70999 14.2 7.16 14.46 7.67 14.74C7.99 14.92 8.18999 15.25 8.18999 15.62V17.83C8.86999 17.14 9.62999 16.36 10.27 15.73C10.46 15.55 10.71 15.4399 10.97 15.4399C17.08 15.4399 20.02 13.15 20.02 9.46997C20.02 5.78997 16.96 3.98999 12.18 3.98999C7.39999 3.98999 3.98999 7.75998 3.98999 12.6L4 12.61ZM10.4 7.78003C11.21 8.49003 11.34 9.33993 11.06 10.1799C10.76 11.0799 9.84 12.0099 8.86 12.5399L7.89999 10.7899C8.27999 10.5899 8.65999 10.3 8.90999 9.96997C8.36999 9.84997 8 9.44001 7.98 8.76001C7.96 7.84001 8.83 7.43993 9.28 7.42993C9.71 7.41993 10.12 7.52992 10.39 7.78992L10.4 7.78003ZM15.74 7.78003C16.55 8.49003 16.68 9.33993 16.4 10.1799C16.1 11.0799 15.18 12.0099 14.2 12.5399L13.24 10.7899C13.62 10.5899 14 10.3 14.25 9.96997C13.71 9.84997 13.34 9.44001 13.32 8.76001C13.3 7.84001 14.17 7.43993 14.62 7.42993C15.05 7.41993 15.46 7.52992 15.73 7.78992L15.74 7.78003Z" />
</svg>
