<svg width="24" height="24" viewBox="0 0 24 24" xmlns="http://www.w3.org/2000/svg">
<path d="M2 12.61H3.97803C3.97803 7.76999 7.3946 4 12.1598 4C16.9251 4 19.982 5.79998 19.982 9.47998C19.982 13.16 17.045 15.45 10.9411 15.45C10.6813 15.45 10.4316 15.56 10.2418 15.74C9.75271 16.2219 9.19352 16.7915 8.65361 17.3415C8.48767 17.5106 8.32354 17.6777 8.16384 17.84V15.63C8.16384 15.26 7.96404 14.92 7.64436 14.75C7.13487 14.47 6.68532 14.21 6.43557 13.75C6.28572 13.46 6.22578 13.09 6.22578 12.6L4.22778 12.5601C4.2078 13.4701 4.38761 14.15 4.67732 14.7C5.02697 15.33 5.53646 15.79 6.17583 16.2V20.3C6.17583 20.71 6.42557 21.08 6.80519 21.23C7.18481 21.39 7.62437 21.29 7.90409 21C7.90409 21 9.88212 18.94 11.3806 17.45C18.7532 17.33 22 14.17 22 9.47998C22 4.78998 18.2238 2 12.1798 2C6.13587 2 2 6.61999 2 12.61ZM11.4862 8C11.4862 7.44828 11.0379 7 10.4862 7C9.93446 7 9.48621 7.44828 9.48621 8C9.48621 8.55172 9.93446 9 10.4862 9C11.0379 9 11.4862 8.55172 11.4862 8ZM9.4862 10.9999C8.4998 11.1643 8.4999 11.1649 8.5 11.1655L8.50021 11.1668L8.50068 11.1695L8.50178 11.1758L8.50469 11.1918C8.50695 11.204 8.50989 11.2191 8.5136 11.2369C8.52099 11.2725 8.53148 11.3191 8.54578 11.375C8.57428 11.4862 8.61856 11.6365 8.68496 11.8102C8.8159 12.1526 9.04356 12.6141 9.4304 13.0439C9.82471 13.482 10.3796 13.8806 11.1322 14.0769C11.8795 14.2719 12.7525 14.2496 13.7609 13.9615L13.2115 12.0384C12.4699 12.2503 11.9679 12.228 11.6371 12.1417C11.3115 12.0568 11.0852 11.8928 10.917 11.706C10.7413 11.5108 10.6252 11.2847 10.5531 11.0959C10.5179 11.0039 10.4958 10.9277 10.4833 10.8788C10.4771 10.8546 10.4734 10.8377 10.4717 10.8299L10.4708 10.8252L10.4714 10.8284L10.4719 10.8315L10.4722 10.8334L10.4724 10.8344C10.4725 10.835 10.4726 10.8355 9.4862 10.9999ZM15.4862 7C16.0379 7 16.4862 7.44829 16.4862 8.00002C16.4862 8.55175 16.0379 9 15.4862 9C14.9344 9 14.4862 8.55175 14.4862 8.00002C14.4862 7.44829 14.9344 7 15.4862 7Z" />
</svg>
