<svg width="24" height="24" viewBox="0 0 24 24" fill="#000000" xmlns="http://www.w3.org/2000/svg">
<path fill-rule="evenodd" clip-rule="evenodd" d="M12 18.5C15.5899 18.5 18.5 15.5899 18.5 12C18.5 8.41015 15.5899 5.5 12 5.5C8.41015 5.5 5.5 8.41015 5.5 12C5.5 15.5899 8.41015 18.5 12 18.5ZM12 20.5C16.6944 20.5 20.5 16.6944 20.5 12C20.5 7.30558 16.6944 3.5 12 3.5C7.30558 3.5 3.5 7.30558 3.5 12C3.5 16.6944 7.30558 20.5 12 20.5Z"/>
<path fill-rule="evenodd" clip-rule="evenodd" d="M16.5796 9.54135L11.0971 15.331C10.8233 15.6148 10.3765 15.6382 10.0747 15.3844L7 13L7.9652 11.8518L10.5037 13.7855L15.5 8.5L16.5796 9.54135Z"/>
</svg>
