<svg width="24" height="24" viewBox="0 0 24 24" xmlns="http://www.w3.org/2000/svg">
<path d="M11.0004 6.68994L13.0004 6.77002L12.7904 11.86L15.2804 10.6799L16.1404 12.49L12.1504 14.39C11.8304 14.54 11.4604 14.5099 11.1704 14.3199C10.8804 14.1299 10.7104 13.7899 10.7204 13.4399L11.0104 6.68994H11.0004ZM17.3004 17.36L18.5304 18.9399C16.8104 20.2799 14.4304 21.1399 11.3304 21.1699C6.44041 21.2199 1.95041 17.6899 2.00041 11.6799C2.04041 6.37993 6.62041 2 12.0804 2C13.8204 2 15.4504 2.42003 16.8704 3.16003L15.9504 4.92993C14.8004 4.32993 13.4804 4 12.0804 4C7.73041 4 4.04041 7.45994 4.00041 11.6899C3.96041 16.4099 7.47041 19.2 11.3104 19.16C13.8804 19.13 15.8704 18.46 17.3004 17.35V17.36ZM20.0004 11.98L22.0004 12.08C21.9104 13.91 21.3404 15.66 20.2904 17.12L18.6704 15.95C19.5004 14.8 19.9404 13.42 20.0104 11.98H20.0004ZM17.2904 5.81995L18.5504 4.27002C20.3004 5.70002 21.5304 7.70993 21.9004 10.0499L19.9204 10.36C19.6304 8.51999 18.6604 6.93995 17.2904 5.81995Z" />
</svg>
