<svg width="24" height="24" viewBox="0 0 24 24" xmlns="http://www.w3.org/2000/svg">
<path d="M10.7004 7.57153L12.7004 7.65149L12.5004 12.5315L14.8304 11.4115L15.6904 13.2115L11.8604 15.0515C11.5404 15.2015 11.1704 15.1816 10.8804 14.9816C10.5904 14.7916 10.4204 14.4516 10.4304 14.1016L10.7004 7.56152V7.57153ZM20.0104 12.1415L21.9804 12.4816C21.5304 15.0616 20.5204 17.3115 18.7704 18.9415C17.0204 20.5715 14.5304 21.5916 11.0604 21.6316C6.34042 21.6816 1.95042 18.1515 2.00042 12.3115C2.04042 7.16152 6.50043 3.09159 11.7604 3.00159C16.1004 2.93159 19.0404 5.18155 20.0704 9.46155L18.1204 9.93152C17.3404 6.66152 15.0904 4.95159 11.7904 5.00159C7.62042 5.07158 4.03042 8.24153 4.00042 12.3215C3.96042 16.8815 7.36042 19.6716 11.0404 19.6316C13.9004 19.6016 15.9704 18.8216 17.4104 17.4816C18.8504 16.1416 19.6404 14.2715 20.0104 12.1515V12.1415Z" />
</svg>
