<svg width="24" height="24" viewBox="0 0 24 24" xmlns="http://www.w3.org/2000/svg">
<path d="M21.6932 2.27929C21.8892 2.46782 22 2.72804 22 3V19H20V4.03965L4.02904 4.66074L4.08055 6.39124C11.4599 5.70738 15.3999 5.86818 17.6296 5.95917C18.1829 5.98176 18.6309 6.00004 19 6.00004L19 8.00004C18.5939 8.00004 18.1171 7.98079 17.5375 7.9574C15.273 7.866 11.441 7.71133 4.14016 8.3943L4.47161 19.5308L19.0322 20.0005L18.9678 21.9995L3.46777 21.4995C2.93982 21.4824 2.51617 21.0577 2.50045 20.5297L2.00045 3.72975C1.98413 3.18126 2.41284 2.72208 2.96115 2.70076L20.9611 2.00076C21.2329 1.99019 21.4972 2.09076 21.6932 2.27929ZM16.6099 14.0419L14.4594 11.672L15.9406 10.328L18.7406 13.4137C19.1028 13.8129 19.0834 14.4274 18.6968 14.803L15.6968 17.7173L14.3032 16.2827L16.6099 14.0419ZM8.05944 9.828L5.25944 12.9137C4.89721 13.3129 4.91657 13.9274 5.30322 14.303L8.30322 17.2173L9.69679 15.7827L7.39008 13.5419L9.54056 11.172L8.05944 9.828ZM9.05413 18.1753C10.0555 15.1713 11.0738 12.1163 13.1056 8.05273L14.8944 8.94716C12.9281 12.8798 11.9465 15.8229 10.9487 18.8162L9.05133 18.1837L9.05413 18.1753Z" />
</svg>
