<svg width="24" height="24" viewBox="0 0 24 24" xmlns="http://www.w3.org/2000/svg">
<path d="M12.6804 6.14062V7.48058C13.3604 7.58058 13.9104 7.84061 14.3504 8.26061C14.7804 8.68061 15.0404 9.21057 15.1304 9.84057L13.1704 10.1505C13.1404 9.84051 13.0104 9.60053 12.8004 9.42053C12.5904 9.24053 12.3104 9.15051 11.9704 9.15051C11.6504 9.15051 11.4104 9.2206 11.2304 9.3706C11.0504 9.5206 10.9704 9.73059 10.9704 9.99059C10.9704 10.2506 11.0604 10.4506 11.2504 10.6106C11.4404 10.7806 11.7504 10.9106 12.1804 11.0106C12.9504 11.2006 13.5604 11.4205 14.0104 11.6705C14.4604 11.9205 14.7904 12.2205 14.9904 12.5705C15.1904 12.9206 15.2904 13.3506 15.2904 13.8706C15.2904 14.5706 15.0504 15.1606 14.5704 15.6306C14.0904 16.0906 13.4604 16.3806 12.6804 16.4906V17.8205H11.2404V16.4706C10.6904 16.3706 10.1904 16.2005 9.75038 15.9405C9.31038 15.6805 8.94037 15.3505 8.65037 14.9405L9.70037 13.4506C10.0404 13.9106 10.4104 14.2706 10.8204 14.5006C11.2204 14.7406 11.6804 14.8606 12.2004 14.8606C12.4804 14.8606 12.7104 14.7905 12.8804 14.6505C13.0504 14.5105 13.1404 14.3105 13.1404 14.0705C13.1404 13.8005 13.0404 13.5805 12.8504 13.4105C12.6604 13.2505 12.3004 13.0905 11.7704 12.9405C11.0304 12.7405 10.4404 12.5006 10.0004 12.2406C9.57038 11.9806 9.25037 11.6806 9.07037 11.3306C8.88037 10.9806 8.79037 10.5505 8.79037 10.0605C8.79037 9.39054 9.02038 8.83061 9.47038 8.38061C9.92038 7.92061 10.5104 7.6306 11.2504 7.5006V6.14062H12.6904H12.6804ZM12.2904 4.0006C7.90037 4.0506 4.04038 8.18054 4.00038 12.5605C3.96038 17.4305 7.89037 20.0406 11.7404 19.9906C14.2204 19.9606 15.9804 19.2705 17.1704 18.1805C18.9704 16.5405 19.5004 14.0506 19.5004 11.8506C19.5004 7.52058 16.6204 3.9506 12.2904 4.0006ZM12.2704 2.0006C17.7604 1.9406 21.5104 6.36058 21.5104 11.8506C21.5104 14.5806 20.7604 17.6305 18.5304 19.6605C17.0404 21.0205 14.8704 21.9606 11.7704 21.9906C6.89038 22.0506 1.95038 18.7005 2.00038 12.5405C2.05038 7.14052 6.85038 2.0706 12.2704 2.0006Z" />
</svg>
