<svg width="24" height="24" viewBox="0 0 24 24" xmlns="http://www.w3.org/2000/svg">
<path d="M18.65 4.73932L14.34 4.15937V10.4094H18.2L18.66 4.73932H18.65ZM20.72 3.94941L20.11 11.4793C20.07 11.9993 19.64 12.3994 19.11 12.3994H13.33C12.78 12.3994 12.33 11.9494 12.33 11.3994V2.99933C12.33 2.70933 12.45 2.43933 12.67 2.24933C12.89 2.05933 13.18 1.96934 13.46 2.00934L19.85 2.86933C20.38 2.93933 20.76 3.4094 20.71 3.9394L20.72 3.94941ZM19.34 17.8094L15.68 17.9394L15.58 19.7994H19.34V17.8094ZM21.34 16.7694V20.7994C21.34 21.3494 20.89 21.7994 20.34 21.7994H14.52C14.24 21.7994 13.98 21.6893 13.79 21.4893C13.6 21.2893 13.5 21.0193 13.52 20.7493L13.73 16.9294C13.76 16.4094 14.18 15.9993 14.69 15.9793L20.3 15.7794C20.57 15.7694 20.83 15.8694 21.03 16.0594C21.22 16.2494 21.34 16.5094 21.34 16.7794V16.7694ZM7.8 5.63935L4 5.28937V7.21943H7.8V5.62934V5.63935ZM9.8 4.72931V8.22931C9.8 8.77931 9.35 9.22931 8.8 9.22931H3C2.45 9.22931 2 8.77931 2 8.22931V4.19941C2 3.91941 2.12 3.64942 2.33 3.45942C2.54 3.26942 2.82 3.17941 3.09 3.19941L8.89 3.72931C9.4 3.77931 9.8 4.20931 9.8 4.72931ZM2.27 12.4694L4.27 12.5194L4.08 20.0093H8.66L8.96 14.1393L5.98 13.9694L6.09 11.9694L10.06 12.1894C10.61 12.2194 11.03 12.6893 11 13.2393L10.6 21.0494C10.57 21.5794 10.13 21.9993 9.6 21.9993H3.05C2.78 21.9993 2.52 21.8894 2.33 21.6994C2.14 21.5094 2.04 21.2493 2.05 20.9793L2.26 12.4594L2.27 12.4694Z" />
</svg>
