<svg width="24" height="24" viewBox="0 0 24 24" xmlns="http://www.w3.org/2000/svg">
<path d="M19.78 14.3C19.87 10.55 19.99 5.80005 19.99 5.80005L13.18 5.42004C13.09 7.62004 13.05 11.0401 12.98 14.1801C15.46 14.3001 17.19 14.18 19.79 14.3H19.78ZM12.84 19.01L19.68 18.74C19.68 18.74 19.7 17.74 19.74 16.3C17.13 16.18 15.4 16.3001 12.94 16.1801C12.91 17.2301 12.88 18.2 12.84 19.02V19.01ZM4.15 10.3201L4.32 19.35L10.83 19.0901C10.94 16.8801 10.99 13.4 11.05 10.25C8.65 10.19 6.5 10.3701 4.14 10.3201H4.15ZM11.18 5.31006L5.64 5L5.75 3L21.06 3.85999C21.6 3.88999 22.02 4.34 22 4.88L21.64 19.73C21.63 20.26 21.21 20.6801 20.68 20.7101L3.37 21.4C3.1 21.41 2.84 21.31 2.64 21.13C2.44 20.95 2.32999 20.69 2.32999 20.42L2 3.45007L4 3.41003L4.1 8.33008C6.49 8.40008 8.66 8.21001 11.09 8.26001C11.11 7.16001 11.14 6.15007 11.18 5.32007V5.31006Z" />
</svg>
