<svg xmlns="http://www.w3.org/2000/svg" width="24" height="24" viewBox="0 0 24 24">
    <path
        d="M21.316 10.271l-3.152-5.516C17.544 3.67 16.39 3 15.14 3H8.862c-1.25 0-2.405.67-3.025 1.755l-3.152 5.516c-.612 1.072-.612 2.386 0 3.457l3.152 5.517C6.457 20.33 7.61 21 8.862 21h6.277c1.25 0 2.405-.67 3.025-1.755l3.152-5.517c.612-1.07.612-2.385 0-3.457zm-1.736 2.465c.26-.456.26-1.016 0-1.472l-3.152-5.516C16.163 5.285 15.672 5 15.139 5H8.862c-.533 0-1.025.285-1.289.748l-3.152 5.516c-.26.456-.26 1.016 0 1.472l3.152 5.516c.264.463.756.748 1.289.748h6.277c.533 0 1.024-.285 1.289-.748l3.152-5.516zM15 12c0 1.657-1.343 3-3 3-1.656 0-3-1.343-3-3s1.344-3 3-3c1.657 0 3 1.343 3 3zm2 0c0 2.761-2.238 5-5 5-2.761 0-5-2.239-5-5s2.239-5 5-5c2.762 0 5 2.239 5 5z" />
</svg>