<svg width="24" height="24" viewBox="0 0 24 24" xmlns="http://www.w3.org/2000/svg">
<path d="M13.32 11.62C12.91 11.43 12.64 10.98 12.86 10.5C13.07 10.03 13.55 9.93 13.96 10.12C14.37 10.31 14.64 10.77 14.41 11.24C14.16 11.75 13.57 11.74 13.32 11.62ZM15.89 9.70007C15.62 10.0601 15.13 10.23 14.7 9.92004C14.28 9.62004 14.28 9.13002 14.55 8.77002C14.82 8.41002 15.32 8.24005 15.73 8.55005C16.19 8.90005 16.05 9.48007 15.88 9.70007H15.89ZM17.2 9.85999C17.65 9.85999 18.09 10.15 18.1 10.67C18.11 11.19 17.72 11.49 17.27 11.49C16.82 11.49 16.38 11.19 16.38 10.67C16.38 10.1 16.92 9.85999 17.2 9.85999ZM16.32 12.2201C16.5 12.6301 16.4 13.14 15.93 13.36C15.45 13.57 15.03 13.33 14.85 12.91C14.67 12.49 14.78 11.98 15.26 11.78C15.79 11.55 16.22 11.9601 16.33 12.2201H16.32ZM7.49002 12.3101L6.33002 12.38L6.22 10.38L7.41 10.3201L7.36002 9.06006L9.36002 8.97998L9.41 10.2001L10.38 10.14L10.5 12.14L9.5 12.2001L9.54001 13.2201L7.54001 13.3L7.5 12.3101H7.49002ZM11.89 6C9.82001 6 8.13003 6.54998 6.87003 7.59998C4.93003 9.21998 4 11.9901 4 15.5601C4 16.3201 4.18002 16.9801 4.49002 17.4501C4.69002 17.7501 4.92002 17.98 5.21002 17.98C5.73002 17.98 6.09 17.7 6.44 17.35C6.78 17.01 7.09001 16.6001 7.42001 16.2001C8.48001 14.9001 9.72001 13.6801 11.89 13.6801C14.06 13.6801 15.23 14.81 16.28 16.01C16.97 16.79 17.53 17.66 18.7 17.66C19.03 17.66 19.3 17.42 19.52 17.11C19.83 16.66 20.02 16.05 20.02 15.4C20.02 12.28 19.32 9.89005 17.9 8.30005C16.52 6.75005 14.48 6 11.88 6H11.89ZM11.89 4C15.15 4 17.67 5.03009 19.4 6.97009C21.09 8.87009 22.03 11.68 22.03 15.4C22.03 16.72 21.53 17.9301 20.8 18.7001C20.22 19.3201 19.48 19.66 18.71 19.66C17.19 19.66 16.21 18.9001 15.32 17.9301C14.44 16.9701 13.71 15.6801 11.89 15.6801C10.9 15.6801 10.23 16.12 9.68002 16.66C9.22002 17.11 8.83 17.64 8.44 18.11C7.55 19.18 6.59002 19.98 5.21002 19.98C4.47002 19.98 3.75002 19.65 3.18002 19.01C2.49002 18.25 2 17.0201 2 15.5601C2 11.2701 3.26003 8.01006 5.59003 6.06006C7.18003 4.74006 9.28001 4 11.89 4Z" />
</svg>
