<svg width="24" height="24" viewBox="0 0 24 24" xmlns="http://www.w3.org/2000/svg">
<path d="M3.37749 7.03998L5.3875 6.94L5.9875 19.99L15.8875 19.99L15.8875 22L5.0275 22C4.4875 22 4.0475 21.58 4.0275 21.04L3.3875 7.03998L3.37749 7.03998ZM19.2675 2L19.3175 4.00995L9.79749 4.23999L9.8275 16.37L18.6175 16.37L17.9875 6L19.9975 5.88L20.6975 17.32C20.7175 17.59 20.6175 17.87 20.4275 18.07C20.2375 18.27 19.9675 18.38 19.6975 18.38L8.83749 18.38C8.28749 18.38 7.8375 17.94 7.8275 17.38L7.7875 3.25995C7.7875 2.70995 8.21749 2.26 8.76749 2.25L19.2675 2Z" />
</svg>
