<svg width="24" height="24" viewBox="0 0 24 24" xmlns="http://www.w3.org/2000/svg">
<path d="M7.71002 13.1301C8.51002 13.1301 9.28002 13.6401 9.30002 14.5601C9.32002 15.4801 8.63002 16.01 7.83002 16.01C7.03002 16.01 6.26001 15.4901 6.26001 14.5601C6.26001 13.5501 7.22002 13.1301 7.71002 13.1201V13.1301ZM4.03 10.3101L4.01001 17.3401C11.01 17.2401 16.32 17.2401 19.98 17.3301V9.63013L4.03 10.3101ZM19.98 7.63013V6H4.05002V8.30005L19.98 7.63013ZM21.98 5V18.3501C21.98 18.6201 21.87 18.8801 21.68 19.0701C21.49 19.2601 21.22 19.3601 20.95 19.3501C17.14 19.2301 11.19 19.2301 3.02002 19.3501C2.75002 19.3501 2.49002 19.2501 2.30002 19.0601C2.11002 18.8701 2 18.6101 2 18.3501L2.05002 5C2.05002 4.45 2.50002 4 3.05002 4H20.98C21.53 4 21.98 4.45 21.98 5Z" />
</svg>
