<svg width="24" height="24" viewBox="0 0 24 24" xmlns="http://www.w3.org/2000/svg">
<path fill-rule="evenodd" d="M13.5 3.3999V2.3999H11.5V3.3999C11.5 3.91648 11.5635 4.39506 11.6316 4.83752L11.7837 5.82589L13.7604 5.52177L13.6084 4.5334C13.5438 4.1136 13.5 3.75817 13.5 3.3999ZM7.773 7.39044C4.87191 8.55778 3.29223 12.1649 4.45111 15.7348L2.54883 16.3523C0.902261 11.2801 3.71378 5.45406 9.21698 5.02387C10.2669 4.9418 10.8134 6.08687 10.3223 6.86637C10.0199 7.34643 9.44269 8.35869 9.06277 9.60618C8.68122 10.859 8.52351 12.2658 8.9517 13.5928L8.96212 13.6251L8.97032 13.6581C9.05907 14.0141 9.30608 14.4475 9.73585 14.9399C10.1581 15.4236 10.7071 15.908 11.3125 16.3687C12.5235 17.2902 13.8698 18.0488 14.6419 18.4557C15.6152 18.9687 15.5883 20.4893 14.4285 20.8494C11.077 21.89 6.30537 22.2614 3.54479 18.5822L5.14453 17.3819C6.74764 19.5184 9.45976 19.8687 12.1726 19.3564C11.5211 18.9625 10.7953 18.4883 10.1014 17.9603C9.43243 17.4513 8.7705 16.8753 8.22911 16.2551C7.70307 15.6524 7.23972 14.9502 7.03845 14.1761C6.45227 12.3305 6.70325 10.4888 7.14953 9.0235C7.3325 8.42269 7.55246 7.87129 7.773 7.39044ZM14.8833 12.6057C15.3212 12.2529 15.4529 11.9005 15.4568 11.6758C15.4619 11.3896 15.2862 10.8665 14.7906 10.3533C14.295 9.83998 13.7784 9.64608 13.4922 9.64106C13.2675 9.63713 12.9107 9.75644 12.5427 10.1817C12.1733 10.6086 11.9653 11.1599 11.9574 11.6145C11.9429 12.4428 12.6026 13.126 13.4309 13.1405C13.8855 13.1485 14.4437 12.96 14.8833 12.6057ZM13.3958 15.1402C15.3285 15.1741 17.4227 13.6435 17.4565 11.7108C17.4904 9.77814 15.4599 7.67524 13.5272 7.64137C11.5945 7.6075 9.99155 9.64673 9.95768 11.5794C9.92381 13.5121 11.4631 15.1064 13.3958 15.1402ZM19.0962 4.17805L18.5138 4.99094C18.1769 5.46109 17.8391 5.93082 17.5 6.3999L16.9141 7.21032L15.2933 6.03863L15.8792 5.22821C16.2163 4.76176 16.5525 4.29434 16.888 3.82609L17.4704 3.01321L19.0962 4.17805ZM21.2346 9.672L22 9.3999L21.7374 7.49319L20.7654 7.72784C20.4284 7.80918 20.1415 7.92208 19.9194 8.0095L19.8852 8.02297C19.6473 8.11643 19.4764 8.18077 19.2831 8.22373L18.3069 8.44066L18.7407 10.393L19.7169 10.1761C20.0792 10.0956 20.3811 9.97698 20.6157 9.88479L20.6166 9.88442C20.8626 9.78774 21.0356 9.72005 21.2346 9.672ZM18.3052 12.6682L19.2684 12.9366C19.9554 13.128 20.6374 13.3966 21.2739 13.7393L22 14.0874L21.2061 15.9744L20.3257 15.5003C19.828 15.2323 19.2849 15.0174 18.7315 14.8632L17.7682 14.5947L18.3052 12.6682ZM17.757 16.7778L17.2782 15.8999L15.5224 16.8575L16.0012 17.7354C16.1727 18.0499 16.3855 18.3814 16.5723 18.6724C16.6447 18.7851 16.7131 18.8918 16.7738 18.9891L17.303 19.8375L19 18.7791L18.4708 17.9306C18.3789 17.7834 18.2925 17.6489 18.2107 17.5215L18.2106 17.5214C18.042 17.259 17.893 17.0271 17.757 16.7778Z" />
</svg>
