<svg width="24" height="24" viewBox="0 0 24 24" xmlns="http://www.w3.org/2000/svg">
    <path fill-rule="evenodd"
        d="M12 1L15.2218 4.22182H19.7782V8.77818L23 12L19.7782 15.2218V19.7782H15.2218L12 23L8.77817 19.7782H4.22183V15.2218L1 12L4.22183 8.77818V4.22182H8.77818L12 1ZM12.9723 12C12.9723 14.3543 11.5776 16.383 9.56932 17.3047C10.3093 17.6443 11.1325 17.8336 12 17.8336C15.2218 17.8336 17.8336 15.2218 17.8336 12C17.8336 8.77817 15.2218 6.16637 12 6.16637C11.1325 6.16637 10.3093 6.35571 9.56932 6.69532C11.5776 7.61704 12.9723 9.64565 12.9723 12Z" />
</svg>