<svg xmlns="http://www.w3.org/2000/svg" width="24" height="24" viewBox="0 0 24 24">
    <path
        d="M20.49 2h-6.26c-.828 0-1.5.672-1.5 1.5v4c.005.826.674 1.495 1.5 1.5h6.26C21.324 9 22 8.324 22 7.49v-4c-.003-.398-.163-.778-.446-1.058-.284-.28-.666-.435-1.064-.432zm-17 0h6.25c.825 0 1.495.665 1.5 1.49V12c0 .828-.671 1.5-1.5 1.5H3.5c-.828 0-1.5-.672-1.5-1.5V3.49c.006-.82.67-1.485 1.49-1.49zm0 13h6.25c.829 0 1.5.672 1.5 1.5v4c0 .828-.671 1.5-1.5 1.5H3.49c-.398-.003-.778-.163-1.058-.446-.28-.284-.435-.666-.432-1.064v-4c.005-.82.67-1.484 1.49-1.49zm10.74-4.51h6.26v.01c.829 0 1.5.672 1.5 1.5v8.49c0 .828-.671 1.5-1.5 1.5h-6.26c-.828 0-1.5-.672-1.5-1.5v-8.5c0-.828.672-1.5 1.5-1.5z" />
</svg>