<svg xmlns="http://www.w3.org/2000/svg" width="24" height="24" viewBox="0 0 24 24">
    <path
        d="M4 11h5V4H4v7zm-2 1c0 .552.448 1 1 1h7c.552 0 1-.448 1-1V3c0-.552-.448-1-1-1H3c-.552 0-1 .448-1 1v9zm13-5h5V4h-5v3zm-2 1c0 .552.448 1 1 1h7c.552 0 1-.448 1-1V3c0-.552-.448-1-1-1h-7c-.552 0-1 .448-1 1v5zm7 12h-5v-7h5v7zm-6 2c-.552 0-1-.448-1-1v-9c0-.552.448-1 1-1h7c.552 0 1 .448 1 1v9c0 .552-.448 1-1 1h-7zM4 20h5v-3H4v3zm-2 1c0 .552.448 1 1 1h7c.552 0 1-.448 1-1v-5c0-.552-.448-1-1-1H3c-.552 0-1 .448-1 1v5z" />
</svg>