<svg width="24" height="24" viewBox="0 0 24 24" xmlns="http://www.w3.org/2000/svg">
    <path fill-rule="evenodd"
        d="M13.5532 15.6492V13.6492H15.5532H19.0689L19.1052 13.598C19.3481 13.2565 19.7676 12.6422 19.9966 12.2624C19.9924 12.209 19.9846 12.1498 19.9739 12.0909C19.9614 12.0217 19.9489 11.9745 19.9448 11.9606L19.9371 11.9342L19.9301 11.9076C19.5171 10.3411 18.602 6.91297 18.2019 5.56253C18.1067 5.24115 17.9672 5.08245 17.8824 5.00727L17.8741 5H9.11547L9 5.08276V14V14.3594C9.06295 14.3915 9.1271 14.4264 9.19133 14.4644C9.511 14.6532 9.9498 14.9835 10.2542 15.5395C10.6178 16.2035 10.8102 16.9971 10.9347 17.511L10.953 17.5865C11.1076 18.2215 11.2087 18.6132 11.348 18.9084C11.456 19.1375 11.5503 19.3237 11.6314 19.468C11.7061 19.601 11.7477 19.6588 11.7548 19.6687L11.7555 19.6698C11.8691 19.8071 11.9557 19.876 12.0059 19.91C12.0548 19.943 12.0902 19.957 12.1162 19.9651C12.189 19.9877 12.2227 19.9888 12.4459 19.9962L12.5536 19.9997C12.8974 19.9934 13.0961 19.8682 13.2562 19.6993C13.3995 19.548 13.4975 19.3685 13.5532 19.2352V15.6492ZM8.75134 3.03343C8.41054 2.41724 7.754 2 7 2H4C2.89543 2 2 2.89543 2 4V14C2 15.1046 2.89543 16 4 16H7H7.75335C8.05525 16.1073 8.35991 16.2442 8.5 16.5C8.73452 16.9283 8.8738 17.5007 9.0185 18.0954C9.15739 18.6662 9.30127 19.2575 9.53917 19.7618C9.77685 20.2656 10.0058 20.6924 10.2143 20.9444C11.0574 21.9638 11.9091 21.9846 12.4221 21.9971C12.4585 21.998 12.4932 21.9988 12.5261 22C14.4963 22 15.3651 20.3554 15.5532 19.5331V17.6492V15.6492H17.5532H19.2473C20.0272 15.6492 20.5642 15.0543 20.7353 14.7569C21.0089 14.372 21.6177 13.4867 21.864 13.0249C22.1103 12.563 21.9666 11.7477 21.864 11.3978C21.4536 9.8407 20.53 6.38011 20.1196 4.99448C19.7091 3.60884 18.7172 3.08748 18.2725 3H9.11547C8.99271 3 8.87085 3.0113 8.75134 3.03343ZM17.7719 4.93035V4.93035L17.7762 4.93226L17.7719 4.93035ZM4 14H7V4.05556V4H4L4 14Z" />
</svg>