<svg width="24" height="24" viewBox="0 0 24 24" xmlns="http://www.w3.org/2000/svg">
<path d="M7 20.6899L7.02 18.6899L16.98 18.7899L16.96 20.7899L7 20.6899ZM2 4.38989L4 4.32996L4.28 14.9099C8.83 14.6999 14.21 14.7299 19.98 14.9199C19.9 11.7699 19.91 8.5699 19.98 5.1499L5.92999 5L5.95 3L21.02 3.15991C21.29 3.15991 21.54 3.26996 21.73 3.45996C21.92 3.65996 22.02 3.91994 22.01 4.18994C21.9 8.34994 21.89 12.1499 22.01 15.9299C22.01 16.2099 21.91 16.4699 21.72 16.6699C21.52 16.8699 21.25 16.97 20.98 16.96C14.43 16.72 8.33999 16.68 3.37 16.96C3.1 16.97 2.84 16.88 2.64 16.7C2.44 16.51 2.31999 16.26 2.31999 15.99L2.00999 4.38989H2Z" />
</svg>
