<svg width="24" height="24" viewBox="0 0 24 24" xmlns="http://www.w3.org/2000/svg">
<path d="M12.92 2V4.30005C14.08 4.47005 15.03 4.92001 15.77 5.64001C16.51 6.36001 16.96 7.26008 17.1 8.33008L13.75 8.87C13.69 8.34 13.48 7.92011 13.12 7.61011C12.76 7.31011 12.28 7.15002 11.69 7.15002C11.15 7.15002 10.72 7.28004 10.42 7.54004C10.12 7.80004 9.97 8.15009 9.97 8.59009C9.97 9.03009 10.13 9.38003 10.45 9.66003C10.77 9.95003 11.3 10.1801 12.05 10.3501C13.37 10.6601 14.41 11.0401 15.18 11.4601C15.95 11.8901 16.51 12.41 16.85 13.01C17.19 13.61 17.37 14.35 17.37 15.24C17.37 16.44 16.96 17.44 16.14 18.25C15.32 19.05 14.24 19.5401 12.91 19.7301V22H10.44V19.6801C9.5 19.5301 8.64998 19.23 7.88998 18.78C7.12998 18.34 6.5 17.7701 6 17.0701L7.79999 14.51C8.38999 15.31 9.01999 15.9201 9.70999 16.3301C10.4 16.7301 11.18 16.9401 12.07 16.9401C12.56 16.9401 12.95 16.8201 13.24 16.5701C13.53 16.3301 13.68 16.0001 13.68 15.5801C13.68 15.1101 13.51 14.7401 13.19 14.4601C12.86 14.1801 12.25 13.91 11.34 13.65C10.07 13.3 9.06 12.9001 8.31 12.4501C7.57 12.0101 7.02999 11.49 6.70999 10.89C6.38999 10.28 6.23001 9.56009 6.23001 8.72009C6.23001 7.57009 6.61998 6.61008 7.38998 5.83008C8.15998 5.05008 9.18 4.55009 10.44 4.34009V2H12.91H12.92Z" />
</svg>
