<svg width="24" height="24" viewBox="0 0 24 24" xmlns="http://www.w3.org/2000/svg">
    <path
        d="M13.174 4.41992V6.25592C14.11 6.38792 14.884 6.75392 15.496 7.35392C16.108 7.95392 16.468 8.73392 16.576 9.69392L14.65 9.99992C14.59 9.35192 14.362 8.84792 13.966 8.48792C13.582 8.12792 13.066 7.94792 12.418 7.94792C11.794 7.94792 11.302 8.10992 10.942 8.43392C10.594 8.74592 10.42 9.17792 10.42 9.72992C10.42 10.2699 10.588 10.7079 10.924 11.0439C11.272 11.3799 11.854 11.6439 12.67 11.8359C14.146 12.1719 15.208 12.6459 15.856 13.2579C16.504 13.8579 16.828 14.6559 16.828 15.6519C16.828 16.6839 16.486 17.5119 15.802 18.1359C15.13 18.7599 14.254 19.1199 13.174 19.2159V21.0519H11.716V19.1619C10.936 19.0539 10.228 18.8139 9.592 18.4419C8.968 18.0579 8.446 17.5419 8.026 16.8939L9.16 15.4719C9.604 16.1559 10.12 16.6779 10.708 17.0379C11.308 17.3859 12.016 17.5599 12.832 17.5599C13.42 17.5599 13.888 17.3979 14.236 17.0739C14.596 16.7499 14.776 16.3299 14.776 15.8139C14.776 15.2619 14.59 14.8299 14.218 14.5179C13.858 14.2059 13.216 13.9359 12.292 13.7079C10.9 13.3719 9.892 12.8859 9.268 12.2499C8.656 11.6019 8.35 10.7859 8.35 9.80192C8.35 8.86592 8.662 8.07992 9.286 7.44392C9.91 6.79592 10.72 6.40592 11.716 6.27392V4.41992H13.174Z" />
</svg>