<svg width="24" height="24" viewBox="0 0 24 24" xmlns="http://www.w3.org/2000/svg">
<path d="M3.34251 12.66L5.34251 12.78L5.05251 17.58L18.9325 17.09L18.3925 11.95L20.3825 11.73L21.0425 17.95C21.0725 18.22 20.9825 18.5 20.8025 18.71C20.6225 18.92 20.3625 19.04 20.0825 19.05L4.03251 19.62C3.75251 19.62 3.48251 19.52 3.28251 19.32C3.08251 19.12 2.98251 18.84 3.00251 18.56L3.35252 12.66H3.34251ZM13.0825 11.79L16.2125 8.10999L17.7325 9.40002L12.8425 15.16C12.6625 15.37 12.4025 15.49 12.1225 15.51C11.8425 15.52 11.5725 15.42 11.3725 15.22L6.35252 10.28L7.75251 8.84998C7.75251 8.84998 9.82252 10.89 11.0725 12.12V3H13.0725V11.79H13.0825Z" />
</svg>
