<svg xmlns="http://www.w3.org/2000/svg" width="24" height="24" viewBox="0 0 24 24">
    <path
        d="M15.83 3.93l1.6-1.608c.21-.21.497-.322.773-.322.288 0 .564.1.785.322l2.586 2.6c.43.434.43 1.134 0 1.567l-1.6 1.608-.422.425-.307.309-4.156-4.156.318-.32.423-.425zM13.68 6.093L2.582 17.248c-.373.375-.582.882-.582 1.41V21.5c0 .276.224.5.5.5h2.813c.532 0 1.043-.212 1.418-.59L17.834 10.25 13.68 6.093z" />
    <path
        d="M21.574 6.489c.43-.433.43-1.133 0-1.567l-2.586-2.6C18.767 2.1 18.49 2 18.203 2c-.276 0-.563.111-.773.322l-2.341 2.353 4.155 4.155 2.33-2.341zm-2.333-.49l.291-.293-1.323-1.331-.295.296L19.24 6zm-1.407 4.25L13.68 6.093 2.582 17.248c-.373.375-.582.882-.582 1.41V21.5c0 .276.224.5.5.5h2.813c.532 0 1.043-.212 1.418-.59L17.834 10.25zm-4.152-1.324L4 18.66V20h1.313l9.696-9.748-1.327-1.327z" />
</svg>