<svg width="24" height="24" viewBox="0 0 24 24" xmlns="http://www.w3.org/2000/svg">
<path d="M10.0705 17.6105L8.22049 16.8505C8.22049 16.8505 8.76049 15.5406 9.85049 14.4906C10.6405 13.7306 11.7205 13.1205 13.0605 13.1205C16.2805 13.1205 17.8205 15.7606 17.8205 15.7606L16.0905 16.7706C16.0905 16.7706 15.1005 15.1205 13.0605 15.1205C12.2905 15.1205 11.6905 15.5006 11.2405 15.9406C10.4605 16.6906 10.0805 17.6105 10.0805 17.6105H10.0705ZM12.4505 6.83044V4.83044C17.4205 4.83044 21.7105 8.11044 21.6705 13.0804C21.6505 15.3004 20.9505 17.4805 19.4505 19.1105C17.9605 20.7405 15.6905 21.8505 12.4505 21.8505C6.74049 21.8505 2.95049 17.8905 3.00049 12.1705C3.06049 4.97053 8.72049 1.95061 14.6005 2.00061L14.5805 4.00061C9.78049 3.96061 5.05049 6.30055 5.00049 12.1906C4.96049 16.7006 7.93049 19.8505 12.4505 19.8505C14.9905 19.8505 16.8105 19.0406 17.9805 17.7606C19.1405 16.4906 19.6605 14.7804 19.6705 13.0604C19.7005 9.23042 16.2805 6.83044 12.4505 6.83044ZM14.1305 9.03064C14.7205 9.03064 15.2005 9.5305 15.2005 10.1405C15.2005 10.7505 14.7205 11.2506 14.1305 11.2506C13.5405 11.2506 13.0505 10.7505 13.0505 10.1405C13.0505 9.5305 13.5305 9.03064 14.1305 9.03064ZM9.61049 9.03064C10.2005 9.03064 10.6805 9.5305 10.6805 10.1405C10.6805 10.7505 10.2005 11.2506 9.61049 11.2506C9.02049 11.2506 8.53049 10.7505 8.53049 10.1405C8.53049 9.5305 9.01049 9.03064 9.61049 9.03064Z" />
</svg>
