<svg width="24" height="24" viewBox="0 0 24 24" xmlns="http://www.w3.org/2000/svg">
<path d="M17.3605 12.4808H15.3605C15.3505 14.1407 14.3605 15.9706 12.3405 15.9506C11.1005 15.9408 9.53049 14.8107 9.53049 13.1205H7.53049C7.53049 16.0106 10.2005 17.9308 12.3205 17.9506C15.5705 17.9906 17.3405 15.1808 17.3605 12.4808ZM12.4505 4.83044V6.83044H12.4305C16.2705 6.83044 19.6805 9.23059 19.6505 13.0604C19.6405 14.7806 19.1205 16.4908 17.9605 17.7606C16.8005 19.0406 14.9805 19.8505 12.4405 19.8505C7.92049 19.8505 4.95049 16.7006 4.99049 12.1908C5.04048 6.30065 9.77049 3.96081 14.5805 4.00061L14.6005 2.00061C8.72049 1.9508 3.06049 4.97058 3.00049 12.1708C2.95049 17.8907 6.74048 21.8505 12.4505 21.8505C15.6905 21.8505 17.9605 20.7406 19.4505 19.1107C20.9505 17.4806 21.6505 15.3007 21.6705 13.0804C21.7105 8.11047 17.4205 4.83044 12.4505 4.83044ZM15.2005 10.1405C15.2005 9.53063 14.7205 9.03063 14.1305 9.03063C13.5405 9.03063 13.0605 9.53063 13.0605 10.1405C13.0605 10.7506 13.5405 11.2508 14.1305 11.2508C14.7205 11.2508 15.2005 10.7506 15.2005 10.1405ZM10.6805 10.1405C10.6805 9.53039 10.2005 9.03063 9.61054 9.03063C9.02052 9.03063 8.54053 9.53039 8.54053 10.1405C8.54053 10.7506 9.02052 11.2506 9.61054 11.2506C10.2005 11.2506 10.6805 10.7506 10.6805 10.1405Z" />
</svg>
