<svg width="24" height="24" viewBox="0 0 24 24" xmlns="http://www.w3.org/2000/svg">
<path d="M8.55049 15.8705L8.30049 13.8805L16.1105 12.9105L16.3605 14.9005L8.55049 15.8705ZM12.4505 6.83044V4.83044C17.4205 4.83044 21.7105 8.11044 21.6705 13.0804C21.6505 15.3004 20.9505 17.4805 19.4505 19.1105C17.9605 20.7405 15.6805 21.8505 12.4505 21.8505C6.74049 21.8505 2.95049 17.8905 3.00049 12.1705C3.06049 4.97053 8.7205 1.95061 14.6005 2.00061L14.5805 4.00061C9.77049 3.96061 5.04049 6.30055 4.99049 12.1906C4.95049 16.7006 7.92049 19.8505 12.4405 19.8505C14.9805 19.8505 16.8005 19.0406 17.9605 17.7606C19.1205 16.4906 19.6405 14.7804 19.6505 13.0604C19.6805 9.23042 16.2605 6.83044 12.4305 6.83044H12.4505ZM14.1305 9.03064C14.7205 9.03064 15.2005 9.5305 15.2005 10.1405C15.2005 10.7505 14.7205 11.2506 14.1305 11.2506C13.5405 11.2506 13.0605 10.7505 13.0605 10.1405C13.0605 9.5305 13.5405 9.03064 14.1305 9.03064ZM9.61049 9.03064C10.2005 9.03064 10.6805 9.5305 10.6805 10.1405C10.6805 10.7505 10.2005 11.2506 9.61049 11.2506C9.02049 11.2506 8.5405 10.7505 8.5405 10.1405C8.5405 9.5305 9.02049 9.03064 9.61049 9.03064Z" />
</svg>
