<svg width="24" height="24" viewBox="0 0 24 24" xmlns="http://www.w3.org/2000/svg">
<path d="M2 13.0099H3.98C3.98 10.7022 4.75748 8.63778 6.08806 7.10924C6.53405 7.48972 6.99172 7.87962 7.45771 8.2766C10.0937 10.5222 12.9956 12.9944 15.5541 15.2696C14.2939 15.6486 12.7613 15.8499 10.95 15.8499C10.69 15.8499 10.44 15.9599 10.25 16.1399C9.76046 16.6218 9.20071 17.1914 8.66025 17.7414C8.49415 17.9105 8.32986 18.0777 8.17 18.2399V16.0299C8.17 15.6599 7.97 15.3199 7.65 15.1499C7.14 14.8699 6.69 14.6099 6.44 14.1499C6.29 13.8599 6.23 13.4899 6.23 12.9999L4.23 12.96C4.21 13.87 4.39 14.5499 4.68 15.0999C5.03 15.7299 5.54 16.1899 6.18 16.5999V20.7C6.18 21.11 6.43 21.4799 6.81 21.6299C7.19 21.7899 7.63 21.6899 7.91 21.3999C7.91 21.3999 9.89 19.3399 11.39 17.8499C13.778 17.811 15.7336 17.4539 17.2866 16.8296C18.0111 17.4915 18.69 18.1255 19.3056 18.7195L20.0253 19.4139L21.414 17.9746L20.6943 17.2803C20.2143 16.8171 19.6962 16.3298 19.1484 15.8242C21.1065 14.4228 22.02 12.3664 22.02 9.87988C22.02 5.18988 18.24 2.3999 12.19 2.3999C9.77476 2.3999 7.66391 3.1362 5.99934 4.40202C5.52834 3.99827 5.07843 3.61109 4.65474 3.24406L3.8989 2.58931L2.58939 4.101L3.34524 4.75575C3.72403 5.08388 4.12199 5.42664 4.53572 5.78168C2.92356 7.65716 2 10.1807 2 13.0099ZM7.59788 5.76802C8.87654 4.89934 10.4338 4.3999 12.17 4.3999C16.94 4.3999 20 6.19988 20 9.87988C20 11.8022 19.1978 13.3452 17.5606 14.3806C14.8052 11.9082 11.5773 9.15842 8.7 6.70719C8.32611 6.38867 7.95813 6.07519 7.59788 5.76802Z" />
</svg>
    