<svg xmlns="http://www.w3.org/2000/svg" width="24" height="24" viewBox="0 0 24 24">
    <path
        d="M22.34 20.7L3.44 1.8 2.02 3.22l1.6 1.6c-.93 1.14-1.49 2.6-1.49 4.2v3.86c0 3.34 2.62 6.08 5.86 6.16l.04 2.25c-.05.91.61 1.72 1.5 1.81.06.01.12.01.17.01.45 0 .89-.19 1.25-.57l2.88-3.51h2.03c.6 0 1.18-.09 1.73-.25l3.32 3.32 1.43-1.4zm-8.5-3.66c-.56 0-1.09.25-1.46.69l-2.36 2.83-.03-1.69c-.02-1.01-.84-1.82-1.84-1.82-2.22 0-4.02-1.87-4.02-4.16V9.02c0-1.05.35-2 .92-2.77l10.8 10.8h-2.01v-.01zM15.87 4.41c2.46 0 4.46 2.07 4.46 4.61v3.41c0 1.01-.32 1.93-.86 2.69l1.43 1.43c.89-1.13 1.42-2.57 1.42-4.13v-3.4c0-3.65-2.9-6.61-6.46-6.61H8.59c-.56 0-1.1.08-1.61.22l1.78 1.78h7.11z" />
</svg>