<svg xmlns="http://www.w3.org/2000/svg" width="24" height="24" viewBox="0 0 24 24">
    <path
        d="M7.353 2.766c.108-.45.51-.766.972-.766h5.89c.3 0 .586.136.776.37.19.233.264.54.203.834l-1 4.794H18c.368 0 .707.202.881.527.174.324.156.718-.047 1.025L10.88 21.552c-.246.372-.708.535-1.133.402-.424-.133-.71-.531-.7-.976l.164-7.336H6c-.306 0-.596-.14-.786-.38-.19-.242-.258-.556-.186-.854l2.325-9.642zM9.113 4L7.27 11.642h2.963c.27 0 .527.109.715.301.188.193.29.453.285.722l-.11 4.9 5.015-7.567h-3.175c-.3 0-.585-.136-.775-.37-.19-.233-.265-.54-.203-.834l1-4.794H9.113z" />
</svg>