<svg width="24" height="24" viewBox="0 0 24 24" xmlns="http://www.w3.org/2000/svg">
<path d="M12.08 14.5627L6.54999 19.9728L17.59 20.0027L12.08 14.5727V14.5627ZM18.64 9.2827L12.01 4.27269L5.44 9.76268L10.55 13.2527L11.37 12.4427C11.76 12.0627 12.38 12.0627 12.77 12.4427L13.45 13.1128L18.63 9.27269L18.64 9.2827ZM19.01 18.6028L18.97 11.5227L14.9 14.5427L19.01 18.6028ZM5 11.8827V17.4427H3V9.67272C3 9.37272 3.12999 9.0927 3.35999 8.9027L11.34 2.23277C11.7 1.93277 12.21 1.92274 12.59 2.20274L20.57 8.23277C20.82 8.42277 20.96 8.71269 20.97 9.02269L21.03 20.9628C21.03 21.1028 21.01 21.2527 20.95 21.3927C20.8 21.7727 20.43 22.0127 20.02 22.0127L4.10001 21.9728C3.69001 21.9728 3.32999 21.7228 3.17999 21.3528C3.02999 20.9728 3.12 20.5427 3.41 20.2627L9.10999 14.6927L5.00998 11.8927L5 11.8827Z" />
</svg>
