<svg width="24" height="24" viewBox="0 0 24 24" xmlns="http://www.w3.org/2000/svg">
<path d="M11.89 13.5403L18.39 7.03032L5.42 7.00029L11.89 13.5403ZM6.18001 18.0103L17.78 17.6703L13.57 14.6902L12.6 15.6603C12.41 15.8503 12.16 15.9502 11.89 15.9502C11.62 15.9502 11.37 15.8403 11.18 15.6503L10.36 14.8202L6.18001 18.0003V18.0103ZM4.02 8.42033V17.1503L8.94 13.4003L4.02 8.42033ZM19.84 16.6802L19.91 9.60027L21.91 9.62028L21.82 18.6003C21.82 19.1403 21.39 19.5703 20.85 19.5903L3.03 20.1103C2.76 20.1103 2.5 20.0202 2.3 19.8302C2.11 19.6402 2 19.3803 2 19.1103L2.02 6.04033C2.02 5.90033 2.04001 5.75027 2.10001 5.61027C2.26001 5.24027 2.62 4.99029 3.02 5.00029L20.8 5.05022C21.2 5.05022 21.57 5.29033 21.72 5.67033C21.87 6.04033 21.79 6.4703 21.5 6.7603L15 13.2703L19.84 16.6902V16.6802Z" />
</svg>
