<svg width="24" height="24" viewBox="0 0 24 24" xmlns="http://www.w3.org/2000/svg">
<path d="M16.65 9.42008C16.65 9.42008 16.65 9.38002 16.65 9.36002C16.65 9.04002 16.78 8.75999 16.99 8.58C17.14 8.46 17.32 8.40006 17.54 8.40006C17.99 8.40006 18.33 8.66998 18.42 9.05998C18.44 9.12998 18.45 9.21008 18.45 9.29008C18.45 9.79008 18.13 10.1701 17.46 10.1701C17.41 10.1701 17.36 10.1701 17.32 10.1601C16.98 10.1101 16.67 9.86008 16.65 9.42008ZM16.5 7.81999L16.35 4.98002L18.35 4.88004L18.5 7.72001L16.5 7.81999ZM19.42 10.59C19.66 10.46 19.87 10.3 20.06 10.12C20.71 9.49003 21.01 8.59 21.01 7.59C21.01 5.55 19.51 4.00004 17.34 4.00004C15.63 4.00004 14.4 5.07 13.94 6.59C13.84 6.91001 13.78 7.24001 13.76 7.59C13.76 7.71 13.75 7.84 13.75 7.96C13.75 8.18 13.77 8.39001 13.8 8.59C13.97 9.63 14.56 10.36 15.32 10.76C15.65 10.94 16.01 11.05 16.38 11.11C16.56 11.14 16.75 11.1501 16.93 11.1501C17 11.1501 17.06 11.1501 17.12 11.1501C17.36 11.1501 17.58 11.13 17.8 11.1C18 11.07 18.19 11.04 18.37 11C18.59 10.95 18.79 10.89 18.98 10.81C19.14 10.75 19.28 10.68 19.42 10.6V10.59ZM5.01001 9.80998C5.01001 12.75 5 17.59 5 17.59L18.92 17.19L18.96 12.9001C18.36 13.0501 17.68 13.1401 16.93 13.1401C16.57 13.1401 16.21 13.1101 15.85 13.0401L13.08 15.81C12.7 16.19 12.1 16.2 11.7 15.85L5 9.80998H5.01001ZM11.77 8.58H6.62003L12.34 13.73L13.84 12.23C12.74 11.48 11.93 10.26 11.77 8.58ZM20.97 11.97L20.91 18.1701C20.91 18.7101 20.48 19.1401 19.94 19.1601L4.03 19.62C3.76 19.62 3.50002 19.52 3.30002 19.34C3.11002 19.15 3 18.89 3 18.62L3.02002 7.61002C3.02002 7.48002 3.04003 7.34 3.09003 7.21C3.24003 6.82 3.61002 6.56999 4.02002 6.56999H11.88C12.4 3.89999 14.47 1.99004 17.34 2.00004C20.7 2.00004 23.01 4.44 23.01 7.59C23.01 9.18001 22.49 10.56 21.46 11.56C21.31 11.71 21.15 11.84 20.98 11.97H20.97Z" />
</svg>
