<svg width="24" height="24" viewBox="0 0 24 24" xmlns="http://www.w3.org/2000/svg">
<path d="M5.05 9.55005H6.37C6.54 8.02005 6.95 6.69006 7.61 5.56006C8.27 4.44006 9.13 3.56005 10.19 2.93005C11.25 2.31005 12.43 2 13.76 2C14.99 2 16.09 2.25 17.07 2.75C18.04 3.26 18.82 3.98002 19.41 4.90002C20 5.83002 20.35 6.90011 20.46 8.11011L15.72 8.61011C15.67 7.91011 15.45 7.36006 15.07 6.94006C14.69 6.53006 14.2 6.32007 13.6 6.32007C12.94 6.32007 12.4 6.60003 11.99 7.16003C11.58 7.72003 11.3 8.52005 11.15 9.55005H16.58L16.17 11.78H4.68L5.07 9.55005H5.05ZM14.03 22C12.74 22 11.57 21.72 10.5 21.16C9.43 20.6 8.55 19.8 7.84 18.77C7.13 17.75 6.67 16.5501 6.45 15.1901H4L4.41 12.9601H15.95L15.51 15.1901H11.3C11.54 15.9601 11.93 16.57 12.47 17.01C13.01 17.45 13.67 17.67 14.44 17.67C15.16 17.67 15.81 17.4701 16.4 17.0701C16.99 16.6601 17.54 16.07 18.05 15.28L20.34 18.75C19.66 19.77 18.77 20.57 17.65 21.14C16.54 21.71 15.33 22 14.03 22Z" />
</svg>
