<svg width="24" height="24" viewBox="0 0 24 24" xmlns="http://www.w3.org/2000/svg">
<path fill-rule="evenodd" clip-rule="evenodd" d="M6.39023 8.22043H6.82024C6.87024 7.73043 7.01023 7.30051 7.22023 6.93051C7.43023 6.56051 7.71023 6.28054 8.06023 6.08054C8.40023 5.87054 8.79023 5.77048 9.22023 5.77048C9.62023 5.77048 9.98023 5.85048 10.2902 6.02048C10.6102 6.18048 10.8602 6.42043 11.0502 6.72043C11.2402 7.02043 11.3502 7.37047 11.3902 7.76047L9.85024 7.9205C9.83024 7.6905 9.76023 7.51047 9.64023 7.38047C9.52023 7.24047 9.36024 7.18051 9.16024 7.18051C8.95024 7.18051 8.77023 7.27053 8.64023 7.45053C8.51023 7.63053 8.41023 7.89043 8.37023 8.22043H10.1302L10.0002 8.95053H6.27024L6.39023 8.22043ZM13.7202 8.13047C13.4102 5.79047 11.7002 3.99047 9.26023 4.01047C6.49023 4.05047 4.05023 6.63048 4.03023 9.39048C4.00023 12.2105 6.00024 13.6705 8.21024 13.8405C8.34024 13.2805 8.54023 12.7404 8.79023 12.2204C8.57023 12.1804 8.36024 12.1005 8.16024 12.0005C7.81024 11.8205 7.53024 11.5604 7.30024 11.2204C7.07024 10.8904 6.92024 10.5005 6.85024 10.0605H6.05024L6.18024 9.33054H9.93024L9.79023 10.0605H8.42023C8.50023 10.3105 8.63024 10.5105 8.80024 10.6505C8.98024 10.7905 9.19024 10.8705 9.44024 10.8705C9.51024 10.8705 9.59024 10.8605 9.66024 10.8405C10.6902 9.54055 12.1202 8.54047 13.7202 8.13047ZM14.4402 13.3604C14.4102 13.4304 14.4002 13.5105 14.4002 13.5905C14.4002 13.7605 14.4602 13.9005 14.5902 14.0105C14.7202 14.1205 14.9202 14.2105 15.2202 14.2805C15.7402 14.4005 16.1502 14.5504 16.4502 14.7204C16.7502 14.8904 16.9702 15.0905 17.1102 15.3305C17.2402 15.5605 17.3102 15.8505 17.3102 16.2005C17.3102 16.6705 17.1502 17.0705 16.8202 17.3805C16.5002 17.7005 16.0802 17.8905 15.5502 17.9605V18.8604H14.5802V17.9505C14.2102 17.8805 13.8802 17.7705 13.5802 17.5905C13.2802 17.4205 13.0402 17.1905 12.8402 16.9205L13.5502 15.9105C13.7802 16.2305 14.0302 16.4705 14.3002 16.6305C14.5702 16.7905 14.8802 16.8705 15.2302 16.8705C15.4202 16.8705 15.5702 16.8204 15.6902 16.7204C15.8002 16.6304 15.8602 16.5005 15.8602 16.3405C15.8602 16.1505 15.8002 16.0005 15.6702 15.8905C15.5402 15.7805 15.3002 15.6805 14.9502 15.5805C14.4502 15.4405 14.0502 15.2804 13.7602 15.1104C13.5102 14.9604 13.3202 14.7805 13.1902 14.5905C13.1702 14.5605 13.1502 14.5205 13.1302 14.4905C13.0002 14.2605 12.9402 13.9705 12.9402 13.6405C12.9402 13.5905 12.9402 13.5505 12.9402 13.5005C12.9702 13.1105 13.1202 12.7805 13.3902 12.5105C13.5802 12.3105 13.8102 12.1705 14.0802 12.0605C14.2402 12.0005 14.4102 11.9505 14.5902 11.9205V11.0005H15.5602V11.9005C16.0202 11.9705 16.3902 12.1505 16.6802 12.4305C16.9702 12.7105 17.1502 13.0705 17.2002 13.4905L15.8902 13.7005C15.8702 13.4905 15.7902 13.3305 15.6402 13.2105C15.5002 13.0905 15.3102 13.0305 15.0802 13.0305C14.8702 13.0305 14.7002 13.0805 14.5802 13.1805C14.5402 13.2405 14.4902 13.3004 14.4502 13.3604H14.4402ZM10.0602 15.7705C10.2602 18.5005 12.4602 19.8105 14.7402 19.7805C16.3202 19.7605 17.4702 19.3605 18.2602 18.7005C19.4302 17.7205 19.8002 16.2205 19.8002 14.8405C19.8002 12.2805 18.2002 10.1605 15.7302 9.96054C15.5802 9.95054 15.4302 9.94052 15.2802 9.94052C15.0902 9.95052 14.9002 9.96045 14.7102 9.99045C14.3402 10.0405 13.9902 10.1305 13.6402 10.2605C12.1302 10.8405 10.8902 12.1405 10.3402 13.6705C10.2202 14.0205 10.1302 14.3805 10.0802 14.7505C10.0602 14.9405 10.0402 15.1305 10.0402 15.3205C10.0402 15.4805 10.0402 15.6305 10.0502 15.7705H10.0602ZM8.04023 15.8504C4.84023 15.6104 1.97023 13.4605 2.00023 9.38047C2.04023 5.57047 5.41023 2.04046 9.23023 2.00046C12.7802 1.96046 15.3202 4.53052 15.7302 7.94052C19.3502 8.14052 21.8102 11.1205 21.8102 14.8405C21.8102 16.7805 21.2002 18.8605 19.5502 20.2404C18.4702 21.1504 16.9202 21.7805 14.7602 21.8005C11.4402 21.8405 8.27023 19.8604 8.04023 15.8504Z" />
</svg>
