<svg width="24" height="24" viewBox="0 0 24 24" xmlns="http://www.w3.org/2000/svg">
<path d="M7.28251 6.04262C5.52965 7.39099 4.34003 9.48255 4.34003 12.5625C4.34003 17.2047 8.29443 20 11.665 20C14.4335 20 16.4219 19.1425 17.7109 17.9137C19.0032 16.6819 19.6649 15.0097 19.6649 13.2376C19.6649 11.0908 18.8791 9.50501 17.5487 8.43359C16.1901 7.3395 14.159 6.70003 11.5525 6.70003V4.70003C14.4585 4.70003 16.9836 5.4106 18.8031 6.87592C20.6508 8.36392 21.6649 10.5469 21.6649 13.2376C21.6649 15.5156 20.8079 17.7246 19.0909 19.3614C17.3705 21.0014 14.8589 22 11.665 22C7.38561 22 2.34003 18.4953 2.34003 12.5625C2.34003 8.89245 3.79412 6.20276 6.06308 4.45738C8.29587 2.73984 11.231 2 14.1399 2V4C11.5364 4 9.07156 4.66641 7.28251 6.04262Z" />
<path d="M11.0077 7.8762C11.0077 7.8762 11.0077 7.87597 12 8.00001C12.9923 8.12405 12.9923 8.12392 12.9923 8.12392L12.9921 8.12551L12.9912 8.13265L12.9875 8.16345C12.9842 8.19113 12.9794 8.23286 12.9733 8.28717C12.9611 8.39583 12.9441 8.55464 12.9251 8.75198C12.8871 9.14729 12.8415 9.69401 12.8112 10.3C12.7486 11.5521 12.76 12.917 12.9701 13.7575L11.0299 14.2425C10.74 13.083 10.7513 11.448 10.8137 10.2001C10.8459 9.55602 10.8942 8.97774 10.9343 8.56055C10.9544 8.35163 10.9725 8.18232 10.9857 8.06442C10.9923 8.00545 10.9977 7.95928 11.0015 7.9274L11.0059 7.89044L11.0072 7.88033L11.0077 7.8762Z" />
<path d="M13 16.0001C13 15.4445 12.5557 15 12.0001 15C11.4446 15 11 15.4445 11 16.0001C11 16.5556 11.4446 17 12.0001 17C12.5557 17 13 16.5556 13 16.0001Z" />
</svg>
