<svg xmlns="http://www.w3.org/2000/svg" width="24" height="24" viewBox="0 0 24 24">
    <path stroke="#222" stroke-linejoin="round" stroke-width="2"
        d="M12 12l8-8M20 14.88V18c0 1.105-.895 2-2 2H6c-1.105 0-2-.895-2-2V6c0-1.105.895-2 2-2h3.44M20 10V5c0-.552-.448-1-1-1h-5" />
    <path fill="#222" fill-rule="evenodd"
        d="M6 5c-.552 0-1 .448-1 1v12c0 .552.448 1 1 1h12c.552 0 1-.448 1-1v-3.12h2V18c0 1.657-1.343 3-3 3H6c-1.657 0-3-1.343-3-3V6c0-1.657 1.343-3 3-3h3.44v2H6zm13 1.414l-6.293 6.293-1.414-1.414L17.586 5H14V3h5c1.105 0 2 .895 2 2v5h-2V6.414z"
        clip-rule="evenodd" />
</svg>