<svg width="24" height="24" viewBox="0 0 24 24" xmlns="http://www.w3.org/2000/svg">
<path d="M11.4094 10.1379C11.6513 10.0409 11.8663 10.0001 12 10.0001V8.00011C11.4 8.00011 10.6601 8.20913 9.98472 8.62451C9.65907 8.27876 9.33958 7.93996 9.02839 7.61097C9.92635 7.21186 10.9014 7.00011 12 7.00011C15.5536 7.00011 18.0385 9.02034 19.6588 11.5409L21.3412 10.4593C19.4846 7.57141 16.4464 5.00011 12 5.00011C10.3074 5.00011 8.86152 5.40327 7.58242 6.09301C6.34648 4.80812 5.28786 3.74982 4.62463 3.21924L3.37524 4.78098C3.88448 5.18837 4.76236 6.05278 5.8991 7.22864C4.51901 8.35431 3.32849 9.81977 2.18627 11.4189C1.96464 11.7292 1.93875 12.1385 2.11953 12.4742C3.33223 14.7264 6.42362 19.0001 12 19.0001C13.6816 19.0001 15.1069 18.6411 16.3193 18.07C17.4956 19.2097 18.5584 20.1689 19.3999 20.8001L20.5999 19.2001C19.9168 18.6878 19.0566 17.9227 18.0867 16.9958C19.8645 15.649 21.0396 13.8778 21.8575 12.5146L20.1425 11.4856C19.3053 12.881 18.2231 14.465 16.6382 15.5762C16.2446 15.1822 15.8403 14.772 15.4287 14.35C15.812 13.7755 16 13.1036 16 12.4126C16 11.2383 15.4124 10.462 14.7276 10.0225C14.0998 9.6197 13.4036 9.50011 13 9.50011V11.5001C13.0964 11.5001 13.4002 11.5472 13.6474 11.7058C13.7582 11.7769 13.8398 11.8588 13.895 11.9531C13.9476 12.0429 14 12.1833 14 12.4126C14 12.5566 13.9833 12.6923 13.9509 12.8191C13.3585 12.2001 12.7599 11.5689 12.1645 10.9385C11.9117 10.6708 11.6597 10.4036 11.4094 10.1379ZM7.28599 8.67965C7.69941 9.11577 8.12951 9.57177 8.57182 10.0414C8.22312 10.6256 8 11.3407 8 12.1876C8 14.629 10.1419 16.0001 11.8831 16.0001C12.6223 16.0001 13.2941 15.8716 13.8743 15.6212C14.1781 15.9332 14.4795 16.2405 14.7771 16.5412C13.9598 16.8314 13.0402 17.0001 12 17.0001C7.94157 17.0001 5.4389 14.1443 4.18797 12.0656C5.21308 10.6765 6.20998 9.52908 7.28599 8.67965ZM10.0634 11.6258C10.2777 11.8532 10.4935 12.082 10.7104 12.3117C11.2328 12.8648 11.7628 13.4242 12.2932 13.9797C12.1659 13.993 12.0293 14.0001 11.8831 14.0001C10.975 14.0001 10 13.2712 10 12.1876C10 11.9831 10.0226 11.7964 10.0634 11.6258Z" />
</svg>
    