<svg xmlns="http://www.w3.org/2000/svg" width="24" height="24" viewBox="0 0 24 24">
    <path
        d="M3.414 2.5L2 3.914l3.224 3.224C3.34 8.463 1.857 10.324 1 12.5 2.73 16.89 7 20 12 20c1.781 0 3.47-.395 4.984-1.102l3.4 3.401 1.415-1.414-3.023-3.023C20.66 16.538 22.142 14.676 23 12.5 21.27 8.11 17 5 12 5c-1.781 0-3.47.395-4.984 1.102L3.414 2.5zm5.14 7.968C8.202 11.064 8 11.758 8 12.5c0 2.208 1.792 4 4 4 .742 0 1.436-.202 2.032-.554l-5.478-5.478zm6.892 4.064L9.968 9.054c.596-.352 1.29-.554 2.032-.554 2.208 0 4 1.792 4 4 0 .742-.202 1.436-.554 2.032z" />
</svg>