<svg xmlns="http://www.w3.org/2000/svg" width="24" height="24" viewBox="0 0 24 24">
    <path
        d="M17.971 18.871l3.12 3.12 1.415-1.413L4.121 2.193 2.707 3.607l3.434 3.434C4.284 8.465 2.825 10.545 2 13c1.573 4.683 5.455 8 10 8 2.21 0 4.264-.784 5.971-2.129zm-1.427-1.427l-1.666-1.666C14.15 16.53 13.13 17 12 17c-2.208 0-4-1.792-4-4 0-1.13.469-2.15 1.222-2.878l-1.65-1.65C6.116 9.513 4.903 11.066 4.13 13c1.477 3.695 4.56 6 7.87 6 1.623 0 3.192-.555 4.544-1.556zm-5.907-5.907c-.392.365-.637.886-.637 1.463 0 1.104.896 2 2 2 .577 0 1.098-.245 1.463-.637l-2.826-2.826zM22 13c-.35 1.04-.813 2.014-1.373 2.899l-1.454-1.455c.26-.453.494-.936.697-1.444-1.477-3.695-4.56-6-7.87-6-.089 0-.178.002-.267.005L9.957 5.228C10.618 5.078 11.3 5 12 5c4.546 0 8.427 3.317 10 8z" />
</svg>