<svg width="24" height="24" viewBox="0 0 24 24" xmlns="http://www.w3.org/2000/svg">
<path d="M12 5C7.47411 5 4.71209 7.88261 2.18627 11.4188C1.96464 11.7291 1.93875 12.1384 2.11953 12.4741C3.33223 14.7263 6.42362 19 12 19C17.577 19 20.3356 15.0511 21.8575 12.5145L20.1425 11.4855C18.6645 13.9489 16.423 17 12 17C7.94157 17 5.4389 14.1441 4.18797 12.0655C6.51774 8.90838 8.70181 7 12 7C15.5536 7 18.0385 9.02023 19.6588 11.5408L21.3412 10.4592C19.4846 7.5713 16.4464 5 12 5ZM10 12.1875C10 11.397 10.3374 10.8712 10.7614 10.5214C11.2227 10.1408 11.7515 10 12 10V8C11.2485 8 10.2773 8.32796 9.48862 8.97863C8.66263 9.66007 8 10.728 8 12.1875C8 14.6289 10.1419 16 11.8831 16C13.1045 16 14.142 15.6492 14.8862 14.977C15.6353 14.3004 16 13.3749 16 12.4125C16 11.2382 15.4124 10.4619 14.7276 10.0224C14.0998 9.6196 13.4036 9.5 13 9.5V11.5C13.0964 11.5 13.4002 11.5471 13.6474 11.7057C13.7582 11.7768 13.8398 11.8587 13.895 11.953C13.9476 12.0428 14 12.1832 14 12.4125C14 12.8598 13.8387 13.228 13.5456 13.4928C13.2477 13.7619 12.7266 14 11.8831 14C10.975 14 10 13.2711 10 12.1875Z" />
</svg>
