<svg xmlns="http://www.w3.org/2000/svg" width="24" height="24" viewBox="0 0 24 24">
    <path
        d="M8 7c0-3.314 2.686-6 6-6h3c.552 0 1 .448 1 1v4c0 .552-.448 1-1 1h-3v2h3c.308 0 .599.142.788.385.19.242.257.559.182.857l-1 4c-.111.446-.511.758-.97.758h-2v7c0 .552-.448 1-1 1H9c-.552 0-1-.448-1-1v-7H6c-.552 0-1-.448-1-1v-4c0-.552.448-1 1-1h2V7zm6-4c-2.21 0-4 1.79-4 4v3c0 .552-.448 1-1 1H7v2h2c.552 0 1 .448 1 1v7h2v-7c0-.552.448-1 1-1h2.22l.5-2H13c-.552 0-1-.448-1-1V7c0-1.105.895-2 2-2h2V3h-2z" />
</svg>