<svg width="24" height="24" viewBox="0 0 24 24" xmlns="http://www.w3.org/2000/svg">
<path d="M4 2C3.44772 2 3 2.44772 3 3V21C3 21.5523 3.44772 22 4 22H13C13.1146 22 13.2284 21.9803 13.3363 21.9417L20.3363 19.4417C20.7343 19.2996 21 18.9226 21 18.5V6H19V16.882L15.4472 15.1056C15.1971 14.9805 14.906 14.9659 14.6446 15.0653C14.3832 15.1647 14.1754 15.369 14.0715 15.6286L12.323 20H5V4H19V2H4ZM14.7521 19.3124L15.5249 17.3805L17.4568 18.3464L14.7521 19.3124Z" />
<path d="M10.8548 6.9299C11.3057 7.49846 11.42 8.18039 11.42 8.71002C11.42 10.4902 10.0125 11.69 8.35002 11.69C7.27474 11.69 6 10.9706 6 9.52003C6 9.03264 6.13589 8.45579 6.49637 7.96251C6.87775 7.44062 7.47511 7.06544 8.25949 6.99414L8.44055 8.98592C8.32533 8.9964 8.25653 9.02453 8.21603 9.04758C8.17488 9.071 8.14099 9.1017 8.11114 9.14255C8.04411 9.23428 8 9.37743 8 9.52003C8 9.55068 8.00587 9.56288 8.00761 9.56643C8.01009 9.57149 8.01728 9.58392 8.03823 9.60106C8.08462 9.63901 8.19007 9.69002 8.35002 9.69002C9.02754 9.69002 9.41998 9.26978 9.41998 8.71002C9.41998 8.42964 9.35432 8.25657 9.28775 8.17262C9.25458 8.13079 9.14258 8 8.71005 8V6C9.62753 6 10.3705 6.31922 10.8548 6.9299Z" />
<path d="M13 9H18V7H13V9Z" />
<path d="M13 13H17V11H13V13Z" />
<path d="M8.74256 14.0599C9.40975 13.8931 9.78455 14.098 10.0358 14.3765C10.3416 14.7153 10.5 15.2224 10.5 15.5899H12.5C12.5 14.7873 12.1961 13.785 11.5206 13.0366C10.7908 12.2278 9.66555 11.7676 8.25744 12.1197C6.89945 12.4592 6.18405 13.3385 5.83619 14.1212C5.66766 14.5004 5.58507 14.8537 5.54381 15.1115C5.52297 15.2418 5.51208 15.3515 5.50636 15.4329C5.50349 15.4738 5.50191 15.5078 5.50103 15.5342C5.5006 15.5474 5.50034 15.5587 5.50019 15.568L5.50004 15.5805L5.50001 15.5855L5.5 15.5878L5.5 15.5888C5.5 15.5893 5.5 15.5898 6.5 15.5898C7.5 15.5898 7.5 15.5903 7.5 15.5908L7.49999 15.5934L7.49998 15.5963L7.49993 15.6002C7.50004 15.597 7.50041 15.5878 7.50145 15.5729C7.50355 15.5431 7.50828 15.4926 7.51869 15.4275C7.53993 15.2948 7.58234 15.1168 7.66381 14.9335C7.81595 14.5912 8.10055 14.2205 8.74256 14.0599Z" />
</svg>
    