<svg width="24" height="24" viewBox="0 0 24 24" xmlns="http://www.w3.org/2000/svg">
<path d="M21.9207 20.95L19.9207 21.04L19.1307 2.69L21.1307 2.61005L21.9207 20.95ZM3.37075 21.9901L3.32075 19.9901L15.2907 19.7L15.3908 4.02002L4.05075 4.23004L4.76075 16.82L2.76075 16.93L2.00075 3.31C1.99075 3.04 2.08075 2.77001 2.26075 2.57001C2.44075 2.37001 2.70075 2.26 2.98075 2.25L16.3807 2C16.6507 2 16.9108 2.10004 17.1007 2.29004C17.2907 2.48004 17.4007 2.74001 17.4007 3.01001L17.2907 20.69C17.2907 21.23 16.8607 21.67 16.3107 21.68L3.37075 21.9901Z" />
</svg>
