<svg width="24" height="24" viewBox="0 0 24 24" xmlns="http://www.w3.org/2000/svg">
<path d="M4 3C4 2.44772 4.44772 2 5 2H19V4H6V20H11.3153L13.2929 14.9008C13.403 14.6168 13.6366 14.3985 13.9274 14.3077C14.2181 14.217 14.5344 14.2637 14.7865 14.4347L18 16.6136V6H20V18.5C20 18.9226 19.7343 19.2996 19.3363 19.4417L12.3363 21.9417C12.2284 21.9803 12.1146 22 12 22H5C4.44772 22 4 21.5523 4 21V3ZM16.8073 18.2213L14.7035 16.7948L13.7231 19.3227L16.8073 18.2213ZM12.2018 8.24541H12.2018C13.5209 8.22211 14.5559 8.20382 15.9501 8.27353L16.05 6.27603C14.5956 6.20331 13.4558 6.22296 12.0804 6.24668L12.0804 6.24668C11.3015 6.26011 10.447 6.27485 9.41696 6.27485V8.27485C10.5351 8.27485 11.4185 8.25924 12.2017 8.24541H12.2018H12.2018ZM8.03959 12.4993C10.8283 12.3878 13.6235 12.3879 15.9521 12.4988L16.0472 10.5011C13.6506 10.387 10.7961 10.3874 7.95966 10.5009L8.03959 12.4993Z" />
</svg>
