<svg width="24" height="24" viewBox="0 0 24 24" xmlns="http://www.w3.org/2000/svg">
<path d="M20.6225 16.96L18.6125 17.06L18.0125 4.01001H8.11252V2H18.9725C19.5125 2 19.9525 2.42002 19.9725 2.96002L20.6125 16.96H20.6225ZM4.73252 22L4.68252 19.9901L14.2025 19.76L14.1725 7.63H5.38252L6.01252 18L4.00252 18.12L3.30252 6.67999C3.28252 6.40999 3.38252 6.12999 3.57252 5.92999C3.76252 5.72999 4.03252 5.62 4.30252 5.62H15.1625C15.7125 5.62 16.1625 6.06 16.1725 6.62L16.2125 20.7401C16.2125 21.2901 15.7825 21.74 15.2325 21.75L4.73252 22Z" />
</svg>
