<svg width="24" height="24" viewBox="0 0 24 24" xmlns="http://www.w3.org/2000/svg">
<path d="M5 2C4.44772 2 4 2.44772 4 3V21C4 21.2677 4.10733 21.5242 4.29796 21.7121C4.4886 21.9001 4.74662 22.0037 5.01428 21.9999L19.0143 21.7999C19.5662 21.792 20.0074 21.3384 19.9999 20.7865L19.7999 5.98649L17.8001 6.01351L17.9866 19.8144L6 19.9856V4H19V2H5ZM12.2071 7.70711L10.7929 6.29289L8.50001 8.58579L7.70712 7.79289L6.29291 9.20711L7.79291 10.7071C8.18343 11.0976 8.8166 11.0976 9.20712 10.7071L12.2071 7.70711ZM17.4996 9.99994H12.4996V7.99994H17.4996V9.99994ZM17.0001 16H13.0001V14H17.0001V16ZM10.7929 12.2929L12.2071 13.7071L9.20712 16.7071C8.8166 17.0976 8.18343 17.0976 7.79291 16.7071L6.29291 15.2071L7.70712 13.7929L8.50001 14.5858L10.7929 12.2929Z" />
</svg>
