<svg width="24" height="24" viewBox="0 0 24 24" xmlns="http://www.w3.org/2000/svg">
<path d="M22.09 6.21658L21.98 8.21658C14.95 7.81656 9.27 8.04654 2.08 8.34646L2 6.34646C9.25999 6.03653 15 5.81656 22.1 6.21658H22.09ZM22.0701 11.2465L21.9901 13.2465C19.9948 13.1679 18.1734 13.1159 16.4391 13.0664C13.5405 12.9838 10.8855 12.908 8.07007 12.7265L8.20006 10.7265C10.9692 10.9057 13.5855 10.9781 16.4339 11.0568H16.4378H16.4388C18.1972 11.1054 20.0441 11.1564 22.0701 11.2365V11.2465ZM12.7559 18.0117L12.7817 16.0119L22.0408 16.1315L22.015 18.1314L12.7559 18.0117Z" />
</svg>
