<svg xmlns="http://www.w3.org/2000/svg" width="24" height="24" viewBox="0 0 24 24">
    <path
        d="M17 7c0 .828-.672 1.5-1.5 1.5S14 7.828 14 7s.672-1.5 1.5-1.5S17 6.172 17 7zm-4.855 1c.43 1.446 1.77 2.5 3.355 2.5s2.925-1.054 3.355-2.5H22V6h-3.145c-.43-1.446-1.77-2.5-3.355-2.5S12.575 4.554 12.145 6H2v2h10.145zm-7 10H2v-2h3.145c.43-1.446 1.77-2.5 3.355-2.5s2.925 1.054 3.355 2.5H22v2H11.855c-.43 1.446-1.77 2.5-3.355 2.5-1.586 0-2.925-1.054-3.355-2.5zM10 17c0-.828-.672-1.5-1.5-1.5S7 16.172 7 17s.672 1.5 1.5 1.5S10 17.828 10 17z" />
</svg>