<svg width="24" height="24" viewBox="0 0 24 24" xmlns="http://www.w3.org/2000/svg">
<path d="M4.19109 7.57535H2.99969V5.57535H4.12562C4.44568 4.48504 5.36855 3.5 6.79318 3.5C8.22558 3.5 9.23222 4.4405 9.6486 5.55317C12.0802 5.48728 14.4953 5.36187 16.3747 5.24721C17.4337 5.1826 18.321 5.12149 18.9431 5.07657C19.2541 5.05412 19.4988 5.03571 19.6655 5.02294L19.8554 5.00822L19.9187 5.0032C19.9187 5.0032 19.9195 5.00314 19.9997 5.99992C20.0799 6.99669 20.0798 6.9967 20.0798 6.9967L20.0122 7.00206L19.8183 7.0171C19.6489 7.03007 19.4013 7.0487 19.0871 7.07138C18.4589 7.11674 17.5641 7.17836 16.4965 7.2435C14.6178 7.35812 12.1989 7.48396 9.75331 7.55106C9.6314 7.99771 9.40326 8.40848 9.04971 8.74333C8.48811 9.27524 7.73224 9.5 6.93091 9.5C5.93946 9.5 5.16405 9.08712 4.66068 8.44386C4.45021 8.1749 4.2968 7.87867 4.19109 7.57535ZM6 6.43105C6 6.74198 6.09182 7.0274 6.23574 7.21132C6.353 7.36116 6.54304 7.5 6.93091 7.5C7.37098 7.5 7.58073 7.37998 7.6744 7.29126C7.76153 7.20873 7.86216 7.04639 7.86216 6.70701C7.86216 6.02619 7.36098 5.5 6.79318 5.5C6.55752 5.5 6.37872 5.59482 6.24204 5.75427C6.0935 5.92755 6 6.17689 6 6.43105Z" />
<path d="M16.7285 17.5717C14.935 17.6179 12.641 17.688 10.4466 17.7868C10.3512 18.3118 10.1255 18.7983 9.75312 19.1895C9.23545 19.7333 8.522 20 7.75 20C6.84638 20 6.12471 19.6246 5.64776 19.0436C5.40451 18.7473 5.23605 18.4121 5.13203 18.0696C5.02321 18.0669 4.91565 18.0638 4.81026 18.0605C4.49646 18.0506 4.20484 18.039 3.94382 18.0286C3.54995 18.0129 3.2255 18 3 18V16C3.26036 16 3.65831 16.0157 4.09312 16.0328C4.34727 16.0428 4.614 16.0534 4.87321 16.0615C4.97285 16.0646 5.07209 16.0675 5.17041 16.0699C5.26309 15.7744 5.39478 15.4869 5.56844 15.223C5.96969 14.6133 6.61768 14.106 7.50341 14.0063C7.54054 14.0021 7.57789 14 7.61526 14C8.51246 14 9.24872 14.457 9.7337 15.0465C9.91936 15.2722 10.0759 15.5253 10.1981 15.7961C12.4587 15.6926 14.8345 15.6198 16.677 15.5723C17.6511 15.5472 18.4772 15.5292 19.0599 15.5174C19.3513 15.5115 19.5819 15.5071 19.7398 15.5043L19.9834 15.5L20.0159 17.4998L19.776 17.504C19.6194 17.5068 19.3902 17.5111 19.1004 17.517C18.5206 17.5287 17.6983 17.5467 16.7285 17.5717ZM7.66986 16.0027C7.50377 16.0364 7.3624 16.1352 7.23916 16.3224C7.09085 16.5478 7 16.8663 7 17.1818C7 17.4109 7.07585 17.6311 7.19362 17.7746C7.2888 17.8905 7.44213 18 7.75 18C8.05489 18 8.21643 17.9031 8.30454 17.8105C8.39803 17.7123 8.5 17.5218 8.5 17.1818C8.5 16.8726 8.38137 16.5507 8.18922 16.3172C8.01985 16.1113 7.83594 16.0191 7.66986 16.0027Z" />
<path d="M3.05244 12.4985C3.91643 12.4531 5.26891 12.4117 6.86415 12.3629L6.87607 12.3625C7.22438 12.3518 7.58421 12.3408 7.95302 12.3293C9.60952 12.2777 11.4371 12.2168 13.1809 12.1358C13.2856 12.4359 13.4385 12.7277 13.6464 12.9909C14.1249 13.5966 14.8598 14 15.7931 14C16.6075 14 17.3852 13.6724 17.9613 13.1785C18.3474 12.8473 18.6845 12.403 18.8635 11.8791C19.3032 11.8523 19.6962 11.8274 20.0243 11.806C20.3489 11.7848 20.6102 11.7671 20.7905 11.7548L20.9981 11.7404L21.071 11.7353C21.071 11.7353 21.071 11.7353 20.9998 10.7378L20.9276 9.7404L20.8583 9.74529L20.6537 9.75946C20.4754 9.7717 20.2164 9.78919 19.8942 9.8102C19.5719 9.8312 19.1867 9.85571 18.7559 9.88198C18.3132 8.8352 17.2959 8 15.9311 8C14.4054 8 13.4687 9.01252 13.1366 10.1357C11.3961 10.217 9.56271 10.2782 7.89076 10.3303C7.52427 10.3417 7.16503 10.3527 6.81599 10.3634L6.81385 10.3635C5.21824 10.4123 3.8355 10.4546 2.94733 10.5013L3.05244 12.4985ZM15 11.0645C15 10.7606 15.1036 10.48 15.2634 10.2912C15.4074 10.121 15.6144 10 15.9311 10C16.5582 10 17 10.5205 17 11.0645C17 11.2161 16.9135 11.4423 16.6594 11.6602C16.4078 11.876 16.082 12 15.7931 12C15.4851 12 15.3234 11.8873 15.2157 11.751C15.0845 11.5849 15 11.3301 15 11.0645Z" />
</svg>