<svg width="24" height="24" viewBox="0 0 24 24" xmlns="http://www.w3.org/2000/svg">
<path d="M11.3905 15.6L9.79055 14.4C10.4706 13.5 11.3105 11.91 11.4505 9.60004L13.4505 9.71002C13.2805 12.56 12.2305 14.49 11.3905 15.6ZM10.9205 19.47L10.2606 17.58C11.9106 17 13.4105 15.82 14.0505 14.28L15.9006 15.05C15.0506 17.09 13.1106 18.7 10.9306 19.47H10.9205ZM9.49055 21.31L7.62056 22.0101C6.44056 18.8501 5.89056 16.6901 6.62056 12.7401L8.59056 13.1C7.95056 16.6 8.45055 18.51 9.50055 21.31H9.49055ZM16.7705 12.67L14.8105 12.26C14.8105 12.26 15.1306 10.7601 14.8706 9.37006C14.7406 8.66006 14.4806 7.94003 13.7606 7.66003L14.4806 5.80005C15.8806 6.34005 16.5805 7.62001 16.8305 9.01001C17.1505 10.77 16.7606 12.67 16.7606 12.67H16.7705ZM11.2306 5.73004L11.5406 7.71002C11.5406 7.71002 9.85054 8.12004 8.92054 11.35L7.00055 10.8C8.36055 6.05005 11.2306 5.73004 11.2306 5.73004ZM12.0805 22.0101V20.01C16.2805 20.01 18.0205 16.58 18.5805 12.78L20.5605 13.07C19.8505 17.89 17.4005 22.0101 12.0805 22.0101ZM5.31054 21.55L3.32055 21.77C1.58055 6.00002 7.22055 2 13.0805 2C17.7605 2 20.3705 6.65002 20.6605 10.46L18.6605 10.61C18.4405 7.70005 16.6405 4 13.0805 4C7.97055 4 3.79054 7.82005 5.31054 21.55Z" />
</svg>
