<svg width="24" height="24" viewBox="0 0 24 24" xmlns="http://www.w3.org/2000/svg">
<path d="M6.16274 8.39996H19.9727C20.2527 8.38996 20.5227 8.49996 20.7127 8.70996C20.9027 8.90996 20.9927 9.18997 20.9727 9.46997L20.1827 18.93C20.1427 19.45 19.7127 19.84 19.1927 19.85C12.6427 19.91 3.67275 19.78 3.67275 19.78L3.70275 17.78C3.70275 17.78 11.8427 17.9 18.2627 17.86L18.8827 10.39H4.07274L4.52275 16.02L2.53273 16.18L2.00273 9.47998C1.98273 9.19998 2.07274 8.92997 2.26274 8.71997C2.45274 8.51997 2.71276 8.39996 2.99276 8.39996H4.16274V4C4.17274 3.44 4.62275 3 5.17275 3H12.0327C12.4827 3 12.8728 3.29998 12.9928 3.72998L13.3028 4.82996H21.9727V6.82996H12.5427C12.0927 6.82996 11.7028 6.52998 11.5828 6.09998L11.2728 5H6.16274V8.39996Z" />
</svg>
