<svg width="24" height="24" viewBox="0 0 24 24" xmlns="http://www.w3.org/2000/svg">
<path d="M15.72 17.4328H8.67V15.4328H15.81L13.82 13.2928L15.28 11.9328L18.76 15.6828C19.11 16.0628 19.12 16.6428 18.76 17.0328L15.23 20.9228L13.75 19.5828C13.75 19.5828 14.85 18.3628 15.7 17.4328H15.72ZM11.23 7.32274V5.08275L4 5.68279V7.79277L11.23 7.32274ZM2 8.77275V4.76274C2 4.24274 2.4 3.81274 2.91 3.76274L12.14 3.00273C12.42 2.98273 12.69 3.07274 12.9 3.26274C13.11 3.45274 13.22 3.72273 13.22 4.00273V7.19274L20.94 6.68279C21.22 6.66279 21.49 6.76275 21.69 6.95275C21.89 7.14275 22.01 7.40279 22.01 7.68279V14.0628H20.01V8.75273L4 9.79277V19.3927L11.87 19.9828L11.72 21.9728L2.93001 21.3227C2.41001 21.2827 2 20.8427 2 20.3227V8.86278C2 8.86278 2 8.80275 2 8.77275Z" />
</svg>
