<svg width="24" height="24" viewBox="0 0 24 24" xmlns="http://www.w3.org/2000/svg">
<path d="M13.18 17.6352L12.76 17.2553L14.3 15.5352L12.47 13.8753L13.52 12.7052L15.34 14.3652L16.66 12.8852L17.83 13.9252L16.5 15.4152L18.21 16.9652L17.15 18.1352L15.45 16.5852L13.92 18.3052L13.39 17.8352V17.6352H13.17H13.18ZM12.77 19.6253C13.36 19.8953 14.02 20.0352 14.68 20.0352C16.5 20.0352 17.85 19.5552 18.74 18.7052C19.59 17.8752 19.99 16.7152 19.99 15.4052C19.99 14.5752 19.8 13.8052 19.45 13.1452C19.24 12.7352 18.96 12.3752 18.63 12.0552C17.79 11.2252 16.59 10.7352 15.19 10.7252C12.33 10.7252 10.49 12.9852 10.49 15.8552C10.49 16.5152 10.61 17.1052 10.82 17.6152C11.21 18.5652 11.93 19.2353 12.78 19.6253H12.77ZM18.75 9.6352L18.86 7.48524L3.98999 8.31526V17.5452L8.69 17.5952C8.56 17.0552 8.48999 16.4852 8.48999 15.8552C8.48999 11.8152 11.18 8.73524 15.19 8.73524C16.54 8.73524 17.75 9.0552 18.76 9.6352H18.75ZM10.88 5.93525V4.08521L4 4.65522V6.31526L10.88 5.93525ZM2 18.5352V3.73524C2 3.21524 2.39998 2.78524 2.91998 2.73524L11.8 2.00526C12.08 1.97526 12.35 2.07521 12.56 2.26521C12.77 2.45521 12.88 2.71525 12.88 2.99525V5.8252L19.87 5.43525C20.15 5.41525 20.43 5.52523 20.63 5.72523C20.83 5.92523 20.94 6.19524 20.92 6.48524L20.68 11.3153C21.52 12.4353 22 13.8452 22 15.4052C22 17.2952 21.38 18.9552 20.14 20.1352C18.94 21.2952 17.15 22.0352 14.7 22.0352C12.73 22.0352 10.79 21.2152 9.62 19.5952L3 19.5352C2.45 19.5352 2.00998 19.0852 2.00998 18.5352H2Z" />
</svg>
