<svg width="24" height="24" viewBox="0 0 24 24" xmlns="http://www.w3.org/2000/svg">
<path d="M18.76 9.6352L18.87 7.48524L4 8.31526V17.5452L8.7 17.5952C8.57 17.0552 8.5 16.4852 8.5 15.8552C8.5 11.8152 11.19 8.73524 15.2 8.73524C16.55 8.73524 17.76 9.0552 18.77 9.6352H18.76ZM12.12 16.3153L12.04 14.7452L18.38 14.4353L18.46 16.0053L12.12 16.3153ZM10.82 17.6152C11.21 18.5652 11.93 19.2353 12.78 19.6253C13.37 19.8953 14.03 20.0352 14.69 20.0352C16.51 20.0352 17.86 19.5552 18.75 18.7052C19.6 17.8752 20 16.7152 20 15.4052C20 14.5752 19.81 13.8052 19.46 13.1452C19.25 12.7352 18.97 12.3752 18.64 12.0552C17.8 11.2252 16.6 10.7352 15.2 10.7252C12.34 10.7252 10.5 12.9852 10.5 15.8552C10.5 16.5152 10.62 17.1052 10.83 17.6152H10.82ZM10.88 5.93525V4.08521L4 4.65522V6.31526L10.88 5.93525ZM2 18.5352V3.73524C2 3.21524 2.4 2.78524 2.92 2.73524L11.8 2.00526C12.08 1.97526 12.35 2.07521 12.56 2.26521C12.77 2.45521 12.88 2.71525 12.88 2.99525V5.8252L19.87 5.43525C20.15 5.41525 20.43 5.52523 20.63 5.72523C20.83 5.92523 20.94 6.19524 20.92 6.48524L20.68 11.3153C21.52 12.4353 22 13.8452 22 15.4052C22 17.2952 21.38 18.9552 20.14 20.1352C18.94 21.2952 17.15 22.0352 14.7 22.0352C12.73 22.0352 10.79 21.2152 9.62 19.5952L3 19.5352C2.45 19.5352 2.00999 19.0852 2.00999 18.5352H2Z" />
</svg>
