<svg width="24" height="24" viewBox="0 0 24 24"  xmlns="http://www.w3.org/2000/svg">
<path d="M20.92 6.4825L20.68 11.3225H20.67C21.51 12.4425 21.99 13.8526 21.99 15.4126C21.99 17.3026 21.36 18.9525 20.13 20.1425C18.94 21.3025 17.14 22.0326 14.69 22.0326C12.72 22.0326 10.78 21.2226 9.61 19.6026L2.99001 19.5426C2.44001 19.5326 2 19.0926 2 18.5426V3.7325C2 3.2125 2.4 2.78251 2.92 2.74251L11.8 2.00252C12.08 1.98252 12.35 2.08253 12.56 2.26253C12.76 2.45253 12.88 2.72252 12.88 3.00252V5.82253L19.87 5.44253C20.15 5.42253 20.43 5.52256 20.63 5.72256C20.83 5.92255 20.93 6.2025 20.92 6.4825ZM10.88 4.08254L4 4.65255V6.31252L10.88 5.93252V4.08254ZM8.71001 17.5926C8.58001 17.0625 8.5 16.4925 8.5 15.8625C8.5 11.8225 11.18 8.7325 15.2 8.7325C16.55 8.7325 17.75 9.06254 18.76 9.64254L18.87 7.49251L4 8.32253V17.5525L8.71001 17.5926ZM14.69 20.0326C16.51 20.0426 17.86 19.5625 18.75 18.7025L18.73 18.6925C19.59 17.8725 19.98 16.7125 19.98 15.4025C19.98 14.5625 19.77 13.8025 19.41 13.1325C19.19 12.7425 18.94 12.3625 18.62 12.0525C17.78 11.2225 16.59 10.7226 15.18 10.7226C12.33 10.7226 10.48 12.9726 10.48 15.8426C10.48 16.5226 10.61 17.1025 10.82 17.6125C11.22 18.5725 11.95 19.2325 12.82 19.6225C13.41 19.8825 14.04 20.0326 14.69 20.0326ZM16.07 14.5525L18.38 14.4425L18.45 16.0125L16.16 16.1225L16.29 18.4125L14.72 18.5025L14.59 16.2025L12.12 16.3225L12.04 14.7525L14.5 14.6325L14.38 12.6525L15.95 12.5625L16.07 14.5525Z" />
</svg>
