<svg width="24" height="24" viewBox="0 0 24 24" xmlns="http://www.w3.org/2000/svg">
<path d="M11.02 7.04066V5.05067L4.00999 5.36067V7.30067L11.02 7.04066ZM2.01999 9.20063L2 4.41066C2 3.87066 2.41999 3.43066 2.95999 3.41066L11.98 3.00068C12.25 2.99068 12.52 3.09065 12.72 3.28065C12.92 3.47065 13.03 3.73068 13.03 4.00068V6.97065L21.01 6.67067C21.28 6.66067 21.55 6.76063 21.74 6.95063C21.94 7.15063 22.05 7.41068 22.04 7.68068L21.92 19.0706L19.92 19.0507L20.03 8.71064L4.03 9.30067V18.2006L16.87 18.2307V20.2307L3.03 20.2006C2.48 20.2006 2.03 19.7506 2.03 19.2006V9.20063H2.01999Z" />
</svg>
