<svg width="24" height="24" viewBox="0 0 24 24" xmlns="http://www.w3.org/2000/svg">
<path d="M20.01 9.82025V7.20025H11.64C11.19 7.21026 10.79 6.91021 10.67 6.47021L10.27 5.01025L3.98999 5.09027V9.92023L20.01 9.82025ZM2 10.8203V4.11023C2 3.56023 2.43999 3.12023 2.98999 3.11023L11.03 3.00024C11.48 2.99024 11.89 3.29022 12.01 3.73022L12.42 5.21026L21.03 5.19025C21.29 5.19025 21.55 5.30023 21.74 5.49023C21.93 5.67023 22.03 5.93025 22.03 6.19025V19.1002H20.03V11.8202L4.00998 11.9202V18.6002L18.11 19.2103L18.02 21.2003L2.97998 20.5502C2.43998 20.5302 2.01999 20.0902 2.01999 19.5602V10.9202C2.01999 10.9202 2.00999 10.8503 2.01999 10.8203H2Z" />
</svg>
