<svg width="24" height="24" viewBox="0 0 24 24" xmlns="http://www.w3.org/2000/svg">
<path d="M3.07001 10.49L3 8.48999L8.51001 8.30005L7.69 2.27002L9.67001 2L10.63 9.12C10.67 9.4 10.59 9.69002 10.4 9.90002C10.22 10.12 9.95001 10.25 9.67001 10.26L3.05002 10.49H3.07001ZM14.21 2.72003H16.21V7.76001L20.13 7.65002L20.19 9.65002L15.24 9.79004C14.97 9.79004 14.71 9.69 14.52 9.5C14.33 9.32 14.22 9.06004 14.22 8.79004V2.72003H14.21ZM20.13 14.17L20.2 16.17L16.22 16.31V21.2H14.22V15.34C14.22 14.8 14.65 14.36 15.18 14.34L20.13 14.17ZM10.65 22.01H8.64999V16.2L3.07001 16.4L3 14.4L9.62 14.17C9.89 14.16 10.16 14.26 10.35 14.45C10.55 14.63 10.66 14.89 10.66 15.17V22.01H10.65Z" />
</svg>
