<svg width="24" height="24" viewBox="0 0 24 24" xmlns="http://www.w3.org/2000/svg">
<path d="M9.08938 2.41998L9.15939 4.41998L4.12938 4.60004L4.84938 10.22L2.86938 10.48L2.00938 3.77002C1.96938 3.49002 2.05938 3.20999 2.23938 2.98999C2.41938 2.77999 2.68939 2.65001 2.96939 2.64001L9.09938 2.41998H9.08938ZM21.9694 8.63H19.9694V4.03003L16.4094 4.13L16.3494 2.13L20.9294 2C21.1994 2 21.4594 2.10004 21.6594 2.29004C21.8494 2.48004 21.9594 2.73 21.9594 3V8.63H21.9694ZM16.4194 21.5L16.3494 19.51L19.9694 19.38V14.92H21.9694V20.34C21.9694 20.88 21.5394 21.32 21.0094 21.34L16.4294 21.5H16.4194ZM2.85939 14.54H4.85939V19.85L9.94938 19.67L10.0194 21.67L3.88939 21.88C3.61939 21.89 3.35939 21.79 3.15939 21.6C2.95939 21.41 2.85939 21.16 2.85939 20.88V14.54Z" />
</svg>
