<svg width="24" height="24" viewBox="0 0 24 24" xmlns="http://www.w3.org/2000/svg">
<path d="M11.8 9.95007C10.67 9.95007 9.75999 10.8701 9.75999 11.9901C9.75999 13.1101 10.68 14.03 11.8 14.03C12.92 14.03 13.84 13.1201 13.84 11.9901C13.84 10.8601 12.93 9.95007 11.8 9.95007ZM11.8 7.94006C14.04 7.94006 15.85 9.76011 15.85 11.9901C15.85 14.2201 14.03 16.04 11.8 16.04C9.57 16.04 7.75 14.2201 7.75 11.9901C7.75 9.76011 9.57 7.94006 11.8 7.94006ZM10.5 6.07007L8.51999 5.7301L9.01999 2.83008C9.09999 2.35008 9.51999 2 10.01 2H13.66C14.14 2 14.55 2.33004 14.65 2.79004L14.94 4.16003L16.17 3.58008C16.49 3.43008 16.86 3.46002 17.15 3.65002L19.83 5.40002C20.26 5.68002 20.41 6.24007 20.18 6.70007L19.16 8.72009L20.91 9.31006C21.31 9.45006 21.59 9.82 21.59 10.25L21.64 13.28C21.64 13.76 21.32 14.17 20.86 14.28L19.52 14.5801L20.22 16.3601C20.34 16.6601 20.3 16.99 20.13 17.26L18.53 19.79C18.26 20.22 17.71 20.38 17.25 20.16L15.35 19.25L14.52 21.0901C14.37 21.4101 14.07 21.6401 13.72 21.6801L10.76 22.02C10.31 22.07 9.87999 21.81 9.70999 21.39L8.87999 19.28L6.92 20.02C6.55 20.16 6.12999 20.07 5.84999 19.79L3.48999 17.42C3.15999 17.09 3.09999 16.5801 3.34999 16.1801L4.3 14.64L2.75 14.2401C2.31 14.1201 2 13.73 2 13.27V10.3C2 9.85005 2.29999 9.45008 2.73999 9.33008L4.05 8.97009L3.22 7.11011C3.03 6.68011 3.15999 6.17001 3.53999 5.89001L5.95 4.12L7.14 5.74011L5.39 7.03003L6.37 9.22009C6.49 9.49009 6.49 9.79006 6.37 10.0601C6.25 10.3301 6.01 10.5201 5.73 10.6001L4.03 11.0701V12.4901L6.14999 13.04C6.45999 13.12 6.71 13.34 6.83 13.64C6.95 13.94 6.92 14.27 6.75 14.54L5.5 16.5701L6.84 17.92L9.11 17.0601C9.62 16.8701 10.2 17.12 10.4 17.63L11.31 19.9501L12.94 19.77L13.95 17.51C14.06 17.26 14.27 17.0701 14.52 16.9801C14.77 16.8901 15.05 16.9 15.3 17.02L17.33 17.9901L18.18 16.64L17.24 14.2401C17.13 13.9701 17.15 13.66 17.29 13.4C17.43 13.14 17.67 12.96 17.96 12.89L19.64 12.51L19.62 11.01L17.45 10.27C17.17 10.18 16.95 9.97007 16.84 9.70007C16.73 9.43007 16.74 9.13 16.87 8.87L18.01 6.62L16.56 5.67004L14.68 6.56006C14.4 6.69006 14.08 6.69006 13.8 6.56006C13.53 6.42006 13.33 6.17011 13.26 5.86011L12.88 4.04004H10.89L10.53 6.11011L10.5 6.07007Z" />
</svg>
