<svg width="24" height="24" viewBox="0 0 24 24" xmlns="http://www.w3.org/2000/svg">
<path d="M12.5804 9.97398C11.6404 10.134 10.7104 10.304 9.84039 10.454C10.4004 12.724 11.0404 14.9937 11.7404 17.2337C12.2304 14.6137 12.5204 12.184 12.5804 9.97398ZM12.1104 4.08384L8.51038 4.44395C8.77038 5.80395 9.05038 7.15376 9.36038 8.50376L12.5604 7.94395C12.5104 6.55395 12.3604 5.26384 12.1004 4.08384H12.1104ZM14.5504 7.60386L17.1304 7.15391L14.3304 5.22398C14.4404 5.98398 14.5104 6.77386 14.5404 7.60386H14.5504ZM13.6704 17.7337C15.4504 15.5037 16.9604 12.6438 18.2404 8.99375C17.2804 9.16375 15.9804 9.38389 14.5704 9.63389C14.5304 12.0839 14.2204 14.7938 13.6704 17.7438V17.7337ZM7.86038 10.7938C6.35038 11.0538 5.3204 11.2337 5.3204 11.2337C6.3104 13.9237 7.87038 16.2139 9.92038 18.1339C9.15038 15.7039 8.46038 13.2538 7.86038 10.7938ZM6.6904 5.52378L4.42038 7.6439L3.05038 6.18394L6.65039 2.81382C6.81039 2.66382 7.02038 2.57381 7.23038 2.55381L12.7704 2.00376C13.0004 1.98376 13.2404 2.04393 13.4404 2.17393L20.2804 6.88389C20.6404 7.13389 20.8004 7.58376 20.6704 8.00376C18.6404 14.5138 15.9304 18.8538 12.5704 21.7538C12.2304 22.0538 11.7304 22.0738 11.3504 21.8238C7.2904 19.0538 4.45037 15.4137 3.04037 10.7337C2.96037 10.4637 3.00039 10.1639 3.15039 9.92393C3.30039 9.68393 3.55038 9.51397 3.83038 9.46397L7.39038 8.84385C7.14038 7.74385 6.90039 6.63378 6.68039 5.52378H6.6904Z" />
</svg>
