<svg width="24" height="24" viewBox="0 0 24 24" xmlns="http://www.w3.org/2000/svg">
<path d="M13.65 7.98999C14.53 7.79999 15.56 7.41011 16.38 6.86011C17.02 6.43011 17.56 5.9002 17.56 5.2002C17.56 4.8302 17.45 4.45999 17.17 4.23999C16.99 4.08999 16.73 4.02002 16.41 4.02002C15.71 4.02002 15.19 4.57021 14.76 5.22021C14.21 6.06021 13.83 7.11 13.64 8L13.65 7.98999ZM11.17 8.04004C11.04 7.28004 10.78 6.48011 10.36 5.86011C10.06 5.41011 9.67001 5.06006 9.14001 5.06006C8.67001 5.06006 8.31001 5.49021 8.31001 5.96021C8.31001 6.75021 8.90001 7.23005 9.56001 7.55005C10.06 7.79005 10.63 7.95004 11.16 8.04004H11.17ZM17.97 13.6401V11.1201L13.35 11.1802L13.31 13.6401H17.96H17.97ZM6.50001 15.6401V19.9702L11.24 19.99L11.3 15.6401H6.50001ZM11.36 11.2102L6.50001 11.27V13.6401H11.33L11.36 11.2102ZM13.23 20L16.71 20.02V22.02L5.49 21.9702C4.94 21.9702 4.5 21.5202 4.5 20.9702V10.29C4.5 9.74004 4.94 9.30004 5.49 9.29004L8.50001 9.25C8.32001 9.16 8.16001 9.0602 8.00001 8.9502C7.00001 8.2702 6.32 7.29021 6.32 5.96021C6.32 4.40021 7.59 3.06006 9.15 3.06006C10.37 3.06006 11.34 3.71998 12.03 4.72998C12.17 4.93998 12.3 5.16015 12.42 5.40015C12.62 4.94015 12.85 4.50009 13.12 4.09009C13.95 2.84009 15.09 2 16.44 2C17.29 2 17.96 2.27017 18.46 2.67017C19.2 3.27017 19.59 4.21019 19.59 5.19019C19.59 6.53019 18.76 7.67001 17.53 8.51001C17.18 8.74001 16.81 8.95014 16.42 9.14014L18.98 9.11011C19.25 9.11011 19.5 9.21015 19.7 9.40015C19.89 9.59015 20 9.84011 20 10.1101V18.9402H18V15.6401H13.32L13.26 20H13.23Z" />
</svg>
