<svg width="24" height="24" viewBox="0 0 24 24" xmlns="http://www.w3.org/2000/svg">
<path d="M14.0006 10.6605L9.59056 11.3406C9.68056 12.6906 9.86056 14.0206 10.1506 15.2606L14.1006 14.6805C14.1906 13.3405 14.1606 11.9805 14.0006 10.6605ZM4.17056 12.1705C4.15056 12.3605 4.15056 12.5606 4.14056 12.7506C4.13056 14.0206 4.37055 15.1105 4.80055 16.0405L8.20056 15.5405C7.92056 14.2905 7.73056 12.9706 7.63056 11.6306L4.16055 12.1605L4.17056 12.1705ZM6.09056 17.8806C7.05056 18.8306 8.29056 19.4606 9.64056 19.7606C9.29056 19.0606 8.99055 18.3006 8.73055 17.4906L6.09056 17.8806ZM12.0606 19.9606C12.4206 19.9506 12.7706 19.9206 13.1106 19.8806C13.4406 18.8906 13.7006 17.8306 13.8806 16.7406L10.7206 17.2005C11.0806 18.2305 11.5306 19.1706 12.0706 19.9606H12.0606ZM15.3506 19.3606C16.1306 19.0706 16.7906 18.6806 17.3406 18.2206C18.0906 17.5906 18.6406 16.8206 19.0306 15.9906L15.9206 16.4405C15.7906 17.4405 15.6006 18.4206 15.3506 19.3606ZM19.6806 13.8706C19.7906 13.2506 19.8306 12.6306 19.8306 12.0206C19.8306 11.2506 19.7406 10.5105 19.5706 9.80053L15.9606 10.3506C16.1206 11.6806 16.1706 13.0406 16.1106 14.3806L19.6806 13.8606V13.8706ZM18.8506 7.9005C17.9006 6.1005 16.2906 4.78054 14.2506 4.32054C14.8606 5.57054 15.3206 6.95061 15.6306 8.39061L18.8506 7.9005ZM11.9006 4.18053C11.2406 4.24053 10.5906 4.4006 9.97056 4.6306C9.70056 6.1206 9.55056 7.72055 9.54056 9.33055L13.6706 8.70055C13.3006 7.05055 12.7206 5.51054 11.9006 4.19054V4.18053ZM7.76056 5.85057C6.35056 6.92057 5.23056 8.41055 4.63056 10.0806L7.55055 9.6306C7.54055 8.3506 7.61056 7.08057 7.76056 5.85057ZM12.5006 2.0006C18.1206 1.9406 21.9806 6.40051 21.9806 12.0305C21.9806 14.8405 21.1106 17.8606 18.7206 19.8606C17.1506 21.1806 14.9006 22.0806 11.7406 22.1106C6.72056 22.1706 1.94056 19.0606 2.00056 12.7306C2.05056 7.19058 6.95056 2.0606 12.5006 2.0006Z" />
</svg>
