<svg xmlns="http://www.w3.org/2000/svg" width="24" height="24" viewBox="0 0 24 24">
    <path
        d="M9.877 1.706c1.172-1.172 3.071-1.171 4.243 0l8.172 8.173c1.172 1.171 1.172 3.07 0 4.242l-8.17 8.17c-1.172 1.172-3.071 1.172-4.243 0L1.707 14.12c-1.172-1.172-1.172-3.071 0-4.243l8.17-8.17zm2.829 1.414c-.391-.39-1.024-.39-1.415 0l-8.17 8.17c-.39.39-.39 1.024 0 1.415l8.173 8.172c.39.39 1.024.39 1.414 0l8.17-8.17c.39-.39.39-1.024 0-1.414L12.706 3.12zm-2.06 8.284c-.059.072-.146.249-.146.596v4.294h-2V12c0-.653.162-1.332.603-1.868.464-.563 1.138-.845 1.897-.845h.012c.263.003 1.15.006 2.08.009l-1.289-1.289 1.414-1.414 2.647 2.647c.586.586.586 1.535 0 2.121l-2.647 2.647-1.414-1.413 1.298-1.299c-.93-.003-1.827-.006-2.107-.01-.237.002-.312.075-.348.118z" />
</svg>