<svg width="24" height="24" viewBox="0 0 24 24" xmlns="http://www.w3.org/2000/svg">
<path d="M19.7824 11.9963L12.0826 4.4784L8.27399 9.13339L6.72607 7.86692L10.8804 2.78942C11.4378 2.10811 12.4594 2.05104 13.0892 2.66601L21.548 10.9249C22.1531 11.5157 22.1505 12.4896 21.5422 13.0771L12.9397 21.3858C12.3607 21.945 11.4436 21.9476 10.8616 21.3916L2.61274 13.5131C2.08629 13.0103 1.99688 12.202 2.40071 11.5963L4.168 8.94546L5.83209 10.0549L4.29755 12.3566L11.8957 19.6136L19.7824 11.9963ZM12.534 10.0069L11.767 9.18047L13.2329 7.8199L16.1557 11.0002L13.2329 14.0002L11.767 12.8199L12.5217 12.0069H10.8279L11.0004 15.0069V15.5069H9.00037V11.5069C9.00037 10.6784 9.67194 10.0069 10.5004 10.0069H12.534Z" />
</svg>
