<svg xmlns="http://www.w3.org/2000/svg" width="24" height="24" viewBox="0 0 24 24">
    <path
        d="M13.543 1.54c-.852-.852-2.234-.852-3.086 0L1.54 10.456c-.852.852-.852 2.234 0 3.086l8.916 8.915c.852.852 2.234.852 3.086 0l8.915-8.915c.852-.852.852-2.234 0-3.086L13.543 1.54zm-.502 5.23l2.646 2.647c.488.488.488 1.28 0 1.768l-2.646 2.647-1.061-1.06 1.723-1.725c-1.119-.002-2.371-.006-2.707-.01-.303 0-.453.1-.543.208-.106.13-.203.37-.203.755v4.294h-1.5V12c0-.615.153-1.232.546-1.709.41-.498 1.01-.754 1.704-.754h.01c.32.004 1.568.008 2.687.01L11.98 7.83l1.06-1.06z" />
</svg>