<svg width="24" height="24" viewBox="0 0 24 24" xmlns="http://www.w3.org/2000/svg">
<path d="M19.97 18.7907L19.75 14.5507L15.93 14.3808L15.9 18.7907H19.97ZM21.03 20.7907H14.9C14.63 20.7907 14.38 20.6807 14.19 20.4907C14 20.3007 13.9 20.0507 13.9 19.7807L13.94 13.3307C13.94 13.0607 14.05 12.8007 14.25 12.6107C14.45 12.4207 14.71 12.3207 14.98 12.3407L20.75 12.6007C21.26 12.6207 21.68 13.0307 21.7 13.5507L22.02 19.7508C22.03 20.0208 21.94 20.2907 21.75 20.4907C21.56 20.6907 21.3 20.8007 21.02 20.8007L21.03 20.7907ZM20.03 4.04067L16.12 4.24074L15.95 8.03066H20.04V4.04067H20.03ZM22.03 2.99074V9.04067C22.03 9.59067 21.58 10.0407 21.03 10.0407H14.9C14.63 10.0407 14.37 9.93073 14.18 9.73073C13.99 9.53073 13.89 9.27074 13.9 8.99074L14.16 3.25075C14.18 2.74075 14.59 2.32068 15.11 2.30068L20.98 2.00075C21.25 1.99075 21.52 2.08065 21.72 2.27065C21.92 2.46065 22.03 2.72075 22.03 3.00075V2.99074ZM2 2.49074L4 2.46071L4.29001 19.3507L8.71001 19.4107L8.56001 4.31069L5.36 4.09072L5.5 2.09072L9.62001 2.38076C10.14 2.42076 10.55 2.85075 10.55 3.37075L10.72 20.4207C10.72 20.6907 10.62 20.9506 10.43 21.1406C10.24 21.3306 9.98001 21.4407 9.71001 21.4307L3.3 21.3407C2.76 21.3407 2.32001 20.9007 2.31001 20.3607L2 2.50075V2.49074Z" />
</svg>
