<svg width="24" height="24" viewBox="0 0 24 24" fxmlns="http://www.w3.org/2000/svg">
<path d="M20.55 9.62012C20.92 9.19012 21.17 8.65004 21.17 8.04004C21.17 7.02004 20.62 6.33991 19.88 5.90991C20.14 5.54991 20.31 5.11989 20.31 4.63989C20.31 3.44989 19.67 2.74011 18.73 2.36011C18.06 2.08011 17.18 2 16.38 2C12.95 2 10.46 2.97 8.50999 3.75C7.41999 4.19 6.53999 4.59009 5.75999 4.59009C4.62999 4.59009 3.11 4.57007 3.11 4.57007L3.08 6.57007C3.08 6.57007 4.61999 6.59009 5.75999 6.59009C6.74999 6.59009 7.87999 6.1601 9.25999 5.6001C11.02 4.8901 13.27 3.98999 16.38 3.98999C16.83 3.98999 17.31 4.01012 17.73 4.12012C18.02 4.20012 18.3 4.29988 18.3 4.62988C18.3 4.69988 18.24 4.75005 18.2 4.80005C18.11 4.89005 18.01 4.97004 17.9 5.04004C17.61 5.22004 17.27 5.34009 17.27 5.34009C16.87 5.46009 16.57 5.84003 16.57 6.28003C16.57 6.83003 16.99 7.28005 17.54 7.30005C17.54 7.30005 18.04 7.31999 18.54 7.48999C18.81 7.58999 19.17 7.69004 19.17 8.04004C19.17 8.24004 19 8.36999 18.86 8.48999C18.45 8.81999 17.94 8.98999 17.94 8.98999C17.48 9.13999 17.19 9.59007 17.26 10.0701C17.33 10.5501 17.72 10.9099 18.2 10.9399C18.2 10.9399 18.71 10.9699 19.21 11.1699C19.54 11.3099 19.93 11.52 19.93 12.01C19.93 12.14 19.84 12.2301 19.74 12.3301C19.52 12.5501 19.2 12.7399 18.87 12.8999C17.66 13.4799 16.14 13.72 16.14 13.72C15.66 13.8 15.3 14.22 15.3 14.71C15.3 14.71 15.3 15.81 15.3 17.45C15.3 17.99 15.24 18.56 15.05 19.05C14.84 19.58 14.45 20 13.73 20C13.71 20 13.68 20 13.66 20C13.64 19.95 13.61 19.85 13.59 19.78C13.55 19.56 13.53 19.3 13.52 19.03C13.46 17.78 13.45 16.24 12.69 15.02C12.19 14.22 11.03 13.6399 9.56999 13.3799C6.81999 12.8799 3 13.26 3 13.26L3.20999 15.25C3.20999 15.25 6.69999 14.8801 9.20999 15.3401C9.68999 15.4301 10.12 15.54 10.48 15.71C10.7 15.81 10.89 15.9201 10.99 16.0801C11.3 16.5801 11.4 17.18 11.45 17.76C11.52 18.5 11.5 19.2301 11.57 19.8301C11.66 20.5801 11.92 21.16 12.33 21.53C12.66 21.82 13.1 22.02 13.73 22.02C16.42 22.02 17.3 19.63 17.3 17.47C17.3 16.68 17.3 16.01 17.3 15.54C18.16 15.33 19.52 14.9301 20.47 14.3101C21.37 13.7201 21.92 12.93 21.92 12.04C21.92 10.87 21.31 10.1199 20.54 9.6499L20.55 9.62012Z" />
</svg>
