<svg width="24" height="24" viewBox="0 0 24 24" xmlns="http://www.w3.org/2000/svg">
<path d="M20.54 14.3999C20.91 14.8299 21.16 15.37 21.16 15.98C21.16 17 20.61 17.6801 19.87 18.1101C20.13 18.4701 20.3 18.9001 20.3 19.3801C20.3 20.5701 19.66 21.2799 18.72 21.6599C18.05 21.9399 17.17 22.02 16.37 22.02C12.94 22.02 10.45 21.05 8.5 20.27C7.41 19.83 6.53 19.4299 5.75 19.4299C4.62 19.4299 3.10001 19.45 3.10001 19.45L3.07 17.45C3.07 17.45 4.61 17.4299 5.75 17.4299C6.74 17.4299 7.87 17.8599 9.25 18.4199C11.01 19.1299 13.26 20.03 16.37 20.03C16.82 20.03 17.3 20.0099 17.72 19.8999C18.01 19.8199 18.3 19.7201 18.3 19.3901C18.3 19.3201 18.24 19.27 18.2 19.22C18.11 19.13 18.01 19.05 17.9 18.98C17.61 18.8 17.27 18.6799 17.27 18.6799C16.87 18.5599 16.58 18.18 16.57 17.74C16.57 17.19 16.99 16.74 17.54 16.72C17.54 16.72 18.04 16.7 18.54 16.53C18.81 16.43 19.17 16.33 19.17 15.98C19.17 15.78 19 15.65 18.86 15.53C18.45 15.2 17.94 15.03 17.94 15.03C17.48 14.88 17.19 14.43 17.26 13.95C17.32 13.47 17.72 13.1101 18.2 13.0801C18.2 13.0801 18.71 13.0501 19.21 12.8501C19.54 12.7101 19.93 12.5 19.93 12.01C19.93 11.88 19.84 11.7899 19.74 11.6899C19.52 11.4699 19.2 11.2801 18.87 11.1201C17.66 10.5401 16.14 10.3 16.14 10.3C15.66 10.22 15.3 9.80006 15.3 9.31006C15.3 9.31006 15.3 8.21007 15.3 6.57007C15.3 6.03007 15.24 5.45997 15.05 4.96997C14.84 4.43997 14.45 4.02002 13.73 4.02002C13.71 4.02002 13.68 4.02002 13.66 4.02002C13.64 4.07002 13.61 4.16999 13.59 4.23999C13.55 4.45999 13.53 4.71999 13.52 4.98999C13.46 6.23999 13.45 7.78 12.69 9C12.19 9.8 11.03 10.3801 9.57 10.6401C6.82 11.1401 3 10.76 3 10.76L3.21001 8.77002C3.21001 8.77002 6.70001 9.13993 9.21001 8.67993C9.69001 8.58993 10.12 8.48006 10.48 8.31006C10.7 8.21006 10.89 8.09994 10.99 7.93994C11.3 7.43994 11.4 6.84001 11.45 6.26001C11.52 5.52001 11.5 4.78994 11.57 4.18994C11.66 3.43994 11.92 2.85999 12.33 2.48999C12.66 2.19999 13.1 2 13.73 2C16.42 2 17.3 4.39005 17.3 6.55005C17.3 7.34005 17.3 8.00998 17.3 8.47998C18.16 8.68998 19.52 9.08996 20.47 9.70996C21.37 10.3 21.92 11.09 21.92 11.98C21.92 13.15 21.31 13.9001 20.55 14.3701L20.54 14.3999Z" />
</svg>
