<svg width="24" height="24" viewBox="0 0 24 24" xmlns="http://www.w3.org/2000/svg">
<path d="M13.92 8.29004C14.27 8.09004 14.67 7.97998 15.11 7.97998C16.38 7.97998 17.12 8.71991 17.51 9.65991C17.8 9.52991 18.13 9.43994 18.52 9.43994C19.57 9.43994 20.29 9.93996 20.77 10.71C21.31 11.57 21.49 12.8801 21.49 14.0701C21.48 16.7701 19.81 18.6401 17.75 19.8701C14.93 21.5601 11.41 22 11.41 22L11.16 20.02C11.16 20.02 14.25 19.6399 16.73 18.1599C18.2 17.2799 19.49 16.0001 19.49 14.0601C19.49 13.3601 19.44 12.6 19.2 12.01C19.07 11.7 18.88 11.4399 18.52 11.4399C18.29 11.4399 18.16 11.62 18.06 11.76C17.92 11.98 17.86 12.19 17.85 12.24C17.65 13.02 16.88 13 16.88 13C16.6 13 16.34 12.8799 16.15 12.6799C15.96 12.4799 15.86 12.1999 15.88 11.9299C15.88 11.9299 15.92 11.33 15.77 10.74C15.68 10.4 15.56 9.97998 15.11 9.97998C14.84 9.97998 14.67 10.1999 14.51 10.3999C14.11 10.8999 13.92 11.54 13.92 11.54C13.78 12.01 13.32 12.3 12.83 12.24C12.34 12.17 11.98 11.77 11.96 11.28C11.96 11.28 11.92 10.14 11.92 8.69995C11.92 6.89995 11.85 5.58997 11.55 4.71997C11.4 4.27997 11.2 4.02002 10.8 4.02002C10.52 4.02002 10.33 4.22999 10.18 4.48999C9.92 4.93999 9.8 5.5399 9.8 6.1499C9.8 9.4499 9.71 13.9199 9.71 13.9199C9.7 14.3699 9.39 14.7701 8.95 14.8701C8.51 14.9801 8.05 14.7701 7.84 14.3701C7.84 14.3701 7.26 13.2899 6.46 12.4299C6.23 12.1799 5.97 11.94 5.71 11.77C5.55 11.67 5.39 11.5801 5.23 11.5801C5.17 11.5801 5.13 11.64 5.09 11.7C5.03 11.8 5 11.9201 5 12.0601C5 12.9801 5.56 14.2299 6.19 15.4099C7.22 17.3599 8.51 19.1201 8.51 19.1201L6.9 20.3C6.9 20.3 5.02 17.73 3.89 15.27C3.36 14.1 3 12.95 3 12.05C3 10.62 4.03 9.57007 5.23 9.57007C5.96 9.57007 6.72 9.94003 7.4 10.53C7.53 10.64 7.66 10.7599 7.78 10.8899C7.8 9.42989 7.82 7.64988 7.82 6.12988C7.82 4.92988 8.18 3.76001 8.79 3.01001C9.31 2.37001 10 2 10.83 2C12.14 2 12.99 2.63006 13.48 4.06006C13.8 5.00006 13.94 6.39003 13.95 8.28003L13.92 8.29004Z" />
</svg>
