<svg width="24" height="24" viewBox="0 0 24 24" xmlns="http://www.w3.org/2000/svg">
<path d="M19.5079 15.087C18.7608 15.047 17.8345 14.997 17.8345 14.997V19.982L19.4879 19.992C19.4879 18.8132 19.4979 16.7853 19.5079 15.087ZM4.50719 15.4765C4.50719 17.0349 4.53705 18.8532 4.54701 19.9521L6.56901 19.9121L6.64872 15.4166L4.51713 15.4765H4.50719ZM19.5079 13.079V12.7692C19.5079 10.4216 19.0995 7.68432 17.4062 5.88612C16.3205 4.72728 14.6869 3.998 12.3163 3.998C9.71659 3.998 7.95354 4.60747 6.78815 5.70637C4.99524 7.3747 4.60678 10.072 4.51713 12.9591C4.51713 13.099 4.51715 13.2787 4.50719 13.4785L7.62484 13.3886C7.89377 13.3886 8.16272 13.4886 8.35197 13.6784C8.54122 13.8782 8.65078 14.1379 8.65078 14.4076L8.53126 20.9111C8.5213 21.4406 8.09301 21.8801 7.55514 21.8901L3.57089 21.97C3.30195 21.98 3.05294 21.8802 2.85372 21.6904C2.66447 21.5106 2.55489 21.2507 2.55489 20.991C2.55489 20.991 2.46526 14.5175 2.51507 12.8991C2.62463 9.43259 3.2621 6.24574 5.42355 4.23775C6.88776 2.87911 9.05918 2 12.3063 2C15.3642 2 17.4361 3.01899 18.8505 4.5075C20.8924 6.67533 21.5 9.94208 21.5 12.7692C21.5 14.8172 21.4701 21.001 21.4701 21.001C21.4701 21.2707 21.3605 21.5206 21.1713 21.7104C20.982 21.9002 20.7231 22 20.4641 22L16.8185 21.97C16.2707 21.97 15.8324 21.5205 15.8324 20.971V13.9481C15.8324 13.6684 15.9519 13.4087 16.1511 13.2189C16.3503 13.0291 16.6193 12.9291 16.8882 12.9491L19.5079 13.079Z" />
</svg>
