<svg width="24" height="24" viewBox="0 0 24 24" xmlns="http://www.w3.org/2000/svg">
<path d="M10.22 19.32C11.43 18.56 14.19 16.71 16.49 14.33C18.38 12.37 20 10.06 19.91 7.69C19.84 5.79 18.49 4.5 16.73 4.5C15.91 4.5 15.2 4.98 14.62 5.5C13.61 6.42 12.99 7.56 12.99 7.56C12.82 7.86 12.51 8.06002 12.17 8.08002C11.83 8.10002 11.49 7.94003 11.29 7.66003C11.29 7.66003 10.46 6.47998 9.3 5.53998C8.64 4.99998 7.88 4.5 7.09 4.5C5.15 4.5 3.98999 6.32001 3.98999 8.39001C3.98999 10.67 5.05999 12.91 6.31999 14.79C7.71999 16.89 9.37999 18.55 10.21 19.32H10.22ZM9.45999 21.33C9.45999 21.33 6.8 19.08 4.67 15.9C3.2 13.7 2 11.05 2 8.39001C2 5.14001 4.06999 2.5 7.09999 2.5C8.30999 2.5 9.54999 3.14999 10.57 3.98999C11.14 4.44999 11.64 4.96002 12.03 5.40002C12.36 4.96002 12.78 4.47002 13.28 4.02002C14.22 3.17002 15.41 2.5 16.73 2.5C19.57 2.5 21.8 4.55 21.91 7.62C22.01 10.48 20.21 13.35 17.93 15.72C14.7 19.06 10.6 21.43 10.6 21.43C10.23 21.64 9.78 21.6 9.45 21.33H9.45999Z" />
</svg>
