<svg xmlns="http://www.w3.org/2000/svg" width="24" height="24" viewBox="0 0 24 24">
    <path
        d="M3 9.178C3 6.248 5.411 4 8.375 4c1.237 0 2.463.406 3.46 1.135l.165.122.166-.122C13.162 4.406 14.388 4 15.625 4 18.589 4 21 6.248 21 9.178c0 1.045-.292 2.04-.85 3.03-.98 1.736-2.218 2.969-6.359 6.558v.001l-1.789 1.557-1.792-1.549-.002-.002c-4.158-3.612-5.387-4.838-6.364-6.577C3.289 11.209 3 10.218 3 9.178zM8.375 6C6.43 6 5 7.436 5 9.178c0 .645.174 1.302.587 2.038.778 1.384 1.721 2.389 5.932 6.047l.478.413.482-.419.001-.001c4.194-3.636 5.148-4.649 5.927-6.031.418-.74.593-1.399.593-2.047C19 7.436 17.57 6 15.625 6c-.806 0-1.62.268-2.278.75L12 7.734l-1.347-.986C9.995 6.268 9.181 6 8.375 6z" />
</svg>