<svg width="24" height="24" viewBox="0 0 24 24" xmlns="http://www.w3.org/2000/svg">
<path d="M9.45999 21.33C9.45999 21.33 6.8 19.08 4.67 15.9C3.2 13.7 2 11.05 2 8.39001C2 5.14001 4.06999 2.5 7.09999 2.5C8.30999 2.5 9.54999 3.14999 10.57 3.98999C11.14 4.44999 11.64 4.96002 12.03 5.40002C12.36 4.96002 12.78 4.47002 13.28 4.02002C14.22 3.17002 15.41 2.5 16.73 2.5C19.57 2.5 21.8 4.55 21.91 7.62C22.01 10.48 20.21 13.35 17.93 15.72C14.7 19.06 10.6 21.43 10.6 21.43C10.23 21.64 9.78 21.6 9.45 21.33H9.45999Z" />
</svg>