<svg xmlns="http://www.w3.org/2000/svg" width="24" height="24" viewBox="0 0 24 24">
    <path
        d="M7.994 3.994l.003-.002h8.006l.002.002.003.003V5.555c0 1.04-.405 2.04-1.13 2.788L12 11.317 9.12 8.343c-.724-.747-1.129-1.747-1.129-2.788V3.997l.003-.003zM9.12 15.657L12 12.683l2.879 2.974c.724.747 1.129 1.747 1.129 2.788V20.003l-.003.003-.003.002H7.997s-.002 0-.003-.002l-.003-.003V18.445c0-1.04.405-2.04 1.13-2.788zM8 2.008c-.55 0-1.05.224-1.409.584-.36.359-.583.858-.583 1.408v1.555c0 1.556.605 3.05 1.687 4.168L9.9 12l-2.205 2.277c-1.082 1.118-1.687 2.612-1.687 4.168V20c0 .55.224 1.05.583 1.408.36.36.859.584 1.409.584h8c.55 0 1.049-.224 1.408-.584.36-.359.583-.858.583-1.408v-1.555c0-1.556-.605-3.05-1.687-4.168L14.099 12l2.205-2.277c1.082-1.117 1.687-2.612 1.687-4.168V4c0-.55-.224-1.049-.583-1.408-.36-.36-.859-.584-1.409-.584H8zm2 15.984h4v-1.984h-4v1.984z" />
</svg>