<svg width="24" height="24" viewBox="0 0 24 24" xmlns="http://www.w3.org/2000/svg">
<path d="M16.9 7.56006C17.26 6.59006 17.49 5.51989 17.58 4.38989H7.00998C7.05998 5.08989 7.16997 5.75988 7.33997 6.37988L16.91 7.55005L16.9 7.56006ZM8.14998 8.5C8.83998 9.79 9.81998 10.82 11.01 11.53C11.31 11.71 11.49 12.0199 11.5 12.3699C11.5 12.7199 11.34 13.04 11.05 13.23C8.67998 14.78 7.94997 16.7599 7.44997 20.1099L5.46998 19.8101C5.98998 16.3501 6.79997 14.1499 8.80997 12.4199C6.43997 10.4699 4.97998 7.3299 4.97998 3.3999C4.97998 2.8499 5.42998 2.3999 5.97998 2.3999H18.62C18.62 2.3999 19.62 2.46003 19.62 3.53003C19.62 7.11003 18.13 10.68 15.81 12.52C17.83 14.39 19.62 16.8199 19.62 21.3899C19.62 21.9399 19.17 22.3899 18.62 22.3899H9.16998V20.3899H17.58C17.3 16.5799 15.37 14.7299 13.5 13.1599C13.24 12.9399 13.11 12.61 13.15 12.27C13.19 11.93 13.4 11.64 13.7 11.49C14.58 11.06 15.33 10.35 15.94 9.44995L8.14998 8.5Z" />
</svg>
