<svg xmlns="http://www.w3.org/2000/svg" width="24" height="24" viewBox="0 0 24 24">
    <path
        d="M6.586 2.586C6.946 2.225 7.448 2 8 2h8c.552 0 1.053.225 1.414.586.361.36.586.862.586 1.414v1.555c0 1.558-.606 3.055-1.69 4.174L14.11 12l2.2 2.271c1.084 1.12 1.69 2.616 1.69 4.174V20c0 .552-.225 1.053-.586 1.414-.36.361-.862.586-1.414.586H8c-.552 0-1.053-.225-1.414-.586C6.225 21.054 6 20.552 6 20v-1.555c0-1.558.606-3.055 1.69-4.174L9.89 12l-2.2-2.271C6.606 8.609 6 7.113 6 5.555V4c0-.552.225-1.053.586-1.414zM16 4H8v1.555c0 1.039.404 2.036 1.127 2.783L12 11.304l2.873-2.966C15.596 7.59 16 6.594 16 5.555V4zm-4 8.696l-2.873 2.966C8.404 16.408 8 17.406 8 18.445V20h8v-1.555c0-1.039-.404-2.037-1.127-2.783L12 12.696zM14 18h-4v-2h4v2zM10 8h4V6h-4v2z" />
</svg>