<svg width="24" height="24" viewBox="0 0 24 24" xmlns="http://www.w3.org/2000/svg">
<path d="M13.36 19.99H17.6C17.49 18.57 17.15 17.2401 16.62 16.0901H13.36V19.99ZM8.07 16.0901C7.5 17.2101 7.15 18.53 7.04 19.99H11.37V16.0901H8.08H8.07ZM9.38 9.67017C9.83 10.2202 10.38 10.7102 11.08 11.1602C11.37 11.3502 11.54 11.67 11.53 12.02C11.53 12.37 11.34 12.6801 11.04 12.8601C10.47 13.2001 9.94 13.6101 9.48 14.1001H15.31C14.84 13.6001 14.31 13.1901 13.73 12.9001C13.43 12.7501 13.22 12.4601 13.18 12.1201C13.14 11.7801 13.27 11.45 13.53 11.23C14.1 10.75 14.68 10.2402 15.21 9.66016H9.38V9.67017ZM16.62 7.67017C17.13 6.68017 17.49 5.49 17.6 4H9.18999V2H18.64C19.19 2 19.64 2.45 19.64 3C19.64 7.57 17.85 10.0001 15.83 11.8701C18.15 13.7101 19.64 17.16 19.64 20.99L18.64 21.99H6C5.45 21.99 5 21.54 5 20.99C5 17.06 6.47 13.92 8.83 11.97C6.82 10.24 6.01 8.03008 5.49 4.58008L7.47 4.28003C7.67 5.60003 7.9 6.71017 8.26 7.67017H16.63H16.62Z" />
</svg>
