<svg width="24" height="24" viewBox="0 0 24 24" xmlns="http://www.w3.org/2000/svg">
<path d="M7.70999 16.8701C7.35999 17.8301 7.14002 18.89 7.05002 20H17.62C17.57 19.31 17.46 18.65 17.3 18.04L7.70999 16.8801V16.8701ZM16.49 15.9202C15.8 14.6202 14.82 13.5701 13.61 12.8601C13.31 12.6801 13.13 12.37 13.12 12.02C13.11 11.67 13.28 11.3502 13.57 11.1602C15.94 9.61016 16.67 7.63003 17.17 4.28003L19.15 4.58008C18.63 8.04008 17.82 10.24 15.81 11.97C18.18 13.92 19.64 17.06 19.64 20.99C19.64 21.54 19.19 21.99 18.64 21.99H6L5 20.99C5 17.16 6.49 13.7101 8.81 11.8701C6.79 10.0001 5 7.57 5 3C5 2.45 5.45 2 6 2H15.45V4H7.04001C7.33001 7.81 9.25 9.65998 11.12 11.23C11.38 11.45 11.51 11.7801 11.47 12.1101C11.43 12.4501 11.22 12.7401 10.92 12.8901C10.03 13.3301 9.27 14.0502 8.66 14.9602L16.49 15.9102V15.9202Z" />
</svg>
