<svg width="24" height="24" viewBox="0 0 24 24" xmlns="http://www.w3.org/2000/svg">
<path d="M9.1 19.9825L13.91 20.0826L13.38 15.5426L9.22 15.3126L9.1 19.9925V19.9825ZM17.61 7.62264L19.92 9.42269V4.2325L17.68 4.0826L17.61 7.62264ZM21.92 3.30257V20.8226H19.92V11.9527L11.84 5.66268L4.21 11.5826L4.03 19.8726L7.09 19.9327L7.24 14.2125C7.24 13.9425 7.36 13.6825 7.56 13.5025C7.76 13.3225 8.02 13.2225 8.29 13.2425L14.32 13.5826C14.81 13.6126 15.2 13.9825 15.26 14.4625L16.01 20.9825C16.04 21.2725 15.95 21.5525 15.76 21.7725C15.57 21.9825 15.29 22.1026 15 22.1026L2.98 21.8626C2.72 21.8626 2.46 21.7426 2.28 21.5526C2.1 21.3626 2 21.1026 2 20.8426L2.22 11.0726C2.22 10.7726 2.37 10.4926 2.61 10.3026L11.23 3.61263C11.59 3.33263 12.1 3.33263 12.46 3.61263L15.64 6.0826L15.7 2.9825C15.7 2.7125 15.82 2.45253 16.02 2.26253C16.22 2.08253 16.49 1.98252 16.76 2.00252L20.98 2.29256C21.5 2.33256 21.91 2.76256 21.91 3.29256L21.92 3.30257Z" />
</svg>
