<svg width="24" height="24" viewBox="0 0 24 24" xmlns="http://www.w3.org/2000/svg">
<path d="M16.15 16.9099H18.15V15.28H16.15V16.9099ZM16.15 7.90991H18.15V6.28003H16.15V7.90991ZM16.15 11.76H18.15V10.1299H16.15V11.76ZM12.63 7.90991H14.63V6.28003H12.63V7.90991ZM12.63 11.76H14.63V10.1299H12.63V11.76ZM8.93001 14.01C8.24001 13.47 7.67 13.03 7.67 13.03L4.11 15.79L4.03 19.4399H11.46V15.98C11.46 15.98 9.59001 14.52 8.93001 14.01ZM9.59 21.4299H3.00999C2.73999 21.4399 2.48001 21.3399 2.29001 21.1399C2.10001 20.9499 2 20.6899 2 20.4199L2.11 15.27C2.11 14.97 2.26 14.69 2.5 14.5L7.05 10.97C7.41 10.69 7.92 10.69 8.28 10.97L8.99001 11.52L9.22 2.98999C9.23 2.44999 9.68 2.02002 10.22 2.02002L20.67 2C20.94 2 21.19 2.11004 21.38 2.29004C21.57 2.48004 21.67 2.73 21.67 3L21.63 20.45H19.63L19.67 4L11.19 4.02002L10.95 13.05L12.98 14.6299H14.43V16.26H13.46V19.45H15.33V21.45H9.75C9.7 21.45 9.64 21.4499 9.59 21.4399V21.4299Z" />
</svg>
