<svg version="1.1" xmlns="http://www.w3.org/2000/svg" xmlns:xlink="http://www.w3.org/1999/xlink" x="0px" y="0px"
	viewBox="0 0 24 24" style="enable-background:new 0 0 24 24;" xml:space="preserve">
	<rect x="9" y="21" width="6" height="2" />
	<path d="M12,5.3c-3.7,0-6.8,3-6.8,6.8c0,2,0.9,3.9,2.5,5.2l0,0c0.5,0.5,0.9,1.1,0.9,1.8c0,0.5,0.5,0.9,1,0.9h4.6
	c0.5,0,1-0.4,1-0.9c0.1-0.7,0.4-1.5,1-1.9c1.5-1.3,2.4-3.2,2.4-5.2C18.8,8.3,15.7,5.3,12,5.3z" />
	<rect x="20" y="11" width="2" height="2" />
	<rect x="2" y="11" width="2" height="2" />
	<rect x="17.2" y="4.7" transform="matrix(0.7071 -0.7071 0.7071 0.7071 1.2942 14.5387)" width="2" height="2" />
	<rect x="4.7" y="4.7" transform="matrix(0.7071 -0.7071 0.7071 0.7071 -2.3668 5.7)" width="2" height="2" />
	<rect x="11" y="2" width="2" height="2" />
</svg>