<svg width="24" height="24" viewBox="0 0 24 24" xmlns="http://www.w3.org/2000/svg">
    <path fill-rule="evenodd" d="M15 23H9V21H15V23Z" />
    <path
        d="M8.40791 16.5008C8.40084 16.4947 8.39368 16.4888 8.38643 16.4829C7.03071 15.3814 6.25586 13.7543 6.25586 12.012C6.25586 8.83829 8.83914 6.255 12.0129 6.255C15.1868 6.255 17.7709 8.83848 17.7709 12.012C17.7709 13.7108 17.0265 15.3121 15.7266 16.4102L15.726 16.4107L15.726 16.4107L15.7184 16.4167C14.9336 17.0459 14.4145 18.0055 14.3293 19.024H9.69675C9.61652 18.0444 9.14229 17.1324 8.40791 16.5008Z"
        stroke="#222222" stroke-width="2" stroke-linejoin="round" />
    <path fill-rule="evenodd" d="M22 13H20V11H22V13Z" />
    <path fill-rule="evenodd" d="M4 13H2V11H4V13Z" />
    <path fill-rule="evenodd" d="M13 2V4H11V2H13Z" />
    <path fill-rule="evenodd" d="M5.70712 4.29288L7.12133 5.70709L5.70712 7.12131L4.29291 5.70709L5.70712 4.29288Z" />
    <path fill-rule="evenodd" d="M19.6213 5.70712L18.2071 7.12133L16.7929 5.70712L18.2071 4.29291L19.6213 5.70712Z" />
</svg>