<svg xmlns="http://www.w3.org/2000/svg" width="24" height="24" viewBox="0 0 24 24">
    <path
        d="M13 4V2h-2v2h2zm2.092 11.637c1.069-.908 1.679-2.226 1.679-3.625 0-2.621-2.136-4.757-4.758-4.757s-4.757 2.136-4.757 4.757c0 1.44.639 2.783 1.761 3.695l.043.036c.696.598 1.208 1.395 1.464 2.281h2.98c.273-.938.833-1.782 1.588-2.387zm-5.68 4.387c-.388 0-.703-.315-.703-.704 0-.791-.36-1.551-.953-2.061-1.59-1.291-2.5-3.203-2.5-5.247 0-3.726 3.03-6.757 6.757-6.757 3.726 0 6.758 3.031 6.758 6.757 0 2-.88 3.886-2.413 5.174l-.014.011c-.63.505-1.027 1.308-1.027 2.123 0 .389-.315.704-.704.704h-5.2zM15 23H9v-2h6v2zm5-10h2v-2h-2v2zM4 13H2v-2h2v2zm1.707-8.707l1.414 1.414-1.414 1.414-1.414-1.414 1.414-1.414zM18.293 7.12l1.414-1.414-1.414-1.414-1.414 1.414 1.414 1.414z" />
</svg>