<svg version="1.1" xmlns="http://www.w3.org/2000/svg" xmlns:xlink="http://www.w3.org/1999/xlink" x="0px" y="0px"
	viewBox="0 0 24 24" style="enable-background:new 0 0 24 24;" xml:space="preserve">
	<rect x="11" y="2" width="2" height="2" />
	<path d="M15.1,15.6c1.1-0.9,1.7-2.2,1.7-3.6c0-2.6-2.1-4.8-4.8-4.8S7.3,9.4,7.3,12c0,1.4,0.6,2.8,1.8,3.7l0,0
	c0.7,0.6,1.2,1.4,1.5,2.3h3C13.8,17.1,14.3,16.2,15.1,15.6z M9.4,20c-0.4,0-0.7-0.3-0.7-0.7c0-0.8-0.4-1.6-1-2.1
	C6.2,16,5.3,14.1,5.3,12c0-3.7,3-6.8,6.8-6.8c3.7,0,6.8,3,6.8,6.8c0,2-0.9,3.9-2.4,5.2l0,0c-0.6,0.5-1,1.3-1,2.1
	c0,0.4-0.3,0.7-0.7,0.7L9.4,20L9.4,20z" />
	<rect x="9" y="21" width="6" height="2" />
	<rect x="20" y="11" width="2" height="2" />
	<rect x="2" y="11" width="2" height="2" />
	<rect x="4.7" y="4.7" transform="matrix(0.7071 -0.7071 0.7071 0.7071 -2.3639 5.707)" width="2" height="2" />
	<rect x="17.3" y="4.7" transform="matrix(0.7071 -0.7071 0.7071 0.7071 1.3231 14.6064)" width="2" height="2" />
</svg>