<svg width="24" height="24" viewBox="0 0 24 24" fill="none" xmlns="http://www.w3.org/2000/svg">
    <path
        d="M13 4V2H11V4H13ZM9.41286 20.024C9.02405 20.024 8.70886 19.7088 8.70886 19.32C8.70886 18.529 8.34886 17.769 7.75586 17.259C6.16686 15.968 5.25586 14.056 5.25586 12.012C5.25586 8.28601 8.28686 5.255 12.0129 5.255C15.7389 5.255 18.7709 8.28601 18.7709 12.012C18.7709 14.012 17.8909 15.898 16.3579 17.186L16.3439 17.197C15.7139 17.702 15.3169 18.505 15.3169 19.32C15.3169 19.7088 15.0017 20.024 14.6129 20.024H9.41286ZM15 23H9V21H15V23ZM20 13H22V11H20V13ZM4 13H2V11H4V13ZM5.70712 4.29288L7.12134 5.70709L5.70712 7.12131L4.29291 5.70709L5.70712 4.29288ZM18.2071 7.12134L19.6213 5.70712L18.2071 4.29291L16.7929 5.70712L18.2071 7.12134Z" />
</svg>