<svg width="24" height="24" viewBox="0 0 24 24" xmlns="http://www.w3.org/2000/svg">
<path d="M10.16 7.42999C11.01 7.42999 11.7 8.11998 11.7 8.97998C11.7 9.83998 11.01 10.52 10.16 10.52C9.30995 10.52 8.61996 9.82998 8.61996 8.97998C8.61996 8.12998 9.30995 7.42999 10.16 7.42999ZM3.71996 16.48V18.52L19.7 18.73L19.72 13.71L16.56 9.93994L11.49 16.0699C11.31 16.2799 11.06 16.41 10.78 16.43C10.5 16.43 10.23 16.34 10.03 16.15L6.99995 13.27L3.71996 16.48ZM3.70995 13.6899L6.28996 11.17C6.66996 10.79 7.28995 10.79 7.67995 11.16L10.63 13.97L15.79 7.73999C15.98 7.50999 16.26 7.37 16.56 7.37C16.86 7.37 17.14 7.49998 17.33 7.72998L21.5 12.7C21.65 12.89 21.74 13.11 21.73 13.35L21.7 19.75C21.7 20.02 21.59 20.27 21.4 20.46C21.21 20.64 20.95 20.75 20.69 20.74L2.71996 20.5099C2.16996 20.4999 1.72996 20.0599 1.72996 19.5099L1.69995 5.19995C1.69995 4.66995 2.10995 4.22995 2.63995 4.19995L20.58 3.19995L20.69 5.19995L3.69995 6.13995V13.6899H3.70995Z" />
</svg>
