<svg width="24" height="24" viewBox="0 0 24 24" xmlns="http://www.w3.org/2000/svg">
<path d="M9.17013 9.72998C9.87013 9.72998 10.4301 10.29 10.4301 10.99C10.4301 11.69 9.86013 12.2599 9.17013 12.2599C8.48013 12.2599 7.91013 11.69 7.91013 10.99C7.91013 10.29 8.48013 9.72998 9.17013 9.72998ZM22.0601 17.0699L20.0601 17.2L19.3201 5.50995C17.0501 5.42995 10.8901 5.2 5.34013 5L5.41013 3C12.3701 3.25 20.2901 3.53998 20.2901 3.53998C20.8001 3.55998 21.2201 3.96998 21.2501 4.47998L22.0501 17.0699H22.0601ZM4.73013 18.03L4.80013 18.8199C9.76013 18.8999 14.2701 18.93 16.2201 18.95L16.1901 16.12L13.9201 13.8L11.1101 17.66C10.7901 18.1 10.1801 18.2 9.73013 17.89L6.96013 15.99L4.72013 18.03H4.73013ZM16.1601 13.23L16.1101 8.75L3.09013 8.62994L3.11013 6.62994L17.1101 6.75995C17.6501 6.76995 18.1001 7.21 18.1001 7.75L18.2301 19.9399C18.2301 20.2099 18.1301 20.47 17.9401 20.66C17.7501 20.85 17.4901 20.96 17.2301 20.95C17.2301 20.95 10.8501 20.92 3.87013 20.81C3.36013 20.8 2.93013 20.4 2.89013 19.89L2.13013 11.08L4.12013 10.91L4.52013 15.53L6.22013 13.98C6.56013 13.67 7.08013 13.63 7.46013 13.89L10.0801 15.7L13.0101 11.67C13.1801 11.43 13.4501 11.2799 13.7501 11.2599C14.0501 11.2399 14.3301 11.35 14.5401 11.56L16.1801 13.23H16.1601Z" />
</svg>
