<svg xmlns="http://www.w3.org/2000/svg" width="24" height="24" viewBox="0 0 24 24">
    <path
        d="M2 5.778C2 4.232 3.265 3 4.8 3h14.4C20.735 3 22 4.232 22 5.778v12.444C22 19.768 20.735 21 19.2 21H4.8C3.265 21 2 19.768 2 18.222V5.778zm8.153 10.311l-2.695-1.488c-.44-.242-.99-.122-1.288.282l-1.493 2.023c-.488.66-.016 1.594.804 1.594H18c.828 0 1.5-.672 1.5-1.5v-3.367c0-.285-.122-.558-.336-.748l-2.927-2.596c-.464-.412-1.188-.306-1.514.221l-3.236 5.23c-.28.453-.867.607-1.334.35zM10.6 9.8c0 .994-.806 1.8-1.8 1.8S7 10.794 7 9.8 7.806 8 8.8 8s1.8.806 1.8 1.8z" />
</svg>