<svg width="24" height="24" viewBox="0 0 24 24" xmlns="http://www.w3.org/2000/svg">
    <path fill-rule="evenodd"
        d="M4 5.77778C4 5.3599 4.34642 5 4.8 5H19.2C19.6536 5 20 5.3599 20 5.77778V13.568L17.1694 11.2291C16.951 11.0487 16.6663 10.9693 16.3861 11.0108C16.1058 11.0522 15.8563 11.2106 15.6995 11.4466L12.5512 16.1844L9.75909 14.7489C9.33447 14.5305 8.81474 14.6429 8.51817 15.017L5.36123 19H4.8C4.34642 19 4 18.6401 4 18.2222V5.77778ZM7.91328 19H19.2C19.6536 19 20 18.6401 20 18.2222V16.1624L16.751 13.4779L13.7221 18.036C13.4403 18.4601 12.8848 18.6047 12.432 18.3719L9.57524 16.9032L7.91328 19ZM4.8 3C3.26535 3 2 4.23198 2 5.77778V18.2222C2 19.768 3.26535 21 4.8 21H19.2C20.7346 21 22 19.768 22 18.2222V5.77778C22 4.23198 20.7346 3 19.2 3H4.8Z" />
    <path fill-rule="evenodd"
        d="M8.8 9C8.35817 9 8 9.35817 8 9.8C8 10.2418 8.35817 10.6 8.8 10.6C9.24183 10.6 9.6 10.2418 9.6 9.8C9.6 9.35817 9.24183 9 8.8 9ZM6 9.8C6 8.2536 7.2536 7 8.8 7C10.3464 7 11.6 8.2536 11.6 9.8C11.6 11.3464 10.3464 12.6 8.8 12.6C7.2536 12.6 6 11.3464 6 9.8Z" />
</svg>