<svg width="24" height="24" viewBox="0 0 24 24" xmlns="http://www.w3.org/2000/svg">
<path d="M12.51 4C13.44 4 14.19 4.74999 14.19 5.67999C14.19 6.60999 13.44 7.35999 12.51 7.35999C11.58 7.35999 10.83 6.60999 10.83 5.67999C10.83 4.74999 11.58 4 12.51 4ZM8.54001 11.82L8 9.88998L12.22 8.70999C12.59 8.59999 12.98 8.72001 13.24 9.01001C13.5 9.29001 13.56 9.69999 13.42 10.05C13.42 10.05 11.35 14.96 11.35 17.29C11.35 17.53 11.35 17.76 11.37 17.96C11.38 18.08 11.37 18.2 11.44 18.27C11.53 18.37 11.69 18.35 11.93 18.35C12.81 18.35 13.05 17.37 13.05 16.78H15.05C15.05 18.23 14.09 20.35 11.93 20.35C10.95 20.35 10.37 20.04 9.99001 19.65C9.49001 19.12 9.34001 18.29 9.34001 17.29C9.34001 15.69 10.2 12.99 10.85 11.17L8.54001 11.82Z" />
</svg>
