<svg width="24" height="24" viewBox="0 0 24 24" xmlns="http://www.w3.org/2000/svg">
<path d="M4.34003 12.5625C4.34003 9.48255 5.52965 7.39099 7.28251 6.04262C9.07156 4.66641 11.5364 4 14.1399 4V2C11.231 2 8.29587 2.73984 6.06308 4.45738C3.79412 6.20276 2.34003 8.89245 2.34003 12.5625C2.34003 18.4953 7.38561 22 11.665 22C14.8589 22 17.3705 21.0014 19.0909 19.3614C20.8079 17.7246 21.6649 15.5156 21.6649 13.2376C21.6649 10.5469 20.6508 8.36392 18.8031 6.87592C16.9836 5.4106 14.4585 4.70003 11.5525 4.70003V6.70003C14.159 6.70003 16.1901 7.3395 17.5487 8.43359C18.8791 9.50501 19.6649 11.0908 19.6649 13.2376C19.6649 15.0097 19.0032 16.6819 17.7109 17.9137C16.4219 19.1425 14.4335 20 11.665 20C8.29443 20 4.34003 17.2047 4.34003 12.5625ZM12.21 7.5C12.83 7.5 13.33 8 13.33 8.62C13.33 9.24 12.83 9.73999 12.21 9.73999C11.59 9.73999 11.09 9.24 11.09 8.62C11.09 8 11.59 7.5 12.21 7.5ZM12.22 16.25C12.1845 16.321 12.1411 16.392 12.0689 16.421C12.06 16.3426 12.06 16.247 12.06 16.17C12.06 14.78 13.3 11.87 13.3 11.87C13.44 11.51 13.38 11.11 13.12 10.82C12.86 10.53 12.47 10.42 12.1 10.52L9.5 11.25L10.04 13.17L10.76 12.97C10.4 14.05 10.04 15.34 10.04 16.17C10.04 16.9 10.18 17.5 10.54 17.89C10.82 18.19 11.26 18.44 12.01 18.44C13.58 18.44 14.31 16.91 14.31 15.86H12.31C12.31 15.98 12.28 16.12 12.22 16.25Z" />
</svg>
