<svg width="24" height="24" viewBox="0 0 24 24" xmlns="http://www.w3.org/2000/svg">
<path d="M17.3766 0H6.62295C2.97106 0 0 2.9712 0 6.62309V17.3768C0 21.0288 2.97106 23.9999 6.62295 23.9999H17.3766C21.0288 23.9999 23.9999 21.0287 23.9999 17.3768V6.62309C24 2.9712 21.0288 0 17.3766 0ZM21.8706 17.3768C21.8706 19.8547 19.8547 21.8705 17.3768 21.8705H6.62295C4.1452 21.8706 2.12938 19.8547 2.12938 17.3768V6.62309C2.12938 4.14534 4.1452 2.12938 6.62295 2.12938H17.3766C19.8545 2.12938 21.8705 4.14534 21.8705 6.62309V17.3768H21.8706ZM12.0045 5.82031C8.59447 5.82031 5.82031 8.59447 5.82031 12.0045C5.82031 15.4143 8.59447 18.1883 12.0045 18.1883C15.4145 18.1883 18.1886 15.4143 18.1886 12.0045C18.1886 8.59447 15.4145 5.82031 12.0045 5.82031ZM12.0045 16.0588C9.76876 16.0588 7.9497 14.24 7.9497 12.0043C7.9497 9.76847 9.76862 7.94955 12.0045 7.94955C14.2403 7.94955 16.0592 9.76847 16.0592 12.0043C16.0592 14.24 14.2402 16.0588 12.0045 16.0588ZM17.3413 4.47273C17.6311 4.18172 18.0341 4.01562 18.4444 4.01562C18.856 4.01562 19.2592 4.18172 19.5488 4.47273C19.8398 4.76233 20.0059 5.16549 20.0059 5.57717C20.0059 5.98743 19.8398 6.3906 19.5488 6.68161C19.2578 6.97121 18.856 7.13872 18.4444 7.13872C18.0341 7.13872 17.6309 6.97121 17.3413 6.68161C17.0503 6.3906 16.8828 5.98758 16.8828 5.57717C16.8828 5.16549 17.0502 4.76233 17.3413 4.47273Z" />
</svg>
