<svg width="24" height="24" viewBox="0 0 24 24" xmlns="http://www.w3.org/2000/svg">
<path d="M3.00001 2C2.44773 2 2.00001 2.44771 2.00001 3L2 19C2 19.2652 2.10536 19.5196 2.29289 19.7071C2.48043 19.8946 2.73478 20 3 20H5.56616L5.50061 21.9667L7.4995 22.0333L7.96726 8H16.9637L16.5351 20H10V22H17.5C18.0384 22 18.4802 21.5737 18.4994 21.0357L18.6254 17.5087L21.4962 15.8683C21.8078 15.6902 22 15.3589 22 15V10C22 9.7348 21.8947 9.48044 21.7072 9.29291L18.7097 6.29542C18.5221 6.10648 18.2667 6 18 6H16L16 3C16 2.44771 15.5523 2 15 2H3.00001ZM20 14.4197L18.7093 15.1572L18.9174 9.33159L20 10.4142V14.4197ZM14 6H7.00004C6.46072 6 6.01856 6.42767 6.00059 6.96669L5.63283 18H4L4.00001 4H14L14 6Z" />
<path d="M12 11.5H16V9.5H12V11.5Z" />
<path d="M15.5 16H9.5V14H15.5V16Z" />
<path d="M9 19H15V17H9V19Z" />
</svg>
    