<svg width="24" height="24" viewBox="0 0 24 24" xmlns="http://www.w3.org/2000/svg">
<path d="M21.5 17.54L19.5 17.58L19.2 4H9.79001V2H20.18C20.72 2 21.17 2.44004 21.18 2.98004L21.5 17.54ZM4.73 12.72H3.03V10.72H4.76001L4.82001 7.23004C4.82001 6.68004 5.28001 6.24 5.82001 6.25L16.18 6.27002C16.45 6.27002 16.7 6.38001 16.89 6.57001C17.08 6.76001 17.18 7.02003 17.18 7.28003L16.99 20.68C16.99 21.21 16.56 21.65 16.02 21.66L6.22 21.9901L6.15001 19.9901L14.99 19.7L15.15 8.27002L6.78 8.25L6.74001 10.72H8.29001V12.72H6.7L6.66 14.77H8.28V16.77H3V14.77H4.66L4.7 12.72H4.73Z" />
</svg>
