<svg width="24" height="24" viewBox="0 0 24 24" xmlns="http://www.w3.org/2000/svg">
<path d="M20.3738 15.97L21.6738 17.1399C21.9838 17.4099 22.0838 17.85 21.9438 18.24C21.7938 18.62 21.4238 18.88 21.0138 18.88L3.00382 18.98C2.57382 18.98 2.19382 18.7099 2.05382 18.2999C1.91382 17.8899 2.05382 17.4399 2.39382 17.1799L3.89382 16.0499L3.66382 7.5199L5.66382 7.46997L5.88382 15.5399C10.0138 15.5399 14.4138 15.51 18.3738 15.46C18.3138 13.1 18.3238 10.64 18.3738 8.08997L7.38382 8L7.40383 6L19.4138 6.09998C19.6838 6.09998 19.9338 6.20991 20.1238 6.40991C20.3138 6.59991 20.4138 6.86 20.4038 7.13C20.3138 10.2 20.3038 13.17 20.3938 15.97H20.3738Z" />
</svg>
