<svg width="24" height="24" viewBox="0 0 24 24" xmlns="http://www.w3.org/2000/svg">
<path d="M12.5965 2L14.2065 3.19L7.06651 12.8L9.91651 12.67C10.2865 12.66 10.6265 12.84 10.8165 13.16C11.0065 13.47 11.0065 13.86 10.8165 14.18L8.43652 18.19L6.71651 17.18L8.14651 14.76L5.04651 14.9C4.65651 14.92 4.29652 14.71 4.11652 14.37C3.93652 14.03 3.96651 13.61 4.19651 13.3L12.5965 2ZM9.92651 22.05L8.46651 20.68L16.3765 12.26L13.1665 12.51C12.8065 12.54 12.4665 12.38 12.2665 12.08C12.0665 11.79 12.0365 11.41 12.1865 11.09L14.7665 5.58002L16.5765 6.42999L14.7265 10.38L18.7965 10.07C19.2065 10.03 19.5965 10.26 19.7765 10.63C19.9565 11 19.8865 11.45 19.6065 11.75L9.92651 22.05Z" />
</svg>
