<svg width="24" height="24" viewBox="0 0 24 24" xmlns="http://www.w3.org/2000/svg">
<path d="M9.07 21.98H14.01V19.98H9.07V21.98ZM8.75001 18.9302H14.47V16.9302H8.75001V18.9302ZM14.59 10.73C15.35 10.38 16.28 9.61017 16.28 7.92017C16.28 5.33017 13.98 4 11.88 4C10.4 4 9.04 4.47015 8.12 5.40015L14.58 10.73H14.59ZM5.46 5.79004L3 3.77002L4.27 2.22998L6.54 4.1001C7.82 2.7101 9.75 2 11.88 2C14.99 2 18.28 4.09017 18.28 7.92017C18.28 10.1402 17.3 11.4001 16.25 12.1001L20.17 15.3301L18.9 16.8701L14.66 13.3801V15.9102H12.66V12C12.66 11.92 12.66 11.83 12.69 11.76L7.11001 7.16016C7.00001 7.58016 6.93 8.03003 6.93 8.53003C6.93 12.29 10.94 12.3501 10.94 12.3501L10.9 14.3501C10.9 14.3501 4.93 14.19 4.93 8.53003C4.93 7.49003 5.10999 6.58004 5.43999 5.79004H5.46Z" />
</svg>
