<svg width="24" height="24" viewBox="0 0 24 24" xmlns="http://www.w3.org/2000/svg">
<path d="M9.12 21.99H14.06V19.99H9.12V21.99ZM8.81 18.9402H14.53V16.9402H8.81V18.9402ZM11.01 12.3601L10.97 14.3601C10.97 14.3601 5 14.2 5 8.54004C5 4.24004 8.15999 2 11.94 2C15.05 2 18.34 4.09017 18.34 7.92017C18.34 11.3102 16.05 12.4501 14.73 12.8301V15.9302H12.73V12.02C12.73 11.5 13.13 11.06 13.66 11.02C13.66 11.02 16.34 10.8002 16.34 7.93018C16.34 5.34018 14.04 4.01001 11.94 4.01001C9.27999 4.01001 7 5.53005 7 8.55005C7 12.31 11.01 12.3701 11.01 12.3701V12.3601Z" />
</svg>
