<svg width="24" height="24" viewBox="0 0 24 24" xmlns="http://www.w3.org/2000/svg">
<path d="M7.76307 2L9.67306 2.59998L6.37307 13.09L10.7831 12.95C11.1631 12.95 11.5231 13.15 11.7031 13.49C11.8831 13.83 11.8431 14.2399 11.6131 14.5499L8.99306 18.0599L7.39307 16.86L8.77306 15.0099L5.03307 15.13C4.71307 15.14 4.40306 14.99 4.20306 14.73C4.00306 14.48 3.95307 14.14 4.04307 13.83L7.76307 2ZM10.3931 21.95L8.97307 20.5499L17.3531 12.0599L13.3731 11.5599C13.0131 11.5199 12.7031 11.2799 12.5631 10.9399C12.4331 10.5999 12.4931 10.2099 12.7231 9.92993L17.6531 4.00989H12.3431V2H19.7831C20.1731 2.01 20.5231 2.22996 20.6831 2.57996C20.8431 2.92996 20.7931 3.3499 20.5431 3.6499L15.4231 9.79993L19.6031 10.3199C19.9831 10.3699 20.3031 10.62 20.4231 10.98C20.5431 11.34 20.4631 11.7399 20.1931 12.0099L10.3931 21.95Z" />
</svg>
