<svg width="24" height="24" viewBox="0 0 24 24" xmlns="http://www.w3.org/2000/svg">
    <path fill-rule="evenodd"
        d="M13.5532 8.35083V10.3508H15.5532H19.0689L19.1052 10.402C19.3481 10.7435 19.7676 11.3578 19.9966 11.7376C19.9924 11.791 19.9846 11.8502 19.9739 11.9091C19.9614 11.9783 19.9489 12.0255 19.9448 12.0394L19.9371 12.0658L19.9301 12.0924C19.5171 13.6589 18.602 17.087 18.2019 18.4375C18.1067 18.7588 17.9672 18.9176 17.8824 18.9927L17.8741 19H9.11547L9 18.9172V10V9.64061C9.06295 9.60849 9.1271 9.57355 9.19133 9.53561C9.511 9.34681 9.9498 9.01653 10.2542 8.46055C10.6178 7.79653 10.8102 7.0029 10.9347 6.48899L10.953 6.41347C11.1076 5.77848 11.2087 5.38679 11.348 5.09159C11.456 4.86254 11.5503 4.67634 11.6314 4.53197C11.7061 4.39896 11.7477 4.34118 11.7548 4.33133L11.7555 4.33015C11.8691 4.19292 11.9557 4.12395 12.0059 4.09002C12.0548 4.05702 12.0902 4.04298 12.1162 4.03488C12.189 4.01228 12.2227 4.01118 12.4459 4.00385L12.5536 4.00025C12.8974 4.00658 13.0961 4.1318 13.2562 4.30073C13.3995 4.45201 13.4975 4.63145 13.5532 4.76477V8.35083ZM8.75134 20.9666C8.41054 21.5828 7.754 22 7 22H4C2.89543 22 2 21.1046 2 20V10C2 8.89543 2.89543 8 4 8H7H7.75335C8.05525 7.89269 8.35991 7.75584 8.5 7.5C8.73452 7.0717 8.8738 6.4993 9.0185 5.90459C9.15739 5.33381 9.30127 4.74247 9.53917 4.23823C9.77685 3.73442 10.0058 3.30764 10.2143 3.05556C11.0574 2.0362 11.9091 2.01541 12.4221 2.0029C12.4585 2.00201 12.4932 2.00116 12.5261 2C14.4963 2 15.3651 3.64457 15.5532 4.46685V6.35083V8.35083H17.5532H19.2473C20.0272 8.35083 20.5642 8.94567 20.7353 9.24309C21.0089 9.62799 21.6177 10.5133 21.864 10.9751C22.1103 11.437 21.9666 12.2523 21.864 12.6022C21.4536 14.1593 20.53 17.6199 20.1196 19.0055C19.7091 20.3912 18.7172 20.9125 18.2725 21H9.11547C8.99271 21 8.87085 20.9887 8.75134 20.9666ZM17.7719 19.0696V19.0696L17.7762 19.0677L17.7719 19.0696ZM4 10H7V19.9444V20H4L4 10Z" />
</svg>