<svg width="24" height="24" viewBox="0 0 24 24" xmlns="http://www.w3.org/2000/svg">
<path d="M18.14 13.474L16.94 11.874C16.94 11.874 17.81 11.214 18.51 10.264C18.91 9.72402 19.28 9.084 19.28 8.424C19.28 7.384 18.66 6.32398 17.85 5.65398C17.37 5.24398 16.81 4.97401 16.25 5.00401C15.89 5.01401 15.41 5.25402 14.86 5.57402C13.85 6.17402 12.71 7.09399 11.79 8.04399C11.2 8.64399 10.7 9.26401 10.4 9.81401C10.27 10.054 10.17 10.264 10.17 10.444C10.17 12.374 11.99 13.704 11.99 13.704L10.78 15.304C10.78 15.304 8.16998 13.294 8.16998 10.444C8.16998 9.99402 8.32999 9.44399 8.64999 8.85399C9.01999 8.17399 9.62999 7.40398 10.36 6.65398C11.59 5.38398 13.16 4.17398 14.43 3.53398C15.09 3.20398 15.69 3.02401 16.15 3.00401C17.18 2.95401 18.24 3.374 19.13 4.114C20.38 5.154 21.28 6.824 21.28 8.424C21.28 9.504 20.77 10.574 20.12 11.454C19.24 12.644 18.14 13.474 18.14 13.474ZM6.22998 10.334L7.40997 11.944C7.40997 11.944 6.51 12.614 5.78 13.574C5.37 14.114 4.98999 14.754 4.98999 15.414C4.98999 16.454 5.60998 17.514 6.41998 18.184C6.90998 18.594 7.47 18.864 8.03 18.834C8.39 18.814 8.86998 18.574 9.41998 18.254C10.43 17.664 11.57 16.744 12.49 15.794C13.08 15.184 13.58 14.574 13.88 14.024C14.01 13.784 14.11 13.574 14.11 13.394C14.11 11.474 12.36 10.194 12.36 10.194L13.56 8.59398C13.56 8.59398 16.11 10.534 16.11 13.394C16.11 13.844 15.96 14.394 15.63 14.974C15.26 15.664 14.65 16.434 13.92 17.184C12.69 18.454 11.12 19.664 9.84998 20.294C9.18998 20.634 8.58997 20.814 8.12997 20.834C7.09997 20.884 6.03999 20.464 5.14999 19.724C3.88999 18.684 3 17.014 3 15.414C3 14.324 3.51998 13.244 4.19998 12.364C5.09998 11.164 6.23999 10.334 6.23999 10.334H6.22998Z" />
</svg>
