<svg width="24" height="24" viewBox="0 0 24 24" xmlns="http://www.w3.org/2000/svg">
<path d="M5.4486 8.48114V24H0.304113V8.48114H5.4486ZM5.78693 3.68138C5.78693 5.17063 4.67032 6.3623 2.87633 6.3623H2.8428C1.11637 6.3623 0 5.17063 0 3.68138C0 2.15861 1.15059 0.999998 2.91037 0.999998C4.67033 0.999998 5.7535 2.15861 5.78693 3.68138ZM13.4413 24H8.29688C8.29688 24 8.36452 9.93733 8.29702 8.48114H13.4415V10.6783C14.1251 9.62086 15.3487 8.11698 18.0777 8.11698C21.4624 8.11698 24.0004 10.335 24.0004 15.1017V24H18.8564V15.6978C18.8564 13.6115 18.1117 12.1884 16.2501 12.1884C14.829 12.1884 13.9825 13.1482 13.6106 14.0749C13.4747 14.4064 13.4413 14.8698 13.4413 15.3336V24ZM13.4415 10.6783V10.7318H13.4071C13.4184 10.7141 13.4298 10.6963 13.4415 10.6783Z" />
</svg>
