<svg width="24" height="24" viewBox="0 0 24 24" xmlns="http://www.w3.org/2000/svg">
<path d="M7.72 19.4467L7.57 17.4766C12.72 17.0766 16.59 17.1666 21.86 17.4766L21.75 19.4467C16.58 19.1467 12.78 19.0567 7.73 19.4467H7.72ZM7.68 12.2266L7.62 10.2566C12.87 10.0866 17.25 10.5966 21.97 10.2566L22.11 12.2266C17.36 12.5666 12.96 12.0566 7.68 12.2266ZM7.08 6.18664L6.93 4.21655C12.08 3.81655 16.23 4.03655 21.49 4.34655L21.38 6.31665C16.21 6.01665 12.14 5.79664 7.08 6.18664ZM2.07 19.4565L2 17.4866L4.36 17.3966L4.43 19.3666L2.07 19.4565ZM2.31 12.9665L2.24 10.9966L4.6 10.9066L4.67 12.8766L2.31 12.9665ZM2.31 6.18664L2.24 4.21655L4.6 4.12658L4.67 6.09655L2.31 6.18664Z" />
</svg>
