<svg width="24" height="24" viewBox="0 0 24 24" xmlns="http://www.w3.org/2000/svg">
<path d="M3.8 20.92C3.43 20.92 3.09 20.86 2.78 20.74C2.48 20.62 2.23 20.45 2.05 20.23L2.59 19.4C2.74 19.57 2.92 19.7 3.1 19.78C3.29 19.86 3.51 19.9 3.76 19.9C3.97 19.9 4.13 19.86 4.24 19.77C4.35 19.69 4.4 19.5701 4.4 19.4301C4.4 19.2901 4.35 19.18 4.25 19.11C4.15 19.03 4.01 18.99 3.83 18.99H3V18.1899H3.75C3.9 18.1899 4.03 18.1499 4.12 18.0599C4.21 17.9799 4.26 17.86 4.26 17.73C4.26 17.58 4.21 17.46 4.11 17.37C4.01 17.28 3.88 17.23 3.72 17.23C3.56 17.23 3.41 17.28 3.31 17.38C3.2 17.48 3.15 17.62 3.14 17.78L2.04 17.67C2.06 17.38 2.14 17.12 2.3 16.9C2.45 16.68 2.66 16.51 2.92 16.39C3.18 16.27 3.47 16.21 3.81 16.21C4.12 16.21 4.4 16.26 4.64 16.36C4.88 16.46 5.07 16.61 5.21 16.79C5.34 16.97 5.41 17.18 5.41 17.42C5.41 17.7 5.32 17.93 5.14 18.12C4.96 18.31 4.72 18.43 4.42 18.48V18.51C4.77 18.51 5.04 18.61 5.25 18.8C5.45 18.99 5.56 19.2399 5.56 19.5599C5.56 19.8099 5.49 20.04 5.34 20.25C5.19 20.45 4.99 20.61 4.72 20.73C4.46 20.84 4.16 20.9 3.82 20.9L3.8 20.92ZM2.15 13.62C2.59 13.46 2.97 13.27 3.29 13.05C3.61 12.83 3.85 12.59 4.02 12.33C4.18 12.07 4.27 11.8199 4.27 11.5599C4.27 11.3699 4.23 11.22 4.14 11.1C4.06 10.99 3.94 10.9399 3.79 10.9399C3.64 10.9399 3.51 11.01 3.41 11.15C3.31 11.29 3.26 11.47 3.25 11.7L2.15 11.59C2.17 11.26 2.25 10.97 2.4 10.71C2.55 10.46 2.75 10.26 3 10.13C3.25 10 3.52 9.92004 3.83 9.92004C4.15 9.92004 4.43 9.97998 4.67 10.1C4.91 10.22 5.09 10.39 5.23 10.62C5.36 10.85 5.43 11.11 5.43 11.41C5.43 11.93 5.28 12.37 4.97 12.75C4.66 13.13 4.21 13.42 3.61 13.62L5.46 13.61V14.51H2.17V13.61L2.15 13.62ZM2.11 7.59998H3.42V4.94995C3.31 5.20995 3.16 5.41995 2.97 5.56995C2.78 5.72995 2.54 5.84995 2.24 5.94995L2 4.91003C2.27 4.86003 2.51 4.75999 2.7 4.60999C2.89 4.45999 3.05 4.26 3.16 4H4.52V7.58997H5.58V8.48999H2.11V7.58997V7.59998ZM7.98 19.83L7.83 17.84C12.92 17.45 16.74 17.54 21.95 17.84L21.83 19.84C16.73 19.54 12.97 19.45 7.99 19.84L7.98 19.83ZM7.82 14.03L7.76 12.03C12.95 11.86 17.27 12.36 21.94 12.03L22.08 14.02C17.39 14.35 13.04 13.85 7.83 14.02L7.82 14.03ZM7.35 7.45996L7.2 5.46997C12.28 5.07997 16.39 5.29998 21.59 5.59998L21.47 7.59998C16.37 7.29998 12.34 7.08997 7.35 7.46997V7.45996Z" />
</svg>
