<svg xmlns="http://www.w3.org/2000/svg" width="24" height="24" viewBox="0 0 24 24">
    <path
        d="M11.472 1.25c-4.043 0-7.222 3.167-7.222 7.198 0 1.161.205 2.119.651 3.091.403.879.825 1.52 2.138 3.352l.383.53c1.372 2.011 2.438 4.357 3.183 7.022.141.505.665.8 1.17.659.327-.092.58-.35.665-.679.681-2.649 1.728-4.984 3.14-7.011.129-.186.26-.372.391-.558.317-.451.442-.631.613-.883 1.442-2.127 2.166-3.751 2.166-5.523 0-3.971-3.268-7.198-7.278-7.198zm.043 9.225c-.947 0-1.779-.882-1.779-1.93 0-1.003.803-1.817 1.78-1.817 1.074 0 1.855.77 1.855 1.816 0 1.069-.838 1.93-1.856 1.93z" />
</svg>