<svg width="24" height="24" viewBox="0 0 24 24" xmlns="http://www.w3.org/2000/svg">
<path d="M7.13135 9.1875C7.13135 6.27571 9.58492 4 12.3188 4C15.0547 4 17.1688 5.94014 17.1688 8.85008C17.1688 11.7595 16.1737 14.887 13.7273 17.8653L15.2727 19.1347C18.0013 15.813 19.1688 12.2407 19.1688 8.85008C19.1688 4.78502 16.108 2 12.3188 2C8.52778 2 5.13135 5.12429 5.13135 9.1875C5.13135 12.2622 6.50087 15.3998 7.79102 17.6934C8.44491 18.8559 9.09783 19.8351 9.58765 20.5245C9.8329 20.8697 10.0381 21.1434 10.1833 21.3324C10.256 21.4269 10.3136 21.5003 10.3539 21.551C10.374 21.5764 10.3898 21.596 10.4009 21.6098L10.414 21.626L10.4179 21.6308L10.4196 21.6328C10.4197 21.633 10.4199 21.6332 11.1938 21C11.9678 20.3668 11.9679 20.3669 11.968 20.367L11.9664 20.365L11.9578 20.3544L11.9201 20.3073C11.8862 20.2645 11.8351 20.1995 11.7693 20.1139C11.6377 19.9426 11.4474 19.6889 11.218 19.3661C10.7586 18.7196 10.1459 17.8004 9.53417 16.7129C8.29308 14.5065 7.13135 11.7378 7.13135 9.1875ZM15.1801 8.40869C14.8109 7.30111 13.5266 6.23856 11.8066 6.75456L11.8066 6.75454L11.7998 6.75661C10.8028 7.06338 9.99628 7.7742 9.50677 8.5901C9.02555 9.39217 8.77358 10.4358 9.12451 11.4161C9.36733 12.1352 9.83948 12.7281 10.5202 13.0567C11.198 13.3839 11.9695 13.395 12.7188 13.1702L12.7417 13.1633L12.7643 13.1554C13.9828 12.7253 14.7429 11.9308 15.1065 11.0018C15.4558 10.1091 15.4096 9.17187 15.1893 8.43757L15.1849 8.42306L15.1801 8.40869ZM11.2218 9.61905C11.4909 9.17043 11.9204 8.81315 12.3846 8.66922C12.6876 8.57915 12.8794 8.63528 13.0005 8.70515C13.1407 8.78605 13.2377 8.91693 13.2787 9.02955C13.3911 9.41675 13.3986 9.87791 13.244 10.273C13.1028 10.6337 12.7995 11.0158 12.1219 11.2611C11.7589 11.3654 11.5247 11.3208 11.3897 11.2556C11.2587 11.1924 11.1136 11.059 11.0177 10.7712L11.0134 10.7583L11.0088 10.7456C10.9166 10.4922 10.9458 10.0791 11.2218 9.61905Z" />
</svg>
