<svg xmlns="http://www.w3.org/2000/svg" width="24" height="24" viewBox="0 0 24 24">
    <path
        d="M11.472 1C7.294 1 4 4.275 4 8.448c0 2.636 1.059 4.111 2.753 6.473l.083.116.376.519c1.65 2.424 2.7 5.49 3.133 6.93.19.635.772.865 1.187.86.415-.004.991-.245 1.17-.883.403-1.437 1.398-4.49 3.083-6.908v-.002c.124-.177.254-.363.39-.554l.037-.052c.573-.818 1.259-1.796 1.799-2.856.552-1.082.989-2.317.989-3.643C19 4.328 15.61 1 11.472 1zM6 8.448C6 5.388 8.391 3 11.472 3 14.529 3 17 5.456 17 8.448c0 .89-.296 1.803-.77 2.735-.476.933-1.094 1.814-1.687 2.66-.139.196-.273.386-.4.569-1.195 1.716-2.06 3.68-2.641 5.267-.6-1.586-1.479-3.551-2.646-5.262l-.008-.011-.387-.535v-.002C6.676 11.385 6 10.398 6 8.448zm3.986.096c0-.875.703-1.566 1.53-1.566.948 0 1.605.67 1.605 1.566 0 .953-.748 1.68-1.606 1.68-.764 0-1.529-.723-1.529-1.68zm1.53-3.566c-1.958 0-3.53 1.613-3.53 3.566 0 1.952 1.553 3.68 3.53 3.68 2.015 0 3.605-1.677 3.605-3.68 0-2.028-1.58-3.566-3.606-3.566z" />
</svg>