<svg width="24" height="24" viewBox="0 0 24 24" xmlns="http://www.w3.org/2000/svg">
<path d="M8.86647 10.23C10.9465 10.2 13.2265 10.17 15.7765 10.14C15.7565 8.91001 15.6365 7.43005 15.1965 6.18005C14.7665 4.98005 14.0165 4 12.5365 4C11.0565 4 10.1465 4.78001 9.62647 5.89001C9.05647 7.12001 8.88647 8.70004 8.86647 10.23ZM17.7765 10.11C18.0565 10.11 18.3465 10.1 18.6365 10.1C18.9065 10.09 19.1665 10.2 19.3565 10.39C19.5465 10.57 19.6565 10.83 19.6565 11.1L19.6265 17.83H17.6265L17.6565 12.11C13.5065 12.18 10.0565 12.2 7.02647 12.26C6.96647 14.66 6.97647 17.33 7.18647 19.96L18.7165 19.48L18.8065 21.48L6.32647 22.0001C5.79647 22.0201 5.34647 21.63 5.28647 21.1C4.94647 17.73 4.96647 14.24 5.05647 11.25C5.07647 10.72 5.50647 10.29 6.03647 10.28C6.31647 10.28 6.59647 10.28 6.87647 10.26C6.90647 8.43001 7.13647 6.53 7.81647 5.06C8.65647 3.25 10.0965 2 12.5365 2C14.9765 2 16.3665 3.51001 17.0865 5.51001C17.6065 6.96001 17.7465 8.69005 17.7865 10.11H17.7765Z" />
</svg>
