<svg width="24" height="24" viewBox="0 0 24 24" xmlns="http://www.w3.org/2000/svg">
    <path fill-rule="evenodd"
        d="M16.5 21C17.8807 21 19 19.8807 19 18.5V10H5V18.5C5 19.8807 6.11929 21 7.5 21H16.5ZM13 14H12H11V17H12H13V14Z" />
    <path
        d="M8 10V11H9H9.01372H9.02741H9.04108H9.05473H9.06835H9.08196H9.09553H9.10909H9.12262H9.13613H9.14962H9.16308H9.17652H9.18994H9.20334H9.21672H9.23007H9.2434H9.25671H9.27H9.28326H9.29651H9.30973H9.32293H9.33611H9.34927H9.36241H9.37552H9.38862H9.40169H9.41475H9.42778H9.44079H9.45378H9.46675H9.4797H9.49264H9.50555H9.51844H9.53131H9.54416H9.55699H9.5698H9.58259H9.59536H9.60812H9.62085H9.63356H9.64626H9.65893H9.67159H9.68423H9.69685H9.70945H9.72203H9.73459H9.74714H9.75967H9.77217H9.78466H9.79714H9.80959H9.82203H9.83445H9.84685H9.85923H9.8716H9.88395H9.89628H9.90859H9.92089H9.93317H9.94543H9.95768H9.96991H9.98212H9.99432H10.0065H10.0187H10.0308H10.0429H10.0551H10.0671H10.0792H10.0913H10.1034H10.1154H10.1274H10.1394H10.1514H10.1634H10.1753H10.1873H10.1992H10.2111H10.223H10.2349H10.2468H10.2586H10.2705H10.2823H10.2941H10.3059H10.3177H10.3295H10.3412H10.353H10.3647H10.3764H10.3881H10.3998H10.4115H10.4231H10.4348H10.4464H10.458H10.4696H10.4812H10.4928H10.5044H10.5159H10.5275H10.539H10.5505H10.5621H10.5736H10.585H10.5965H10.608H10.6194H10.6309H10.6423H10.6537H10.6651H10.6765H10.6879H10.6993H10.7106H10.722H10.7333H10.7446H10.7559H10.7672H10.7785H10.7898H10.8011H10.8124H10.8236H10.8349H10.8461H10.8573H10.8685H10.8798H10.891H10.9021H10.9133H10.9245H10.9356H10.9468H10.9579H10.9691H10.9802H10.9913H11.0024H11.0135H11.0246H11.0357H11.0468H11.0578H11.0689H11.0799H11.091H11.102H11.113H11.1241H11.1351H11.1461H11.1571H11.1681H11.179H11.19H11.201H11.212H11.2229H11.2339H11.2448H11.2557H11.2667H11.2776H11.2885H11.2994H11.3103H11.3212H11.3321H11.343H11.3539H11.3648H11.3756H11.3865H11.3974H11.4082H11.4191H11.4299H11.4407H11.4516H11.4624H11.4732H11.4841H11.4949H11.5057H11.5165H11.5273H11.5381H11.5489H11.5597H11.5705H11.5813H11.592H11.6028H11.6136H11.6244H11.6351H11.6459H11.6567H11.6674H11.6782H11.6889H11.6997H11.7104H11.7212H11.7319H11.7427H11.7534H11.7641H11.7749H11.7856H11.7963H11.8071H11.8178H11.8285H11.8392H11.85H11.8607H11.8714H11.8821H11.8929H11.9036H11.9143H11.925H11.9357H11.9464H11.9571H11.9679H11.9786H11.9893H12H12.0107H12.0214H12.0321H12.0429H12.0536H12.0643H12.075H12.0857H12.0964H12.1071H12.1179H12.1286H12.1393H12.15H12.1608H12.1715H12.1822H12.1929H12.2037H12.2144H12.2251H12.2359H12.2466H12.2573H12.2681H12.2788H12.2896H12.3003H12.3111H12.3218H12.3326H12.3433H12.3541H12.3649H12.3756H12.3864H12.3972H12.408H12.4187H12.4295H12.4403H12.4511H12.4619H12.4727H12.4835H12.4943H12.5051H12.5159H12.5268H12.5376H12.5484H12.5593H12.5701H12.5809H12.5918H12.6026H12.6135H12.6244H12.6352H12.6461H12.657H12.6679H12.6788H12.6897H12.7006H12.7115H12.7224H12.7333H12.7443H12.7552H12.7661H12.7771H12.788H12.799H12.81H12.821H12.8319H12.8429H12.8539H12.8649H12.8759H12.887H12.898H12.909H12.9201H12.9311H12.9422H12.9532H12.9643H12.9754H12.9865H12.9976H13.0087H13.0198H13.0309H13.0421H13.0532H13.0644H13.0755H13.0867H13.0979H13.109H13.1202H13.1315H13.1427H13.1539H13.1651H13.1764H13.1876H13.1989H13.2102H13.2215H13.2328H13.2441H13.2554H13.2667H13.278H13.2894H13.3007H13.3121H13.3235H13.3349H13.3463H13.3577H13.3691H13.3806H13.392H13.4035H13.415H13.4264H13.4379H13.4495H13.461H13.4725H13.4841H13.4956H13.5072H13.5188H13.5304H13.542H13.5536H13.5652H13.5769H13.5885H13.6002H13.6119H13.6236H13.6353H13.647H13.6588H13.6705H13.6823H13.6941H13.7059H13.7177H13.7295H13.7414H13.7532H13.7651H13.777H13.7889H13.8008H13.8127H13.8247H13.8366H13.8486H13.8606H13.8726H13.8846H13.8966H13.9087H13.9208H13.9329H13.9449H13.9571H13.9692H13.9813H13.9935H14.0057H14.0179H14.0301H14.0423H14.0546H14.0668H14.0791H14.0914H14.1037H14.1161H14.1284H14.1408H14.1532H14.1656H14.178H14.1904H14.2029H14.2153H14.2278H14.2403H14.2529H14.2654H14.278H14.2906H14.3032H14.3158H14.3284H14.3411H14.3537H14.3664H14.3792H14.3919H14.4046H14.4174H14.4302H14.443H14.4558H14.4687H14.4816H14.4945H14.5074H14.5203H14.5332H14.5462H14.5592H14.5722H14.5853H14.5983H14.6114H14.6245H14.6376H14.6507H14.6639H14.6771H14.6903H14.7035H14.7167H14.73H14.7433H14.7566H14.7699H14.7833H14.7967H14.8101H14.8235H14.8369H14.8504H14.8639H14.8774H14.8909H14.9045H14.918H14.9316H14.9453H14.9589H14.9726H14.9863H15H16V10V8C16 5.79086 14.2091 4 12 4C9.79086 4 8 5.79086 8 8V10Z"
        stroke="#222222" stroke-width="2" />
</svg>