<svg width="24" height="24" viewBox="0 0 24 24" xmlns="http://www.w3.org/2000/svg">
<path d="M15.63 16.6799C15.6 17.5799 15.57 18.4099 15.54 19.0299H19.92C19.92 18.4199 19.94 17.57 19.95 16.62L15.62 16.6799H15.63ZM8.45 14.98C8.43 14.1 8.41 13.27 8.41 12.61C8.41 11 9.10001 8.55994 12.04 8.55994C13.23 8.55994 14.04 8.93995 14.6 9.44995C15.45 10.22 15.73 11.34 15.73 12.2C15.73 12.88 15.71 13.7599 15.69 14.6799L19.98 14.62C20 13.06 20.01 11.4699 20.01 10.3199C20.01 7.54995 17.88 4 12.36 4C6.84 4 4 7.97997 4 10.84V15.22L8.45 14.98ZM4 17.22V20.0299H2V10.84C2 7.23997 5.32 2 12.36 2C19.4 2 22.01 6.74995 22.01 10.3199C22.01 13.4899 21.91 20.0399 21.91 20.0399C21.91 20.5899 21.46 21.0199 20.91 21.0199H14.5C14.23 21.0199 13.97 20.91 13.78 20.72C13.59 20.52 13.49 20.26 13.5 19.99C13.5 19.99 13.73 14.74 13.73 12.2C13.73 11.81 13.64 11.2799 13.26 10.9299C13 10.6899 12.6 10.5599 12.04 10.5599C10.62 10.5599 10.41 11.84 10.41 12.61C10.41 15.03 10.64 19.98 10.64 19.98C10.65 20.25 10.55 20.52 10.37 20.72C10.18 20.92 9.91999 21.0299 9.64999 21.0299H6.64999V19.0299H8.60001C8.58001 18.4799 8.55 17.76 8.52 16.98L4.00999 17.22H4Z" />
</svg>
