<svg width="24" height="24" viewBox="0 0 24 24" xmlns="http://www.w3.org/2000/svg">
    <path fill-rule="evenodd" clip-rule="evenodd"
        d="M7.651 5.638C7.651 4.219 8.761 3 10.211 3h2.537c1.45 0 2.559 1.219 2.559 2.638v.885H13.57v-.885c0-.536-.405-.903-.823-.903H10.21c-.418 0-.824.367-.824.903v.885H7.65v-.885z" />
    <path fill-rule="evenodd" clip-rule="evenodd"
        d="M4.852 7.397a.15.15 0 0 0-.046.035.287.287 0 0 0-.07.197v3.982c0 .09.033.158.07.197a.15.15 0 0 0 .045.035c.012.005.021.007.032.007h13.193c.01 0 .02-.002.031-.007a.15.15 0 0 0 .046-.035.287.287 0 0 0 .07-.197V7.63a.286.286 0 0 0-.07-.197.15.15 0 0 0-.046-.035.072.072 0 0 0-.03-.007H4.882c-.01 0-.02.002-.031.007zm-1.314-1.15c.33-.353.803-.592 1.345-.592h13.193c.542 0 1.015.24 1.345.592.34.364.538.856.538 1.382v3.982a2.02 2.02 0 0 1-.538 1.382c-.33.353-.803.592-1.345.592H4.883c-.542 0-1.016-.239-1.345-.592A2.02 2.02 0 0 1 3 11.611V7.63c0-.526.197-1.018.538-1.382z" />
    <path fill-rule="evenodd" clip-rule="evenodd"
        d="M12.347 9.603v5.549H10.61v-5.55h1.736zM9.972 20.666H5.905c-1.387 0-2.356-1.222-2.356-2.527v-5.421h1.735v5.42c0 .53.364.793.621.793h3.341a1.157 1.157 0 0 0 .288 1.35l.438.385zm4.288-1.735.293.257.237-.257h-.53zm3.413-3.128v-3.085h1.735v1.202l-1.735 1.883z" />
    <path fill-rule="evenodd" clip-rule="evenodd"
        d="m23.04 14.361-7.7 8.355a.859.859 0 0 1-1.21.066l-3.831-3.37 1.141-1.421 3.198 2.812 7.125-7.73 1.277 1.288z" />
</svg>