<svg width="24" height="24" viewBox="0 0 24 24" xmlns="http://www.w3.org/2000/svg">
    <path fill-rule="evenodd" clip-rule="evenodd"
        d="M9.026 7.416c0-1.135.888-2.11 2.047-2.11h2.03c1.16 0 2.047.975 2.047 2.11v.708h-1.388v-.708c0-.428-.325-.722-.659-.722h-2.03c-.334 0-.658.294-.658.722v.708H9.026v-.708z" />
    <path fill-rule="evenodd" clip-rule="evenodd"
        d="M6.787 8.823a.12.12 0 0 0-.037.028.23.23 0 0 0-.056.157v3.186a.23.23 0 0 0 .056.158.12.12 0 0 0 .037.028.058.058 0 0 0 .025.005h10.554a.058.058 0 0 0 .024-.005.12.12 0 0 0 .037-.028.23.23 0 0 0 .056-.158V9.008a.229.229 0 0 0-.056-.157.121.121 0 0 0-.037-.028.057.057 0 0 0-.024-.005H6.812a.057.057 0 0 0-.025.005zm-1.051-.92a1.47 1.47 0 0 1 1.076-.474h10.554c.433 0 .812.192 1.075.474.273.292.43.685.43 1.106v3.185c0 .42-.157.814-.43 1.106a1.471 1.471 0 0 1-1.075.473H6.812a1.47 1.47 0 0 1-1.076-.473 1.616 1.616 0 0 1-.43-1.106V9.008c0-.42.157-.813.43-1.105z" />
    <path fill-rule="evenodd" clip-rule="evenodd"
        d="M12.783 10.587v4.44h-1.388v-4.44h1.388zM10.883 19.437H7.63c-1.11 0-1.885-.977-1.885-2.021V13.08h1.388v4.336c0 .423.292.633.497.633h2.673a.926.926 0 0 0 .23 1.08l.35.308zm3.43-1.388.234.206.19-.206h-.424zm2.73-2.502V13.08h1.388v.961l-1.388 1.506z" />
    <path fill-rule="evenodd" clip-rule="evenodd"
        d="m21.337 14.394-6.16 6.683a.687.687 0 0 1-.968.053l-3.064-2.696.913-1.137 2.557 2.25 5.7-6.184 1.022 1.031z" />
</svg>