<svg width="24" height="24" viewBox="0 0 24 24" xmlns="http://www.w3.org/2000/svg">
<path d="M15.85 6.73999L9.09 6.71997H9.07999L9.59999 4.98999H15.05C15.05 4.98999 15.47 5.89999 15.85 6.73999ZM4 17.8198C4 17.8198 4.00999 12.7 4.00999 9.76001L4.01999 9.77002L4.00999 8.73087L7.36671 8.72271H11L14.2555 8.73087L21.41 8.5498C21.74 8.2898 21.88 7.83994 21.74 7.43994C21.61 7.03994 21.23 6.76001 20.8 6.76001H18.05L16.61 3.58984C16.45 3.22984 16.09 3 15.7 3H8.86C8.42 3 8.02999 3.28996 7.89999 3.70996L7 6.70996H3.01999C2.58999 6.70996 2.20999 6.97988 2.06999 7.37988C2.02999 7.49988 2.01999 7.63 2.01999 7.75L2 18.8198C2 19.0898 2.09999 19.34 2.28999 19.53C2.47999 19.71 2.73 19.8198 3 19.8198H20.81C21.36 19.8198 21.81 19.3798 21.81 18.8298L21.89 12.1699L19.89 12.1499L19.82 17.8198H4ZM9 13.51L10.53 12.22L11.63 13.52L14.39 10.5L15.87 11.85L12.34 15.7001C12.15 15.9201 11.87 16.03 11.58 16.03C11.29 16.02 11.02 15.9001 10.84 15.6801L9 13.51Z" />
</svg>
