<svg width="24" height="24" viewBox="0 0 24 24" xmlns="http://www.w3.org/2000/svg">
<path d="M21.9999 3.5C21.9999 3.22859 21.8896 2.96884 21.6943 2.78039C21.499 2.59193 21.2355 2.49095 20.9642 2.50064L6.96425 3.00064L7.03563 4.99936L19.9999 4.53635V19.526L5.43034 19.9094L5.42015 19.7382C5.37363 18.9474 5.31145 17.7662 5.2492 16.2101C5.12471 13.0978 5 8.48619 5 2.50006H3C3 8.51394 3.12529 13.1523 3.2508 16.29C3.31355 17.8589 3.37637 19.0526 3.4236 19.8556L3.4299 19.962L1.97363 20.0003L2.02625 21.9997L21.0262 21.4997C21.5681 21.4854 21.9999 21.042 21.9999 20.5V3.5ZM18 9.5H14V7.5H18V9.5ZM7.74738 18.6644L9.16042 17.0747L10.2928 18.2071L11.7071 16.7929L10.4914 15.5773L11.7474 14.1644L10.2526 12.8356L9.07479 14.1606L7.70706 12.7929L6.29285 14.2071L7.74376 15.658L6.25256 17.3356L7.74738 18.6644ZM18 16V14H14V16H18ZM8 9.5H6.5V7.5H8V6H10V7.5H11.5V9.5H10V11H8V9.5ZM17 12.5C17 13.0523 16.5523 13.5 16 13.5C15.4477 13.5 15 13.0523 15 12.5C15 11.9477 15.4477 11.5 16 11.5C16.5523 11.5 17 11.9477 17 12.5ZM16 18.5C16.5523 18.5 17 18.0523 17 17.5C17 16.9477 16.5523 16.5 16 16.5C15.4477 16.5 15 16.9477 15 17.5C15 18.0523 15.4477 18.5 16 18.5Z" />
</svg>
