<svg width="24" height="24" viewBox="0 0 24 24" xmlns="http://www.w3.org/2000/svg">
<path d="M7.75891 18.6893L7.78 18.6828L7.75999 18.6928L7.75891 18.6893ZM5.87 19.2726L7.75891 18.6893L6.33 14.0827C6.24 13.8127 6.05 13.5926 5.8 13.4726C5.8 13.4726 5.09999 13.1427 4.53999 12.5727C4.24999 12.2927 3.98 11.9426 3.98 11.5126C3.98 10.4226 4.7 9.60267 5.52 9.55267C5.53 9.55267 8.14 10.0427 8.14 10.0427C8.35 10.0727 8.56 10.0528 8.75 9.96283L16.11 6.53265L16.49 15.7326L11.4 12.6628C11.24 12.5728 11.06 12.5226 10.88 12.5226H7.95999V14.5226H10.6L17.05 18.4128C17.37 18.6028 17.76 18.6028 18.08 18.4128C18.4 18.2228 18.59 17.8826 18.57 17.5126L18.06 4.95282C18.05 4.62282 17.87 4.31276 17.58 4.14276C17.3 3.97276 16.94 3.95271 16.64 4.09271L8.20999 8.02264L5.81 7.56268C5.75 7.54268 5.68999 7.54266 5.62999 7.54266C3.81999 7.54266 2 9.14262 2 11.5026C2 12.4626 2.48999 13.3128 3.12999 13.9628C3.61999 14.4628 4.19 14.8327 4.56 15.0527L5.87 19.2726ZM19.3662 8.03369L21.3643 7.9468L21.6159 13.7314L19.6178 13.8183L19.3662 8.03369Z" />
</svg>
