<svg width="24" height="24" viewBox="0 0 24 24" xmlns="http://www.w3.org/2000/svg">
<path d="M13.7031 7.70674C10.1424 7.81767 5.88743 7.94283 3.1251 7.99921L3.08429 5.99962C5.83454 5.9435 10.0796 5.81866 13.6408 5.70771C15.4206 5.65226 17.0282 5.60033 18.1909 5.56225C18.7723 5.54322 19.2423 5.52765 19.5671 5.51684L20.0705 5.5C20.0706 5.5 20.071 5.49998 20.1047 6.49941C20.1384 7.49885 20.1384 7.49885 20.1383 7.49885L19.6336 7.51573C19.3086 7.52655 18.8381 7.54213 18.2564 7.56118C17.0929 7.59928 15.4842 7.65125 13.7031 7.70674ZM15.1672 17.8744C12.1304 17.8744 7.91651 17.9984 3.20937 18.4939L3 16.5049C7.79286 16.0004 12.0789 15.8744 15.1672 15.8744C16.7119 15.8744 17.9586 15.9059 18.821 15.9376C19.2523 15.9534 19.5876 15.9693 19.8162 15.9813C19.9305 15.9872 20.0181 15.9923 20.0777 15.9958L20.146 16L20.164 16.0012L20.1704 16.0016C20.1706 16.0016 20.1712 16.0016 20.1047 16.9994C20.0382 17.9972 20.0382 17.9972 20.0383 17.9972L20.0344 17.997L20.0198 17.996L19.9585 17.9923C19.9037 17.989 19.8209 17.9842 19.7115 17.9785C19.4929 17.9671 19.168 17.9517 18.7477 17.9362C17.907 17.9054 16.6849 17.8744 15.1672 17.8744ZM3.15724 12.998C4.19496 12.9434 7.49547 12.7587 11.0908 12.5574C14.8927 12.3446 19.0242 12.1133 21.1587 11.998L21.0507 10.0009C18.905 10.1169 14.7718 10.3482 10.9718 10.561C7.38306 10.7618 4.09155 10.9461 3.05212 11.0008L3.15724 12.998Z" />
</svg>
