<svg xmlns="http://www.w3.org/2000/svg" width="24" height="24" viewBox="0 0 24 24">
    <mask id="d0gqz02qra" fill="#fff">
        <path fill-rule="evenodd"
            d="M12 20.5c4.694 0 8.5-3.806 8.5-8.5S16.694 3.5 12 3.5 3.5 7.306 3.5 12s3.806 8.5 8.5 8.5zm-4-7.75h8v-1.5H8v1.5z"
            clip-rule="evenodd" />
    </mask>
    <path fill="#222" fill-rule="evenodd"
        d="M12 20.5c4.694 0 8.5-3.806 8.5-8.5S16.694 3.5 12 3.5 3.5 7.306 3.5 12s3.806 8.5 8.5 8.5zm-4-7.75h8v-1.5H8v1.5z"
        clip-rule="evenodd" />
    <path fill="#222"
        d="M16 12.75v1.5h1.5v-1.5H16zm-8 0H6.5v1.5H8v-1.5zm8-1.5h1.5v-1.5H16v1.5zm-8 0v-1.5H6.5v1.5H8zM19 12c0 3.866-3.134 7-7 7v3c5.523 0 10-4.477 10-10h-3zm-7-7c3.866 0 7 3.134 7 7h3c0-5.523-4.477-10-10-10v3zm-7 7c0-3.866 3.134-7 7-7V2C6.477 2 2 6.477 2 12h3zm7 7c-3.866 0-7-3.134-7-7H2c0 5.523 4.477 10 10 10v-3zm4-7.75H8v3h8v-3zm-1.5 0v1.5h3v-1.5h-3zM8 12.75h8v-3H8v3zm1.5 0v-1.5h-3v1.5h3z"
        mask="url(#d0gqz02qra)" />
</svg>