<svg width="24" height="24" viewBox="0 0 24 24" fill="none" xmlns="http://www.w3.org/2000/svg">
<mask id="path-1-inside-1" fill="white">
<path fill-rule="evenodd" clip-rule="evenodd" d="M12 20.5C16.6944 20.5 20.5 16.6944 20.5 12C20.5 7.30558 16.6944 3.5 12 3.5C7.30558 3.5 3.5 7.30558 3.5 12C3.5 16.6944 7.30558 20.5 12 20.5ZM7.99997 12.75H16V11.25H7.99997V12.75Z"/>
</mask>
<path fill-rule="evenodd" clip-rule="evenodd" d="M12 20.5C16.6944 20.5 20.5 16.6944 20.5 12C20.5 7.30558 16.6944 3.5 12 3.5C7.30558 3.5 3.5 7.30558 3.5 12C3.5 16.6944 7.30558 20.5 12 20.5ZM7.99997 12.75H16V11.25H7.99997V12.75Z" fill="#222222"/>
<path d="M16 12.75V14.25H17.5V12.75H16ZM7.99997 12.75H6.49997V14.25H7.99997V12.75ZM16 11.25H17.5V9.75H16V11.25ZM7.99997 11.25V9.75H6.49997V11.25H7.99997ZM19 12C19 15.866 15.866 19 12 19V22C17.5228 22 22 17.5228 22 12H19ZM12 5C15.866 5 19 8.13401 19 12H22C22 6.47715 17.5228 2 12 2V5ZM5 12C5 8.13401 8.13401 5 12 5V2C6.47715 2 2 6.47715 2 12H5ZM12 19C8.13401 19 5 15.866 5 12H2C2 17.5228 6.47715 22 12 22V19ZM16 11.25H7.99997V14.25H16V11.25ZM14.5 11.25V12.75H17.5V11.25H14.5ZM7.99997 12.75H16V9.75H7.99997V12.75ZM9.49997 12.75V11.25H6.49997V12.75H9.49997Z" fill="#222222" mask="url(#path-1-inside-1)"/>
</svg>
