<svg width="24" height="24" viewBox="0 0 24 24" xmlns="http://www.w3.org/2000/svg">
<path d="M4.01001 6.55005L2.01001 6.60999H2L2.29001 17.2C2.29001 17.47 2.41 17.72 2.61 17.9C2.81 18.09 3.07001 18.1801 3.34 18.17C8.06 17.92 14.03 17.8 20.23 18.02C20.51 18.03 20.77 17.9199 20.97 17.73C21.16 17.53 21.26 17.26 21.26 16.99C21.17 14.38 21.16 11.66 21.2 8.84998C21.21 7.93994 21.23 7.02002 21.26 6.09998C21.27 5.82996 21.17 5.56995 20.98 5.37C20.8 5.18005 20.54 5.07007 20.27 5.07007L6.27 5V7L19.24 7.06006C19.23 7.65002 19.21 8.24011 19.21 8.82007C19.17 11.28 19.18 13.6799 19.24 15.99C13.8 15.83 8.58 15.92 4.27 16.12L4.01001 6.55005ZM6.67993 11.55C6.67993 10.54 7.62993 10.13 8.11993 10.13H8.10992C8.90993 10.12 9.66994 10.6301 9.68994 11.55C9.70993 12.4601 9.01993 12.98 8.22993 12.98C7.43994 12.99 6.67993 12.4701 6.67993 11.55Z" />
</svg>
