<svg width="24" height="24" viewBox="0 0 24 24" xmlns="http://www.w3.org/2000/svg">
<path d="M12.26 8.47078V6.47078H15.32V8.47078H12.26ZM13.41 16.7307C10.93 17.5907 8.52 17.6508 6.49 16.8408C3.71 15.7408 1.56 13.0207 1 8.30073L2.99 8.07075C3.36 11.2608 4.55 13.3707 6.25 14.4807L6.87 2.94075C6.9 2.40075 7.36 1.98069 7.9 2.00069C11.57 2.10069 16.4 2.11069 19.73 2.00069C20.01 1.99069 20.27 2.09072 20.47 2.29072C20.67 2.49072 20.77 2.75071 20.76 3.03071C20.55 9.09071 20.56 16.0908 20.8 20.7008C20.81 20.9708 20.72 21.2307 20.54 21.4307C20.36 21.6307 20.1 21.7407 19.83 21.7507L8.13 21.9907L8.09 19.9907L18.76 19.7707C18.58 15.4307 18.57 9.45072 18.73 4.03071C15.76 4.10071 11.98 4.0907 8.82 4.0207L8.21 15.2807C9.79 15.6107 11.58 15.3507 13.39 14.6007L10.94 13.2707L11.89 11.5207L16.03 13.7607C16.5 14.0207 16.69 14.6008 16.45 15.0908L14.39 19.2607L12.6 18.3807C12.6 18.3807 13.01 17.5607 13.42 16.7307H13.41Z" />
</svg>
