<svg xmlns="http://www.w3.org/2000/svg" width="24" height="24" viewBox="0 0 24 24">
    <path
        d="M4 6c0-.552.448-1 1-1h13.5c.552 0 1 .448 1 1v6.075c-.242-.05-.493-.075-.75-.075-1.445 0-2.698.817-3.325 2.014-1.093.094-2.052.656-2.675 1.486H5c-.552 0-1-.448-1-1V6zm10 11.75c0-.707.419-1.316 1.022-1.592.134 1.24.874 2.3 1.917 2.876-.313.29-.73.466-1.189.466-.966 0-1.75-.784-1.75-1.75zm8.5-2c0 1.962-1.506 3.572-3.425 3.736-.626 1.196-1.88 2.014-3.325 2.014-2.071 0-3.75-1.679-3.75-3.75 0-.084.003-.167.008-.25H5c-1.657 0-3-1.343-3-3V6c0-1.657 1.343-3 3-3h13.5c1.657 0 3 1.343 3 3v7.2c.62.67 1 1.566 1 2.55zm-7.255-7.482h3.011v-2h-3.011v2zM11.75 9c-.414 0-.75.336-.75.75s.336.75.75.75.75-.336.75-.75-.336-.75-.75-.75zM9 9.75C9 8.231 10.231 7 11.75 7s2.75 1.231 2.75 2.75-1.231 2.75-2.75 2.75S9 11.269 9 9.75zm8 6c0-.966.784-1.75 1.75-1.75s1.75.784 1.75 1.75-.784 1.75-1.75 1.75S17 16.716 17 15.75zM5.264 14.268h2.992v-2H5.264v2z" />
</svg>