<svg width="24" height="24" viewBox="0 0 24 24" xmlns="http://www.w3.org/2000/svg">
<path d="M13.16 19.9717L13.2 21.9717C7.33 22.0917 2 18.3116 2 11.9816C2 3.24159 10.41 1.52171 14.22 2.10171C14.62 2.16171 14.95 2.4616 15.04 2.8616C15.13 3.2616 14.97 3.68164 14.63 3.91164C12.66 5.27164 11.2 7.91161 11.2 10.1316C11.2 11.8116 12.38 14.4016 15.12 14.4016C16.71 14.4016 17.65 13.7517 19.58 12.2217C19.88 11.9817 20.3 11.9416 20.65 12.1116C21 12.2916 21.21 12.6516 21.2 13.0316C21.13 15.6616 20.18 18.7217 16.22 20.7117L15.32 18.9217C17.28 17.9417 18.29 16.6216 18.79 15.2716C17.5 16.0916 16.49 16.4016 15.12 16.4016C11.03 16.4016 9.2 12.6216 9.2 10.1316C9.2 8.12161 10.13 5.82166 11.58 4.05166C8.27 4.41166 3.99001 6.40159 3.99001 11.9816C3.99001 17.1016 8.39999 20.0717 13.15 19.9717H13.16Z" />
</svg>
