<svg width="24" height="24" viewBox="0 0 24 24" xmlns="http://www.w3.org/2000/svg">
<path d="M18.7931 9.37603L11.2931 6.13604L5.07307 10.9161L12.4831 13.4859L18.7831 9.37603H18.7931ZM17.5431 12.586L13.1731 15.4361C12.9131 15.6061 12.5931 15.646 12.3031 15.5459L2.67307 12.2161C2.32307 12.0961 2.07307 11.7961 2.01307 11.4261C1.95307 11.0561 2.10307 10.6961 2.39307 10.4761L10.5531 4.20611C10.8431 3.98611 11.2231 3.93599 11.5631 4.08599L21.3131 8.29595C21.6531 8.44595 21.8831 8.76603 21.9131 9.12603C21.9431 9.49603 21.7731 9.84595 21.4631 10.0459L19.4131 11.386L20.0631 16.2459L22.0031 19.076L20.3531 20.2061L19.1831 18.4959L17.4531 21.5159L15.7131 20.5259L18.0031 16.5259L13.5631 19.376C13.3031 19.536 12.9931 19.5761 12.7031 19.4761L4.24306 16.606L4.88306 14.7161L12.8931 17.4261L17.7831 14.2959L17.5531 12.606L17.5431 12.586Z" />
</svg>
