<svg width="24" height="24" viewBox="0 0 24 24" xmlns="http://www.w3.org/2000/svg">
<path d="M10.95 4.12C10.03 4.29 9.21 4.66002 8.56 5.27002C7.68 6.11002 7.16 7.37999 7.09 9.10999H10.94V4.12H10.95ZM16.79 9.10999C16.69 7.45999 16.19 6.3 15.51 5.5C14.76 4.63 13.78 4.22007 12.95 4.07007V9.10999H16.79ZM7.06 11.11L7 15.5L5 15.4701L5.07999 9.48999C5.07999 6.87999 5.90999 5.04007 7.17999 3.82007C8.46999 2.60007 10.24 2 12.22 2C13.58 2 15.57 2.53006 17.02 4.19006C17.95 5.26006 18.67 6.81004 18.79 9.04004C18.9 10.91 18.93 13.4301 18.86 15.5601C18.8 17.3201 18.39 19.25 16.83 20.54C15.81 21.38 14.28 21.98 11.95 21.99C6.99001 22.02 5.29999 17.8401 5.29999 17.8401L7.14999 17.0801C7.14999 17.0801 8.39 20.01 11.94 19.99C13.66 19.99 14.81 19.62 15.56 19C16.65 18.1 16.83 16.72 16.87 15.49C16.92 14.1 16.92 12.54 16.88 11.11H7.07001H7.06Z" />
</svg>
