<svg width="24" height="24" viewBox="0 0 24 24" xmlns="http://www.w3.org/2000/svg">
<path d="M12.61 14.92C12.04 14.93 11.56 15.4601 11.55 15.9801C11.55 16.4701 12.01 16.5901 12.43 16.5901C12.87 16.5801 13.17 16.5101 13.35 16.3301C13.48 16.2001 13.52 16.0201 13.52 15.8401C13.52 15.4401 13.13 14.92 12.6 14.92H12.61ZM12.59 12.92C14.26 12.91 15.53 14.5601 15.52 15.8601C15.52 16.5401 15.29 17.2201 14.77 17.7401C14.3 18.2101 13.57 18.5801 12.45 18.5901C10.91 18.6001 9.53999 17.7701 9.54999 15.9701C9.54999 14.4601 10.96 12.94 12.59 12.92ZM10.67 9.40002H14.18C14.23 8.74002 14.24 8.12006 14.21 7.56006C13.06 7.58006 11.94 7.58007 10.71 7.57007L10.67 9.40002ZM8.63998 10.37L8.73001 6.53003C8.74001 5.98003 9.18999 5.55006 9.73999 5.56006C11.68 5.58006 13.33 5.58005 15.09 5.55005C15.58 5.55005 16.01 5.90001 16.09 6.39001C16.27 7.46001 16.26 8.93003 16.09 10.53C16.03 11.04 15.6 11.42 15.09 11.42L9.63998 11.39C9.36998 11.39 9.11999 11.2801 8.92999 11.0901C8.73999 10.9001 8.63999 10.64 8.64999 10.37H8.63998ZM6.66 21.9801L6.60999 19.9901L17.77 19.7001C17.94 15.1601 17.87 9.75 17.61 4C13.79 4.01 10.31 4.02 7.04999 4L7 18.0601H5L5.04999 3C5.04999 2.73 5.16001 2.48004 5.35001 2.29004C5.54001 2.10004 5.79 2 6.06 2C9.87 2.02 13.97 2.01 18.56 2C19.09 2 19.53 2.42007 19.56 2.95007C19.88 9.53007 19.95 15.6901 19.72 20.7301C19.7 21.2501 19.27 21.6701 18.75 21.6801L6.64999 21.9801H6.66Z" />
</svg>
