<svg width="24" height="24" viewBox="0 0 24 24" xmlns="http://www.w3.org/2000/svg">
<path d="M7.48999 12.4001H13.06V10.4001H7.48999V12.4001ZM7.48999 15.8401H13.06V13.8401H7.48999V15.8401ZM6 8.48999V20L14.48 19.98L14.43 8.58008L6 8.48999ZM9.44998 6.53003L15.44 6.59009C15.99 6.59009 16.43 7.04008 16.43 7.58008L16.47 16.7002H18.68V4H9.44V6.52002L9.44998 6.53003ZM16.48 18.71V20.98C16.49 21.25 16.39 21.5002 16.2 21.6902C16.01 21.8802 15.76 21.99 15.49 21.99L5 22.01C4.73 22.01 4.47998 21.91 4.28998 21.72C4.09998 21.53 4 21.28 4 21.01V7.48999C4 7.21999 4.10999 6.97003 4.29999 6.78003C4.48999 6.59003 4.74998 6.48999 5.00998 6.48999L7.44 6.51001V3C7.44 2.74 7.53998 2.48004 7.72998 2.29004C7.91998 2.10004 8.17 2 8.44 2H19.68C20.23 2 20.68 2.46001 20.68 3.01001V17.71C20.68 18.26 20.23 18.71 19.68 18.71H16.48Z" />
</svg>
