<svg width="24" height="24" viewBox="0 0 24 24" xmlns="http://www.w3.org/2000/svg">
<path fill-rule="evenodd" d="M4.02835 5.89163L21.1104 3.99363L20.8896 2.00586L3.34852 3.95486C2.57103 4.04125 1.99047 4.71065 2.0149 5.49254L2.48534 20.5466C2.51065 21.3564 3.17443 21.9997 3.98461 21.9997H14.3739C14.6222 21.9997 14.8665 21.9381 15.0851 21.8204L21.2111 18.5218C21.697 18.2602 22 17.7529 22 17.2011V6.49974H20V14.8015L15.8757 14.0517C15.2236 13.9331 14.5989 14.3656 14.4803 15.0176L13.5745 19.9997H4.46923L4.02835 5.89163ZM16.305 16.1625L15.7548 19.1883L20 16.9024V16.8343L16.305 16.1625ZM3.4581 4.94104L3.45643 4.92599L3.4581 4.94104ZM17.7656 8.996L6.08669 10.0121L5.91333 8.01967L17.5922 7.00353L17.7656 8.996ZM12.0712 13.4972L6.07118 13.9252L5.92888 11.9303L11.9289 11.5023L12.0712 13.4972Z" />
</svg>
