<svg width="24" height="24" viewBox="0 0 24 24" xmlns="http://www.w3.org/2000/svg">
<path d="M11 2V10H13V2H11ZM21.6897 2.45873C21.8878 2.64747 22 2.90919 22 3.18286V21C22 21.5523 21.5523 22 21 22H3C2.44772 22 2 21.5523 2 21V4.49998C2 3.97745 2.40231 3.543 2.9233 3.50293L9.4233 3.00293L9.5767 4.99704L4 5.42601V20H20V4.23284L14.5487 4.49879L14.4513 2.50117L20.9513 2.18405C21.2246 2.17071 21.4915 2.26999 21.6897 2.45873ZM15.7893 9.52481C15.0813 8.66157 14.2335 8.1319 13.6838 7.94867L14.3162 6.0513C15.2665 6.36806 16.4187 7.13844 17.3357 8.25649C18.2669 9.39189 19 10.9408 19 12.8251C19 14.4407 18.367 16.0067 17.1079 17.1619C15.8485 18.3173 14.0333 19 11.7662 19C8.70035 19 5 16.5789 5 12.375C5 9.54407 6.81639 7.1169 9.80388 6.5194L10.1961 8.48056C8.18361 8.88306 7 10.4559 7 12.375C7 15.2211 9.53344 17 11.7662 17C13.629 17 14.9307 16.4452 15.7558 15.6882C16.5811 14.9309 17 13.9094 17 12.8251C17 11.4843 16.4831 10.3707 15.7893 9.52481Z" />
</svg>
