<svg width="24" height="24" viewBox="0 0 24 24" xmlns="http://www.w3.org/2000/svg">
<path d="M7.5088 13.3812C7.46301 14.8553 7.60125 16.0931 7.80768 16.8156L5.88464 17.3651C5.60114 16.3729 5.46035 14.9101 5.50977 13.3191C5.5596 11.7151 5.80495 9.90613 6.34202 8.21436C6.8765 6.53078 7.72257 4.8928 9.02205 3.71447C10.3516 2.50891 12.1008 1.83737 14.2848 2.03386C16.2648 2.21198 17.3529 3.90004 17.8992 5.67508C18.4616 7.50272 18.5964 9.81982 18.4386 12.0695C18.2802 14.3264 17.8204 16.6115 17.1247 18.3934C16.7779 19.2818 16.3549 20.0907 15.8468 20.712C15.3459 21.3245 14.676 21.8567 13.828 21.9616C12.6014 22.1133 11.5641 21.811 10.7755 21.0966C10.0248 20.4164 9.60389 19.4565 9.36543 18.4788C8.89081 16.533 9.03613 14.0757 9.28359 12.1166C9.54517 10.0457 10.3974 8.6362 11.7503 8.30149C13.0796 7.97261 14.2729 8.8551 14.6529 9.98331C14.9133 10.7564 14.9413 11.9369 14.9131 12.9485C14.8834 14.0132 14.7823 15.0887 14.6974 15.7611L12.7131 15.5105C12.7915 14.8901 12.8864 13.8807 12.9139 12.8928C12.9429 11.852 12.8891 11.0123 12.7576 10.6217C12.6477 10.2954 12.3711 10.2082 12.2306 10.243C12.1137 10.2719 11.4962 10.5593 11.2678 12.3672C11.0253 14.2869 10.9257 16.4356 11.3085 18.0049C11.4987 18.7848 11.7821 19.3097 12.1184 19.6144C12.4169 19.8848 12.8494 20.0674 13.5825 19.9767C13.7144 19.9604 13.9631 19.8562 14.2986 19.4459C14.6268 19.0446 14.9578 18.4444 15.2617 17.6661C15.8674 16.1146 16.2956 14.0362 16.4435 11.9295C16.5918 9.81553 16.451 7.76901 15.9877 6.26334C15.5081 4.70506 14.8203 4.09011 14.1056 4.02581C12.4788 3.87946 11.2816 4.3654 10.3655 5.19606C9.41942 6.05395 8.72084 7.33094 8.24827 8.81952C7.7783 10.2999 7.55419 11.9203 7.5088 13.3812Z" />
</svg>
