<svg width="24" height="24" viewBox="0 0 24 24" xmlns="http://www.w3.org/2000/svg">
<path d="M8.87 16.27H15.89V14.27H8.87V16.27ZM9.60001 12.8101L9.42001 10.8201L15.5 10.27L15.68 12.26L9.60001 12.8101ZM17.56 2V4H16.02C15.87 4.92 15.5 5.65019 15.01 6.19019C14.31 6.96019 13.33 7.38013 12.24 7.38013C10.43 7.38013 8.86001 5.97001 8.45001 4.01001H7V20.02H12.68V22.02H6C5.45 22.02 5 21.57 5 21.02V3.01001C5 2.46001 5.45 2.01001 6 2.01001H9.35001C9.90001 2.01001 10.35 2.46001 10.35 3.01001C10.35 4.29001 11.15 5.38013 12.24 5.38013C13.33 5.38013 14.1 4.51001 14.1 3.01001C14.1 2.46001 14.55 2.01001 15.1 2.01001H17.56V2ZM15.58 22V20H17.71L17.9 5.58008L19.9 5.61011L19.69 21.02C19.69 21.57 19.24 22.01 18.69 22.01H15.57L15.58 22Z" />
</svg>
