<svg width="24" height="24" viewBox="0 0 24 24" xmlns="http://www.w3.org/2000/svg">
<path d="M15.8887 6.25088L7.06869 15.2709L5.63869 19.241L9.14869 18.0509L18.3987 8.491L15.8887 6.25088ZM17.9787 5.43094L19.2787 6.59097C19.4287 6.36097 19.5887 6.09094 19.6887 5.81094C19.8087 5.49094 19.8787 5.13097 19.5887 4.84097C19.3487 4.60097 19.0487 4.71097 18.7887 4.84097C18.4887 4.99097 18.2087 5.22094 17.9687 5.43094H17.9787ZM20.7387 7.98099C20.8087 8.11099 20.8387 8.25091 20.8487 8.40091C20.8587 8.67091 20.7587 8.94089 20.5687 9.13089L10.4287 19.611C10.3187 19.721 10.1787 19.811 10.0287 19.861L4.31869 21.7909C3.95869 21.9109 3.55869 21.8209 3.28869 21.5409C3.01869 21.2609 2.92869 20.8609 3.05869 20.5009L5.25869 14.3809C5.30869 14.2409 5.38869 14.1209 5.48869 14.0209L14.3487 4.96097L13.5187 4.31094L7.80869 9.65091L6.44869 8.19095L12.7887 2.2709C13.1487 1.9309 13.6987 1.91097 14.0887 2.21097L16.4787 4.08096C16.4787 4.08096 16.4987 4.10098 16.5087 4.10098C16.8787 3.74098 17.3687 3.33094 17.9087 3.06094C18.9387 2.53094 20.0687 2.46093 21.0387 3.42093C21.9587 4.34093 21.9787 5.461 21.5987 6.491C21.3887 7.051 21.0587 7.57098 20.7687 7.97098L20.7387 7.98099Z" />
</svg>
