<svg width="24" height="24" viewBox="0 0 24 24" xmlns="http://www.w3.org/2000/svg">
<path d="M9.11817 16.5302C11.0082 14.6802 16.2682 9.50024 16.2682 9.50024L14.1182 7.56018L7.23816 14.2502L9.12816 16.5201L9.11817 16.5302ZM6.12816 16.1102L4.97817 18.8102L7.41816 17.6702L6.12816 16.1202V16.1102ZM18.4382 10.2102L9.74816 18.7502C9.66816 18.8302 9.56816 18.9002 9.46816 18.9502L3.43817 21.7801C3.05817 21.9601 2.60816 21.8802 2.30816 21.5902C2.00816 21.3002 1.91816 20.8502 2.07816 20.4602L4.91816 13.7902C4.96816 13.6702 5.04816 13.5502 5.14816 13.4602L13.3882 5.45019C13.7682 5.08019 14.3782 5.07016 14.7782 5.42016L17.7282 8.07019C18.0082 7.77019 18.3482 7.38019 18.6582 6.95019C19.0482 6.41019 19.4082 5.81024 19.4082 5.25024C19.4082 4.98024 19.2282 4.7002 18.9982 4.4602C18.7582 4.2102 18.4382 4.02014 18.0882 4.02014C17.6882 4.02014 17.2982 4.20015 16.9782 4.40015C16.3882 4.76015 15.9782 5.2102 15.9782 5.2102L14.4782 3.85022C14.4782 3.85022 15.0682 3.20017 15.9182 2.68017C16.5482 2.29017 17.3182 1.99024 18.0982 2.00024C18.9782 2.00024 19.8282 2.43017 20.4382 3.05017C21.0682 3.69017 21.4282 4.52013 21.4282 5.26013C21.4282 6.20013 20.9382 7.24014 20.2982 8.14014C19.5382 9.21014 18.5982 10.0702 18.4382 10.2102Z" />
</svg>
