<svg width="24" height="24" viewBox="0 0 24 24" xmlns="http://www.w3.org/2000/svg">
<path d="M14.7172 4.25352C15.5229 4.84582 15.5227 4.84609 15.5225 4.84636L15.5214 4.84782L15.5197 4.8502C15.5218 4.8474 15.5271 4.84059 15.5355 4.83035C15.5522 4.80978 15.5806 4.77592 15.6198 4.73319C15.6991 4.6466 15.8167 4.52986 15.9643 4.41438C16.2721 4.17357 16.6294 4 17.0004 4C17.7206 4 18.1429 4.48029 18.1429 4.93443C18.1429 5.51753 17.7674 6.31546 17.2441 7.08662C17.1268 7.25959 17.009 7.42119 16.8977 7.5669L14.1351 5.09676C13.7419 4.74515 13.1431 4.75947 12.7671 5.12949L5.61806 12.1651C5.51521 12.2664 5.43548 12.3886 5.38435 12.5236L3.06502 18.6457C2.91993 19.0286 3.02302 19.4614 3.3252 19.7378C3.53666 19.9312 3.8157 20.0208 4.09049 19.9959L4.0905 19.996L11.4178 19.3299L10.9187 19.6864C10.5944 19.918 10.4386 20.3202 10.5222 20.7099C10.6059 21.0997 10.913 21.4025 11.3038 21.4807C12.2567 21.6712 15.5289 22.003 20.1104 21.494L19.8895 19.5062C17.6125 19.7592 15.6959 19.7929 14.2753 19.7466L15.5812 18.8138C15.9486 18.5514 16.0946 18.0753 15.9374 17.6521C15.7803 17.2288 15.3591 16.9633 14.9094 17.0042L9.37494 17.5073L10.0462 17.1822C10.1445 17.1345 10.2343 17.0711 10.3121 16.9945L17.7021 9.71222C17.7099 9.70454 17.7175 9.69674 17.725 9.68884C17.7252 9.68896 17.7252 9.68895 17.7252 9.68894L17.7283 9.68566L17.7351 9.67842L17.7577 9.65425C17.7765 9.63393 17.8029 9.60526 17.8356 9.5689C17.901 9.49624 17.9924 9.39249 18.1011 9.26299C18.3176 9.00509 18.6074 8.63951 18.8991 8.20955C19.4472 7.40183 20.1429 6.16698 20.1429 4.93443C20.1429 3.11902 18.5497 2 17.0004 2C16.0096 2 15.2253 2.45319 14.732 2.83914C14.479 3.03704 14.2811 3.23368 14.1451 3.38214C14.0766 3.45692 14.0224 3.52099 13.9834 3.56897C13.9639 3.59301 13.948 3.61313 13.936 3.62869L13.9209 3.64858L13.9154 3.65584L13.9133 3.65877L13.9119 3.66066C13.9117 3.66094 13.9115 3.66123 14.7172 4.25352ZM9.62749 14.8612L7.72731 12.8954L13.5014 7.21299L15.5395 9.03536L9.62749 14.8612ZM6.69614 14.7063L7.93145 15.9843L5.82548 17.0045L6.69614 14.7063Z" />
</svg>
