<svg width="24" height="24" viewBox="0 0 24 24" xmlns="http://www.w3.org/2000/svg">
<path d="M14.52 6.38485C13.64 6.38485 12.83 6.80486 12.32 7.39486C12.03 7.73486 11.84 8.12487 11.84 8.52487C11.84 9.71487 13.08 10.0349 14.27 10.0349C16.24 10.0349 17.01 9.2949 17.01 8.3749C17.01 8.0549 16.83 7.70486 16.58 7.39486C16.12 6.83486 15.38 6.38485 14.52 6.38485ZM14.52 4.38485C16.03 4.38485 17.33 5.1549 18.13 6.1249C18.71 6.8349 19.01 7.6549 19.01 8.3749C19.01 9.3149 18.67 10.2549 17.85 10.9549C17.13 11.5749 16 12.0349 14.27 12.0349C11.92 12.0349 9.84 10.8649 9.84 8.52487C9.84 6.50487 11.96 4.38485 14.52 4.38485ZM8.43999 20.5149L6.45 20.3549C6.45 20.3549 7.04 12.8649 14.68 12.8649C18.07 12.8649 19.91 14.8649 20.9 16.8749C21.84 18.7849 21.97 20.7049 21.97 20.7049C21.99 20.9749 21.89 21.2449 21.7 21.4549C21.51 21.6549 21.25 21.7649 20.97 21.7649H10.02V19.7649H19.8C19.67 19.2049 19.46 18.4848 19.11 17.7548C18.41 16.3248 17.11 14.8649 14.69 14.8649C8.90999 14.8649 8.45 20.5149 8.45 20.5149H8.43999ZM4 20.5949L2 20.5549C2 20.5549 2.11999 14.8349 6.93999 12.1049L7.93 13.8449C4.09 16.0249 4 20.5949 4 20.5949ZM8.11 9.50485L6.93 11.1149C5.78 10.2749 5.07 8.6649 5.23 7.1249C5.44 5.0349 7.24 2.73487 10.14 3.02487L9.93999 5.01486C8.31999 4.85486 7.34 6.15486 7.22 7.32486C7.14 8.15486 7.49 9.04485 8.12 9.50485H8.11Z" />
</svg>
