<svg width="24" height="24" viewBox="0 0 24 24" xmlns="http://www.w3.org/2000/svg">
<path fill-rule="evenodd" d="M16 5C13.5127 5 11.5146 6.60777 11.5146 8.99143C11.5146 10.1204 11.8232 11.0991 12.3672 11.8456C12.4286 11.7694 12.494 11.6921 12.5635 11.6141C13.2306 10.8652 14.3093 10.0263 15.8709 9.82718C17.4368 9.62752 18.5802 10.1609 19.3201 10.7657C19.4564 10.8771 19.5783 10.9902 19.6864 11.1005C19.893 10.531 19.9997 9.88116 19.9997 9.18377C19.9997 6.85924 18.4425 5 16 5ZM16 13.5C15.1937 13.5 14.5048 13.3522 13.9275 13.0968C13.9682 13.0466 14.0113 12.9956 14.0569 12.9444C14.5128 12.4326 15.1827 11.9311 16.1238 11.8111C17.0606 11.6917 17.6685 11.9988 18.0543 12.3142C18.2525 12.4762 18.3973 12.6462 18.4915 12.7747C17.902 13.2154 17.0954 13.5 16 13.5ZM9.5268 8.59247C9.74383 5.06288 12.8333 3 16 3C19.7138 3 21.9997 5.92918 21.9997 9.18377C21.9997 10.7437 21.5816 12.3202 20.5823 13.526C19.5595 14.7602 18.0143 15.5 16 15.5C15.4688 15.5 14.9623 15.4504 14.4833 15.3545C14.4538 16.8538 14.0304 18.2686 13.0316 19.325C11.985 20.432 10.4443 21 8.5 21C6.57147 21 4.92823 20.4664 3.75838 19.384C2.57913 18.293 2 16.7542 2 14.9914C2 11.3365 5.08679 8.5 8.5 8.5C8.85388 8.5 9.19659 8.53178 9.5268 8.59247ZM9.70644 10.7051C9.33982 10.5735 8.93781 10.5 8.5 10.5C6.14171 10.5 4 12.4901 4 14.9914C4 16.0983 4.29801 16.9574 4.80704 17.5855C4.9085 17.4768 5.02201 17.3647 5.14814 17.2526C5.85443 16.6248 6.95721 16 8.5 16C10.0428 16 11.1456 16.6248 11.8519 17.2526C11.9008 17.2961 11.9479 17.3396 11.9931 17.383C12.3119 16.8127 12.485 16.0784 12.485 15.1838C12.485 14.9831 12.4732 14.781 12.4499 14.5792C11.9916 14.3036 11.5789 13.9704 11.2166 13.5853C10.4627 12.7842 9.95942 11.7936 9.70644 10.7051ZM10.4515 18.6856C10.0318 18.3348 9.40422 18 8.5 18C7.57194 18 6.93527 18.3527 6.51575 18.7134C7.07035 18.8962 7.72929 19 8.5 19C9.30011 19 9.94051 18.8822 10.4515 18.6856ZM6.98619 13.6141C6.98616 13.6141 6.98638 13.6133 6.98695 13.6118L6.98619 13.6141ZM7.00014 13.6119C7.00009 13.612 6.99976 13.6112 6.99928 13.6095C6.99993 13.6111 7.00018 13.6119 7.00014 13.6119ZM6.99599 13.5924L6.99702 13.5993L7.00466 13.6043C7.03254 13.6217 7.0899 13.6487 7.18721 13.6706C7.28326 13.6922 7.40055 13.7048 7.53281 13.7048C7.98621 13.7048 8.14009 13.6062 8.16504 13.5876C8.16577 13.5839 8.16659 13.5787 8.16718 13.5717C8.16484 13.5654 8.16099 13.556 8.15486 13.5438C8.13283 13.4997 8.09249 13.4413 8.03189 13.3833C7.90675 13.2636 7.75994 13.2037 7.62886 13.2037C7.48756 13.2037 7.30517 13.2724 7.14726 13.4114C7.07245 13.4772 7.02473 13.5407 7.00037 13.5843L6.99599 13.5924ZM7.62886 11.2037C6.90444 11.2037 6.26923 11.5199 5.82596 11.91C5.41169 12.2745 4.99365 12.862 4.99365 13.5504C4.99365 14.3413 5.37503 14.9442 5.94465 15.3003C6.45344 15.6183 7.0491 15.7048 7.53281 15.7048C8.29666 15.7048 8.97267 15.5298 9.47019 15.1033C9.98798 14.6594 10.168 14.068 10.168 13.5504C10.168 12.9083 9.82102 12.327 9.41429 11.938C8.98628 11.5286 8.36351 11.2037 7.62886 11.2037ZM15.4614 7.50114C15.46 7.49309 15.4586 7.4809 15.4582 7.46369C15.4583 7.46328 15.4586 7.46255 15.459 7.46152C15.4638 7.44797 15.4873 7.38192 15.5942 7.29213C15.7298 7.17824 15.9147 7.10559 16.0932 7.10559C16.2243 7.10559 16.3711 7.16548 16.4962 7.28518C16.5568 7.34313 16.5972 7.40157 16.6192 7.44564C16.6253 7.45788 16.6292 7.46721 16.6315 7.47356C16.6309 7.48042 16.6301 7.4856 16.6294 7.48926C16.6044 7.50793 16.4505 7.60655 15.9969 7.60655C15.8646 7.60655 15.7474 7.59393 15.6513 7.57233C15.5541 7.55044 15.4967 7.52348 15.4689 7.50609L15.4614 7.50114ZM15.4636 7.51144C15.4641 7.51312 15.4645 7.51388 15.4645 7.51384C15.4645 7.51382 15.4645 7.51362 15.4643 7.51323C15.4642 7.51282 15.464 7.51222 15.4636 7.51144ZM16.0932 5.10559C15.406 5.10559 14.7734 5.36963 14.3078 5.76076C13.8545 6.14153 13.458 6.73609 13.458 7.4523C13.458 8.24301 13.8392 8.846 14.4089 9.20205C14.9176 9.52005 15.5133 9.60655 15.9969 9.60655C16.7607 9.60655 17.4367 9.43156 17.9343 9.00519C18.4522 8.56141 18.6324 7.97004 18.6324 7.4523C18.6324 6.81012 18.2854 6.22887 17.8786 5.83985C17.4506 5.43048 16.8279 5.10559 16.0932 5.10559Z" />
</svg>
