<svg width="24" height="24" viewBox="0 0 24 24" xmlns="http://www.w3.org/2000/svg">
<path d="M19.8774 5.37139L19.8822 5.36723L20.6387 4.71329L19.3309 3.2002L18.5736 3.85476L18.5668 3.86062L18.5473 3.87762L18.4736 3.94203C18.4097 3.99812 18.3168 4.08005 18.1994 4.18488C17.9645 4.39449 17.631 4.69596 17.2338 5.06569C16.4406 5.80391 15.3871 6.82004 14.3553 7.92406L14.1095 8.18706C11.3886 11.0986 8.6826 13.9942 5.85717 16.765C5.03363 17.5726 4.92253 17.6663 4.35978 18.1409C4.27795 18.2099 4.18655 18.287 4.08204 18.3755L3.31887 19.0217L4.61128 20.5481L5.37445 19.9019C5.47383 19.8177 5.56217 19.7432 5.64232 19.6755L5.6432 19.6748C6.24104 19.1703 6.38304 19.0505 7.25751 18.1929C10.1147 15.391 12.8471 12.4671 15.5596 9.56457L15.8165 9.28968C16.8061 8.23083 17.8237 7.24886 18.5964 6.5297C18.982 6.17075 19.3051 5.87871 19.5311 5.67698C19.6441 5.57614 19.7328 5.49795 19.7927 5.44533L19.8606 5.38598L19.8774 5.37139ZM19.2282 4.61068L18.5736 3.85476C18.5736 3.85471 18.5743 3.85413 19.2282 4.61068Z" />
<path d="M10.5395 9.18662C11.577 7.38953 11.1741 4.7885 9.377 3.75095C7.57991 2.7134 4.64444 3.38698 3.60689 5.18407C2.56934 6.98116 3.63817 9.54069 5.43526 10.5782C7.23235 11.6158 9.50195 10.9837 10.5395 9.18662ZM8.80745 8.18662C8.31074 9.04694 7.25607 9.32008 6.43526 8.84619C5.98079 8.5838 5.55384 8.07593 5.3373 7.48146C5.1217 6.88958 5.18873 6.44423 5.33894 6.18407C5.51067 5.88663 5.9595 5.52217 6.67753 5.34841C7.39282 5.17531 8.02424 5.27933 8.377 5.483C8.99883 5.84201 9.42805 7.1117 8.80745 8.18662Z" />
<path d="M16.5411 20.6107C18.6468 20.6107 20.7282 18.9622 20.7282 16.8885C20.7282 14.8147 18.6468 12.6107 16.5411 12.6107C14.4353 12.6107 12.7282 14.8147 12.7282 16.8885C12.7282 18.9622 14.4353 20.6107 16.5411 20.6107ZM18.1231 18.0084C17.6813 18.3869 17.0902 18.6107 16.5411 18.6107C15.4878 18.6107 14.7282 17.8064 14.7282 16.8885C14.7282 16.3733 14.9542 15.7541 15.3677 15.2686C15.7779 14.7868 16.2131 14.6107 16.5411 14.6107C16.9112 14.6107 17.4693 14.8273 17.9867 15.3623C18.5042 15.8974 18.7282 16.4923 18.7282 16.8885C18.7282 17.2256 18.5593 17.6347 18.1231 18.0084Z" />
</svg>
    