<svg width="24" height="24" viewBox="0 0 24 24" xmlns="http://www.w3.org/2000/svg">
<path d="M13.98 3.91998C13.09 3.91998 12.27 4.34 11.76 4.94C11.47 5.28 11.27 5.68002 11.27 6.08002C11.27 7.29002 12.53 7.62 13.73 7.62C15.72 7.62 16.5 6.87 16.5 5.94C16.5 5.61 16.32 5.24999 16.06 4.92999C15.6 4.36999 14.85 3.91998 13.98 3.91998ZM13.98 2C15.48 2 16.76 2.75003 17.55 3.72003C18.12 4.42003 18.42 5.22 18.42 5.94C18.42 6.86 18.09 7.79004 17.27 8.48004C16.56 9.09004 15.44 9.54004 13.73 9.54004C11.41 9.54004 9.34999 8.40002 9.34999 6.08002C9.34999 4.09002 11.45 2 13.98 2ZM14.56 17.75H18.87C18.85 17.16 18.77 16.36 18.51 15.56C18.06 14.18 17.04 12.8 14.7 12.8C14.53 12.8 14.36 12.8 14.2 12.81C14.62 13.67 14.84 14.65 14.84 15.7C14.84 16.43 14.74 17.11 14.55 17.75H14.56ZM10.59 11.77C9.95 11.45 9.19999 11.27 8.37999 11.27C5.66999 11.27 3.92 13.41 3.92 16.13C3.92 17.01 4.14 17.74 4.5 18.33L10.58 11.77H10.59ZM5.92 19.62C6.52 19.93 7.20999 20.09 7.89999 20.09C8.86999 20.09 9.69999 19.95 10.4 19.68C10.93 19.47 11.38 19.18 11.75 18.83C12.07 18.52 12.33 18.15 12.51 17.75C12.79 17.15 12.93 16.45 12.93 15.7C12.93 14.77 12.67 13.92 12.21 13.22C12.16 13.14 12.11 13.07 12.06 13L5.92 19.62ZM13.57 19.67C13.42 19.86 13.26 20.04 13.08 20.21C11.94 21.31 10.23 22.01 7.89999 22.01C4.90999 22.01 2 20.05 2 16.13C2 12.29 4.55999 9.35004 8.37999 9.35004C10.22 9.35004 11.78 9.98003 12.9 11.03C13.46 10.93 14.06 10.88 14.71 10.88C18.16 10.88 19.69 12.93 20.34 14.98C20.95 16.89 20.76 18.8 20.76 18.8C20.71 19.29 20.3 19.66 19.81 19.66H13.57V19.67Z" />
</svg>
