<svg width="24" height="24" viewBox="0 0 24 24" xmlns="http://www.w3.org/2000/svg">
<path d="M10.5 2C10.2279 2 9.96746 2.11092 9.7789 2.30717C9.59035 2.50342 9.48992 2.76804 9.5008 3.03997L9.63685 6.44115L2.96114 6.70076C2.6961 6.71106 2.446 6.82625 2.26589 7.02097C2.08578 7.21569 1.99041 7.47399 2.00076 7.73903L2.50076 20.539C2.52124 21.0633 2.94339 21.4826 3.46776 21.4995L18.9678 21.9995L19.0322 20.0005L13.77 19.8308C13.4907 19.0814 12.9822 18.3426 12.386 17.7451C11.4462 16.8036 10.0812 16 8.50007 16C6.55847 16 5.71106 17.6131 5.36831 18.699C5.27547 18.9932 5.20648 19.2838 5.15508 19.5529L4.46289 19.5305L4.03828 8.66038L20 8.03965V19H22V7C22 6.72804 21.8892 6.46782 21.6932 6.27929C21.4972 6.09076 21.2329 5.99019 20.9611 6.00076L14.7353 6.24287L14.7998 3.02C14.8052 2.75137 14.7022 2.49188 14.5141 2.3C14.3261 2.10812 14.0687 2 13.8 2H10.5ZM12.7334 6.32072L11.6353 6.36343L11.5408 4H12.7798L12.7334 6.32072ZM11.4762 19.7568L7.18693 19.6184C7.21286 19.5129 7.24226 19.4065 7.27557 19.301C7.56406 18.3869 7.96665 18 8.50007 18C9.39396 18 10.2789 18.4652 10.9704 19.158C11.1698 19.3579 11.3377 19.5605 11.4762 19.7568Z" />
<path d="M11.6724 10.2677C12.1879 10.9179 12.3247 11.7067 12.3247 12.3375C12.3247 14.4102 10.6923 15.8125 8.73728 15.8125C7.482 15.8125 6.04977 14.9806 6.04977 13.3501C6.04977 12.7839 6.20816 12.1171 6.62207 11.5507C7.05689 10.9556 7.73862 10.5242 8.64675 10.4417L8.82782 12.4334C8.49844 12.4634 8.33641 12.5945 8.23685 12.7307C8.11639 12.8955 8.04977 13.1287 8.04977 13.3501C8.04977 13.4809 8.09669 13.5691 8.18926 13.6448C8.29752 13.7334 8.48734 13.8125 8.73728 13.8125C9.70728 13.8125 10.3247 13.1898 10.3247 12.3375C10.3247 11.9559 10.2366 11.676 10.1053 11.5104C10.0074 11.387 9.78858 11.2 9.18731 11.2V9.20001C10.2735 9.20001 11.1234 9.57549 11.6724 10.2677Z" />
<path d="M18.8682 16.6L13.4814 16.4998L13.5186 14.5002L18.9054 14.6003L18.8682 16.6Z" />
</svg>
    