<svg width="24" height="24" viewBox="0 0 24 24" xmlns="http://www.w3.org/2000/svg">
<path d="M9.32001 8.92666C8.85001 8.92666 8.41 9.1567 8.14 9.4667C8.01 9.6267 7.91 9.79666 7.91 9.98666C7.91 10.2367 8.07 10.3767 8.27 10.4667C8.53 10.5867 8.84001 10.6267 9.15001 10.6267C10.15 10.6267 10.6 10.3567 10.6 9.88668C10.6 9.74668 10.51 9.59669 10.39 9.45669C10.15 9.16669 9.76001 8.92666 9.31001 8.92666H9.32001ZM9.32001 6.92666C10.42 6.92666 11.37 7.48668 11.95 8.19668C12.38 8.72668 12.61 9.34668 12.61 9.88668C12.61 10.5967 12.35 11.3067 11.73 11.8367C11.22 12.2867 10.4 12.6267 9.16 12.6267C7.42 12.6267 5.91 11.7267 5.91 9.98666C5.91 8.49666 7.44001 6.92666 9.32001 6.92666ZM14.61 11.9867L14.47 9.99667L18.22 9.7167L18.37 11.7167L14.61 11.9867ZM14.58 15.0867L14.49 13.0867L18.07 12.9267L18.16 14.9267L14.58 15.0867ZM5.71001 18.4167C8.01001 18.3867 11.84 18.3466 11.84 18.3466C11.64 17.8866 11.37 17.3667 11.01 16.8967C10.5 16.2267 9.81001 15.6367 8.84001 15.6367C6.61001 15.6367 5.92 17.5167 5.72 18.4167H5.71001ZM4.02 17.1867C4.57 15.6967 5.86 13.6367 8.83 13.6367C10.48 13.6367 11.72 14.5467 12.59 15.6767C13.75 17.1967 14.2 19.0966 14.2 19.0966C14.27 19.3866 14.2 19.6967 14.02 19.9367C13.84 20.1767 13.55 20.3267 13.24 20.3267L3.03 20.4467C2.76 20.4567 2.51001 20.3467 2.32001 20.1667C2.13001 19.9767 2.02 19.7167 2.02 19.4467L2 4.79666C2 4.26666 2.41 3.82666 2.94 3.79666C8.8 3.43666 15.32 3.42669 20.85 3.64669C21.36 3.66669 21.78 4.0767 21.81 4.5867C22.05 8.7467 22.07 14.7067 21.86 19.0067L19.86 18.9067C20.05 14.9767 20.05 9.63666 19.86 5.61666C14.89 5.43666 9.23 5.45666 4 5.73666V17.1867H4.02Z" />
</svg>
