<svg width="24" height="24" viewBox="0 0 24 24" xmlns="http://www.w3.org/2000/svg">
<path d="M12.59 4C11.48 4 10.46 4.52996 9.82999 5.26996C9.44999 5.69996 9.21 6.20998 9.21 6.72998C9.21 8.25998 10.78 8.71997 12.3 8.71997C14.8 8.71997 15.76 7.73 15.76 6.56C15.76 6.14 15.54 5.68001 15.2 5.26001C14.63 4.56001 13.69 4 12.6 4H12.59ZM12.59 2C14.33 2 15.83 2.88 16.74 4C17.4 4.8 17.75 5.73 17.75 6.56C17.75 7.62 17.37 8.68999 16.43 9.48999C15.6 10.2 14.29 10.72 12.29 10.72C9.60999 10.72 7.2 9.41998 7.2 6.72998C7.2 4.40998 9.64999 2 12.58 2H12.59ZM4.99 20.73L3 20.49C3 20.49 4.04999 11.78 12.94 11.78C16.89 11.78 19.03 14.11 20.18 16.46C21.28 18.7 21.43 20.94 21.43 20.94C21.45 21.22 21.35 21.49 21.16 21.69C20.97 21.89 20.71 22.01 20.43 22.01H7.06V20.01H19.27C19.13 19.3 18.86 18.32 18.38 17.34C17.51 15.57 15.91 13.78 12.94 13.78C5.82999 13.78 4.99 20.73 4.99 20.73Z" />
</svg>
