<svg width="24" height="24" viewBox="0 0 24 24" xmlns="http://www.w3.org/2000/svg">
<path d="M15.7198 18L15.7198 16.5L14.2198 16.5L14.2199 14.5L15.7199 14.5L15.7199 13L17.7199 13L17.7199 14.5001L19.2199 14.5001L19.2199 16.5001L17.7198 16.5001L17.7198 18.0001L15.7198 18Z" />
<path d="M3.99988 13.4999C3.99988 10.979 4.78318 9.20122 5.91821 8.05686C7.05799 6.90771 8.6397 6.30859 10.4007 6.30859C13.2165 6.30859 15.1776 7.84674 15.8112 10.0638C14.3415 10.2441 13.1061 10.9075 12.2498 11.925C11.9933 12.2298 11.7749 12.5616 11.5957 12.9149C10.307 12.4671 8.22528 12.184 6.35203 14.1085C6.30221 13.5096 6.39465 12.794 6.69948 11.9473L4.8177 11.2698C3.9796 13.5979 4.28457 15.5805 5.42328 16.9876C6.52822 18.3529 8.27832 18.9999 9.99988 18.9999C10.7034 18.9999 11.364 18.9472 11.9813 18.8436C12.2203 19.1874 12.5049 19.5019 12.8374 19.7794C13.9673 20.7225 15.5196 21.1299 17.3703 20.9636L17.3773 20.9629C18.6039 20.8439 19.8191 20.3339 20.7056 19.3834C21.607 18.417 22.0985 17.0691 21.9834 15.4286C21.8711 13.8265 21.2478 12.39 20.2034 11.388C19.5575 10.7682 18.7675 10.3325 17.8827 10.1294C17.2091 6.70271 14.323 4.30859 10.4007 4.30859C8.18285 4.30859 6.06413 5.06966 4.49822 6.64845C2.92755 8.23203 1.99988 10.55 1.99988 13.4999H3.99988ZM7.273 16.0421C7.91977 15.097 9.31009 13.8015 11.0434 14.7591C10.996 15.1529 10.9872 15.5585 11.0184 15.9711C11.0433 16.301 11.0907 16.6246 11.1616 16.9388C10.7995 16.9788 10.4126 16.9999 9.99988 16.9999C8.91299 16.9999 7.93432 16.647 7.273 16.0421ZM16.3206 12.0232C17.3421 11.9076 18.1927 12.2304 18.8188 12.8312C19.4564 13.4429 19.9057 14.3899 19.9883 15.5685C20.0683 16.7088 19.731 17.4961 19.243 18.0193C18.7407 18.5578 18.0072 18.8917 17.1877 18.9719C15.7253 19.1027 14.7436 18.7653 14.1189 18.244C13.4926 17.7212 13.0946 16.9047 13.0127 15.8205C12.933 14.7651 13.2328 13.863 13.7801 13.2128C14.3241 12.5663 15.1631 12.1082 16.2807 12.0269C16.294 12.026 16.3073 12.0247 16.3206 12.0232Z" />
<path d="M11.581 7.61865C12.1201 8.03452 12.545 8.68223 12.5603 9.45522C12.6166 10.2777 12.2818 10.9441 11.7133 11.38C11.1931 11.7788 10.5459 11.9362 9.99342 11.9864C9.98283 11.9874 9.97222 11.9882 9.96161 11.9888C9.10138 12.0394 8.36146 11.8708 7.80238 11.4422C7.23524 11.0073 6.98832 10.4078 6.92123 9.87115C6.92021 9.86298 6.91929 9.85481 6.91847 9.84662C6.76931 8.35503 8.04992 7.12964 9.48835 7.00977L9.49469 7.00924C10.2827 6.94863 11.0245 7.18934 11.581 7.61865ZM10.3594 9.20219C10.1912 9.07246 9.93956 8.98178 9.65134 9.00313C9.40987 9.02405 9.20426 9.1351 9.06862 9.2801C8.93471 9.42325 8.90316 9.55724 8.90777 9.63762C8.92499 9.75451 8.96689 9.81482 9.01929 9.85499C9.08126 9.90251 9.29101 10.0221 9.82803 9.99315C10.1782 9.95929 10.3964 9.86947 10.4964 9.7928C10.5372 9.76155 10.5477 9.74113 10.5516 9.73218C10.5554 9.72387 10.5727 9.68291 10.5642 9.58144C10.5619 9.55382 10.5608 9.52611 10.5608 9.49839C10.5608 9.4615 10.5356 9.33813 10.3594 9.20219Z" />
</svg>
    