<svg width="24" height="24" viewBox="0 0 24 24" xmlns="http://www.w3.org/2000/svg">
<path d="M7.04 19.2706L7.09 21.2706L17.68 20.9807C17.95 20.9707 18.21 20.8507 18.39 20.6507C18.57 20.4607 18.66 20.1907 18.65 19.9207C18.4 15.2107 18.28 9.24074 18.5 3.04067C18.51 2.76064 18.41 2.49074 18.21 2.30068C18.01 2.10073 17.75 1.99062 17.47 2.00063C14.87 2.09059 12.15 2.11074 9.34 2.06069C8.44 2.05068 7.52 2.03066 6.59 2.00063C6.32001 2.00063 6.06001 2.10073 5.87 2.28066C5.68 2.47072 5.57 2.73061 5.57 3.00063L5.5 17.0006H7.5L7.56001 4.03066L9.32 4.06069C11.78 4.10073 14.17 4.09072 16.48 4.03066C16.32 9.48073 16.41 14.7007 16.61 19.0106L7.04 19.2706ZM12.0301 16.5907C11.0201 16.5907 10.6001 15.6406 10.6001 15.1507C10.6001 14.3606 11.1001 13.5906 12.0201 13.5807C12.9401 13.5607 13.4601 14.2406 13.4601 15.0407C13.4701 15.8306 12.9501 16.6006 12.0301 16.5907Z" />
</svg>
