<svg xmlns="http://www.w3.org/2000/svg" width="24" height="24" viewBox="0 0 24 24">
    <path
        d="M21.535 18.933c.324-.469.508-1.044.456-1.635v-.006c-.053-.57-.323-1.138-.833-1.499l-.006-.004c-.285-.198-3.322-2.217-3.713-2.457-.776-.475-1.704-.307-2.398.06l-.003.002c-.123.064-.324.175-.54.296-.357.2-.73.151-.962-.046-.425-.362-.976-.862-1.65-1.536-.672-.672-1.17-1.221-1.532-1.645-.199-.233-.248-.609-.047-.966.12-.216.232-.416.296-.539l.001-.002c.368-.698.542-1.639.05-2.418-.22-.348-2.231-3.395-2.46-3.713h-.001c-.687-.951-2.087-1.091-3.137-.36l-.003.001c-.039.028-.743.54-1.445 1.194-.35.326-.727.714-1.022 1.116-.26.356-.605.914-.585 1.543v.001c.057 1.812.95 3.669 2.053 5.314 1.118 1.669 2.534 3.242 3.8 4.508 1.266 1.265 2.838 2.68 4.508 3.799 1.648 1.103 3.508 1.997 5.326 2.057H17.74c.614 0 1.158-.344 1.51-.606.395-.296.778-.67 1.1-1.018.632-.681 1.13-1.36 1.18-1.433v-.002l.005-.006zm-1.652-1.127c.016-.024-.43.594-.999 1.207-.285.307-.574.584-.833.777-.212.159-.314.195-.332.204-1.25-.051-2.715-.691-4.244-1.715-1.52-1.018-2.99-2.334-4.206-3.552-1.219-1.217-2.536-2.688-3.553-4.206C4.69 8.99 4.05 7.526 4.004 6.284c.006-.012.037-.11.194-.324.19-.259.466-.55.775-.838.606-.566 1.223-1.013 1.226-1.016.149-.104.266-.113.33-.106.035.005.05.013.057.016.245.349 2.123 3.193 2.367 3.575.001.008.005.025.002.062-.005.08-.034.208-.12.371l-.002.003c-.05.094-.148.272-.27.492-.559.995-.538 2.294.269 3.241.398.467.933 1.055 1.64 1.763.71.708 1.3 1.245 1.766 1.643.947.807 2.244.826 3.238.269.22-.123.4-.222.494-.272l.004-.002c.158-.084.285-.114.364-.119.039-.002.06 0 .067.003.374.23 3.21 2.116 3.579 2.368.004.008.01.026.014.06.006.068-.013.187-.11.326l-.005.007z" />
</svg>