<svg width="24" height="24" viewBox="0 0 24 24" xmlns="http://www.w3.org/2000/svg">
<path d="M17.97 17.7229L19.54 18.9529C18.23 20.6229 16.11 22.0428 13.28 22.0428C11.05 22.0428 8.18 20.4829 5.91 18.2029C3.65 15.9329 2 13.0028 2 10.4128C2 6.79282 3.80001 3.9229 7.04001 2.1229C7.46001 1.8929 7.99 1.99289 8.3 2.36289C9.74 4.12289 11.76 6.78281 11.76 6.78281C12.04 7.15281 12.03 7.6628 11.74 8.0228L9.27 11.0428L13.56 14.6828L16.1 11.5628C16.42 11.1628 16.99 11.0829 17.42 11.3529L21.16 13.7828L20.07 15.4629L17.09 13.5228L14.47 16.7329C14.3 16.9429 14.05 17.0729 13.79 17.0929C13.52 17.1229 13.26 17.0329 13.05 16.8629L7.24001 11.9328C6.82001 11.5828 6.77 10.9628 7.11 10.5328L9.70001 7.36289C9.14001 6.63289 8.19001 5.39283 7.31001 4.30283C5.20001 5.73283 4.01001 7.82281 4.01001 10.4028C4.01001 12.5328 5.47001 14.9128 7.34001 16.7728C9.19001 18.6328 11.47 20.0228 13.29 20.0228C15.41 20.0228 16.99 18.9428 17.97 17.6928V17.7229Z" />
</svg>
