<svg xmlns="http://www.w3.org/2000/svg" width="24" height="24" viewBox="0 0 24 24">
    <path
        d="M18.059 21h-.02c-3.246-.106-7.048-3.252-9.668-5.873C5.747 12.506 2.6 8.702 2.5 5.472c-.038-1.133 2.744-3.149 2.773-3.17.721-.502 1.523-.323 1.852.132.222.31 2.331 3.504 2.56 3.866.238.376.203.936-.094 1.498-.065.124-.19.351-.334.607-.38.676-.345 1.513.156 2.105.404.478.964 1.097 1.72 1.852.758.758 1.378 1.319 1.856 1.723.591.5 1.426.535 2.101.156.257-.144.485-.27.61-.335.553-.294 1.11-.33 1.489-.098.388.238 3.575 2.356 3.868 2.56.247.174.405.47.437.817.03.349-.078.718-.302 1.04-.018.027-2.01 2.775-3.134 2.775z" />
</svg>