<svg width="24" height="24" viewBox="0 0 24 24" xmlns="http://www.w3.org/2000/svg">
<path d="M8.01001 11.5644C8.64001 11.5644 9.15001 12.0645 9.15001 12.6945C9.15001 13.3245 8.64001 13.8245 8.01001 13.8245C7.38001 13.8245 6.87 13.3145 6.87 12.6945C6.87 12.0745 7.38001 11.5644 8.01001 11.5644ZM11.41 11.1945L10.34 9.5144L13.46 7.52441C13.89 7.24441 14.47 7.34439 14.79 7.75439L16.78 10.3144L15.2 11.5444L13.77 9.70446L11.42 11.1945H11.41ZM3.64 15.2744H2L2.02 10.9244H3.41C3.75 9.74443 4.43 8.65444 5.39 7.68444C5.89 6.18444 6.76001 2.75439 6.76001 2.75439C6.84001 2.43439 7.08001 2.16444 7.40001 2.05444C7.72001 1.94444 8.07 2.00446 8.33 2.20446C8.33 2.20446 10.48 3.83442 12.02 5.28442L10.65 6.74438C9.91001 6.03438 9.01 5.29436 8.31 4.72436C7.98 5.99436 7.5 7.72445 7.2 8.56445C7.15 8.71445 7.06 8.84445 6.95 8.94445C5.82 10.0345 5.15001 11.3044 5.15001 12.7644C5.15001 16.3544 8.76 17.9744 12.39 17.9744C15.39 17.9744 17.34 17.2444 18.52 16.1144C19.61 15.0644 19.99 13.6844 19.97 12.3944C19.93 9.2044 17.16 6.7644 13.08 6.7644V4.7644C18.44 4.7644 21.92 8.17439 21.97 12.3744C21.99 14.1744 21.43 16.0944 19.9 17.5644C19.53 17.9244 19.09 18.2544 18.59 18.5544L19.4 21.2444L17.49 21.8245L16.75 19.3644C15.56 19.7544 14.12 19.9744 12.39 19.9744C11.19 19.9744 10.02 19.8144 8.93001 19.5044L8.72 21.6344L6.73 21.4344L7 18.7544C5.48 17.9644 4.27 16.7944 3.64 15.2744Z" />
</svg>
