<svg width="24" height="24" viewBox="0 0 24 24" xmlns="http://www.w3.org/2000/svg">
<path d="M10.19 15.5969L5.62 21.907L4 20.7368L8.64999 14.3069L4.73 11.0169C4.44 10.7769 4.30999 10.3869 4.39999 10.0269C4.48999 9.65688 4.77 9.37689 5.14 9.28689L10.36 8.00686L12.6 2.61697C12.72 2.33697 12.95 2.12689 13.25 2.03689C13.54 1.95689 13.86 2.00704 14.11 2.18704L20.23 6.53689L19.07 8.16702L13.98 4.5469L12.03 9.24685C11.91 9.53685 11.65 9.75694 11.35 9.83694L7.54999 10.7669L13.41 15.687V11.3369C13.41 10.9269 13.66 10.557 14.05 10.407L17.7 8.98684L18.43 10.8469L15.42 12.0169V17.8269C15.42 18.2169 15.19 18.5668 14.84 18.7368C14.49 18.8968 14.07 18.8469 13.77 18.5969L10.22 15.607L10.19 15.5969Z" />
</svg>
