<svg width="24" height="24" viewBox="0 0 24 24" xmlns="http://www.w3.org/2000/svg">
<path d="M11.4724 14.6507L6.03242 14.8106C5.65242 14.8206 5.30243 14.6206 5.12243 14.2906C4.94243 13.9606 4.96242 13.5606 5.17242 13.2506L8.31242 8.65073L7.77243 3.09067C7.74243 2.81067 7.84242 2.53065 8.03242 2.32065C8.22242 2.11065 8.49242 1.99058 8.78242 2.00058L16.2024 2.07065L16.1824 4.07065L9.87243 4.01059L10.3324 8.82065C10.3524 9.05065 10.2924 9.29056 10.1624 9.48056L7.92242 12.7606L15.9624 12.5306L14.0424 10.0706C13.8224 9.79065 13.7724 9.42067 13.9024 9.09067L15.2524 5.64072L17.1124 6.3707L15.9724 9.29062L18.7524 12.8607C18.9824 13.1607 19.0324 13.5607 18.8724 13.9007C18.7124 14.2407 18.3724 14.4605 17.9924 14.4705L13.4624 14.6007L12.9724 22.0606L10.9724 21.9308L11.4524 14.6607L11.4724 14.6507Z" />
</svg>
