<svg width="24" height="24" viewBox="0 0 24 24" xmlns="http://www.w3.org/2000/svg">
<path d="M13.0875 10.943C13.1561 8.31939 13.2784 5.70059 13.4965 3.08308L11.5034 2.91699C11.2772 5.63234 11.1526 8.34633 11.084 11.0552C11.0466 11.0573 11.0093 11.0594 10.972 11.0614L10.9677 11.0617C7.38062 11.2625 4.09132 11.4466 3.05231 11.5013L3.15742 13.4985C4.1905 13.4442 7.46615 13.2608 11.0428 13.0606C11 15.7072 11 18.3481 11 20.9796V20.9796V21H13C13 18.3077 13.0001 15.6251 13.0449 12.9486C16.2384 12.7699 19.3868 12.5942 21.1588 12.4985L21.0509 10.5014C19.2998 10.596 16.2248 10.7675 13.0875 10.943Z" />
</svg>
