<svg xmlns="http://www.w3.org/2000/svg" width="24" height="24" viewBox="0 0 24 24">
    <mask id="2rnx8kx70a">
        <path
            d="M12 20.5c4.694 0 8.5-3.806 8.5-8.5S16.694 3.5 12 3.5 3.5 7.306 3.5 12s3.806 8.5 8.5 8.5zm-.75-4.5v-3.25H8v-1.5h3.25V8h1.5v3.25H16v1.5h-3.25V16h-1.5z" />
    </mask>
    <path
        d="M12 20.5c4.694 0 8.5-3.806 8.5-8.5S16.694 3.5 12 3.5 3.5 7.306 3.5 12s3.806 8.5 8.5 8.5zm-.75-4.5v-3.25H8v-1.5h3.25V8h1.5v3.25H16v1.5h-3.25V16h-1.5z" />
    <path
        d="M11.25 12.75h1.5v-1.5h-1.5v1.5zm0 3.25h-1.5v1.5h1.5V16zM8 12.75H6.5v1.5H8v-1.5zm0-1.5v-1.5H6.5v1.5H8zm3.25 0v1.5h1.5v-1.5h-1.5zm0-3.25V6.5h-1.5V8h1.5zm1.5 0h1.5V6.5h-1.5V8zm0 3.25h-1.5v1.5h1.5v-1.5zm3.25 0h1.5v-1.5H16v1.5zm0 1.5v1.5h1.5v-1.5H16zm-3.25 0v-1.5h-1.5v1.5h1.5zm0 3.25v1.5h1.5V16h-1.5zM19 12c0 3.866-3.134 7-7 7v3c5.523 0 10-4.477 10-10h-3zm-7-7c3.866 0 7 3.134 7 7h3c0-5.523-4.477-10-10-10v3zm-7 7c0-3.866 3.134-7 7-7V2C6.477 2 2 6.477 2 12h3zm7 7c-3.866 0-7-3.134-7-7H2c0 5.523 4.477 10 10 10v-3zm-2.25-6.25V16h3v-3.25h-3zM8 14.25h3.25v-3H8v3zm-1.5-3v1.5h3v-1.5h-3zm4.75-1.5H8v3h3.25v-3zM9.75 8v3.25h3V8h-3zm3-1.5h-1.5v3h1.5v-3zm1.5 4.75V8h-3v3.25h3zM16 9.75h-3.25v3H16v-3zm1.5 3v-1.5h-3v1.5h3zm-4.75 1.5H16v-3h-3.25v3zm1.5 1.75v-3.25h-3V16h3zm-3 1.5h1.5v-3h-1.5v3z"
        mask="url(#2rnx8kx70a)" />
</svg>