<svg width="24" height="24" viewBox="0 0 24 24" xmlns="http://www.w3.org/2000/svg">
<path d="M7.28251 6.04262C5.52965 7.39099 4.34003 9.48255 4.34003 12.5625C4.34003 17.2047 8.29443 20 11.665 20C14.4335 20 16.4219 19.1425 17.7109 17.9137C19.0032 16.6819 19.6649 15.0097 19.6649 13.2376C19.6649 11.0908 18.8791 9.50501 17.5487 8.43359C16.1901 7.3395 14.159 6.70003 11.5525 6.70003V4.70003C14.4585 4.70003 16.9836 5.4106 18.8031 6.87592C20.6508 8.36392 21.6649 10.5469 21.6649 13.2376C21.6649 15.5156 20.8079 17.7246 19.0909 19.3614C17.3705 21.0014 14.8589 22 11.665 22C7.38561 22 2.34003 18.4953 2.34003 12.5625C2.34003 8.89245 3.79412 6.20276 6.06308 4.45738C8.29587 2.73984 11.231 2 14.1399 2V4C11.5364 4 9.07156 4.66641 7.28251 6.04262ZM10.6486 12.0192L10.4416 8.45809L12.4382 8.34201L12.645 11.8989L16.3295 11.6769L16.4497 13.6733L12.7611 13.8955L13.0007 18.017L11.0041 18.1331L10.7647 14.0158L7.11239 14.2358L6.99213 12.2394L10.6486 12.0192Z" />
</svg>
