<svg width="24" height="24" viewBox="0 0 24 24" xmlns="http://www.w3.org/2000/svg">
<path d="M16.5107 7.41003V3.96997C13.4407 3.96997 10.7107 3.99001 7.78068 4.01001C7.81068 5.11001 7.81066 6.23001 7.79066 7.39001C10.6607 7.38001 13.5707 7.40003 16.5107 7.41003ZM15.5907 17.3V16.88C12.8507 16.88 10.4007 16.89 7.78068 16.91C7.78068 17.01 7.78068 17.11 7.78068 17.21C7.78068 17.54 7.78068 17.8701 7.78068 18.2001C7.78068 18.5301 7.78068 18.8501 7.78068 19.1801C7.78068 19.3501 7.78067 19.5301 7.77067 19.7001L15.5807 19.5601V17.3H15.5907ZM5.82066 19.16L2.97066 19.13C2.71066 19.13 2.45067 19.0201 2.27067 18.8201C2.09067 18.6301 1.99068 18.38 2.00068 18.11C2.11068 14.74 2.13068 11.5001 2.00068 8.44006C1.99068 8.17006 2.09067 7.90997 2.27067 7.71997C2.45067 7.51997 2.71066 7.41003 2.97066 7.41003C3.91066 7.40003 4.86066 7.40001 5.82066 7.39001C5.84066 5.90001 5.83067 4.46008 5.77067 3.08008C5.76067 2.81008 5.86066 2.54999 6.04066 2.35999C6.22066 2.16999 6.48067 2.06005 6.74067 2.05005C10.3907 2.02005 13.6507 2 17.4907 2C18.0307 2.01 18.4707 2.44999 18.4707 2.98999V7.42004H20.7307C21.2607 7.42004 21.7007 7.85001 21.7107 8.38L21.9707 17.8301L20.0007 17.89L19.7707 9.39001C19.3207 9.39001 18.8707 9.39001 18.4207 9.38C14.1407 9.37 9.91068 9.34999 5.78068 9.35999C5.19068 9.35999 4.60066 9.37 4.01066 9.37C4.09066 11.87 4.08066 14.48 4.01066 17.17L5.83067 17.1901C5.83067 16.7801 5.81066 16.38 5.79066 15.98C5.78066 15.71 5.87068 15.45 6.06068 15.25C6.24068 15.06 6.50067 14.9501 6.77067 14.9501C10.1007 14.9201 13.0807 14.9 16.5907 14.91C17.1307 14.91 17.5707 15.35 17.5707 15.89V20.52C17.5707 21.06 17.1407 21.5 16.6007 21.51L6.78068 21.6901C6.51068 21.6901 6.25068 21.58 6.06068 21.39C5.87068 21.2 5.77068 20.93 5.78068 20.66C5.80068 20.16 5.82066 19.65 5.82066 19.16Z" />
</svg>
