<svg width="24" height="24" viewBox="0 0 24 24" fill="none" xmlns="http://www.w3.org/2000/svg">
    <path fill-rule="evenodd"
        d="M11.2333 19.9637C11.1863 19.8235 11.1413 19.6838 11.1048 19.5621C11.0819 19.4853 11.0595 19.4065 11.042 19.335L11.0406 19.3295C11.0306 19.2893 10.9946 19.1445 10.9946 18.9931V18.0249C10.9946 18.014 10.9939 18.0044 10.9929 17.9959H9.99055C9.43807 17.9959 8.8801 17.8166 8.48221 17.3493C8.10853 16.9105 8.00343 16.3644 8.00343 15.8883V13.0152C8.00343 13.0096 8.00289 13.0063 8.00262 13.005L8.00236 13.0039C8.00274 13.0043 8.00247 13.0041 8.00223 13.0035C8.0022 13.0034 8.00221 13.0034 8.00225 13.0036L8.00232 13.0038C8.00176 13.0033 8.00058 13.0024 7.99875 13.0016C7.9973 13.001 7.99439 13.0001 7.98883 13.0001H6.00082L5.90074 13.0003C5.50521 13.0019 5.03787 13.0037 4.60258 12.8041C4.36515 12.6953 4.17433 12.5485 4.00994 12.4022C4.2068 16.3781 7.30627 19.5903 11.2333 19.9637ZM4.26078 9.96632C5.16053 6.53297 8.28446 4 12 4C12.6906 4 13.3608 4.08751 14 4.25203V5C12.8954 5 12 5.89543 12 7V8C10.8954 8 10 8.89543 10 10C10 11.1046 10.8954 12 12 12C12 13.1046 12.8954 14 14 14H17V14.8532L15.7327 19.0776C14.9925 19.4688 14.1835 19.7473 13.3287 19.8902C13.3274 19.8868 13.3261 19.8835 13.3248 19.8801C13.2782 19.7562 13.2208 19.5959 13.165 19.4327C13.1089 19.2687 13.0573 19.1103 13.0209 18.9887C13.0098 18.9516 13.0011 18.9212 12.9946 18.8973V18.0249C12.9946 17.56 12.85 17.0572 12.5004 16.655C12.1337 16.2331 11.6036 15.9959 10.9999 15.9959H10.0087C10.0056 15.9675 10.0034 15.9319 10.0034 15.8883V13.0152C10.0034 11.8665 9.07558 11.0001 7.98883 11.0001H6.00082C5.73404 11.0001 5.59498 10.9992 5.49287 10.9905C5.46162 10.9879 5.44254 10.9851 5.43216 10.9831C5.41882 10.9742 5.3877 10.9514 5.33195 10.9014C5.22992 10.8099 5.10121 10.6793 4.88722 10.4607C4.68331 10.2524 4.49596 10.064 4.32691 9.89868L4.26078 9.96632ZM18.5776 16.5549L18.9157 15.4279C18.9716 15.2415 19 15.0479 19 14.8532V14C19 12.8954 18.1046 12 17 12H14C14 10.8954 13.1046 10 12 10C13.1046 10 14 9.10457 14 8V7C15.0813 7 15.9622 6.14192 15.9988 5.06957C18.3907 6.45264 20 9.03838 20 12C20 13.6925 19.4744 15.2622 18.5776 16.5549ZM22 12C22 17.5228 17.5228 22 12 22C6.47715 22 2 17.5228 2 12C2 6.47715 6.47715 2 12 2C17.5228 2 22 6.47715 22 12ZM5.42199 10.9809L5.42468 10.9816C5.42276 10.9812 5.42192 10.9809 5.42199 10.9809Z" />
</svg>