<svg xmlns="http://www.w3.org/2000/svg" width="24" height="24" viewBox="0 0 24 24">
    <path stroke-width="2"
        d="M3.628 10.614c.162.158.344.34.545.546.822.84.826.84 1.828.84h1.988c.552 0 1.015.436 1.015 1.015v2.873c0 .69.31 1.108.987 1.108H11c.662 0 .994.497.994 1.029v.968c0 .154.43 1.38.505 1.507M16.5 20c.5-1.75 1.498-4.608 1.498-4.94v-1.05c0-.546-.6-1.01-1.989-1.01h-2.023c-.658 0-.988-.333-.99-1 .002-.667-.33-1-.998-1-.945 0-.998-.71-1-.972v-.041c0-.217.03-.987.963-.987h.037c.472 0 .998-.384 1.002-.964.004-.58.004-.548 0-1.035-.005-.486.518-.997 1.03-.997.513 0 .966-.333.966-1.01L15 3.5" />
    <circle cx="12" cy="12" r="9" stroke-width="2" />
</svg>