<svg width="24" height="24" viewBox="0 0 24 24" fill="none" xmlns="http://www.w3.org/2000/svg">
<path d="M3.62787 10.6136C3.78982 10.772 3.97163 10.9548 4.17267 11.1602C4.99477 12 4.99885 12 6.00088 12H7.98888C8.54057 12 9.00349 12.4358 9.00349 13.0151V15.8883C9.00349 16.5786 9.31486 16.9959 9.99061 16.9959H11C11.6626 16.9959 11.9946 17.4931 11.9946 18.0248V18.993C11.9946 19.1465 12.4242 20.3727 12.5 20.5" stroke="#222222" stroke-width="2"/>
<path d="M16.5 20C17.0001 18.2506 17.9983 15.3918 17.9983 15.0591V14.0096C17.9983 13.4645 17.3988 13 16.0097 13H15.0866C14.7058 13 14.6426 13 13.9855 13C13.3285 13 12.9986 12.6667 12.9958 12C12.9982 11.3333 12.6658 11 11.9984 11C11.053 11 11.0005 10.2898 10.9976 10.028L10.9974 9.98673C10.9974 9.76967 11.0286 8.99958 11.9608 8.99958H11.9984C12.4707 8.99958 12.9958 8.61567 13 8.03572C13.0042 7.45577 13.0042 7.48793 13 7.00144C12.9958 6.51495 13.518 6.00384 14.0308 6.00384C14.5436 6.00384 14.9958 5.67101 14.9958 4.9946L15 3.5" stroke="#222222" stroke-width="2"/>
<circle cx="12" cy="12" r="9" stroke="#222222" stroke-width="2"/>
</svg>
