<svg xmlns="http://www.w3.org/2000/svg" width="24" height="24" viewBox="0 0 24 24">
    <path
        d="M12 2c5.523 0 10 4.477 10 10s-4.477 10-10 10S2 17.523 2 12 6.477 2 12 2zm0 2.5c-3.668 0-6.722 2.634-7.372 6.114.162.158.344.34.545.546.822.84.826.84 1.828.84h1.988c.552 0 1.014.436 1.014 1.015v2.873c0 .69.312 1.108.988 1.108H12c.663 0 .995.497.995 1.029v.968c0 .154.047.297.123.424 1.15-.172 2.214-.604 3.13-1.235.5-1.75.75-2.79.75-3.123v-1.05c0-.545-.6-1.009-1.988-1.009h-2.024c-.658 0-.987-.333-.99-1 .002-.667-.33-1-.998-1-.945 0-.997-.71-1-.972v-.041c0-.217.03-.987.963-.987h.037c.473 0 .998-.384 1.002-.964.004-.58.004-.548 0-1.035-.004-.486.518-.997 1.03-.997.514 0 .966-.333.966-1.01v-.226C13.36 4.593 12.69 4.5 12 4.5z" />
</svg>