<svg width="24" height="24" viewBox="0 0 24 24" xmlns="http://www.w3.org/2000/svg">
<path d="M6.83 14.9199V12.9199L10.3 12.8999V14.8999L6.83 14.9199ZM4.06 13.09L3.96001 11.09L5.75 11L5.85001 13L4.06 13.09ZM9.53 6.81995L9.43001 4.81995L11.22 4.72998L11.32 6.72998L9.53 6.81995ZM12.79 5.35999L12.69 3.35999L14.48 3.2699L14.58 5.2699L12.79 5.35999ZM18.31 11.99L18.21 9.98999L20 9.8999L20.1 11.8999L18.31 11.99ZM14.68 12.1799L14.58 10.1799L16.37 10.09L16.47 12.09L14.68 12.1799ZM9.35001 10.7899L9.25 8.78992L12.76 8.60999L12.86 10.61L9.35001 10.7899ZM13.15 16.7799L13.05 14.7799L14.84 14.6899L14.94 16.6899L13.15 16.7799ZM18.22 16.7799L18.12 14.7799L19.91 14.6899L20.01 16.6899L18.22 16.7799ZM17.32 21.0099L17.22 19.0099L19.01 18.9199L19.11 20.9199L17.32 21.0099ZM10.2 20.96L10.1 18.96L11.89 18.87L11.99 20.87L10.2 20.96ZM4.25 17.7999L4.29001 20.0199L6.09 19.99V17.7599L4.25 17.7999ZM3.21001 15.8199L7.07001 15.74C7.34001 15.74 7.60001 15.8399 7.79001 16.0299C7.98001 16.2199 8.09 16.48 8.09 16.74V20.98C8.09 21.52 7.65 21.97 7.11 21.98L3.32001 22.0499C3.06001 22.0499 2.8 21.9499 2.61 21.7699C2.42 21.5899 2.31 21.3299 2.3 21.0699L2.23 16.85C2.23 16.3 2.66001 15.84 3.21001 15.83V15.8199ZM18.11 4.05994L18.15 6.28992L19.95 6.25989V4.02991L18.11 4.06995V4.05994ZM17.07 2.07996L20.93 2C21.2 2 21.46 2.09992 21.65 2.28992C21.84 2.47992 21.95 2.74 21.95 3V7.23999C21.95 7.77999 21.51 8.22999 20.97 8.23999L17.18 8.30994C16.92 8.30994 16.66 8.20991 16.47 8.02991C16.28 7.84991 16.17 7.58996 16.16 7.32996L16.09 3.10999C16.08 2.55999 16.52 2.09997 17.07 2.08997V2.07996ZM4.00999 4.90991L4.05 7.13989L5.85001 7.10999V4.87988L4.00999 4.91992V4.90991ZM2.98 2.92993L6.84 2.84998C7.11 2.84998 7.37 2.94989 7.56 3.13989C7.75 3.32989 7.86 3.58998 7.86 3.84998V8.08997C7.86 8.62997 7.42 9.07997 6.88 9.08997L3.09 9.15991C2.83 9.15991 2.57 9.05988 2.38 8.87988C2.19 8.69988 2.08001 8.43993 2.07001 8.17993L2 3.95996C2 3.40996 2.43 2.95994 2.98 2.93994V2.92993Z" />
</svg>
