<svg width="24" height="24" viewBox="0 0 24 24" xmlns="http://www.w3.org/2000/svg">
<path d="M6.86 13V11L9.25 10.99V12.99L6.86 13ZM11.71 8.81006L11.61 6.81006L13.41 6.71997L13.51 8.71997L11.71 8.81006ZM15.56 13.1801L15.46 11.1801L18.04 11.05L18.14 13.05L15.56 13.1801ZM11.63 17.35L11.53 15.35L16.75 15.0801L16.85 17.0801L11.63 17.35ZM11.71 13.05L11.61 11.05L13.49 10.9501L13.59 12.9501L11.71 13.05ZM7.04999 14.3L8.64 14.27C8.91 14.27 9.17 14.37 9.36 14.55C9.55 14.74 9.65999 15 9.65999 15.27V17.11C9.65999 17.65 9.21999 18.1 8.67999 18.11L7.12 18.14C6.85 18.14 6.59999 18.04 6.40999 17.86C6.21999 17.68 6.10999 17.42 6.09999 17.16L6.06999 15.3301C6.05999 14.7801 6.49999 14.3301 7.04999 14.3101V14.3ZM15.8 5.87L17.39 5.83008C17.66 5.83008 17.92 5.92999 18.11 6.10999C18.3 6.29999 18.41 6.56008 18.41 6.83008V8.67004C18.41 9.22004 17.97 9.66004 17.43 9.67004L15.87 9.70007C15.61 9.70007 15.35 9.60004 15.16 9.42004C14.97 9.24004 14.86 8.97997 14.85 8.71997L14.82 6.89001C14.81 6.34001 15.25 5.88 15.8 5.87ZM7.36 5.94006L8.95 5.90002C9.22 5.90002 9.48 6.00006 9.67 6.19006C9.86 6.38006 9.97 6.64002 9.97 6.90002V8.73999C9.97 9.27999 9.52999 9.72999 8.98999 9.73999L7.42999 9.77002C7.15999 9.77002 6.91 9.67999 6.72 9.48999C6.53 9.30999 6.42 9.05004 6.42 8.79004L6.39 6.96008C6.39 6.41008 6.81999 5.96006 7.37 5.94006H7.36ZM9.34 2.01001L9.40999 4.01001L4.18999 4.19006V9.98999H2.18999V3.21997C2.18999 2.67997 2.61999 2.23997 3.14999 2.21997L9.33 2L9.34 2.01001ZM22.02 7.51001H20.02V4.01001H16.43V2.01001H21.02C21.57 2.01001 22.02 2.46001 22.02 3.01001V7.51001ZM16.43 22V20H20.05V14.98H22.05V21C22.05 21.55 21.6 22 21.05 22H16.43ZM2 14.6H4V20H9.18999V22H3C2.45 22 2 21.55 2 21V14.6Z" />
</svg>
