<svg xmlns="http://www.w3.org/2000/svg" width="24" height="24" viewBox="0 0 24 24">
    <path
        d="M4 4v5h5V4H4zm-.5-2C2.672 2 2 2.672 2 3.5v6c0 .828.672 1.5 1.5 1.5h6c.828 0 1.5-.672 1.5-1.5v-6c0-.828-.672-1.5-1.5-1.5h-6zM4 15v5h5v-5H4zm-.5-2c-.828 0-1.5.672-1.5 1.5v6c0 .828.672 1.5 1.5 1.5h6c.828 0 1.5-.672 1.5-1.5v-6c0-.828-.672-1.5-1.5-1.5h-6zM15 9V4h5v5h-5zm-2-5.5c0-.828.672-1.5 1.5-1.5h6c.828 0 1.5.672 1.5 1.5v6c0 .828-.672 1.5-1.5 1.5h-6c-.828 0-1.5-.672-1.5-1.5v-6zM5 6c0-.552.448-1 1-1h1c.552 0 1 .448 1 1v1c0 .552-.448 1-1 1H6c-.552 0-1-.448-1-1V6zm12-1c-.552 0-1 .448-1 1v1c0 .552.448 1 1 1h1c.552 0 1-.448 1-1V6c0-.552-.448-1-1-1h-1zM5 17c0-.552.448-1 1-1h1c.552 0 1 .448 1 1v1c0 .552-.448 1-1 1H6c-.552 0-1-.448-1-1v-1zm9-4c-.552 0-1 .448-1 1v1c0 .552.448 1 1 1h1c.552 0 1-.448 1-1v-1c0-.552-.448-1-1-1h-1zm5 1c0-.552.448-1 1-1h1c.552 0 1 .448 1 1v1c0 .552-.448 1-1 1h-1c-.552 0-1-.448-1-1v-1zm-2 2c-.552 0-1 .448-1 1v1c0 .552.448 1 1 1h1c.552 0 1-.448 1-1v-1c0-.552-.448-1-1-1h-1zm-4 4c0-.552.448-1 1-1h1c.552 0 1 .448 1 1v1c0 .552-.448 1-1 1h-1c-.552 0-1-.448-1-1v-1zm7-1c-.552 0-1 .448-1 1v1c0 .552.448 1 1 1h1c.552 0 1-.448 1-1v-1c0-.552-.448-1-1-1h-1z" />
</svg>