<svg xmlns="http://www.w3.org/2000/svg" width="24" height="24" viewBox="0 0 24 24">
    <path
        d="M2 3.5C2 2.672 2.672 2 3.5 2h6c.828 0 1.5.672 1.5 1.5v6c0 .828-.672 1.5-1.5 1.5h-6C2.672 11 2 10.328 2 9.5v-6zM5.5 5c-.276 0-.5.224-.5.5v2c0 .276.224.5.5.5h2c.276 0 .5-.224.5-.5v-2c0-.276-.224-.5-.5-.5h-2zM13 3.5c0-.828.672-1.5 1.5-1.5h6c.828 0 1.5.672 1.5 1.5v6c0 .828-.672 1.5-1.5 1.5h-6c-.828 0-1.5-.672-1.5-1.5v-6zM16.5 5c-.276 0-.5.224-.5.5v2c0 .276.224.5.5.5h2c.276 0 .5-.224.5-.5v-2c0-.276-.224-.5-.5-.5h-2zM2 14.5c0-.828.672-1.5 1.5-1.5h6c.828 0 1.5.672 1.5 1.5v6c0 .828-.672 1.5-1.5 1.5h-6c-.828 0-1.5-.672-1.5-1.5v-6zM5.5 16c-.276 0-.5.224-.5.5v2c0 .276.224.5.5.5h2c.276 0 .5-.224.5-.5v-2c0-.276-.224-.5-.5-.5h-2zM13 14c0-.552.448-1 1-1h1c.552 0 1 .448 1 1v1c0 .552-.448 1-1 1h-1c-.552 0-1-.448-1-1v-1zm6 0c0-.552.448-1 1-1h1c.552 0 1 .448 1 1v1c0 .552-.448 1-1 1h-1c-.552 0-1-.448-1-1v-1zm-2 2c-.552 0-1 .448-1 1v1c0 .552.448 1 1 1h1c.552 0 1-.448 1-1v-1c0-.552-.448-1-1-1h-1zm-4 4c0-.552.448-1 1-1h1c.552 0 1 .448 1 1v1c0 .552-.448 1-1 1h-1c-.552 0-1-.448-1-1v-1zm7-1c-.552 0-1 .448-1 1v1c0 .552.448 1 1 1h1c.552 0 1-.448 1-1v-1c0-.552-.448-1-1-1h-1z" />
</svg>