<svg xmlns="http://www.w3.org/2000/svg" width="24" height="24" viewBox="0 0 24 24">
    <path
        d="M17.836 4.5H14.5v-2h3.336c2.024 0 3.664 1.64 3.664 3.664V8.5h-2V6.164c0-.919-.745-1.664-1.664-1.664zM2.5 13h19v-2h-19v2zm2 2.5v2.336c0 .919.745 1.664 1.664 1.664H9.5v2H6.164C4.14 21.5 2.5 19.86 2.5 17.836V15.5h2zm15 2.336V15.5h2v2.336c0 2.024-1.64 3.664-3.664 3.664H14.5v-2h3.336c.919 0 1.664-.745 1.664-1.664zM4.5 6.164c0-.919.745-1.664 1.664-1.664H9.5v-2H6.164C4.14 2.5 2.5 4.14 2.5 6.164V8.5h2V6.164z" />
</svg>