<svg xmlns="http://www.w3.org/2000/svg" width="24" height="24" viewBox="0 0 24 24">
    <path
        d="M17.836 4.75H14.5v-2.5h3.336c2.162 0 3.914 1.752 3.914 3.914V8.5h-2.5V6.164c0-.78-.633-1.414-1.414-1.414zM2.5 13.25h19v-2.5h-19v2.5zm2.25 2.25v2.336c0 .78.633 1.414 1.414 1.414H9.5v2.5H6.164c-2.162 0-3.914-1.752-3.914-3.914V15.5h2.5zm14.5 2.336V15.5h2.5v2.336c0 2.162-1.752 3.914-3.914 3.914H14.5v-2.5h3.336c.78 0 1.414-.633 1.414-1.414zM4.75 6.164c0-.78.633-1.414 1.414-1.414H9.5v-2.5H6.164c-2.162 0-3.914 1.752-3.914 3.914V8.5h2.5V6.164z" />
</svg>