<svg width="24" height="24" viewBox="0 0 24 24" xmlns="http://www.w3.org/2000/svg">
<path d="M10.69 19C11.51 19 12.18 19.67 12.18 20.5C12.18 21.33 11.51 21.99 10.69 21.99C9.87 21.99 9.2 21.32 9.2 20.5C9.2 19.68 9.87 19 10.69 19ZM8 7.5L6 7.37C6 7.37 6.34001 2 11.71 2C14.81 2 17.42 4.60999 17.42 7.70999C17.42 9.79999 16.72 11.23 15.74 12.21C14.59 13.35 13.01 13.87 11.6 14.02C11.6 15.81 11.6 17.95 11.6 17.95H9.60001C9.60001 17.95 9.60001 14.93 9.60001 13.08C9.60001 12.53 10.05 12.08 10.6 12.08C11.76 12.08 13.3 11.82 14.33 10.79C15 10.13 15.42 9.12999 15.42 7.70999C15.42 5.69999 13.73 4 11.71 4C8.22001 4 8 7.5 8 7.5Z" />
</svg>
