<svg width="24" height="24" viewBox="0 0 24 24" xmlns="http://www.w3.org/2000/svg">
<path d="M8.7182 17.54L8.6082 15.54L14.7482 15.2101L14.8482 17.2101L8.70819 17.54H8.7182ZM8.7182 13.28L8.6082 11.28L14.7482 10.9601L14.8482 12.9601L8.70819 13.28H8.7182ZM8.7182 8.83008L8.6082 6.83008L14.7482 6.51001L14.8482 8.51001L8.70819 8.83008H8.7182ZM16.8182 2V4H6.0782C6.0082 8.95 5.90819 14.57 6.22819 20C9.74819 20.03 13.7982 19.9701 17.4482 19.9401L17.5082 6.71997H19.5082L19.4382 20.9301C19.4382 21.4801 18.9982 21.9201 18.4482 21.9301C14.2182 21.9601 9.3282 22.05 5.2682 21.99C4.7482 21.98 4.31819 21.5801 4.28819 21.0601C3.86819 14.9301 4.00819 8.48998 4.08819 2.97998C4.08819 2.43998 4.53819 2 5.08819 2H16.8082H16.8182Z" />
</svg>
