<svg xmlns="http://www.w3.org/2000/svg" width="24" height="24" viewBox="0 0 24 24">
    <path
        d="M7.593 6.594h1.93v2.25h-4.49c-.72 0-1.305-.585-1.305-1.305V3h2.25v2.012C7.594 3.619 9.698 2.775 12 2.775c5.095 0 9.225 4.13 9.225 9.225h-2.25c0-3.852-3.122-6.975-6.975-6.975-1.67 0-3.205.587-4.407 1.569zm12.68 9.867V21h-2.25v-2.012c-1.616 1.393-3.72 2.237-6.023 2.237-5.094 0-9.225-4.13-9.225-9.225h2.25c0 3.852 3.123 6.975 6.975 6.975 1.672 0 3.206-.587 4.408-1.569h-1.931v-2.25h4.49c.721 0 1.305.585 1.305 1.305z" />
</svg>