<svg width="24" height="24" viewBox="0 0 24 24" xmlns="http://www.w3.org/2000/svg">
<path d="M19.0661 10.257C18.9722 9.4761 18.7382 8.70611 18.3736 7.98004C17.7335 6.70506 16.7185 5.61836 15.4671 4.84523C14.2158 4.07214 12.7713 3.63905 11.3114 3.6026C9.85113 3.56614 8.42729 3.92824 7.22508 4.66312C6.51732 5.09575 5.98874 5.79146 5.6634 6.293C5.49222 6.5569 5.3582 6.79732 5.26647 6.97263C5.22038 7.06071 5.18438 7.13347 5.15915 7.1859C5.14651 7.21215 5.13653 7.23338 5.12929 7.249L5.12049 7.26815L5.11763 7.27444L5.1166 7.27673L5.11599 7.27808C5.11591 7.27827 5.11582 7.27846 6.0285 7.68715C6.94117 8.09583 6.9411 8.09601 6.94102 8.09618L6.94372 8.09034C6.94711 8.08304 6.95297 8.07052 6.96124 8.05335C6.9778 8.01895 7.0038 7.96627 7.03853 7.89989C7.10844 7.76629 7.21135 7.58174 7.34129 7.38143C7.61821 6.95455 7.9487 6.56485 8.26819 6.36956C9.12048 5.84857 10.1603 5.57449 11.2614 5.60198C12.3629 5.62948 13.4624 5.9576 14.4159 6.5467C15.3694 7.13577 16.1212 7.95109 16.5862 8.87743C16.8283 9.35958 16.9867 9.8593 17.0618 10.359L15.8494 8.61611L14.2076 9.75825L17.1255 13.9527C17.5632 14.5818 18.4939 14.5818 18.9315 13.9527L21.8494 9.75829L20.2076 8.61614L19.0661 10.257ZM8.09995 15.3678L6.88751 13.6249C6.96265 14.1246 7.12104 14.6243 7.36311 15.1064C7.8282 16.0328 8.57997 16.8481 9.53345 17.4372C10.487 18.0263 11.5865 18.3544 12.6879 18.3819C13.789 18.4094 14.8289 18.1353 15.6812 17.6143C16.0007 17.419 16.3311 17.0293 16.6081 16.6024C16.738 16.4021 16.8409 16.2176 16.9108 16.084C16.9456 16.0176 16.9716 15.9649 16.9881 15.9305C16.9964 15.9134 17.0023 15.9008 17.0056 15.8935L17.0083 15.8877C17.0083 15.8877 17.0082 15.888 17.9209 16.2967C18.8335 16.7054 18.8334 16.7058 18.8334 16.7058L18.8328 16.7071L18.8317 16.7094L18.8289 16.7157L18.8201 16.7349C18.8128 16.7505 18.8028 16.7717 18.7902 16.798C18.765 16.8504 18.729 16.9232 18.6829 17.0112C18.5912 17.1865 18.4571 17.427 18.286 17.6909C17.9606 18.1924 17.432 18.8881 16.7243 19.3208C15.5221 20.0556 14.0982 20.4177 12.638 20.3813C11.178 20.3448 9.7336 19.9117 8.48226 19.1386C7.23086 18.3655 6.21587 17.2788 5.57574 16.0038C5.2112 15.2778 4.97713 14.5078 4.88328 13.7268L3.74178 15.3677L2.09998 14.2256L5.01786 10.0312C5.4555 9.40211 6.3862 9.40212 6.82384 10.0312L9.74175 14.2256L8.09995 15.3678Z" />
</svg>
