<svg width="24" height="24" viewBox="0 0 24 24" xmlns="http://www.w3.org/2000/svg">
<path d="M14.22 12.62C14.85 12.62 15.46 13.02 15.48 13.76C15.49 14.49 14.95 14.9 14.32 14.9C13.69 14.91 13.08 14.49 13.08 13.76C13.08 12.96 13.84 12.63 14.23 12.62H14.22ZM9.56001 12.62C10.19 12.62 10.8 13.02 10.82 13.76C10.83 14.49 10.29 14.9 9.66 14.9C9.03 14.91 8.42001 14.49 8.42001 13.76C8.42001 12.96 9.18 12.63 9.57 12.62H9.56001ZM11.96 1C12.59 1 13.2 1.4 13.22 2.13C13.23 2.86 12.69 3.28003 12.05 3.28003C11.41 3.28003 10.81 2.87001 10.81 2.14001C10.81 1.33001 11.57 1 11.96 1ZM20.03 15.39H22V10.35H20.03V15.39ZM2 15.39H3.97V10.35H2V15.39ZM13 7.81995C14.68 7.81995 16.26 7.75002 17.73 7.65002C18 7.63002 18.26 7.72002 18.46 7.90002C18.66 8.09002 18.77 8.33999 18.78 8.60999L18.99 18.39L17.02 18.4301L16.83 9.68005C13.93 9.84005 10.65 9.83995 7.02 9.69995C7.07 12.29 7.07 14.9999 7.02 17.8099L16.12 17.91L16.1 19.88L6.01 19.77C5.75 19.76 5.49001 19.66 5.31001 19.47C5.13001 19.28 5.03001 19.02 5.03001 18.76C5.10001 15.25 5.11001 11.8799 5.03001 8.68994C5.03001 8.41994 5.13 8.15996 5.32 7.95996C5.52 7.76996 5.78001 7.67005 6.06001 7.68005C7.79001 7.76005 9.45 7.80995 11.02 7.81995V4.89001H12.99V7.81995H13Z" />
</svg>
