<svg width="24" height="24" viewBox="0 0 24 24" xmlns="http://www.w3.org/2000/svg">
<path d="M15.11 7.00404C15.66 6.42404 16.56 6.21413 17.24 6.84413C17.92 7.46413 17.82 8.3342 17.28 8.9142C16.73 9.4942 15.82 9.69409 15.15 9.05409C14.42 8.35409 14.77 7.37405 15.11 7.01405V7.00404ZM6.62997 17.3241C6.16997 17.2641 5.46999 17.2741 4.95999 17.7841C4.58999 18.1541 4.39 18.694 4.25 19.204C4.19 19.424 4.14999 19.6341 4.10999 19.8341C4.29999 19.8041 4.51 19.774 4.72 19.724C5.23 19.604 5.78999 19.404 6.17999 19.004C6.71999 18.464 6.70997 17.7741 6.62997 17.3141V17.3241ZM15.8 14.6542L13.99 16.5841C14.15 17.3541 14.43 18.714 14.43 18.714L16.06 16.734L15.8 14.6542ZM8.89999 8.38417L7.29999 7.82411L5.16998 8.99403L7.06998 9.93422L8.89999 8.39418V8.38417ZM11.53 8.78407L7.85999 11.8842C7.55999 12.1442 7.12999 12.194 6.76999 12.014L2.56 9.93422C2.23 9.76422 2.01 9.43409 2 9.05409C2 8.68409 2.18999 8.33419 2.51999 8.15419L6.72998 5.85414C6.97998 5.71414 7.26998 5.69407 7.53998 5.78407L10.67 6.88417L14.32 3.80409C14.43 3.70409 14.57 3.63414 14.71 3.60414L20.74 2.03407C21.08 1.94407 21.44 2.03407 21.69 2.28407C21.94 2.52407 22.05 2.88401 21.97 3.22401L20.59 9.34413C20.55 9.51413 20.47 9.67409 20.34 9.80409L17.57 12.754L18.08 16.9142C18.11 17.1842 18.03 17.4642 17.86 17.6742L14.63 21.5941C14.39 21.8941 13.99 22.0242 13.62 21.9242C13.25 21.8342 12.96 21.5342 12.88 21.1542L11.96 16.6842L10.55 14.7741L8.53 16.7841C8.7 17.6641 8.78 19.2342 7.59 20.4242C6.94 21.0742 6.03999 21.4642 5.17999 21.6742C4.00999 21.9542 2.94998 21.9042 2.94998 21.9042C2.40998 21.8742 2 21.4342 2 20.9042C2 20.9042 2 19.844 2.31 18.704C2.53 17.864 2.91998 16.9942 3.53998 16.3842C4.65998 15.2642 6.23 15.2942 7.09 15.4142L11.94 10.5841L13.35 12.004L11.99 13.3641L12.99 14.724L18.71 8.65419L19.67 4.40419L15.45 5.50404L11.53 8.80409V8.78407Z" />
</svg>
