<svg width="24" height="24" viewBox="0 0 24 24" xmlns="http://www.w3.org/2000/svg">
<path d="M15.1182 17.8599C14.6382 18.5699 14.6282 19.4799 15.2282 19.8799C15.8282 20.2899 16.6682 19.93 17.1482 19.23C17.6282 18.52 17.6382 17.61 17.0382 17.21C16.4382 16.8 15.5982 17.1599 15.1182 17.8599ZM8.00818 16.2898C7.37818 15.8898 6.54817 15.9998 6.16817 16.5898C5.78817 17.1798 6.04818 17.9799 6.67818 18.3799C7.30818 18.7799 8.13818 18.6698 8.51818 18.0698C8.89818 17.4798 8.63818 16.6798 8.00818 16.2798V16.2898ZM10.2282 15.7798C10.8382 16.8198 10.8682 18.1099 10.2182 19.1399C9.26817 20.6399 7.21818 21.0798 5.61818 20.0698C4.01818 19.0598 3.53818 17.0198 4.47818 15.5198C5.34818 14.1398 7.16818 13.6599 8.69818 14.3899L10.7882 10.5L7.40817 4.31982L9.16817 3.35986L11.9182 8.38989L15.3482 2L17.1082 2.94995L13.0582 10.48L15.6182 15.1599C16.4882 14.9299 17.4082 15.0398 18.1482 15.5398C19.5782 16.5098 19.9382 18.6498 18.7982 20.3398C17.6582 22.0298 15.5382 22.4998 14.0982 21.5298C12.6682 20.5598 12.3082 18.42 13.4482 16.73C13.5782 16.53 13.7382 16.3499 13.8882 16.1799L11.9182 12.5798L10.2082 15.7698L10.2282 15.7798Z" />
</svg>
