<svg width="24" height="24" viewBox="0 0 24 24" xmlns="http://www.w3.org/2000/svg">
<path d="M11.6626 2C6.47542 2 2.00006 5.73669 2.00006 11.0999C2.00006 12.9139 2.64992 14.6363 3.90546 15.9086C5.16735 17.1873 6.98006 17.95 9.18751 17.95C11.2163 17.95 12.8966 17.1584 14.18 16.0319L20.3195 21.7328L21.6804 20.2672L15.5248 14.5513C16.6508 13.0017 17.275 11.1616 17.275 9.63746C17.275 7.67309 16.5072 6.22056 15.3033 5.37412C14.1324 4.55078 12.6639 4.38394 11.3949 4.73644L11.9302 6.66348C12.6862 6.45347 13.524 6.56788 14.153 7.01017C14.7491 7.42935 15.275 8.22682 15.275 9.63746C15.275 10.7819 14.7289 12.3915 13.6451 13.7148C12.5798 15.0154 11.0722 15.95 9.18751 15.95C7.4575 15.95 6.17649 15.3626 5.32901 14.5038C4.47519 13.6386 4.00006 12.436 4.00006 11.0999C4.00006 7.01321 7.39981 4 11.6626 4V2Z" />
</svg>
