<svg width="24" height="24" viewBox="0 0 24 24" xmlns="http://www.w3.org/2000/svg">
<path d="M10.9945 2.20185C11.3016 2.1068 11.6863 2 12 2C12.3136 2 12.6984 2.1068 13.0054 2.20185C13.3581 2.31103 13.7808 2.46247 14.238 2.63732C15.1548 2.98789 16.2601 3.45171 17.3195 3.91082C18.3811 4.37088 19.406 4.83042 20.165 5.17464C20.5447 5.34684 20.8582 5.49039 21.0771 5.59097C21.1865 5.64127 21.2723 5.68084 21.3308 5.70789L21.4207 5.74951C21.4207 5.74951 21.4212 5.74972 21 6.65671L20.5788 7.56368L20.4918 7.52339C20.4344 7.49688 20.3499 7.45789 20.2418 7.4082C20.0256 7.30881 19.7151 7.16667 19.3389 6.99606C18.5861 6.65464 17.572 6.20001 16.5242 5.74589C15.4742 5.29083 14.3999 4.84047 13.5237 4.5054C13.0844 4.33743 12.7073 4.2032 12.414 4.1124C12.1803 4.04006 12.0566 4.01404 12.013 4.00486C12.0073 4.00366 12.003 4.00276 12 4.00207C11.9969 4.00276 11.9926 4.00366 11.9869 4.00486C11.9433 4.01404 11.8197 4.04006 11.586 4.1124C11.2927 4.2032 10.9155 4.33743 10.4763 4.5054C9.60007 4.84047 8.52577 5.29083 7.47576 5.74589C6.42793 6.20001 5.41386 6.65464 4.66109 6.99606C4.41423 7.10802 4.19566 7.20772 4.01346 7.29112C4.13601 10.2095 5.08725 13.338 6.53613 15.7783C8.12342 18.4517 10.1121 20 12 20C12.8022 20 13.7255 19.4937 14.7338 18.4352C15.7195 17.4006 16.6439 15.9862 17.4465 14.5199C18.2443 13.0622 18.8979 11.5979 19.3531 10.4938C19.5802 9.94305 19.7567 9.48479 19.876 9.16559C19.9356 9.00604 19.9808 8.88141 20.0109 8.79751C20.0259 8.75557 20.0371 8.72383 20.0445 8.70301L20.0525 8.68007L20.0546 8.67397C20.0546 8.67397 20.0546 8.67409 21 9C21.9454 9.32591 21.9452 9.32638 21.9452 9.32638L21.9414 9.33732L21.9314 9.36584C21.9228 9.39043 21.9102 9.42607 21.8937 9.47202C21.8608 9.5639 21.8124 9.69708 21.7494 9.86566C21.6235 10.2027 21.4388 10.682 21.2021 11.2562C20.7297 12.4021 20.0451 13.9378 19.2009 15.4801C18.3614 17.0138 17.3397 18.5994 16.1819 19.8148C15.0468 21.0063 13.6294 22 12 22C9.02466 22 6.5133 19.6573 4.81641 16.7993C3.0867 13.8861 1.99999 10.1249 2 6.65671C2 6.26749 2.22583 5.91364 2.57884 5.74972L2.6692 5.70789C2.72774 5.68084 2.8135 5.64127 2.92293 5.59098C3.14176 5.49039 3.45532 5.34684 3.83499 5.17464C4.59393 4.83042 5.61892 4.37088 6.68046 3.91082C7.73981 3.45171 8.84519 2.98789 9.76193 2.63732C10.2192 2.46247 10.6418 2.31103 10.9945 2.20185Z" />
<path d="M17.1 9.29999L15.58 8H15.57L11.32 13L9.06 10.19L7.5 11.44L10.52 15.19C10.7 15.42 10.98 15.56 11.28 15.56C11.58 15.57 11.87 15.44 12.06 15.21L17.1 9.29999Z" />
</svg>
