<svg width="24" height="24" viewBox="0 0 24 24" xmlns="http://www.w3.org/2000/svg">
    <path fill-rule="evenodd"
        d="M8.64356 11.9989L5.14236 11.9051L5.13763 11.9044L5.11322 11.9002L5.08436 11.8949C4.33692 11.7537 3.69417 11.282 3.34544 10.6295C3.16776 10.297 3.06641 9.91759 3.06641 9.51098V6.42466C3.06641 4.63928 4.91353 3.55104 6.49252 4.17927L20.4551 9.7534C21.487 10.1659 22.0004 11.0827 22.0001 11.9989C22.0004 12.915 21.487 13.8318 20.4551 14.2443L6.49252 19.8185C4.91353 20.4467 3.06641 19.3584 3.06641 17.5731V14.4867C3.06641 14.0801 3.16776 13.7007 3.34544 13.3682C3.69417 12.7157 4.33692 12.2441 5.08436 12.1028L5.11322 12.0976L5.13763 12.0934L5.14236 12.0926L8.64356 11.9989ZM20.0001 11.9989C20.0001 11.9989 20.0001 11.9989 20.0001 11.999C19.9999 12.0862 19.975 12.1629 19.9375 12.2203C19.9058 12.2687 19.8473 12.3325 19.7171 12.3841L19.716 12.3846L19.7131 12.3857L19.7135 12.3869C19.7133 12.387 19.713 12.3871 19.7128 12.3872L5.75236 17.9605C5.59156 18.0241 5.40526 18.0047 5.25605 17.9103C5.18592 17.866 5.13986 17.8143 5.11251 17.7668C5.08813 17.7245 5.06641 17.6657 5.06641 17.5731V14.4867C5.06641 14.3902 5.09888 14.3059 5.1659 14.2303C5.22158 14.1675 5.2975 14.1164 5.38446 14.0868L8.79036 13.9956C9.87226 13.9667 10.7346 13.0824 10.7368 12.0005C10.7368 12.0006 10.7368 12.0006 10.7368 12.0006C10.7368 12 10.7368 11.9994 10.7368 11.9989C10.7368 11.9983 10.7368 11.9977 10.7368 11.9972C10.7368 11.9972 10.7368 11.9972 10.7368 11.9972C10.7346 10.9153 9.87226 10.031 8.79036 10.0021L5.38446 9.91091C5.2975 9.88136 5.22158 9.83022 5.1659 9.76743C5.09888 9.69185 5.06641 9.60755 5.06641 9.51098L5.06641 6.42466C5.06641 6.33202 5.08813 6.27324 5.11251 6.23094C5.13986 6.18347 5.18592 6.13172 5.25605 6.08738C5.40526 5.99305 5.59156 5.9736 5.75236 6.03727L19.7128 11.6105C19.713 11.6106 19.7133 11.6107 19.7135 11.6108L19.7131 11.612L19.716 11.6131L19.7171 11.6136C19.8473 11.6652 19.9058 11.729 19.9375 11.7774C19.975 11.8348 19.9999 11.9115 20.0001 11.9987C20.0001 11.9988 20.0001 11.9988 20.0001 11.9989ZM10.4841 11.9989C10.2744 11.9984 9.9575 11.9984 9.62425 11.9989C9.9575 11.9993 10.2744 11.9993 10.4841 11.9989Z" />
</svg>