<svg width="24" height="24" viewBox="0 0 24 24" xmlns="http://www.w3.org/2000/svg">
<path d="M9.86 14.9559L16.67 16.7459L17.28 6.24592L9.86 14.9559ZM11.84 17.556L9.17 16.8559L9.36 19.2059L11.84 17.556ZM14.84 6.03596L3.93001 11.7659L3 9.99592L18.01 2.11592C18.33 1.94592 18.71 1.96596 19.02 2.15596C19.32 2.35596 19.5 2.69598 19.48 3.05598L18.6 18.0959C18.58 18.3959 18.43 18.6759 18.19 18.8459C17.95 19.0259 17.64 19.0759 17.35 19.0059L14.44 18.2359L9.06 21.806C8.77 22.006 8.39001 22.0259 8.07001 21.8759C7.75001 21.7259 7.54001 21.406 7.51001 21.056L7.13 16.316L4.31 15.5759L4.82001 13.6459L7.73 14.416L14.86 6.05598L14.84 6.03596Z" />
</svg>
