<svg xmlns="http://www.w3.org/2000/svg" width="24" height="24" viewBox="0 0 24 24">
    <path
        d="M18.5 6c.828 0 1.5-.672 1.5-1.5S19.328 3 18.5 3 17 3.672 17 4.5 17.672 6 18.5 6zM22 4.5C22 6.433 20.433 8 18.5 8c-.962 0-1.833-.388-2.465-1.016L8.89 11.13c.071.278.109.57.109.87 0 .323-.044.635-.125.932l7.115 4.129C16.626 16.406 17.515 16 18.5 16c1.933 0 3.5 1.567 3.5 3.5S20.433 23 18.5 23 15 21.433 15 19.5c0-.227.022-.45.063-.665l-7.25-4.208c-.617.544-1.427.873-2.313.873C3.567 15.5 2 13.933 2 12s1.567-3.5 3.5-3.5c.91 0 1.738.347 2.36.916l7.216-4.188C15.026 4.993 15 4.75 15 4.5 15 2.567 16.567 1 18.5 1S22 2.567 22 4.5zM18.5 21c.828 0 1.5-.672 1.5-1.5s-.672-1.5-1.5-1.5-1.5.672-1.5 1.5.672 1.5 1.5 1.5zM7 12c0 .828-.672 1.5-1.5 1.5S4 12.828 4 12s.672-1.5 1.5-1.5S7 11.172 7 12z" />
</svg>