<svg xmlns="http://www.w3.org/2000/svg" width="24" height="24" viewBox="0 0 24 24">
    <path
        d="M18.5 8C20.433 8 22 6.433 22 4.5S20.433 1 18.5 1 15 2.567 15 4.5c0 .25.026.493.076.728L7.86 9.416C7.238 8.846 6.41 8.5 5.5 8.5 3.567 8.5 2 10.067 2 12s1.567 3.5 3.5 3.5c.886 0 1.696-.33 2.312-.873l7.251 4.208c-.041.215-.063.438-.063.665 0 1.933 1.567 3.5 3.5 3.5s3.5-1.567 3.5-3.5-1.567-3.5-3.5-3.5c-.985 0-1.874.406-2.51 1.06l-7.115-4.128c.081-.297.125-.61.125-.932 0-.3-.038-.592-.109-.87l7.144-4.146C16.667 7.612 17.538 8 18.5 8z" />
</svg>