<svg width="24" height="24" viewBox="0 0 24 24" xmlns="http://www.w3.org/2000/svg">
<path fill-rule="evenodd" d="M14.008 5.53509C14.0108 5.80514 14.047 6.07118 14.1128 6.32847C13.3201 6.7488 12.6495 7.06456 11.984 7.37791L11.984 7.37791L11.984 7.37791L11.9839 7.37797L11.9837 7.37803L11.9834 7.3782C11.7318 7.49667 11.4809 7.61479 11.2244 7.7381C10.1835 8.23855 9.10638 8.7997 7.64343 9.75904C6.97726 9.22712 6.11607 8.92711 5.18041 9.01497L5.18041 9.01494L5.17269 9.01573C3.19892 9.21652 1.86042 11.1464 2.01193 12.9959L2.01379 13.0161C2.08614 13.7227 2.34921 14.5345 3.00478 15.1481C3.6802 15.7802 4.62974 16.0697 5.79848 15.9857C5.81139 15.9848 5.82428 15.9836 5.83715 15.9822C6.54022 15.9042 7.30896 15.672 7.92473 15.1574C9.51862 16.071 10.5829 16.5516 11.5525 16.9364C11.8761 17.0649 12.1773 17.1785 12.4765 17.2913C12.9849 17.4831 13.4875 17.6727 14.0846 17.9292C14.009 18.2791 13.9827 18.639 14.0119 18.9959L14.0138 19.0161C14.0861 19.7227 14.3492 20.5345 15.0048 21.1481C15.6802 21.7802 16.6298 22.0697 17.7985 21.9857C17.8114 21.9848 17.8243 21.9836 17.8372 21.9822C18.5898 21.8987 19.4176 21.6386 20.0525 21.0443C20.716 20.4234 21.0574 19.5412 20.992 18.4644C20.9714 16.5402 19.2598 14.8197 17.1804 15.015L17.1804 15.0149L17.1727 15.0157C16.2976 15.1048 15.5473 15.5337 14.9964 16.1449C14.2829 15.8347 13.6826 15.6082 13.1223 15.3968L13.1223 15.3968L13.1221 15.3967C12.8377 15.2894 12.5637 15.186 12.2903 15.0775C11.4157 14.7304 10.4402 14.2932 8.9337 13.4305C8.99245 13.1295 9.01279 12.8068 8.99197 12.4644C8.98803 12.0949 8.92174 11.733 8.80249 11.3907C10.1467 10.5132 11.1299 10.0027 12.0911 9.54059C12.3272 9.42704 12.5652 9.31501 12.8091 9.20022L12.8092 9.20019C13.5055 8.87246 14.2498 8.5222 15.1357 8.04955C15.8266 8.69923 16.7768 9.08305 17.8196 8.98514L17.8196 8.98517L17.8273 8.98438C19.8011 8.78359 21.1396 6.85376 20.9881 5.00418C20.9502 4.54213 20.7954 3.76474 20.3055 3.10281C19.7639 2.37094 18.869 1.86707 17.6158 2.00615C16.8794 2.08787 15.9839 2.33908 15.2601 2.87786C14.502 3.44225 13.9372 4.33026 14.008 5.53509ZM17.6287 6.99426C16.7773 7.07168 16.0078 6.32648 16.0078 5.5007C16.0078 5.47797 16.0071 5.45526 16.0055 5.43259C15.9757 4.99536 16.1436 4.71348 16.4544 4.48216C16.8066 4.22 17.3269 4.05049 17.8364 3.99395C18.1269 3.96171 18.3046 4.00615 18.4127 4.05437C18.5224 4.1033 18.6151 4.18068 18.6979 4.2926C18.8824 4.54184 18.9733 4.90576 18.9947 5.16747C19.0696 6.08172 18.3718 6.91608 17.6287 6.99426ZM6.99216 12.4994C6.99216 11.6736 6.22266 10.9284 5.37134 11.0058C4.63081 11.0837 3.93536 11.9124 4.00448 12.8228C4.04663 13.2171 4.1793 13.508 4.37147 13.6879C4.54399 13.8493 4.89234 14.0419 5.63565 13.9922C6.1192 13.9357 6.47406 13.7824 6.68586 13.5841C6.86515 13.4163 7.03322 13.1349 6.99448 12.5675C6.99294 12.5448 6.99216 12.5221 6.99216 12.4994ZM18.9922 18.4994C18.9922 17.6736 18.2227 16.9284 17.3713 17.0058C16.6308 17.0837 15.9354 17.9124 16.0045 18.8228C16.0466 19.2171 16.1793 19.508 16.3715 19.6879C16.544 19.8493 16.8924 20.0419 17.6357 19.9922C18.1192 19.9357 18.4741 19.7824 18.6859 19.5841C18.8652 19.4163 19.0332 19.1349 18.9945 18.5675C18.9929 18.5448 18.9922 18.5221 18.9922 18.4994Z" />
</svg>
