<svg width="24" height="24" viewBox="0 0 24 24" xmlns="http://www.w3.org/2000/svg">
<path d="M10.6263 18.9406H13.9363L13.9963 16.2806H10.7463L10.6263 18.9406ZM18.8263 10.9206L5.95628 10.8906C5.90628 12.2406 5.65628 18.9406 5.65628 18.9406H8.62628L8.78628 15.2306C8.80628 14.7006 9.24628 14.2806 9.78628 14.2806H15.0163C15.2863 14.2806 15.5463 14.3906 15.7363 14.5806C15.9263 14.7706 16.0263 15.0306 16.0163 15.3006L15.9363 18.9406H18.8063L18.8363 10.9206H18.8263ZM3.95628 10.8805H2.99628C2.64628 10.8805 2.31628 10.6905 2.13628 10.3805C1.95628 10.0805 1.95628 9.70055 2.12628 9.39055L5.33628 3.60063C5.51628 3.28063 5.84628 3.08062 6.20628 3.08062L16.7663 3.00054C17.0563 2.99054 17.3463 3.12063 17.5363 3.35063L20.5963 6.93059L19.0763 8.23064L16.3163 5.00054L6.80628 5.08062L4.69628 8.88054L21.9463 8.93059V10.9306H20.8263L20.7963 19.9506C20.7963 20.5006 20.3463 20.9406 19.7963 20.9406H4.61628C4.34628 20.9406 4.08628 20.8306 3.89628 20.6406C3.70628 20.4406 3.60628 20.1806 3.61628 19.9106L3.95628 10.8805Z" />
</svg>
