<svg xmlns="http://www.w3.org/2000/svg" width="24" height="24" viewBox="0 0 24 24">
    <path
        d="M18.196 5.025c-.337-.337-.883-.337-1.22 0L14.72 7.28l1.995 2.005 1.912-1.911.348-.35c.338-.337.338-.883 0-1.22l-.779-.78zM15.3 10.7l-1.995-2.005-7.914 7.913c-.25.25-.391.59-.391.945V19h1.447c.354 0 .694-.14.944-.391l7.91-7.909zm-3.409-3.42l-7.914 7.914C3.352 15.819 3 16.668 3 17.553v1.863C3 20.291 3.71 21 4.584 21h1.863c.884 0 1.733-.351 2.358-.977L20.041 8.79l.349-.35c1.118-1.118 1.118-2.93 0-4.049l-.78-.78c-1.118-1.118-2.93-1.118-4.049 0l-2.255 2.256-.648-.647-.055-.042c-.357-.27-.947-.582-1.635-.677-.726-.099-1.596.047-2.317.767L5.293 8.625l1.414 1.415 3.358-3.358c.19-.19.389-.233.631-.2.253.035.502.154.654.257l.542.541zM14 19h7v2h-7v-2z" />
</svg>