<svg xmlns="http://www.w3.org/2000/svg" width="24" height="24" viewBox="0 0 24 24">
    <path
        d="M5.097 5.099C5.773 4.419 6.704 4 7.73 4c.675 0 1.304.178 1.845.49l.23.133.265.001c.508.002.89-.008 1.206-.018l.184-.007c.23-.008.408-.014.59-.014 2.061 0 3.926.839 5.279 2.2 1.355 1.362 2.191 3.242 2.191 5.322 0 .448-.038.886-.112 1.311l-.05.281.108.265c.468 1.16.636 1.823.636 2.487 0 1.043-.418 1.983-1.096 2.665-.677.68-1.608 1.1-2.636 1.1-.674 0-1.302-.179-1.845-.492l-.23-.132h-.265c-.508-.003-.89.007-1.206.018l-.183.006c-.23.009-.408.015-.59.015-2.06 0-3.926-.84-5.279-2.2-1.355-1.363-2.192-3.244-2.192-5.324 0-.447.038-.884.113-1.304l.05-.283-.108-.266C4.167 9.092 4 8.428 4 7.764c0-1.042.419-1.983 1.097-2.665zM7.73 2c-1.584 0-3.018.648-4.053 1.689C2.641 4.732 2 6.174 2 7.764c0 .978.244 1.868.678 2.978-.064.447-.097.904-.097 1.365 0 2.628 1.06 5.01 2.774 6.734 1.711 1.722 4.08 2.79 6.696 2.79.223 0 .445-.008.678-.016l.164-.006c.246-.009.527-.017.88-.018.781.4 1.665.624 2.598.624 1.584 0 3.019-.647 4.054-1.689 1.037-1.042 1.678-2.485 1.678-4.075 0-.98-.246-1.869-.679-2.976.064-.447.097-.904.097-1.368 0-2.627-1.06-5.01-2.773-6.733-1.712-1.721-4.08-2.79-6.697-2.79-.221 0-.443.009-.676.017l-.165.006c-.246.008-.527.016-.88.017C9.547 2.224 8.663 2 7.73 2zm4.236 4.667c-.732 0-1.68.117-2.483.555-.868.473-1.55 1.325-1.55 2.611 0 .619.165 1.178.543 1.634.36.435.836.682 1.276.842.437.16.929.264 1.39.355l.271.054c.39.076.775.152 1.177.252.868.217 1.158.385 1.269.495.042.043.14.143.14.702 0 .274-.123.53-.44.751-.337.236-.881.415-1.593.415-.988 0-1.611-.4-2.002-.79-.2-.201-.342-.403-.431-.552-.045-.074-.075-.133-.092-.168l-.016-.035-.001-.001c-.208-.507-.786-.753-1.296-.549-.513.205-.763.787-.557 1.3l.928-.371-.928.372v.001l.001.002.002.005.005.013c.004.009.01.02.015.034l.048.103c.04.083.098.193.176.323.154.257.392.597.732.937.693.693 1.803 1.376 3.416 1.376 1.02 0 1.993-.253 2.74-.776.766-.537 1.293-1.365 1.293-2.39 0-.742-.12-1.509-.726-2.116-.54-.54-1.333-.805-2.198-1.021-.457-.114-.904-.202-1.295-.278l-.249-.05c-.467-.092-.82-.172-1.095-.272-.272-.1-.377-.187-.42-.238-.025-.03-.084-.11-.084-.359 0-.447.184-.678.508-.855.39-.212.957-.311 1.526-.311.79 0 1.32.308 1.665.614.175.156.302.313.383.426.04.056.067.1.082.126.007.013.012.02.013.024.25.487.846.683 1.337.437.494-.247.694-.847.447-1.341L15 9.4l.894-.448V8.95l-.002-.002-.002-.005-.005-.01-.016-.03-.049-.086c-.04-.07-.098-.16-.173-.267-.15-.211-.375-.488-.687-.765-.631-.561-1.617-1.12-2.993-1.12z" />
</svg>