<svg width="24" height="24" viewBox="0 0 24 24" xmlns="http://www.w3.org/2000/svg">
<path d="M6.855 0C3.07687 0 0 3.03563 0 6.765C0 7.90875 0.298125 9.02437 0.855 10.02C0.72375 10.71 0.66 11.4206 0.66 12.12C0.66 18.36 5.79562 23.43 12.12 23.43C12.7688 23.43 13.4175 23.3869 14.055 23.28C15.0037 23.7544 16.0706 24 17.145 24C20.9231 24 24 20.9644 24 17.235C24 16.2337 23.7787 15.2775 23.355 14.385C23.5087 13.6481 23.595 12.8869 23.595 12.12C23.595 5.88188 18.4444 0.81 12.12 0.81C11.5256 0.81 10.9256 0.855 10.335 0.945C9.28125 0.328125 8.08687 0 6.855 0ZM12.045 4.5C13.0275 4.5 13.8881 4.60687 14.61 4.83C15.3337 5.05125 15.9469 5.34562 16.425 5.715C16.9088 6.08812 17.2781 6.48562 17.505 6.9C17.7337 7.31812 17.85 7.74375 17.85 8.145C17.85 8.53312 17.685 8.8725 17.385 9.18C17.085 9.4875 16.7081 9.645 16.26 9.645C15.8531 9.645 15.5363 9.55125 15.315 9.36C15.1088 9.18 14.8912 8.90625 14.655 8.505C14.3813 7.99125 14.0606 7.57312 13.68 7.29C13.3106 7.01437 12.6825 6.885 11.835 6.885C11.0475 6.885 10.4044 7.0275 9.93 7.335C9.47062 7.63125 9.255 7.98187 9.255 8.385C9.255 8.6325 9.33187 8.83687 9.48 9.015C9.6375 9.2025 9.84562 9.35812 10.125 9.495C10.4137 9.6375 10.7119 9.75937 11.01 9.84C11.3156 9.9225 11.8369 10.0538 12.54 10.215C13.4288 10.4044 14.2463 10.6031 14.97 10.83C15.7013 11.0625 16.3294 11.3531 16.845 11.685C17.37 12.0225 17.7938 12.4556 18.09 12.975C18.3862 13.4944 18.525 14.1319 18.525 14.88C18.5231 15.7725 18.2719 16.5825 17.76 17.295C17.25 18.0056 16.4981 18.5775 15.525 18.975C14.5612 19.3687 13.4044 19.56 12.09 19.56C10.5112 19.56 9.19125 19.2919 8.16 18.75C7.42125 18.3581 6.80437 17.8162 6.345 17.16C5.87625 16.4963 5.64 15.8456 5.64 15.21C5.64 14.8144 5.80125 14.4731 6.105 14.19C6.40687 13.9125 6.78562 13.77 7.245 13.77C7.62187 13.77 7.95563 13.8787 8.22 14.1C8.475 14.3119 8.69063 14.6269 8.865 15.03C9.06 15.4706 9.26812 15.8306 9.495 16.125C9.70875 16.4044 10.0144 16.6462 10.41 16.83C10.8075 17.0175 11.3531 17.115 12.015 17.115C12.9244 17.115 13.6613 16.9219 14.22 16.545C14.7675 16.1775 15.045 15.7369 15.045 15.195C15.045 14.7675 14.895 14.4225 14.61 14.16C14.31 13.8844 13.9163 13.6762 13.44 13.53C12.9394 13.3781 12.2681 13.2094 11.43 13.035C10.29 12.7931 9.32063 12.5025 8.55 12.18C7.76062 11.8481 7.125 11.3869 6.66 10.815C6.1875 10.2319 5.94 9.51375 5.94 8.655C5.94 7.83563 6.19312 7.08563 6.69 6.45C7.17937 5.82 7.89563 5.33063 8.82 4.995C9.73125 4.66125 10.8188 4.5 12.045 4.5Z" />
</svg>
