<svg width="24" height="24" viewBox="0 0 24 24" xmlns="http://www.w3.org/2000/svg">
<path d="M10.58 8.63989L12.58 8.71997L12.45 11.9299L13.81 11.2799L14.67 13.08L11.81 14.45C11.49 14.61 11.12 14.5799 10.83 14.3899C10.54 14.1899 10.37 13.86 10.38 13.51L10.58 8.63989ZM15.06 17.62C12.84 17.56 10.76 17.57 8.83002 17.63L8.81 20.0199H14.92L15.06 17.62ZM9.31 5.82996L15.11 5.88989V4H9.14001L9.31 5.82996ZM6.83002 17.72C6.62002 17.74 6.41001 17.75 6.20001 17.76C5.93001 17.78 5.65999 17.69 5.45999 17.5C5.25999 17.32 5.14001 17.0599 5.14001 16.7899L5 9.76001L7 9.71997L7.12 15.7C10.09 15.54 13.45 15.5399 17.16 15.6899C17.11 13.1199 17.12 10.7099 17.17 7.90991L5.25 7.78992L5.27002 5.78992L7.30002 5.80994L7.05002 3.09998C7.02002 2.81998 7.12 2.53996 7.31 2.32996C7.5 2.11996 7.77002 2 8.05002 2H16.12C16.67 2 17.12 2.45 17.12 3V5.90991H18.21C18.48 5.92991 18.73 6.03998 18.92 6.22998C19.11 6.41998 19.21 6.67994 19.2 6.93994C19.12 10.5399 19.1 13.44 19.19 16.7C19.19 16.98 19.09 17.2499 18.89 17.4399C18.69 17.6399 18.42 17.74 18.14 17.73C17.78 17.71 17.42 17.6999 17.06 17.6799L16.87 21.0699C16.84 21.5999 16.4 22.0199 15.87 22.0199H7.80002C7.53002 22.0199 7.28 21.91 7.09 21.72C6.9 21.53 6.80002 21.28 6.80002 21.01L6.83002 17.72Z" />
</svg>
