<svg width="24" height="24" viewBox="0 0 24 24" xmlns="http://www.w3.org/2000/svg">
    <path fill-rule="evenodd"
        d="M12 20C16.4183 20 20 16.4183 20 12C20 7.58172 16.4183 4 12 4C7.58172 4 4 7.58172 4 12C4 16.4183 7.58172 20 12 20ZM12 22C17.5228 22 22 17.5228 22 12C22 6.47715 17.5228 2 12 2C6.47715 2 2 6.47715 2 12C2 17.5228 6.47715 22 12 22Z" />
    <path fill-rule="evenodd"
        d="M9.0941 11.7507C9.42719 13.0449 10.6031 14 11.9996 14C13.3962 14 14.5721 13.0449 14.9052 11.7507L16.8421 12.2492C16.2871 14.4056 14.3308 16 11.9996 16C9.66848 16 7.71222 14.4056 7.15723 12.2492L9.0941 11.7507Z" />
    <circle cx="8.5" cy="8.5" r="1.5" />
    <circle cx="15.5" cy="8.5" r="1.5" />
</svg>