<svg width="24" height="24" viewBox="0 0 24 24" xmlns="http://www.w3.org/2000/svg">
<path d="M12.43 17.34L12.38 15.34L16.83 15.22L16.88 17.22L12.43 17.34ZM12.48 12.4399L12.32 10.45C14.86 10.25 16.81 10.23 18.95 9.95996L19.21 11.9399C17.04 12.2199 15.06 12.24 12.49 12.45L12.48 12.4399ZM12.51 7.53992L12.28 5.54993C15.75 5.14993 18.44 5.20001 21.99 5.51001L21.82 7.5C18.42 7.21 15.83 7.15992 12.51 7.53992ZM4.56 8.55994L3.5 9.77002L2 8.44995L4.73 5.33997C4.91 5.12997 5.17999 5.01 5.45999 5C5.73999 5 6.01 5.09994 6.2 5.30994L9.25 8.47998L7.81 9.87C7.81 9.87 7.15999 9.19994 6.54999 8.55994C6.50999 12.2599 6.53999 15.52 6.62999 18.27L4.62999 18.34C4.52999 15.58 4.50999 12.2899 4.53999 8.56995L4.56 8.55994Z" />
</svg>
