<svg width="24" height="24" viewBox="0 0 24 24" xmlns="http://www.w3.org/2000/svg">
<path d="M13.91 5L13.95 3L19.27 3.08997C19.66 3.08997 20.01 3.32993 20.17 3.67993C20.33 4.02993 20.27 4.44999 20.02 4.73999L16.94 8.30994L21.42 8.64001L21.27 10.63L14.81 10.15C14.43 10.12 14.1 9.88004 13.96 9.54004C13.81 9.19004 13.88 8.79 14.13 8.5L17.11 5.04004L13.92 4.97998L13.91 5ZM18.39 18.25L17.74 16.61L16.67 18.02L18.39 18.25ZM15.28 19.85L14.68 20.64L13.09 19.4299L17.22 13.98C17.44 13.69 17.79 13.55 18.15 13.59C18.51 13.64 18.81 13.88 18.95 14.21L21.45 20.47L19.59 21.21L19.25 20.36L15.29 19.83L15.28 19.85ZM5.73001 6.53003L4.48999 7.92004L3 6.58997L5.89999 3.32996C6.07999 3.11996 6.35 3 6.62 3C6.9 3 7.16999 3.10005 7.35999 3.30005L10.6 6.62L9.17001 8.02002C9.17001 8.02002 8.40999 7.25005 7.73999 6.55005C7.68999 12.11 7.71001 16.99 7.82001 21.04L5.82001 21.09C5.71001 17.01 5.68999 12.11 5.73999 6.52002L5.73001 6.53003Z" />
</svg>
