<svg width="24" height="24" viewBox="0 0 24 24" xmlns="http://www.w3.org/2000/svg">
<path d="M12.36 7.34998L12.41 5.34998L16.86 5.47009L16.81 7.47009L12.36 7.34998ZM12.31 12.23L12.47 10.24C15.04 10.45 17.02 10.47 19.19 10.75L18.93 12.73C16.79 12.45 14.84 12.44 12.31 12.24V12.23ZM12.28 17.12L12.51 15.13C15.83 15.51 18.38 15.4801 21.78 15.1901L21.95 17.1801C18.41 17.4901 15.75 17.51 12.28 17.11V17.12ZM4.56 8.57007L3.5 9.77002L2 8.45007L4.73 5.34009C4.91 5.13009 5.18001 5.01 5.46001 5C5.74001 5 6.01 5.10006 6.2 5.31006L9.25 8.47998L7.81 9.87L6.55 8.57007C6.51 12.2701 6.54 15.53 6.63 18.26L4.63 18.3301C4.53 15.5701 4.51 12.2901 4.55 8.58008L4.56 8.57007Z" />
</svg>
