<svg width="24" height="24" viewBox="0 0 24 24" xmlns="http://www.w3.org/2000/svg">
<path d="M16.05 5.94001L14.91 4.3L17.97 2.18C18.27 1.97 18.67 1.93993 18.99 2.10993C19.32 2.27993 19.53 2.60993 19.54 2.97993L19.74 10.65L17.74 10.7L17.59 4.87995L16.05 5.95002V5.94001ZM19.35 16.38C19.37 16.22 19.38 16.06 19.38 15.89C19.38 14.87 18.75 14.0899 17.81 14.0899C17.28 14.0899 16.95 14.5599 16.95 15.0899C16.95 15.7899 17.75 16.54 19.35 16.39V16.38ZM18.37 18.38C15.94 18.15 14.96 16.33 14.96 15.08C14.96 13.41 16.14 12.08 17.82 12.08C19.87 12.08 21.39 13.66 21.39 15.88C21.39 17.61 20.77 18.96 19.68 19.9C18.64 20.79 17.14 21.3 15.24 21.3V19.3C16.57 19.3 17.65 19 18.37 18.38ZM7.79 17.52L8.94 16.2199L10.43 17.55L7.61 20.7199C7.43 20.9299 7.16 21.05 6.89 21.06C6.61 21.06 6.35 20.96 6.15 20.76L3 17.53L4.43 16.13L5.77 17.51C5.82 11.92 5.8 6.43995 5.69 2.49995L7.69 2.45002C7.79 6.40002 7.82 11.91 7.77 17.53L7.79 17.52Z" />
</svg>
