<svg width="24" height="24" viewBox="0 0 24 24" xmlns="http://www.w3.org/2000/svg">
<path d="M19.35 16.38C19.37 16.22 19.38 16.06 19.38 15.89C19.38 14.87 18.75 14.0899 17.81 14.0899C17.28 14.0899 16.95 14.5599 16.95 15.0899C16.95 15.7899 17.75 16.54 19.35 16.39V16.38ZM18.37 18.38C15.94 18.15 14.95 16.33 14.95 15.08C14.95 13.41 16.13 12.08 17.81 12.08C19.86 12.08 21.38 13.66 21.38 15.88C21.38 17.61 20.76 18.96 19.67 19.9C18.63 20.79 17.13 21.3 15.23 21.3V19.3C16.56 19.3 17.64 19 18.37 18.38ZM16.05 5.94001L14.91 4.3L17.97 2.18C18.27 1.97 18.67 1.93993 18.99 2.10993C19.32 2.27993 19.53 2.60993 19.54 2.97993L19.74 10.65L17.74 10.7L17.59 4.87995L16.05 5.95002V5.94001ZM5.64 6.00996L4.49001 7.31001L3 5.97993L5.81001 2.81001C5.99001 2.60001 6.26 2.47992 6.53 2.46992C6.81 2.46992 7.07 2.56997 7.27 2.76997L10.42 5.98994L8.99001 7.38996L7.65 6.00996C7.6 11.6 7.62 17.08 7.73 21.02L5.73 21.07C5.63 17.12 5.6 11.6099 5.65 5.98994L5.64 6.00996Z" />
</svg>
