<svg width="24" height="24" viewBox="0 0 24 24" xmlns="http://www.w3.org/2000/svg">
<path d="M15.49 17.22L14.35 15.5801L17.41 13.4601C17.71 13.2501 18.1 13.22 18.43 13.39C18.76 13.56 18.97 13.89 18.98 14.26L19.18 21.9301L17.18 21.98L17.03 16.16L15.49 17.23V17.22ZM18.72 7.30005C18.74 7.14005 18.75 6.98006 18.75 6.81006C18.75 5.79006 18.12 5.01001 17.18 5.01001C16.65 5.01001 16.32 5.48001 16.32 6.01001C16.32 6.71001 17.12 7.46006 18.72 7.31006V7.30005ZM17.74 9.30005C15.31 9.07005 14.33 7.25 14.33 6C14.33 4.32 15.51 3 17.19 3C19.24 3 20.76 4.58005 20.76 6.80005C20.76 8.53005 20.14 9.88006 19.05 10.8101C18.01 11.7001 16.51 12.2101 14.61 12.2101V10.2101C15.94 10.2101 17.02 9.91004 17.74 9.29004V9.30005ZM7.67 17.9601L8.73 16.77L10.22 18.1L7.5 21.16C7.32 21.37 7.05 21.49 6.78 21.5C6.5 21.5 6.22999 21.4001 6.03999 21.2001L3 18.0901L4.42999 16.6901L5.67 17.9601C5.71 12.5901 5.69 7.30001 5.59 3.51001L7.59 3.46008C7.69 7.26008 7.71 12.5701 7.67 17.9601Z" />
</svg>
