<svg width="24" height="24" viewBox="0 0 24 24" xmlns="http://www.w3.org/2000/svg">
<path d="M12.31 7L12.36 5L16.84 5.10999L16.79 7.10999L12.31 7ZM12.25 11.86L12.41 9.87C15 10.08 16.99 10.09 19.17 10.37L18.92 12.35C16.77 12.07 14.81 12.06 12.25 11.86ZM12.22 16.72L12.44 14.73C15.79 15.11 18.29 15.15 21.71 14.86L21.88 16.85C18.31 17.15 15.7 17.11 12.22 16.71V16.72ZM6.62 15.33L7.7 14.12L9.19 15.45L6.44 18.54C6.25 18.75 5.99 18.87 5.7 18.88C5.42 18.88 5.14999 18.7701 4.95999 18.5601L2 15.37L3.47 14.01L4.62 15.25C4.65 11.61 4.62999 8.39995 4.53999 5.69995L6.53999 5.63C6.63999 8.37 6.66001 11.64 6.63 15.34L6.62 15.33Z" />
</svg>
