<svg width="24" height="24" viewBox="0 0 24 24" xmlns="http://www.w3.org/2000/svg">
<path d="M13.99 15.8867L14.03 13.8867L19.39 13.9867C19.78 13.9867 20.13 14.2267 20.29 14.5767C20.45 14.9267 20.39 15.3467 20.14 15.6367L17.03 19.2467L21.56 19.5767L21.41 21.5666L14.9 21.0867C14.52 21.0567 14.19 20.8267 14.05 20.4767C13.91 20.1267 13.97 19.7268 14.22 19.4368L17.23 15.9466L14 15.8867H13.99ZM5.75 6.53674L4.48999 7.95666L3 6.6267L5.91998 3.34667C6.09998 3.13667 6.36998 3.01671 6.63998 3.00671C6.91998 3.00671 7.18997 3.10676 7.37997 3.30676L10.64 6.64672L9.20999 8.04675L7.75 6.55676C7.7 12.1568 7.71999 17.0868 7.82999 21.1768L5.82999 21.2267C5.71999 17.1167 5.7 12.1667 5.75 6.53674ZM18.52 7.66674L17.87 6.02673L16.8 7.43676L18.52 7.66674ZM15.4 9.26672L14.8 10.0568L13.21 8.84667L17.34 3.39672C17.56 3.10672 17.91 2.96671 18.27 3.00671C18.63 3.05671 18.93 3.2967 19.06 3.6267L21.56 9.88671L19.7 10.6267L19.36 9.77673L15.4 9.2467V9.26672Z" />
</svg>
