<svg width="24" height="24" viewBox="0 0 24 24" xmlns="http://www.w3.org/2000/svg">
<path d="M13.89 4L13.93 2L19.25 2.08997C19.64 2.08997 19.99 2.32993 20.15 2.67993C20.31 3.02993 20.25 3.44999 20 3.73999L16.92 7.30994L21.4 7.64001L21.25 9.63L14.79 9.15002C14.41 9.12002 14.09 8.88004 13.94 8.54004C13.79 8.19004 13.86 7.79 14.11 7.5L17.09 4.04004L13.9 3.97998L13.89 4ZM18.37 17.25L17.72 15.61L16.65 17.02L18.37 17.25ZM15.26 18.85L14.66 19.64L13.07 18.4299L17.2 12.98C17.42 12.69 17.77 12.55 18.13 12.59C18.49 12.64 18.79 12.88 18.93 13.21L21.43 19.47L19.57 20.21L19.23 19.36L15.27 18.83L15.26 18.85ZM7.87 17.54L9.10999 16.15L10.6 17.48L7.70001 20.74C7.52001 20.95 7.25001 21.07 6.98001 21.08C6.70001 21.08 6.42999 20.98 6.23999 20.78L3 17.46L4.42999 16.0599C4.42999 16.0599 5.18999 16.83 5.85999 17.53C5.90999 11.97 5.89 7.09004 5.78 3.04004L7.78 2.98999C7.89 7.06999 7.90999 11.9699 7.85999 17.5599L7.87 17.54Z" />
</svg>
