<svg width="24" height="24" viewBox="0 0 24 24" xmlns="http://www.w3.org/2000/svg">
<path d="M12.4 17.4182L12.35 15.4182L16.79 15.2982L16.84 17.2982L12.4 17.4182ZM12.45 12.3982L12.29 10.4082C14.82 10.1982 16.77 10.1882 18.9 9.89816L19.16 11.8781C16.99 12.1681 15.02 12.1782 12.45 12.3982ZM12.49 7.37814L12.26 5.38815C15.72 4.97815 18.43 4.86819 21.97 5.17819L21.79 7.16818C18.4 6.86818 15.8 6.97813 12.49 7.36813V7.37814ZM6.71001 15.7982L7.75 14.5782L9.27 15.8781L6.53999 19.0682C6.35999 19.2882 6.09 19.4082 5.8 19.4182C5.51 19.4182 5.24 19.3082 5.05 19.0982L2 15.8482L3.46001 14.4782L4.7 15.8082C4.74 12.0082 4.71 8.65822 4.62 5.83822L6.62 5.76815C6.72 8.59815 6.74 11.9682 6.7 15.7882L6.71001 15.7982Z" />
</svg>
