<svg width="24" height="24" viewBox="0 0 24 24" xmlns="http://www.w3.org/2000/svg">
<path d="M13.96 14.8867L14 12.8867L19.36 12.9867C19.75 12.9867 20.1 13.2267 20.26 13.5767C20.42 13.9267 20.36 14.3467 20.11 14.6367L17 18.2467L21.53 18.5767L21.38 20.5666L14.87 20.0867C14.49 20.0567 14.16 19.8267 14.02 19.4767C13.88 19.1267 13.94 18.7268 14.19 18.4368L17.2 14.9466L13.97 14.8867H13.96ZM7.89001 17.6768L9.14999 16.2567L10.64 17.5867L7.72 20.8667C7.54 21.0767 7.27 21.1967 7 21.2067C6.72 21.2067 6.45001 21.1067 6.26001 20.9067L3 17.5666L4.42999 16.1667L5.89001 17.6567C5.94001 12.0567 5.92 7.12674 5.81 3.03674L7.81 2.98669C7.92 7.09669 7.94001 12.0468 7.89001 17.6768ZM18.49 6.66674L17.84 5.02673L16.77 6.43676L18.49 6.66674ZM15.38 8.26672L14.78 9.05676L13.19 7.84667L17.32 2.39672C17.54 2.10672 17.89 1.96671 18.25 2.00671C18.61 2.05671 18.91 2.2967 19.05 2.6267L21.55 8.88671L19.69 9.6267L19.35 8.77673L15.39 8.2467L15.38 8.26672Z" />
</svg>
