<svg width="24" height="24" viewBox="0 0 24 24" xmlns="http://www.w3.org/2000/svg">
<path d="M11.9999 0C5.37269 0 0 5.37255 0 11.9998C0 18.6273 5.37269 23.9994 11.9999 23.9994C18.6279 23.9994 24 18.6273 24 11.9998C24 5.37298 18.6279 0.000573176 11.9998 0.000573176L11.9999 0ZM17.503 17.3071C17.2881 17.6596 16.8267 17.7714 16.4742 17.555C13.6567 15.8341 10.1099 15.4443 5.93283 16.3986C5.53032 16.4904 5.12909 16.2382 5.03738 15.8355C4.94524 15.4328 5.19644 15.0316 5.59996 14.9399C10.1711 13.8956 14.092 14.3452 17.2551 16.2783C17.6076 16.4947 17.7194 16.9546 17.503 17.3071ZM18.9718 14.0397C18.701 14.4799 18.1249 14.6189 17.685 14.3481C14.4594 12.3655 9.54257 11.7913 5.72735 12.9494C5.23255 13.0989 4.70995 12.82 4.55978 12.3261C4.41075 11.8313 4.68975 11.3097 5.18369 11.1592C9.54171 9.83689 14.9595 10.4774 18.6637 12.7537C19.1036 13.0245 19.2426 13.6004 18.9718 14.0397ZM19.0979 10.6373C15.2304 8.34018 8.84945 8.12897 5.15689 9.24967C4.56394 9.42951 3.93688 9.09477 3.75719 8.50182C3.5775 7.90858 3.91195 7.28195 4.50533 7.10169C8.74413 5.8149 15.7906 6.06352 20.2434 8.70687C20.7779 9.02341 20.9527 9.71223 20.636 10.2449C20.3208 10.7782 19.6301 10.954 19.0985 10.6373H19.0979Z" />
</svg>
