<svg width="24" height="24" viewBox="0 0 24 24" xmlns="http://www.w3.org/2000/svg">
<path d="M12.4438 2.26965C12.3594 2.10705 12.1928 2.00363 12.0097 2.00009C11.8265 1.99656 11.6561 2.09348 11.5654 2.25271C10.257 4.55205 9.58792 5.96708 8.85895 8.16441C8.78882 8.37578 8.59041 8.52316 8.36222 8.52872C5.56976 8.59686 3.31105 9.0371 2.30155 9.44648C2.15438 9.50616 2.04431 9.6322 2.00501 9.78607C1.9657 9.93994 2.00182 10.1033 2.10233 10.2263C3.52162 11.9625 4.67006 13.1627 6.57004 14.5882C6.72007 14.7008 6.78614 14.8654 6.76683 15.0111C6.65014 15.8919 6.42681 16.7075 6.20196 17.5287C6.1531 17.7072 6.10418 17.8858 6.05625 18.0655C5.79284 19.0532 5.56154 20.0671 5.62301 21.1193C5.63251 21.2819 5.72062 21.4297 5.85916 21.5154C5.99769 21.6011 6.16928 21.6139 6.31902 21.5498C6.42539 21.5042 6.53914 21.456 6.65945 21.4049C7.9634 20.8516 10.0378 19.9714 11.8376 18.6693C12.0047 18.5483 12.1779 18.5416 12.293 18.6002C12.7115 18.8133 13.1304 19.0791 13.6173 19.3881L13.6174 19.3881C13.8896 19.5608 14.183 19.747 14.5095 19.945C15.3968 20.4831 16.4611 21.0629 17.8293 21.5601C17.9877 21.6177 18.1644 21.5916 18.2994 21.4907C18.4344 21.3898 18.5095 21.2277 18.4991 21.0595C18.423 19.8229 18.1115 18.6901 17.8179 17.665L17.7695 17.4964C17.4897 16.5217 17.2438 15.665 17.1899 14.8398C17.1841 14.7504 17.2148 14.6589 17.2804 14.5854C17.4936 14.3463 17.7627 14.072 18.0708 13.7578C18.9865 12.8242 20.2476 11.5384 21.4167 9.77644C21.5133 9.63085 21.5269 9.4454 21.4526 9.28728C21.3782 9.12917 21.2268 9.02132 21.053 9.00281C20.0536 8.89636 19.1271 8.8858 18.2428 8.88468L17.9369 8.88454H17.9369C17.1588 8.8845 16.4151 8.88446 15.6536 8.82838C15.4843 8.81592 15.3248 8.6988 15.256 8.51296C14.3547 6.07853 13.6536 4.60033 12.4438 2.26965Z" />
</svg>
