<svg width="24" height="24" viewBox="0 0 24 24" xmlns="http://www.w3.org/2000/svg">
<path d="M12.4056 15.1829L13.5556 16.8129L6.47561 21.7929C6.12561 22.0429 5.64561 22.0429 5.30561 21.7829C4.95561 21.5229 4.81561 21.0729 4.95561 20.6629L7.09561 14.2428C5.57561 13.4228 4.0356 12.8029 2.4356 11.7029C2.1156 11.4829 1.9456 11.0929 2.0156 10.7029C2.0856 10.3229 2.37561 10.0029 2.75561 9.91287L8.6256 8.41287C9.2356 6.82287 9.89561 4.74289 10.5656 2.68289C10.6856 2.30289 11.0356 2.03283 11.4356 2.00283C11.8356 1.97283 12.2156 2.18287 12.4056 2.54287L15.1356 7.8229L20.9656 8.05288C21.3556 8.07288 21.7056 8.31288 21.8456 8.67288C21.9956 9.03288 21.9256 9.44281 21.6556 9.73281C20.0356 11.4928 18.7256 12.8729 17.4456 14.0829L20.6456 20.5329C20.8256 20.9029 20.7656 21.3328 20.4956 21.6428C20.2256 21.9428 19.7956 22.0529 19.4156 21.9229L12.8256 19.5929L13.4956 17.7029L17.7656 19.2129L15.3356 14.3029C15.1356 13.9129 15.2256 13.4228 15.5556 13.1228C16.5656 12.1928 17.5756 11.1829 18.7256 9.96292L14.4856 9.80288C14.1256 9.78288 13.8056 9.58284 13.6356 9.26284L11.7356 5.58291C11.2356 7.09291 10.7556 8.50284 10.3056 9.63284C10.1856 9.92284 9.9356 10.1529 9.6256 10.2229L5.6056 11.2528C6.6956 11.8128 7.7656 12.2929 8.8256 12.9129C9.2256 13.1529 9.4156 13.6429 9.2656 14.0929L7.8256 18.4129L12.4256 15.1829H12.4056Z" />
</svg>
