<svg xmlns="http://www.w3.org/2000/svg" width="24" height="24" viewBox="0 0 24 24">
    <path
        d="M12 4.527L9.877 9.56l-5.44.465 4.133 3.597-1.239 5.337 4.67-2.832 4.668 2.832-1.238-5.337 4.133-3.597-5.44-.465L12 4.527zm-1.382-1.87c.516-1.222 2.249-1.222 2.764 0l2.115 5.013 5.413.462c1.32.113 1.856 1.756.857 2.626l-4.116 3.583 1.235 5.323c.3 1.293-1.105 2.31-2.24 1.62L12 18.467l-4.646 2.819c-1.135.689-2.54-.329-2.24-1.622l1.236-5.322-4.116-3.583c-1-.87-.463-2.513.857-2.626l5.413-.462 2.114-5.012z" />
</svg>