<svg xmlns="http://www.w3.org/2000/svg" width="24" height="24" viewBox="0 0 24 24">
    <path
        d="M8.651 7.783l2.124-4.979c.135-.316.389-.567.708-.7.677-.283 1.457.031 1.742.7l2.123 4.979 5.435.459c.345.029.663.19.89.447.482.547.424 1.378-.13 1.855l-4.132 3.558 1.24 5.286c.078.334.021.685-.159.979-.38.62-1.198.819-1.826.442L12 18.01l-4.667 2.8c-.296.178-.652.234-.99.157-.715-.165-1.16-.871-.994-1.579l1.24-5.285-4.132-3.558c-.26-.224-.423-.54-.452-.88-.063-.724.48-1.36 1.212-1.422l5.434-.46z" />
</svg>