<svg width="24" height="24" viewBox="0 0 24 24" xmlns="http://www.w3.org/2000/svg">
<path d="M10.8526 12.1903L10.3126 14.1204L5.73262 12.8303C5.33262 12.7103 5.04262 12.3603 5.00262 11.9403C4.97262 11.5203 5.20262 11.1303 5.59262 10.9503L9.34262 9.26024L11.0826 2.74035C11.2026 2.30035 11.6026 1.99024 12.0626 2.00024C12.5226 2.00024 12.9126 2.31024 13.0226 2.76024L14.6126 9.22033L18.4426 10.9603C18.7826 11.1203 19.0026 11.4503 19.0226 11.8203C19.0426 12.1903 18.8526 12.5403 18.5326 12.7303L14.6026 15.0803L12.9126 21.2602C12.7926 21.7002 12.3826 22.0003 11.9226 21.9903C11.4626 21.9803 11.0726 21.6603 10.9726 21.2103L9.59262 15.1503L11.5426 14.7103L12.0326 16.8704L12.7726 14.1603C12.8426 13.9103 13.0026 13.7003 13.2226 13.5703L15.8526 11.9903L13.3126 10.8303C13.0326 10.7103 12.8326 10.4603 12.7526 10.1603L11.9726 7.01024L11.1126 10.2303C11.0326 10.5203 10.8326 10.7602 10.5626 10.8902L8.88262 11.6503L10.8126 12.1903H10.8526Z" />
</svg>
