<svg width="24" height="24" viewBox="0 0 24 24" xmlns="http://www.w3.org/2000/svg">
<path d="M12.0193 1.50019C12.3856 1.50725 12.7187 1.7141 12.8875 2.0393C14.1044 4.3836 14.8137 5.87912 15.7222 8.33209C16.4458 8.38392 17.1654 8.38455 17.9371 8.38455H17.956C18.9245 8.38455 19.9691 8.38454 21.1059 8.50562C21.4534 8.54263 21.7564 8.75833 21.905 9.07457C22.0537 9.3908 22.0265 9.7617 21.8333 10.0529C20.9508 11.3829 20.0341 12.429 19.2442 13.2637C18.9277 13.5982 18.6485 13.8824 18.4033 14.1321C18.1246 14.416 17.8896 14.6552 17.6933 14.873C17.7496 15.5955 17.9681 16.3769 18.2431 17.334L18.2554 17.3769C18.5599 18.4366 18.9146 19.6712 18.9982 21.0288C19.0189 21.3652 18.8687 21.6894 18.5987 21.8912C18.3287 22.0929 17.9753 22.1452 17.6585 22.03C16.0659 21.4513 14.8743 20.7638 13.9089 20.1627C13.7029 20.0344 13.5128 19.9141 13.3354 19.8018C12.8645 19.5038 12.4826 19.2621 12.1274 19.0765C10.2752 20.415 8.15576 21.3137 6.85912 21.8634C6.73711 21.9151 6.62238 21.9638 6.51585 22.0094C6.21638 22.1377 5.87321 22.112 5.59613 21.9407C5.31906 21.7693 5.14283 21.4737 5.12384 21.1485C5.05209 19.9203 5.35096 18.7514 5.63992 17.6889C5.66463 17.598 5.68933 17.5077 5.71391 17.4179C5.93896 16.5953 6.15331 15.8118 6.26596 14.9851C4.33159 13.5332 3.156 12.3053 1.71519 10.5427C1.51417 10.2968 1.44192 9.97004 1.52054 9.66231C1.59916 9.35458 1.81929 9.10249 2.11362 8.98313C3.20044 8.5424 5.53385 8.0952 8.37733 8.02824C9.12009 5.7859 9.80159 4.34129 11.1309 2.00541C11.3121 1.68696 11.6529 1.49312 12.0193 1.50019ZM11.9661 4.63959C11.1549 6.19289 10.6572 7.43145 10.0618 9.32028C9.9306 9.73656 9.54455 10.0196 9.10808 10.0196C7.12542 10.0196 5.43506 10.2211 4.26435 10.456C5.31473 11.6358 6.3399 12.5751 7.90739 13.7105C8.18886 13.9144 8.34429 14.2498 8.3179 14.5963C8.22399 15.8295 7.91575 16.9526 7.64783 17.9287C7.62135 18.0251 7.59527 18.1202 7.56982 18.2137C7.44312 18.6797 7.33272 19.1077 7.25219 19.513C8.54341 18.9344 10.0793 18.163 11.3801 17.1353C11.6577 16.916 12.0306 16.8597 12.3606 16.9873C13.067 17.2604 13.7791 17.7128 14.4879 18.1631C14.6475 18.2645 14.8069 18.3658 14.9661 18.4649C15.4954 18.7944 16.075 19.1379 16.7444 19.4683C16.6236 18.9429 16.4743 18.4206 16.3208 17.8863L16.3024 17.8223C16.0054 16.789 15.6792 15.6539 15.6792 14.5204C15.6792 14.2924 15.7571 14.0712 15.9 13.8935C16.1933 13.5289 16.6211 13.0922 17.0811 12.6227C17.3141 12.3849 17.5554 12.1386 17.7916 11.889C18.21 11.4469 18.6559 10.9526 19.1075 10.3918C18.7183 10.3847 18.3305 10.3846 17.9371 10.3846H17.9131C16.9492 10.3846 15.9426 10.3846 14.8853 10.2625C14.5082 10.219 14.1883 9.96574 14.0594 9.60875C13.3202 7.56166 12.7504 6.22881 11.9661 4.63959Z" />
</svg>
