<svg width="24" height="24" viewBox="0 0 24 24" xmlns="http://www.w3.org/2000/svg">
<path d="M17.91 16.4402L19.32 14.3301L16.4 13.74L17.91 16.4402ZM19.98 12.4202V6H4V17.3501H16.13L13.6 12.8101C13.41 12.4701 13.43 12.05 13.67 11.73C13.9 11.41 14.29 11.2601 14.68 11.3401L19.99 12.4102L19.98 12.4202ZM21.98 5V13.6401C21.98 13.8401 21.92 14.0302 21.81 14.2002L18.66 18.9102C18.47 19.1902 18.16 19.3501 17.83 19.3501H3C2.45 19.3501 2 18.9001 2 18.3501V5C2 4.45 2.45 4 3 4H20.98C21.53 4 21.98 4.45 21.98 5Z" />
</svg>
