<svg width="24" height="24" viewBox="0 0 24 24" xmlns="http://www.w3.org/2000/svg">
<path d="M10.3203 9.8493L12.3203 9.86932L12.2803 13.3193L14.4703 13.1293L14.6403 15.1193L11.3503 15.4094C11.0703 15.4294 10.7903 15.3394 10.5803 15.1494C10.3703 14.9594 10.2603 14.6894 10.2603 14.4094L10.3103 9.8493H10.3203ZM13.8003 5.04938C16.6503 5.62938 18.5903 7.59939 19.3503 10.8094L17.4003 11.2794C16.7003 8.35936 14.6903 6.82932 11.7403 6.86932C8.02032 6.92932 5.03032 9.4693 5.00032 13.0993C4.97032 17.2093 7.81031 19.7893 11.1203 19.9793C13.1503 20.0893 14.7303 19.6593 15.9203 18.8193C17.7003 17.5593 18.5603 15.4393 18.7703 13.1393L20.7603 13.3193C20.5003 16.2293 19.3203 18.8693 17.0703 20.4593C15.5703 21.5193 13.5803 22.1193 11.0103 21.9793C6.70031 21.7393 2.96032 18.4293 3.00032 13.0893C3.04032 8.56929 6.51032 5.27936 11.0203 4.90936L11.0403 4.03937C10.3703 4.10937 9.69031 4.23938 9.04031 4.42938L8.48031 2.50934C11.2103 1.71934 14.1503 1.77938 16.6003 3.17938L15.6103 4.91937C15.0903 4.61937 14.5503 4.40934 13.9903 4.25934L13.8003 5.06927V5.04938Z" />
</svg>
