<svg xmlns="http://www.w3.org/2000/svg" width="24" height="24" viewBox="0 0 24 24">
    <path stroke-width="2"
        d="M20.35 13v6.125c0 1.036-.789 1.875-1.76 1.875H5.41c-.973 0-1.76-.839-1.76-1.875V13M15.5 6V5c0-1.104-.896-2-2-2h-3c-1.104 0-2 .896-2 2v1" />
    <path stroke-width="2"
        d="M19.8 13H4.2c-.329 0-.626-.138-.84-.358-.224-.228-.36-.544-.36-.892v-4.5c0-.348.136-.663.36-.892.215-.22.511-.358.84-.358h15.6c.329 0 .625.138.84.358.224.229.36.544.36.892v4.5c0 .348-.136.664-.36.892-.214.22-.511.358-.84.358z" />
    <path stroke-width="2" d="M12 15.75V9.48" />
</svg>