<svg xmlns="http://www.w3.org/2000/svg" width="24" height="24" viewBox="0 0 24 24">
    <path fill-rule="evenodd"
        d="M6.5 5c0-1.656 1.344-3 3-3h5c1.656 0 3 1.344 3 3v1H19c.756 0 1.446.28 1.974.74l-.607.485L14.639 12H9.362L3.649 7.24l-.596-.522C3.577 6.27 4.257 6 5 6h1.5V5zM2.043 8.491C2.015 8.657 2 8.827 2 9v9c0 1.657 1.343 3 3 3h14c1.657 0 3-1.343 3-3V9c0-.166-.014-.329-.04-.488l-.328.263L15.363 14H8.638L2.351 8.76l-.308-.269zM15.5 5v1h-7V5c0-.552.448-1 1-1h5c.552 0 1 .448 1 1z" />
</svg>