<svg width="24" height="24" viewBox="0 0 24 24" xmlns="http://www.w3.org/2000/svg">
    <path fill-rule="evenodd"
        d="M10.4999 2C8.84365 2 7.49994 3.34372 7.49994 5H4.20018C3.58329 5 3.03426 5.2607 2.64471 5.6591C2.24134 6.07163 2.00018 6.63738 2.00018 7.25V11.75C2.00018 12.3623 2.24083 12.9282 2.64447 13.341L2.64996 13.3466V19.125C2.64996 20.6529 3.82716 22 5.40996 22H18.59C20.1728 22 21.35 20.6529 21.35 19.125V13.3471L21.3559 13.341C21.7595 12.9282 22.0002 12.3623 22.0002 11.75V7.25C22.0002 6.63738 21.759 6.07163 21.3557 5.6591C20.9661 5.2607 20.4171 5 19.8002 5H16.4999C16.4999 3.34372 15.1562 2 13.4999 2H10.4999ZM14.4999 5H9.49994C9.49994 4.44828 9.94822 4 10.4999 4H13.4999C14.0517 4 14.4999 4.44828 14.4999 5ZM4.64996 19.125V14H11.0002V15.7502H13.0002V14H19.35V19.125C19.35 19.6691 18.9512 20 18.59 20H5.40996C5.04877 20 4.64996 19.6691 4.64996 19.125ZM13.0002 12H19.8002C19.8414 12 19.8855 11.9841 19.9259 11.9428C19.9686 11.8992 20.0002 11.8334 20.0002 11.75V7.25C20.0002 7.16729 19.9687 7.10139 19.9256 7.05733C19.885 7.01574 19.8409 7 19.8002 7H4.20018C4.15949 7 4.11539 7.01574 4.07472 7.05733C4.03165 7.10139 4.00018 7.16729 4.00018 7.25V11.75C4.00018 11.8334 4.03181 11.8992 4.07448 11.9428C4.11484 11.9841 4.15894 12 4.20018 12H11.0002V9.48047H13.0002V12Z" />
</svg>