<svg xmlns="http://www.w3.org/2000/svg" width="24" height="24" viewBox="0 0 24 24">
    <path
        d="M10.5 2c-1.657 0-3 1.344-3 3H4.2c-.617 0-1.166.26-1.555.66C2.24 6.071 2 6.636 2 7.25v2.5c0 .612.24 1.178.644 1.591.39.399.94.659 1.556.659H10v-1h4v1h5.8c.616 0 1.166-.26 1.556-.659.403-.413.644-.979.644-1.591v-2.5c0-.613-.241-1.178-.645-1.59-.39-.4-.938-.66-1.555-.66h-3.3c0-1.656-1.344-3-3-3h-3zM10 14v1h4v-1h7.35v5.125c0 1.528-1.177 2.875-2.76 2.875H5.41c-1.583 0-2.76-1.347-2.76-2.875V14H10zm4.5-9h-5c0-.552.448-1 1-1h3c.551 0 1 .448 1 1z" />
</svg>