<svg width="24" height="24" viewBox="0 0 24 24" xmlns="http://www.w3.org/2000/svg">
<path d="M4.23999 5.58997L5.73999 4.27002C6.55999 5.21002 6.83 5.48003 8.13 6.66003L6.78 8.13C5.4 6.87 5.11999 6.58997 4.23999 5.58997ZM19.66 18.3201L18.16 19.64C17.34 18.7 17.19 18.56 15.9 17.39L17.25 15.91C18.63 17.17 18.78 17.3201 19.66 18.3201ZM18.31 4.23999L19.63 5.75C18.69 6.57 18.49 6.78007 17.31 8.07007L15.83 6.71997C17.09 5.33997 17.31 5.11999 18.31 4.23999ZM5.58 19.67L4.25999 18.16C5.19999 17.34 5.27 17.26 6.45 15.97L7.92999 17.3201C6.66999 18.7001 6.59 18.79 5.58 19.67ZM21.9 11L21.77 13C20.53 12.92 20.75 12.92 19.02 13L18.93 11C20.81 10.92 20.57 10.92 21.9 11ZM2 12.91L2.13 10.91C3.37 10.99 3.15 10.99 4.88 10.91L4.97 12.91C3.09 12.99 3.33 12.99 2 12.91ZM12.9 21.91L10.9 21.78C10.98 20.54 10.98 20.76 10.9 19.03L12.9 18.9401C12.99 20.8101 12.99 20.57 12.9 21.91ZM11 2L13 2.13C12.92 3.37 12.92 3.15 13 4.88L11 4.97998C10.92 3.09998 10.91 3.34 11 2ZM12.15 9.71997C11 9.73997 10.06 10.9901 10.04 12.1801C10.04 12.6601 10.15 13.0401 10.37 13.3101C10.72 13.7201 11.28 13.87 11.85 13.86C12.66 13.85 13.22 13.63 13.56 13.25C13.89 12.89 14 12.4 14 11.92C14 11.42 13.77 10.86 13.41 10.42C13.09 10.02 12.65 9.70997 12.14 9.71997H12.15ZM12.12 7.71997C13.25 7.70997 14.26 8.29002 14.97 9.15002C15.64 9.96002 16.02 11.0201 16.01 11.9401C16 12.9001 15.71 13.85 15.06 14.59C14.42 15.3 13.42 15.84 11.89 15.86C10.7 15.87 9.56999 15.46 8.84999 14.59C8.35999 14.01 8.04 13.21 8.05 12.16C8.07 9.95003 9.99 7.74997 12.13 7.71997H12.12Z" />
</svg>
