<svg width="24" height="24" viewBox="0 0 24 24" xmlns="http://www.w3.org/2000/svg">
<path d="M7.87001 10.59C8.67001 10.59 9.44001 11.0999 9.46001 12.0199C9.48001 12.9499 8.79001 13.47 7.99001 13.47C7.19001 13.48 6.42 12.9499 6.42 12.0299C6.42 11.0099 7.38001 10.59 7.87001 10.59ZM2 5.6499L4 5.59998L4.29001 18.01C8.89001 17.78 14.15 17.77 20 17.98C19.99 14.35 20 10.0699 20 6.13989L5.84 6L5.86 4L21.01 4.1499C21.56 4.1499 22 4.5999 22 5.1499C22 9.7099 21.98 14.89 22 19.01C22 19.29 21.89 19.55 21.69 19.74C21.49 19.93 21.23 20.0299 20.96 20.0199C14.31 19.7599 8.42001 19.7599 3.37001 20.0599C3.10001 20.0799 2.83 19.9799 2.63 19.7999C2.43 19.6199 2.31 19.36 2.31 19.09L2 5.6499Z" />
</svg>
