<svg width="24" height="24" viewBox="0 0 24 24" xmlns="http://www.w3.org/2000/svg">
<path d="M10.59 16.13C10.59 15.33 11.1 14.56 12.02 14.54C12.94 14.53 13.47 15.21 13.47 16.01C13.47 16.81 12.95 17.5801 12.02 17.5801C11.01 17.5801 10.59 16.62 10.58 16.13H10.59ZM5.64999 22L5.59999 20L18.01 19.7201C17.78 15.1201 17.77 9.86001 17.98 4.01001C14.35 4.02001 10.07 4.01 6.14 4L6 18.16L4 18.14L4.14999 2.98999C4.14999 2.43999 4.59999 2 5.14999 2C9.70999 2 14.89 2.02 19.01 2C19.28 2 19.54 2.11006 19.73 2.31006C19.92 2.50006 20.02 2.77004 20.01 3.04004C19.75 9.69004 19.75 15.58 20.05 20.63C20.07 20.9 19.97 21.17 19.79 21.37C19.61 21.57 19.35 21.6901 19.08 21.6901L5.64 22H5.64999Z" />
</svg>
