<svg width="24" height="24" viewBox="0 0 24 24" xmlns="http://www.w3.org/2000/svg">
<path d="M9.152 15.2565C10.702 15.2465 12.252 15.2065 13.772 15.1565L13.952 11.1165C12.472 11.1465 10.962 11.1565 9.432 11.1565L9.16199 15.2565H9.152ZM3.842 11.0865C3.872 12.3265 3.93199 13.6665 4.03199 15.1965C5.05199 15.2265 6.09199 15.2465 7.14199 15.2565L7.41199 11.1465C6.23199 11.1365 5.04199 11.1165 3.83199 11.0865H3.842ZM19.762 8.95651C19.732 7.79651 19.682 6.61649 19.632 5.37649C14.482 4.79649 8.99199 4.58647 3.99199 4.79647C3.91199 6.18647 3.84199 7.56651 3.83199 9.08651C9.44199 9.20651 14.752 9.16651 19.762 8.95651ZM15.772 15.0765C17.162 15.0065 18.502 14.9265 19.792 14.8365C19.812 13.5065 19.812 12.2265 19.792 10.9565C18.522 11.0065 17.242 11.0465 15.942 11.0765L15.762 15.0765H15.772ZM15.572 19.7665C17.032 19.6965 18.422 19.6065 19.632 19.4765C19.682 18.5665 19.712 17.6965 19.742 16.8465C18.442 16.9365 17.082 17.0165 15.682 17.0765L15.562 19.7665H15.572ZM8.842 19.9165C10.312 19.9065 11.942 19.8865 13.562 19.8365L13.682 17.1565C12.142 17.2165 10.582 17.2465 9.02199 17.2565L8.842 19.9165ZM7.012 17.2565C5.672 17.2465 4.352 17.2165 3.062 17.1665C2.552 17.1465 2.142 16.7465 2.102 16.2465C1.672 10.6865 1.802 7.38651 2.042 3.77651C2.072 3.26651 2.48199 2.86652 2.99199 2.84652C8.60199 2.54652 14.902 2.78648 20.712 3.49648C21.192 3.55648 21.562 3.95649 21.592 4.43649C21.852 9.96649 21.942 14.3165 21.592 20.4365C21.562 20.9165 21.202 21.3065 20.722 21.3665C14.832 22.1165 3.08199 21.8865 3.08199 21.8865L3.122 19.8865C3.122 19.8865 4.64199 19.9165 6.85199 19.9265L7.03199 17.2565H7.012Z" />
</svg>
