<svg xmlns="http://www.w3.org/2000/svg" width="24" height="24" viewBox="0 0 24 24">
    <path
        d="M12.867 1.893c-.657-.658-1.579-.98-2.502-.873l-5.893.676c-.684.079-1.32.386-1.807.873l-.096.096c-.486.486-.794 1.123-.873 1.807l-.676 5.893c-.106.923.215 1.845.873 2.502l9.24 9.24c1.19 1.19 3.12 1.19 4.31 0l6.665-6.664c1.19-1.19 1.19-3.12 0-4.31l-9.241-9.24zm-2.274 1.114c.317-.037.634.074.86.3l9.24 9.24c.41.41.41 1.072 0 1.481l-6.665 6.665c-.409.41-1.072.41-1.48 0l-9.241-9.24c-.226-.226-.337-.543-.3-.86L3.683 4.7c.027-.235.133-.454.3-.621l.096-.096c.167-.167.386-.273.62-.3l5.894-.676zm-.727 6.859c.585-.586.585-1.536 0-2.122-.586-.585-1.536-.585-2.122 0-.585.586-.585 1.536 0 2.122.586.585 1.536.585 2.122 0z" />
</svg>