<svg width="24" height="24" viewBox="0 0 24 24" fill="none" xmlns="http://www.w3.org/2000/svg">
<path fill-rule="evenodd" clip-rule="evenodd" d="M2.99997 2.49978C2.44769 2.49978 1.99997 2.94749 1.99997 3.49978V11.9998C1.99997 12.2485 2.09267 12.4883 2.25998 12.6724C3.8142 14.3823 5.20486 15.7727 6.65074 17.2041L7.06946 17.6184C8.38861 18.9232 9.77096 20.2906 11.3961 22.0021C11.5898 22.2061 11.8605 22.319 12.1418 22.3133C12.423 22.3075 12.6889 22.1835 12.8741 21.9718C15.6726 18.7717 19.1899 15.2285 21.6247 13.2806L20.3753 11.7189C18.0239 13.6 14.7984 16.8163 12.0926 19.8372C10.7629 18.4585 9.58945 17.2979 8.4767 16.1973L8.05785 15.7829C6.69902 14.4376 5.41333 13.1524 3.99997 11.6119L3.99997 4.47276C4.9746 4.42795 6.18717 4.33366 7.40603 4.23782L7.58426 4.2238L7.58434 4.22379C9.02241 4.11064 10.473 3.99651 11.6382 3.94648C12.6214 5.20079 13.9786 6.59045 15.2553 7.83262C16.005 8.56207 16.7077 9.22306 17.3176 9.79683L17.3177 9.79688C17.9112 10.3552 18.417 10.831 18.7929 11.2069L20.2071 9.79267C19.837 9.42256 19.2867 8.90412 18.6577 8.3116L18.6577 8.31159L18.6576 8.3115C18.0328 7.72289 17.3304 7.06118 16.65 6.39917C15.2291 5.01671 13.8137 3.54992 12.9287 2.33873C12.7348 2.07332 12.4228 1.92017 12.0942 1.92908C10.8067 1.96399 9.08825 2.09924 7.45797 2.22755L7.24925 2.24397C5.52846 2.37928 3.951 2.49978 2.99997 2.49978ZM8.5 6.49978C7.39543 6.49978 6.5 7.39521 6.5 8.49978C6.5 9.60435 7.39543 10.4998 8.5 10.4998C9.60457 10.4998 10.5 9.60435 10.5 8.49978C10.5 7.39521 9.60457 6.49978 8.5 6.49978Z" />
</svg>
