<svg width="24" height="24" viewBox="0 0 24 24" xmlns="http://www.w3.org/2000/svg">
<path d="M11.54 13.4199L11.46 11.4199L17.18 11.1799L17.26 13.1799L11.54 13.4199ZM12.02 16.95L11.94 14.95L17.18 14.73L17.26 16.73L12.02 16.95ZM4.01001 9.03992V18.7L7.5 18.7999L7.27 9.05994C6.04 9.04994 4.92 9.03992 4.02 9.03992H4.01001ZM9.49001 18.86L19.98 19.1699C19.98 19.1699 19.9 13.4399 19.83 9.28992C17.08 9.20992 12.91 9.12996 9.26001 9.07996L9.49001 18.86ZM19.8 7.28992C19.78 5.96992 19.77 5.09998 19.77 5.09998L9.16 5.03992L9.21001 7.07996C12.85 7.12996 17.02 7.19992 19.8 7.28992ZM7.16 5.0199L4.01001 5V7.02991C4.91001 7.02991 6.00001 7.02993 7.21001 7.04993L7.16 5.0199ZM20.96 21.1899L2.97 20.6599C2.43 20.6399 2 20.1999 2 19.6599V4C2 3.73 2.11001 3.47992 2.29001 3.28992C2.48001 3.09992 2.74 3 3 3L20.75 3.09998C21.29 3.09998 21.74 3.53997 21.74 4.08997L21.98 20.1899C21.98 20.4599 21.88 20.7299 21.68 20.9199C21.49 21.1099 21.22 21.21 20.95 21.21L20.96 21.1899Z" />
</svg>
