<svg width="24" height="24" viewBox="0 0 24 24" xmlns="http://www.w3.org/2000/svg">
<path d="M14.26 15.46H17.09V13.46H14.26V15.46ZM14.26 11.24H17.09V9.23999H14.26V11.24ZM2 7.3501H4V8.88989C4.92 9.03989 5.65 9.4099 6.19 9.8999C6.97 10.5999 7.38 11.5799 7.38 12.6699C7.38 14.4799 5.96999 16.05 4.00999 16.46V17.9099H20.02V12.23H22.02V18.9099C22.02 19.4599 21.57 19.9099 21.02 19.9099H3.00999C2.45999 19.9099 2.00999 19.4599 2.00999 18.9099V15.5701C2.00999 15.0201 2.45999 14.5701 3.00999 14.5701C4.28999 14.5701 5.38 13.7699 5.38 12.6799C5.38 11.5899 4.50999 10.8201 3.00999 10.8201C2.45999 10.8201 2.00999 10.3701 2.00999 9.82007V7.35986L2 7.3501ZM22.01 9.33008H20.01V7.19995L5.59 7L5.62 5L21.03 5.20996C21.58 5.20996 22.02 5.65996 22.02 6.20996V9.32007L22.01 9.33008Z" />
</svg>
