<svg width="24" height="24" viewBox="0 0 24 24" xmlns="http://www.w3.org/2000/svg">
<path d="M19.3233 5.56219C19.1715 5.4837 19.0236 5.39765 18.8804 5.30437C18.4638 5.02896 18.0818 4.70445 17.7427 4.33781C16.8943 3.36703 16.5774 2.38219 16.4607 1.69266H16.4654C16.3679 1.12031 16.4082 0.75 16.4143 0.75H12.5499V15.6928C12.5499 15.8934 12.5499 16.0917 12.5415 16.2877C12.5415 16.312 12.5391 16.3345 12.5377 16.3608C12.5377 16.3716 12.5377 16.3828 12.5354 16.3941C12.5354 16.3969 12.5354 16.3997 12.5354 16.4025C12.4946 16.9386 12.3228 17.4566 12.0349 17.9107C11.747 18.3648 11.3519 18.7413 10.8844 19.0069C10.3972 19.2841 9.8461 19.4295 9.28552 19.4287C7.48505 19.4287 6.02583 17.9606 6.02583 16.1475C6.02583 14.3344 7.48505 12.8662 9.28552 12.8662C9.62634 12.8659 9.96506 12.9196 10.2891 13.0252L10.2938 9.09047C9.31007 8.9634 8.31067 9.04158 7.35866 9.32008C6.40666 9.59858 5.5227 10.0714 4.76255 10.7086C4.09649 11.2873 3.53653 11.9778 3.10786 12.7491C2.94474 13.0303 2.32927 14.1605 2.25474 15.9947C2.20786 17.0358 2.52052 18.1144 2.66958 18.5602V18.5695C2.76333 18.832 3.12661 19.7278 3.71865 20.483C4.19604 21.0887 4.76006 21.6208 5.39255 22.0622V22.0528L5.40193 22.0622C7.27271 23.3334 9.34693 23.25 9.34693 23.25C9.70599 23.2355 10.9088 23.25 12.2747 22.6027C13.7897 21.885 14.6522 20.8158 14.6522 20.8158C15.2032 20.1769 15.6414 19.4488 15.9479 18.6628C16.2976 17.7436 16.4143 16.6411 16.4143 16.2005V8.27297C16.4611 8.30109 17.0855 8.71406 17.0855 8.71406C17.0855 8.71406 17.9851 9.29062 19.3885 9.66609C20.3954 9.93328 21.7519 9.98953 21.7519 9.98953V6.15328C21.2766 6.20484 20.3115 6.05484 19.3233 5.56219Z" />
</svg>
