<svg width="24" height="24" viewBox="0 0 24 24" xmlns="http://www.w3.org/2000/svg">
<path d="M15.63 15.52L15.87 16.52L18.75 19.42L19.51 18.72L16.7 15.66L15.63 15.52ZM5.45999 17C4.67999 17 4.05 17.63 4.05 18.41C4.05 19.19 4.67999 19.8201 5.45999 19.8201C6.23999 19.8201 6.87 19.19 6.87 18.41C6.87 17.63 6.23999 17 5.45999 17ZM8.34999 16.52C8.70999 17.06 8.92 17.72 8.92 18.42C8.92 20.33 7.36999 21.88 5.45999 21.88C3.54999 21.88 2 20.33 2 18.42C2 16.51 3.54999 14.9601 5.45999 14.9601C5.91999 14.9601 6.36 15.05 6.77 15.22L10.22 11.7101L6.81 8.30005C6.71 8.34005 6.6 8.35999 6.48 8.35999C6.16 8.35999 5.86 8.22999 5.66 7.98999L2.7 4.41003C2.52 4.20003 2.44 3.92001 2.47 3.64001C2.5 3.36001 2.64 3.11006 2.86 2.94006L3.39 2.54004C3.78 2.24004 4.33 2.26009 4.7 2.59009L7.92999 5.5C8.27999 5.82 8.36999 6.32999 8.14999 6.73999L11.66 10.24L14.24 7.60999L13.9 5.72998C13.84 5.40998 13.94 5.07998 14.16 4.84998L16.84 2L18.33 3.40002L16 5.88L16.18 6.90002L17.67 6.79004L19.46 4.52002L21.07 5.79004L19 8.41003C18.82 8.64003 18.56 8.78005 18.27 8.80005L15.76 8.97998L13.1 11.7001L14.76 13.36L17.34 13.7001C17.58 13.7301 17.8 13.85 17.96 14.02L21.71 18.1C22.09 18.51 22.07 19.16 21.65 19.54L19.42 21.61C19.02 21.99 18.39 21.9701 18 21.5801L14.22 17.77C14.09 17.64 14 17.47 13.95 17.29L13.35 14.8401L11.66 13.15L8.34999 16.52Z" />
</svg>
