<svg width="24" height="24" viewBox="0 0 24 24" xmlns="http://www.w3.org/2000/svg">
<path d="M8.99155 6.35786C8.90555 5.34219 8.8758 4.97372 8.9245 4.32702C10.5211 4.04704 12.6562 4.0067 14.9653 4.00095C14.9679 4.26978 14.9789 4.49099 14.9879 4.66996C14.9945 4.80237 15 4.91165 15 5H17C17 4.77581 16.9905 4.59991 16.9811 4.42528V4.42527C16.9628 4.08606 16.9448 3.75163 16.997 3.07727C17.0185 2.79946 16.9232 2.52527 16.7339 2.32077C16.5447 2.11626 16.2786 2 16 2L15.8845 2C12.972 1.99991 9.87766 1.99981 7.75746 2.52986C7.35146 2.63137 7.05161 2.97495 7.00597 3.39095C6.85924 4.72839 6.87838 5.09928 6.99021 6.42632C5.55312 6.47076 4.20265 6.5 3 6.5V8.5C5.46045 8.5 8.51333 8.38022 11.6113 8.25866L11.8517 8.24923C15.044 8.12404 18.2733 8 21 8V6C18.2267 6 14.956 6.12596 11.7733 6.25077L11.5587 6.25919C10.6917 6.2932 9.83241 6.32691 8.99155 6.35786ZM19 20.5C19.9923 20.624 19.9923 20.6238 19.9923 20.6236L19 20.5ZM19.0866 21.4962C19.5564 21.4554 19.9338 21.0915 19.9923 20.6236L19.993 20.6184L19.9944 20.6068L19.9991 20.5662C20.003 20.5314 20.0086 20.4811 20.0153 20.4153C20.0288 20.2838 20.047 20.0907 20.0672 19.8369C20.1075 19.3294 20.1552 18.5794 20.187 17.5947C20.2505 15.6253 20.2501 12.7174 19.9978 8.93347L18.0022 9.06651C18.25 12.7826 18.2495 15.6246 18.188 17.5302C18.1595 18.4153 18.1178 19.0983 18.0816 19.5732C13.4331 19.9457 9.51702 19.9938 5.98292 19.9993C5.96397 19.4459 5.93163 18.9485 5.89809 18.4328C5.7837 16.6737 5.65545 14.7015 5.99778 9.56651L4.00221 9.43347C3.65156 14.6934 3.79085 16.8769 3.90591 18.6804C3.95518 19.4527 4 20.1553 3.99999 21C3.99999 21.2652 4.10535 21.5196 4.29289 21.7071C4.48042 21.8946 4.73478 22 4.99999 22C9.00512 22 13.5361 21.9788 19.0866 21.4962ZM13.0016 17.444C13.1501 14.7959 13.1704 12.81 13.0019 10.0612L14.9981 9.93881C15.1722 12.778 15.1506 14.8432 14.9985 17.556L13.0016 17.444ZM9.00005 10.5C9.00005 11.7253 8.95107 12.8784 8.901 14.0293L8.89759 14.1075C8.84888 15.2265 8.80005 16.3482 8.80005 17.5H10.8C10.8 16.3923 10.8472 15.3084 10.8965 14.1767V14.1767L10.8991 14.1162C10.949 12.9686 11.0001 11.7747 11 10.5L9.00005 10.5Z" />
</svg>
