<svg width="24" height="24" viewBox="0 0 24 24" xmlns="http://www.w3.org/2000/svg">
<path d="M8.2345 4H15.0945V2H8.2345V4ZM8.46449 7.82983L6.19449 7.7998L8.1145 19.26H9.79449L8.4745 7.82983H8.46449ZM11.7945 19.24H13.8945L13.9045 21.23L7.2645 21.2698C6.7745 21.2698 6.35449 20.9199 6.27449 20.4299L4.0145 6.94995C3.9645 6.65995 4.04449 6.35988 4.24449 6.12988C4.43449 5.90988 4.7245 5.77979 5.0145 5.77979L19.5645 5.96997L19.5345 7.96997H18.3745L16.8145 18.95L14.8345 18.6699L16.3545 7.92993L14.6745 7.90991L14.3445 13.1199L12.3445 13L12.6645 7.88989L10.4645 7.85986L11.7845 19.24H11.7945Z" />
</svg>
