<svg width="24" height="24" viewBox="0 0 24 24" xmlns="http://www.w3.org/2000/svg">
<path fill-rule="evenodd" d="M14 4H3.49999V6H13V13H4.79085L4.49861 7.44744L2.50137 7.55256L3.00137 17.0526C3.02933 17.5837 3.46813 18 3.99999 18H5C5 19.6569 6.34315 21 8 21C9.65685 21 11 19.6569 11 18H14H14C14 19.6569 15.3431 21 17 21C18.6569 21 20 19.6569 20 18H18C18 18.5523 17.5523 19 17 19C16.4477 19 16 18.5523 16 18H14L14.0059 18H21C21.5523 18 22 17.5523 22 17V8.99998C22 8.47352 21.5918 8.03722 21.0665 8.0022L15 7.59776V5C15 4.44772 14.5523 4 14 4ZM8 19C7.44772 19 7 18.5523 7 18H9C9 18.5523 8.55229 19 8 19ZM4.89611 15L4.94874 16H13V15H4.89611ZM15 9.6022V10.6049L18.6104 11.0061L18.3896 12.9939L15 12.6173V16H20V9.93554L15 9.6022Z" />
</svg>
