<svg width="24" height="24" viewBox="0 0 24 24" xmlns="http://www.w3.org/2000/svg">
<path d="M7.06524 14.9318C6.38524 14.9418 5.83524 15.6617 5.83524 16.3317C5.83524 16.5817 5.88524 16.7717 5.99524 16.9017C6.19524 17.1317 6.52523 17.1917 6.85523 17.1917C7.34523 17.1817 7.68524 17.0817 7.88524 16.8617C8.06524 16.6717 8.11524 16.4117 8.11524 16.1617C8.11524 15.8817 7.97523 15.5717 7.76523 15.3217C7.58523 15.1117 7.34524 14.9318 7.05524 14.9318H7.06524ZM17.6952 17.0417C18.1352 16.5317 17.9652 15.6417 17.4652 15.1917C17.2852 15.0317 17.1052 14.9418 16.9252 14.9318C16.6252 14.9318 16.3552 15.1417 16.1452 15.3917C15.8252 15.7617 15.6752 16.0817 15.7052 16.3817C15.7352 16.6417 15.8952 16.8517 16.0852 17.0217C16.2952 17.2117 16.6152 17.3116 16.9452 17.3116C17.2252 17.3216 17.5152 17.2618 17.7052 17.0417H17.6952ZM14.6452 12.3317C14.8252 10.4217 15.2452 6.00171 15.2452 6.00171C11.6552 5.98171 8.37524 6.07174 4.86524 6.16174C4.64524 8.16175 4.38523 10.3117 4.10523 12.8217L14.6452 12.3317ZM16.9252 9.56165L16.6652 12.2517L19.8552 12.1417L19.5852 9.50171L16.9252 9.56165ZM4.23523 14.8217L3.04523 14.8717C2.75523 14.8917 2.47524 14.7716 2.27524 14.5616C2.07524 14.3516 1.97524 14.0617 2.00524 13.7717C2.36524 10.3517 2.71523 7.63167 2.98523 5.08167C3.03523 4.58167 3.45524 4.19176 3.95524 4.18176C8.17524 4.08176 12.0052 3.96172 16.3652 4.01172C16.6452 4.01172 16.9152 4.13168 17.0952 4.34168C17.2852 4.55168 17.3752 4.82169 17.3452 5.10169L17.1152 7.56165L20.4652 7.4917C20.9852 7.4817 21.4252 7.87172 21.4752 8.38172L21.9452 13.0017C21.9752 13.2717 21.8852 13.5517 21.7052 13.7617C21.5252 13.9717 21.2652 14.0917 20.9852 14.1017L19.2052 14.1617C20.0852 15.3617 20.1652 17.2217 19.2052 18.3517C18.6152 19.0217 17.7552 19.3316 16.8952 19.3116C16.0752 19.3016 15.2652 18.9817 14.7352 18.5117C14.1852 18.0117 13.7852 17.3417 13.7052 16.5817C13.6352 15.9117 13.8052 15.1517 14.4052 14.3417L9.66524 14.5616C9.95524 15.0816 10.1152 15.6518 10.1152 16.1718C10.1152 16.9118 9.87524 17.6517 9.34524 18.2217C8.84524 18.7617 8.06524 19.1817 6.86524 19.1917C5.92524 19.2017 5.03524 18.8717 4.47524 18.2117C4.08524 17.7517 3.81523 17.1316 3.82523 16.3116C3.82523 15.8016 3.97523 15.2817 4.21523 14.8217H4.23523Z" />
</svg>
