<svg width="24" height="24" viewBox="0 0 24 24" xmlns="http://www.w3.org/2000/svg">
<path d="M3.51999 21.36L3.45999 19.36C10.72 19.16 14.7 19.13 21.08 19.36L21.01 21.36C14.67 21.13 10.72 21.16 3.51999 21.36ZM2 4.58997L4 4.55005L4.20999 15.46C9.56999 15.48 14.81 15.58 19.92 15.54C19.84 12.23 19.86 8.68999 19.94 5.10999L5.78 5L5.8 3L20.98 3.12C21.25 3.12 21.5 3.23004 21.69 3.42004C21.88 3.62004 21.98 3.88001 21.97 4.14001C21.86 8.40001 21.83 12.63 21.95 16.5C21.95 16.77 21.86 17.03 21.67 17.22C21.48 17.42 21.23 17.53 20.96 17.53C15.2 17.6 9.28 17.4701 3.22 17.4501C2.68 17.4501 2.23 17.02 2.22 16.47L2 4.58997Z" />
</svg>
