<svg xmlns="http://www.w3.org/2000/svg" width="24" height="24" viewBox="0 0 24 24">
    <path
        d="M19.41 4.233c.716-.262 1.396-.614 2.021-1.046.342-.237.795-.237 1.137 0 .343.236.503.66.403 1.063-.313 1.258-.934 2.417-1.806 3.378.01.13.017.26.017.39v.004c0 5.487-2.696 9.513-6.56 11.53-3.837 2.004-8.736 1.98-13.1-.398-.408-.222-.61-.696-.486-1.144.123-.448.539-.752 1.003-.733 1.452.056 2.888-.211 4.205-.772-1.282-.81-2.22-1.76-2.882-2.786-.926-1.433-1.275-2.952-1.338-4.314-.063-1.356.157-2.576.387-3.45.116-.439.236-.796.329-1.048.046-.126.086-.226.115-.297l.036-.084.01-.025.004-.008.001-.003h.001c0-.001 0-.002.911.41l-.91-.412c.147-.325.457-.547.812-.582.356-.035.703.122.911.413 1.483 2.07 3.82 3.378 6.37 3.593.034-2.047 1.333-3.861 3.269-4.586 1.765-.66 3.74-.297 5.14.907zM4.237 6.913c-.147.68-.256 1.511-.215 2.4.05 1.09.326 2.247 1.02 3.321.69 1.07 1.834 2.119 3.721 2.942.336.146.565.464.597.828.032.365-.137.718-.442.92-.902.602-1.88 1.07-2.903 1.398 2.732.59 5.446.225 7.681-.943 3.182-1.66 5.485-4.99 5.486-9.756 0-.184-.019-.369-.054-.55-.065-.332.043-.675.286-.91.107-.104.21-.211.308-.322-.097.032-.195.062-.293.091-.372.11-.774-.005-1.032-.295-.843-.952-2.213-1.292-3.426-.838-1.21.454-1.988 1.591-1.971 2.836v.905c0 .542-.432.986-.975 1-2.93.074-5.736-1.035-7.788-3.026z" />
</svg>