<svg xmlns="http://www.w3.org/2000/svg" width="24" height="24" viewBox="0 0 24 24">
    <path
        d="M19.293 4.804c-1.268-1.237-3.164-1.64-4.848-1.01-1.789.67-2.97 2.367-2.945 4.258v.388C8.6 8.363 5.9 6.948 4.225 4.61c-.104-.146-.278-.224-.456-.207-.177.018-.332.129-.406.291l.455.207-.455-.207v.002l-.002.002-.002.006-.01.021-.032.076c-.027.065-.064.159-.108.279-.088.239-.203.581-.315 1.003-.221.84-.43 2.008-.37 3.3.06 1.293.39 2.721 1.258 4.065.747 1.157 1.878 2.229 3.53 3.095-1.61.876-3.44 1.306-5.292 1.233-.233-.009-.44.143-.502.367s.039.46.243.572c4.227 2.303 8.95 2.315 12.63.394 3.693-1.928 6.29-5.78 6.29-11.087V8.02c0-.19-.013-.379-.037-.566.896-.93 1.531-2.076 1.841-3.324.05-.202-.03-.414-.2-.532-.172-.118-.398-.118-.57 0-.744.515-1.56.92-2.422 1.206z" />
</svg>