<svg width="24" height="24" viewBox="0 0 24 24" xmlns="http://www.w3.org/2000/svg">
<path d="M12.39 10.1C13.1 10.1 13.66 9.92007 14.09 9.57007C14.51 9.22007 14.72 8.75005 14.72 8.18005C14.72 7.61005 14.51 7.14004 14.09 6.79004C13.67 6.44004 13.11 6.26001 12.42 6.26001H8.94V10.11H12.39V10.1ZM12.59 17.75C13.45 17.75 14.12 17.5601 14.59 17.1901C15.06 16.8201 15.29 16.3 15.29 15.65C15.29 15.06 15.06 14.5801 14.6 14.2101C14.14 13.8501 13.56 13.66 12.85 13.66H8.94V17.74H12.59V17.75ZM4 22V2H12.96C14.28 2 15.46 2.22002 16.5 2.65002C17.53 3.08002 18.34 3.69008 18.91 4.46008C19.48 5.23008 19.77 6.11009 19.77 7.09009C19.77 8.30009 19.35 9.31001 18.51 10.14C17.67 10.96 16.55 11.4801 15.15 11.6901V11.8C16.74 11.82 18.01 12.26 18.96 13.14C19.91 14.01 20.38 15.1601 20.38 16.5701C20.38 17.6001 20.09 18.54 19.52 19.37C18.95 20.2 18.14 20.8501 17.12 21.3101C16.1 21.7701 14.92 22 13.6 22H4Z" />
</svg>
