<svg width="24" height="24" viewBox="0 0 24 24" xmlns="http://www.w3.org/2000/svg">
<path d="M3 22H21.31V21.02H3V22ZM18.97 12.16C18.97 13.48 18.68 14.65 18.11 15.66C17.54 16.68 16.74 17.47 15.7 18.04C14.67 18.61 13.48 18.9 12.15 18.9C10.82 18.9 9.66 18.61 8.62 18.04C7.59 17.47 6.78001 16.67 6.21001 15.66C5.64001 14.64 5.35001 13.48 5.35001 12.16V2H8.07001V12.16C8.07001 13.43 8.44 14.46 9.19 15.24C9.94 16.02 10.92 16.41 12.15 16.41C13.38 16.41 14.36 16.02 15.11 15.24C15.86 14.46 16.23 13.44 16.23 12.16V2H18.97V12.16Z" />
</svg>
