<svg width="24" height="24" viewBox="0 0 24 24" xmlns="http://www.w3.org/2000/svg">
<path d="M8.90319 10.21C11.7232 10.17 14.9032 10.14 18.6532 10.08C18.9232 10.07 19.1832 10.1801 19.3732 10.3701C19.5632 10.5601 19.6732 10.81 19.6732 11.08L19.6432 17.79H17.6432L17.6732 12.09C13.5232 12.16 10.0732 12.1801 7.05319 12.2401C6.95319 14.5701 7.01318 17.29 7.14318 19.97L18.6032 19.48L18.6832 21.48L6.23318 22.0101C5.68318 22.0301 5.22319 21.61 5.19319 21.06C5.00319 17.64 4.92318 14.06 5.09318 11.2C5.12318 10.68 5.55318 10.27 6.07318 10.26C6.35318 10.25 6.63318 10.2501 6.91318 10.2401C6.94318 8.41005 7.17318 6.52005 7.85318 5.05005C8.68318 3.24005 10.1332 2 12.5632 2C14.9932 2 16.7532 3.49003 17.2632 5.84003L15.3032 6.26001C15.0032 4.89001 13.9632 4 12.5632 4C11.0632 4 10.1832 4.78001 9.66318 5.89001C9.09318 7.11001 8.93319 8.68002 8.90319 10.21Z" />
</svg>
