<svg width="24" height="24" viewBox="0 0 24 24" xmlns="http://www.w3.org/2000/svg">
<path d="M7.91 2L8.11 3.97998L4.29001 4.35999L4.22 8.67993L2.23 8.6499L2.31 3.43994C2.31 2.93994 2.70001 2.51997 3.21001 2.46997L7.91 2ZM21.97 8.41992L19.98 8.3999L20.02 4.25L15.87 4.29993L15.85 2.30994L21.01 2.25C21.28 2.25 21.53 2.34992 21.72 2.53992C21.91 2.72992 22.02 2.99 22.01 3.25L21.96 8.41992H21.97ZM15.9 21.85L15.83 19.86L19.97 19.71V14.63H21.96V20.6699C21.96 21.2099 21.54 21.6499 21 21.6699L15.9 21.85ZM2.01001 16.3899H4V19.86H7.47V21.85H3C2.45 21.85 2 21.4 2 20.85V16.3899H2.01001ZM5.86 7.94995H7.85001L7.83 16.5199H5.84L5.86 7.94995ZM16.77 7.92993L18.76 7.96997L18.57 16.5399L16.58 16.5L16.77 7.92993ZM8.87001 7.92993L10.86 7.96997L10.67 16.5399L8.68001 16.5L8.87001 7.92993ZM13.24 16.51L11.75 16.4199L12.26 7.85999L13.75 7.93994L14.25 7.96997L15.74 8.05994L15.23 16.63L13.74 16.5399L13.24 16.51Z" />
</svg>
