<svg width="24" height="24" viewBox="0 0 24 24" xmlns="http://www.w3.org/2000/svg">
    <path fill-rule="evenodd"
        d="M17.1523 16L17.3024 15.9851C18.8163 15.8348 20 14.5544 20 13C20 11.472 18.8559 10.2082 17.3786 10.0235L15.9061 9.83928L15.6556 8.37664C15.3271 6.45931 13.6534 5 11.6429 5C9.82229 5 8.27593 6.19639 7.75701 7.85077L7.44453 8.84703L6.44847 9.16015C5.02709 9.60697 4 10.9362 4 12.5C4 14.433 5.567 16 7.5 16H9V18H7.5C7.33146 18 7.16468 17.9924 7 17.9776C4.19675 17.725 2 15.369 2 12.5C2 11.2668 2.40589 10.1283 3.09137 9.21098C3.77448 8.29681 4.73525 7.60222 5.84869 7.2522C6.62232 4.78573 8.92563 3 11.6429 3C14.6422 3 17.1363 5.17576 17.6268 8.03892C20.0944 8.34755 22 10.4529 22 13C22 15.5909 20.0284 17.7243 17.5 17.9753V18H15V16H17.1523ZM13 12.3081L14.6095 13.9071L16.0191 12.4883L12.8985 9.38813C12.3776 8.87062 11.5366 8.87062 11.0157 9.38813L7.8952 12.4883L9.30477 13.9071L11 12.223L11 21H13L13 12.3081Z" />
</svg>