<svg xmlns="http://www.w3.org/2000/svg" width="24" height="24" viewBox="0 0 24 24">
    <mask id="0022mq51qa">
        <path
            d="M15.656 8.377l.25 1.462 1.473.184C18.856 10.209 20 11.473 20 13c0 1.554-1.184 2.835-2.698 2.985l-.15.015H15v2h2.5v-.025c2.527-.25 4.5-2.382 4.5-4.975 0-2.55-1.908-4.653-4.373-4.961C17.137 5.178 14.644 3 11.643 3c-2.72 0-5.021 1.788-5.794 4.252C3.618 7.953 2 10.038 2 12.5 2 15.538 4.462 18 7.5 18H9v-2H7.5C5.567 16 4 14.433 4 12.5c0-1.564 1.027-2.893 2.448-3.34l.997-.313.312-.996C8.276 6.196 9.822 5 11.643 5c2.01 0 3.684 1.46 4.013 3.377z" />
    </mask>
    <path
        d="M15.906 9.84l-1.971.337.25 1.463 1.473.184.248-1.985zm-.25-1.463l-1.972.337 1.972-.337zm1.723 1.646l-.249 1.985.249-1.984zm-.077 5.962l.198 1.99-.198-1.99zm-.15.015v2h.1l.098-.01-.198-1.99zM15 16v-2h-2v2h2zm0 2h-2v2h2v-2zm2.5 0v2h2v-2h-2zm0-.025l-.198-1.99-1.802.18v1.81h2zm.127-9.936l-1.971.338.25 1.462 1.473.184.248-1.984zM5.849 7.252l.6 1.908.996-.313.312-.996-1.908-.599zM9 18v2h2v-2H9zm0-2h2v-2H9v2zM6.448 9.16l-.6-1.908.6 1.908zm.997-.313l.6 1.908.995-.313.313-.996-1.908-.599zm.312-.996l1.908.598-1.908-.598zm10.12 1.65l-.25-1.462-3.943.675.25 1.463 3.943-.675zm-.25-1.462l-1.473-.184-.496 3.969 1.472.184.497-3.97zM22 13c0-2.547-1.906-4.652-4.373-4.961l-.497 3.969c.487.06.87.483.87.992h4zm-4.5 4.975c2.528-.25 4.5-2.384 4.5-4.975h-4c0 .518-.396.945-.895.995l.395 3.98zm-.15.015l.15-.015-.395-3.98-.15.015.395 3.98zM17 18h.152v-4H17v4zm-2 0h2v-4h-2v4zm-2-2v2h4v-2h-4zm2.5 0H15v4h.5v-4zm1.5 0h-1.5v4H17v-4zm.5 0H17v4h.5v-4zm-2 1.975V18h4v-.025h-4zM20 13c0 1.554-1.184 2.835-2.698 2.985l.396 3.98C21.238 19.615 24 16.631 24 13h-4zm-2.621-2.976C18.856 10.207 20 11.472 20 13h4c0-3.57-2.671-6.514-6.125-6.946l-.496 3.97zM11.643 5c2.01 0 3.684 1.46 4.013 3.377l3.942-.676C18.946 3.896 15.635 1 11.643 1v4zM7.757 7.85C8.276 6.197 9.822 5 11.643 5V1C8.025 1 4.967 3.38 3.94 6.654L7.757 7.85zM4 12.5c0-1.564 1.027-2.893 2.448-3.34l-1.2-3.816C2.209 6.3 0 9.14 0 12.5h4zM7.5 16C5.567 16 4 14.433 4 12.5H0C0 16.642 3.358 20 7.5 20v-4zM9 16H7.5v4H9v-4zm2 2v-2H7v2h4zm-3.5 0H9v-4H7.5v4zM2 12.5C2 15.538 4.462 18 7.5 18v-4c-.828 0-1.5-.672-1.5-1.5H2zm3.849-5.248C3.616 7.954 2 10.04 2 12.5h4c0-.668.439-1.24 1.048-1.432l-1.2-3.816zm.996-.313l-.996.313 1.2 3.816.995-.313-1.2-3.816zm-.996.313l-.313.996 3.817 1.198.312-.997L5.85 7.252zM11.643 3c-2.717 0-5.02 1.786-5.794 4.252L9.665 8.45C9.93 7.607 10.72 7 11.643 7V3zm5.984 5.039C17.137 5.176 14.642 3 11.643 3v4c1.022 0 1.875.743 2.041 1.714l3.943-.675z"
        mask="url(#0022mq51qa)" />
    <path stroke-width="2" d="M12 10.38V21M15.314 13.198l-3.12-3.1c-.132-.13-.343-.13-.474 0l-3.12 3.1" />
</svg>