<svg width="24" height="24" viewBox="0 0 24 24" xmlns="http://www.w3.org/2000/svg">
<path d="M3.3525 12.6107L5.3525 12.7307L5.06251 17.5307L18.9425 17.0407L18.3925 11.5407L20.3825 11.3406L21.0425 17.9006C21.0725 18.1806 20.9825 18.4507 20.8025 18.6607C20.6225 18.8707 20.3625 18.9907 20.0825 19.0007L4.03251 19.5707C3.75251 19.5807 3.47251 19.4706 3.28251 19.2706C3.08251 19.0706 2.98251 18.7906 3.00251 18.5106L3.3525 12.6107ZM10.9625 6.72065L7.8325 10.4006L6.31251 9.10066L11.2025 3.35066C11.3825 3.14066 11.6425 3.01068 11.9225 3.00068C12.2025 2.99068 12.4725 3.09065 12.6725 3.28065L17.6925 8.23066L16.2925 9.65065C16.2925 9.65065 14.2225 7.62069 12.9725 6.38069V15.5007H10.9725V6.72065H10.9625Z" />
</svg>
