<svg width="24" height="24" viewBox="0 0 24 24" xmlns="http://www.w3.org/2000/svg">
<path d="M10.2 8.50546C10.66 8.51546 11.06 8.51547 11.44 8.51547L11.36 6.5455L13.36 6.46555L13.44 8.48557C13.77 8.47557 14.12 8.46553 14.52 8.44553L14.4 4.03549C12.18 3.99549 11.6 3.99546 10.31 4.00546C10.25 5.45546 10.25 7.16546 10.21 8.50546H10.2ZM16.51 8.43552C16.9 8.55552 17.19 8.90554 17.21 9.33554C17.4 12.8655 17.42 17.5555 17.52 20.9355C17.52 21.2055 17.43 21.4655 17.24 21.6655C17.05 21.8555 16.79 21.9655 16.53 21.9655L7.29001 22.0255V20.0255L15.49 19.9756C15.42 17.0556 15.38 13.4255 15.25 10.4255C12.68 10.5155 11.85 10.5556 9.01001 10.4856L9.10001 18.3656L7.10001 18.3855L7 9.47556C7 9.20556 7.11002 8.93558 7.30002 8.74558C7.49002 8.55558 7.76 8.45555 8.03 8.46555H8.20001C8.26001 6.79555 8.23002 4.56552 8.36002 2.93552C8.40002 2.41552 8.83001 2.01547 9.35001 2.01547C11.65 1.99547 11.75 1.9855 15.38 2.0455C15.92 2.0555 16.35 2.48547 16.36 3.01547L16.51 8.43552Z" />
</svg>
