<svg width="24" height="24" viewBox="0 0 24 24" xmlns="http://www.w3.org/2000/svg">
<path d="M17.1 9.29999L15.58 8H15.57L11.32 13L9.06 10.19L7.5 11.44L10.52 15.19C10.7 15.42 10.98 15.56 11.28 15.56C11.58 15.57 11.87 15.44 12.06 15.21L17.1 9.29999Z" />
<path d="M11.3514 2.23889C11.7252 1.92037 12.2749 1.92037 12.6486 2.23889L15.1576 4.37699L18.4435 4.63921C18.933 4.67827 19.3217 5.06698 19.3608 5.55649L19.623 8.84244L21.7611 11.3514C22.0796 11.7251 22.0796 12.2749 21.7611 12.6486L19.623 15.1576L19.3608 18.4435C19.3217 18.933 18.933 19.3217 18.4435 19.3608L15.1576 19.623L12.6486 21.7611C12.2749 22.0796 11.7252 22.0796 11.3514 21.7611L8.84246 19.623L5.55651 19.3608C5.067 19.3217 4.67829 18.933 4.63922 18.4435L4.377 15.1576L2.2389 12.6486C2.01173 12.382 1.94058 12.016 2.05133 11.6838C2.37104 10.7247 3.12545 10.0676 3.62315 9.63407C3.67637 9.58772 3.72665 9.54392 3.77315 9.50259C4.36448 8.97696 4.50002 8.75112 4.50002 8.5H6.50002C6.50002 9.74888 5.63555 10.523 5.10188 10.9974C5.07335 11.0228 5.04537 11.0476 5.01793 11.072C4.65353 11.3955 4.38529 11.6337 4.20038 11.8668L6.1092 14.1067C6.24569 14.2669 6.32817 14.466 6.34491 14.6758L6.5651 17.4349L9.32424 17.6551C9.53401 17.6718 9.73315 17.7543 9.89331 17.8908L12 19.6861L14.1067 17.8908C14.2669 17.7543 14.466 17.6718 14.6758 17.6551L17.4349 17.4349L17.6551 14.6758C17.6719 14.466 17.7543 14.2669 17.8908 14.1067L19.6862 12L17.8908 9.8933C17.7543 9.73313 17.6719 9.53399 17.6551 9.32423L17.4349 6.56508L14.6758 6.3449C14.466 6.32816 14.2669 6.24567 14.1067 6.10918L12 4.31386L9.89331 6.10918C9.73007 6.2483 9.52643 6.33124 9.31244 6.34577L8.84191 4.37745L11.3514 2.23889ZM8.84191 4.37745C8.81954 4.37944 8.79617 4.38154 8.77183 4.38376C8.52136 4.40662 8.16742 4.44234 7.74942 4.49412C6.91835 4.59707 5.81272 4.76605 4.75748 5.02986L5.24255 6.97014C6.18731 6.73395 7.20402 6.57697 7.99529 6.47895C8.38846 6.43025 8.72069 6.39674 8.95359 6.37548C9.06995 6.36486 9.16126 6.35733 9.22269 6.3525L9.29175 6.34725L9.30829 6.34606L9.31244 6.34577" />
</svg>
