<svg width="24" height="24" viewBox="0 0 24 24" xmlns="http://www.w3.org/2000/svg">
<path d="M20.5607 10.7923L18.5707 10.9723L18.0907 5.64228L5.44066 5.0423L5.59065 8.87232L16.1707 9.39228L16.0707 11.3923L4.58064 10.8223C4.06064 10.7923 3.65066 10.3823 3.63066 9.86231L3.40065 4.03229C3.39065 3.75229 3.50066 3.4823 3.69066 3.2923C3.89066 3.0923 4.16066 2.98233 4.44066 3.00233L19.0506 3.68232C19.5506 3.70232 19.9507 4.09229 20.0007 4.59229L20.5607 10.7923ZM5.52065 20.9523L3.52065 20.9223L3.62065 13.6023C3.62065 13.3223 3.74066 13.0623 3.94066 12.8823C4.14066 12.6923 4.41065 12.5923 4.68065 12.6123L19.6207 13.6023C20.1507 13.6423 20.5606 14.0823 20.5506 14.6223L20.4507 19.8923C20.4407 20.4323 20.0007 20.8723 19.4507 20.8723L7.43065 20.9223V18.9223L18.4606 18.8723L18.5206 15.5323L5.58065 14.6823L5.50066 20.9523H5.52065Z" />
</svg>
