<svg width="24" height="24" viewBox="0 0 24 24" xmlns="http://www.w3.org/2000/svg">
<path d="M21.28 18.1V20.1L2.74 20.18V18.18L21.28 18.1ZM21.22 3L21.33 5L2.83 6.02002L2.72 4.02002L21.23 3H21.22ZM4.36 15.93L2.36 15.95L2.3 8.94C2.3 8.67 2.4 8.41003 2.59 8.22003C2.78 8.03003 3.03 7.92999 3.3 7.92999H20.72C21.02 7.91999 21.3 8.05003 21.49 8.28003C21.68 8.51003 21.76 8.80998 21.71 9.09998L20.67 14.95C20.59 15.4 20.21 15.74 19.75 15.77L7.06 16.59L6.93 14.59L18.84 13.83L19.53 9.91998H4.31L4.36 15.93Z" />
</svg>
