<svg width="24" height="24" viewBox="0 0 24 24" xmlns="http://www.w3.org/2000/svg">
<path d="M3.99001 9.09863V18.8785C9.06001 19.2285 14.23 19.6286 19.54 19.9586C19.68 16.6486 19.74 13.3286 19.82 10.1786L3.99001 9.09863ZM7.48 7.33862L20.91 8.25854C21.44 8.29854 21.85 8.74856 21.84 9.27856C21.73 13.0386 21.67 17.0586 21.49 21.0686C21.48 21.3286 21.36 21.5785 21.16 21.7585C20.96 21.9385 20.7 22.0285 20.44 22.0085C14.44 21.6485 8.62 21.1786 2.93 20.7986C2.41 20.7686 2 20.3286 2 19.8086V8.02856C2 7.61856 2.25 7.25852 2.63 7.10852L15.49 2.0686C15.79 1.9486 16.14 1.98858 16.41 2.16858C16.68 2.34858 16.84 2.65851 16.85 2.97851L16.89 6.36853L14.9 6.39856L14.88 4.44861L7.48 7.33862Z" />
</svg>
