<svg width="24" height="24" viewBox="0 0 24 24" xmlns="http://www.w3.org/2000/svg">
<path d="M10.8304 8.52991L12.8304 8.62L12.7204 11.36L13.8004 10.84L14.6704 12.6499L12.0804 13.8899C11.7604 14.0399 11.3903 14.0099 11.1003 13.8199C10.8103 13.6299 10.6404 13.2899 10.6504 12.9399L10.8304 8.52991ZM14.2104 17.9399C13.4004 18.1999 12.4704 18.34 11.4104 18.35C10.5804 18.36 9.76037 18.2199 9.00037 17.9299V20.01L14.5304 19.99L14.2104 17.9399ZM9.22037 5.69995C10.0404 5.34995 10.9404 5.14989 11.8704 5.13989C12.9304 5.11989 13.8704 5.29991 14.6804 5.65991V4H9.08036L9.22037 5.69995ZM6.99036 16.71C5.77036 15.58 4.98037 13.9099 5.00037 11.7999C5.02037 9.85993 5.91037 8.10989 7.31037 6.88989L7.00037 3.08997C6.98037 2.80997 7.07035 2.52996 7.26035 2.32996C7.45035 2.11996 7.72037 2 8.00037 2H15.6904C15.9604 2 16.2104 2.10993 16.4004 2.29993C16.5904 2.48993 16.6904 2.74001 16.6904 3.01001L16.6704 7.25C17.1804 7.93 17.5603 8.76 17.7903 9.75L15.8503 10.21C15.3603 8.17996 13.9604 7.10989 11.9004 7.13989C9.26036 7.17989 7.02037 9.23995 7.00037 11.8199C6.98037 14.6799 9.08035 16.38 11.3803 16.35C13.2003 16.33 14.5204 15.85 15.4304 14.99C16.3404 14.14 16.8303 12.9299 17.0703 11.5699L19.0403 11.9199C18.7303 13.7299 18.0204 15.31 16.8004 16.45C16.5804 16.66 16.3404 16.8499 16.0904 17.0299L16.6704 20.83C16.7104 21.12 16.6304 21.41 16.4404 21.63C16.2504 21.86 15.9804 21.98 15.6804 21.98L7.98035 22.0199C7.71035 22.0199 7.46036 21.91 7.27036 21.73C7.08036 21.54 6.98035 21.2799 6.98035 21.0199V16.71H6.99036Z" />
</svg>
