<svg xmlns="http://www.w3.org/2000/svg" width="24" height="24" viewBox="0 0 24 24">
    <path
        d="M6.52 6.52c.401-.401.846-.758 1.326-1.064-.639 1.491-1.046 3.307-1.17 5.266H4.354c.27-1.628 1.047-3.084 2.165-4.202zm-2.174 6.702c.26 1.65 1.043 3.127 2.174 4.258.401.401.846.758 1.326 1.064-.645-1.506-1.054-3.342-1.174-5.322H4.346zM12 22.25c2.83 0 5.394-1.149 7.248-3.002C21.1 17.394 22.25 14.83 22.25 12s-1.149-5.394-3.002-7.248C17.394 2.9 14.83 1.75 12 1.75S6.606 2.899 4.752 4.752C2.9 6.606 1.75 9.17 1.75 12s1.149 5.394 3.002 7.248C6.606 21.1 9.17 22.25 12 22.25zm4.155-3.706c.645-1.506 1.054-3.343 1.174-5.322h2.325c-.26 1.65-1.043 3.127-2.174 4.258-.4.401-.845.758-1.325 1.064zm3.49-7.822c-.27-1.628-1.047-3.084-2.165-4.202-.4-.401-.845-.758-1.325-1.064.639 1.491 1.046 3.307 1.17 5.266h2.32zM12 4.25c-.117 0-.308.047-.587.279-.348.29-.719.775-1.066 1.473-.599 1.202-1.03 2.841-1.166 4.72h5.639c-.137-1.879-.567-3.518-1.166-4.72-.348-.698-.718-1.183-1.067-1.473-.279-.232-.47-.279-.587-.279zm1.654 13.748c.605-1.214 1.038-2.874 1.17-4.777H9.177c.132 1.903.565 3.563 1.17 4.777.348.698.718 1.183 1.066 1.473.28.232.47.279.587.279.117 0 .308-.047.587-.28.349-.29.72-.774 1.067-1.472z" />
</svg>