<svg xmlns="http://www.w3.org/2000/svg" width="24" height="24" viewBox="0 0 24 24">
    <path
        d="M8.409 4.85c-.767.385-1.464.892-2.066 1.493-1.22 1.22-2.047 2.83-2.278 4.629h2.847c.117-2.28.62-4.366 1.42-5.973l.077-.15zM12 2C9.24 2 6.738 3.12 4.929 4.93 3.121 6.737 2 9.238 2 12s1.12 5.262 2.929 7.07C6.738 20.88 9.239 22 12 22s5.263-1.12 7.071-2.929C20.88 17.263 22 14.761 22 12s-1.12-5.263-2.929-7.071C17.263 3.12 14.761 2 12 2zm3.592 2.85l.076.15c.8 1.606 1.304 3.693 1.421 5.972h2.846c-.23-1.798-1.058-3.409-2.278-4.629-.602-.601-1.298-1.107-2.065-1.493zm-.506 6.122c-.115-2.017-.564-3.788-1.208-5.081-.357-.718-.747-1.235-1.13-1.554C12.437 4.08 12.192 4 12 4c-.192 0-.438.08-.746.337-.385.32-.774.836-1.131 1.554-.644 1.294-1.093 3.064-1.209 5.08h6.172zm-6.175 2h6.179c-.11 2.04-.562 3.831-1.212 5.137-.357.718-.747 1.235-1.13 1.554-.31.257-.555.337-.748.337-.192 0-.438-.08-.746-.337-.385-.32-.774-.836-1.131-1.554-.65-1.306-1.102-3.098-1.212-5.138zm-2.002 0h-2.85c.22 1.82 1.051 3.452 2.284 4.685.602.602 1.299 1.108 2.066 1.494L8.332 19c-.806-1.62-1.312-3.729-1.423-6.03zm8.683 6.179l.076-.15c.807-1.62 1.313-3.728 1.424-6.03h2.85c-.22 1.821-1.052 3.453-2.285 4.686-.602.602-1.298 1.107-2.065 1.494z" />
</svg>