<svg width="24" height="24" viewBox="0 0 24 24" xmlns="http://www.w3.org/2000/svg">
<path d="M17.1769 2.13422C18.2841 2.40717 19.1891 3.0425 19.7071 3.56055C19.9121 3.76553 20.0181 4.04938 19.9975 4.33854C19.977 4.6277 19.8319 4.89372 19.6 5.06765L15.6 8.06765L14.4 6.46765L17.3005 4.29231C17.1119 4.20359 16.9093 4.12813 16.6982 4.07609C16.0577 3.91821 15.3468 3.97085 14.6247 4.54852C12.953 5.88587 12.8776 7.55674 12.9806 8.07155C13.0525 8.4311 12.9219 8.80116 12.6402 9.03589L9.64018 11.5359C9.41653 11.7223 9.12277 11.8019 8.8356 11.7541C8.4244 11.6855 7.70294 11.6404 6.96574 11.7452C6.21197 11.8524 5.58684 12.095 5.20711 12.4748C4.84828 12.8336 4.5769 13.3105 4.38193 13.8262L6.00386 12.8994C6.43143 12.6551 6.97323 12.7584 7.28087 13.143L9.28087 15.643C9.45596 15.8618 9.53116 16.1441 9.48816 16.4211C9.44516 16.698 9.28791 16.9442 9.0547 17.0997L5.94462 19.1731C6.24078 19.2871 6.55809 19.3845 6.88362 19.4496C7.81518 19.6359 8.68528 19.5388 9.37531 18.9868C11.047 17.6494 11.1224 15.9786 11.0194 15.4638C10.9538 15.1359 11.0565 14.797 11.2929 14.5606L14.7929 11.0606C15.0497 10.8038 15.4255 10.7064 15.7747 10.8061C16.2616 10.9452 17.0846 11.0748 17.8919 10.9973C18.709 10.9188 19.339 10.649 19.7 10.1677C20.1419 9.57843 20.3115 8.88272 20.3252 8.20987C20.3265 8.14706 20.3264 8.08501 20.325 8.02389L17.6 10.0677L16.4 8.46767L20.4 5.46767C20.6489 5.28101 20.9705 5.22081 21.27 5.30481C21.5695 5.38881 21.8129 5.60743 21.9285 5.89628C22.143 6.43251 22.3443 7.29044 22.3248 8.25047C22.3051 9.21928 22.0581 10.3569 21.3 11.3677C20.461 12.4863 19.1744 12.8833 18.0831 12.9881C17.2615 13.067 16.4533 12.9921 15.8135 12.8684L13.0447 15.6372C13.0957 16.9119 12.6218 18.9509 10.6247 20.5485C9.31472 21.5965 7.76816 21.6661 6.49138 21.4107C5.22256 21.157 4.09356 20.5634 3.41876 20.0814C3.15133 19.8904 2.99483 19.5801 3.00013 19.2515C3.00543 18.9229 3.17185 18.6179 3.4453 18.4356L7.03776 16.0406L6.25347 15.0603L3.49614 16.6359C3.18664 16.8128 2.80639 16.8115 2.49807 16.6326C2.18976 16.4537 2 16.1241 2 15.7677C2 15.2548 2.0889 14.4574 2.34262 13.6163C2.5954 12.7784 3.03575 11.8177 3.79289 11.0606C4.61316 10.2403 5.73803 9.89963 6.68426 9.76512C7.41952 9.6606 8.13481 9.66791 8.69407 9.72091L10.9533 7.8382C10.9194 6.56022 11.4093 4.55965 13.3753 2.98678C14.6532 1.96445 16.0257 1.85043 17.1769 2.13422ZM2.53528 9.00452C3.8968 4.01228 8.73122 2.45324 10.917 2.27109L11.0831 4.26418C9.26887 4.41536 5.50329 5.72298 4.46481 9.53075L2.53528 9.00452ZM20.0116 14.1156C19.8715 15.0259 19.3505 16.4224 18.2621 17.5288C17.2074 18.601 15.5766 19.4491 13.0712 19.2702L12.9287 21.2651C16.0233 21.4861 18.2258 20.4176 19.6878 18.9314C21.1161 17.4795 21.795 15.676 21.9883 14.4197L20.0116 14.1156Z" />
</svg>
