<svg width="24" height="24" viewBox="0 0 24 24" xmlns="http://www.w3.org/2000/svg">
<path d="M6 15.96C4.89 15.96 4 16.86 4 17.96C4 19.06 4.9 19.96 6 19.96C7.1 19.96 8 19.06 8 17.96C8 16.86 7.1 15.96 6 15.96ZM9.22 15.62C9.7 16.28 9.98001 17.09 9.98001 17.96C9.98001 20.16 8.19001 21.9501 5.99001 21.9501C3.79001 21.9501 2 20.16 2 17.96C2 15.76 3.79001 13.97 5.99001 13.97C6.60001 13.97 7.17 14.11 7.69 14.35L12.36 9.56006L11.88 6.92004C11.82 6.61004 11.92 6.29006 12.13 6.06006L15.95 2L17.4 3.35999L13.93 7.05005L14.31 9.13L17.05 8.93005L19.72 5.54004L21.28 6.77002L18.33 10.5C18.16 10.72 17.9 10.85 17.62 10.88L13.55 11.1801L9.22 15.62Z" />
</svg>
