<svg width="24" height="24" viewBox="0 0 24 24" xmlns="http://www.w3.org/2000/svg">
<path d="M12.0782 3C12.0867 3.00002 12.0959 3.00004 12.1058 3.00006L12.212 3.00039C13.4447 3.00492 19.6924 3.05021 21.3768 3.50307C22.4095 3.78004 23.2226 4.59627 23.4986 5.63237C23.6506 6.20162 23.7565 6.95821 23.8303 7.73635L23.8446 7.89221C23.8562 8.02225 23.8669 8.15259 23.8769 8.28245L23.8884 8.438C23.987 9.80916 23.9985 11.0923 23.9998 11.373L24 11.4109C24 11.414 24 11.419 24 11.419V11.4403C24 11.4403 24 11.4454 24 11.4485L23.9998 11.4863C23.9984 11.7777 23.9861 13.1485 23.8769 14.577L23.8646 14.733L23.8515 14.8892C23.7772 15.748 23.6657 16.6009 23.4986 17.227C23.2226 18.2631 22.4095 19.0795 21.3768 19.3563C19.6362 19.8244 13.0231 19.8572 12.1058 19.8595L12.0352 19.8596C12.0294 19.8596 12.0243 19.8596 12.0199 19.8596L11.9911 19.8596C11.9911 19.8596 11.9845 19.8596 11.9801 19.8596L11.8942 19.8595C11.4306 19.8583 9.51231 19.8494 7.50341 19.7804L7.24657 19.7712C7.20371 19.7697 7.16084 19.7681 7.11797 19.7664L6.86083 19.7563L6.60429 19.7454C4.94003 19.6723 3.35325 19.5526 2.6233 19.3563C1.59067 19.0795 0.777522 18.2631 0.501534 17.227C0.334334 16.6009 0.222868 15.748 0.148557 14.8892L0.135451 14.733L0.12314 14.577C0.0178199 13.2005 0.00253152 11.8774 0.000312239 11.5224L4.70427e-05 11.4715C2.84324e-05 11.4669 1.29238e-05 11.4627 0 11.4589V11.4004C1.29238e-05 11.3966 2.84324e-05 11.3924 4.70427e-05 11.3878L0.000312239 11.337C0.00232215 11.0154 0.0150516 9.89995 0.0956714 8.66983L0.106107 8.51551C0.107906 8.48971 0.109736 8.46387 0.111597 8.438L0.12314 8.28245C0.133075 8.15259 0.143813 8.02225 0.155416 7.89221L0.169759 7.73635C0.243595 6.95821 0.349534 6.20162 0.501534 5.63237C0.777522 4.59627 1.59067 3.78004 2.6233 3.50307C3.35325 3.30683 4.94003 3.18713 6.60429 3.1141L6.86083 3.10323L7.11797 3.09308C7.16084 3.09144 7.20371 3.08984 7.24657 3.08826L7.50341 3.07912C9.38409 3.01456 11.1853 3.00261 11.788 3.00039L11.8942 3.00006C11.904 3.00004 11.9132 3.00002 11.9218 3H12.0782ZM9.60005 7.81679V15.0425L15.8352 11.4299L9.60005 7.81679Z" />
</svg>
